G04 #@! TF.FileFunction,Legend,Top*
%FSLAX46Y46*%
G04 Gerber Fmt 4.6, Leading zero omitted, Abs format (unit mm)*
G04 Created by KiCad (PCBNEW 4.0.7) date *
%MOMM*%
%LPD*%
G01*
G04 APERTURE LIST*
%ADD10C,0.100000*%
%ADD11C,0.150000*%
%ADD12C,0.300000*%
%ADD13C,0.120000*%
G04 APERTURE END LIST*
D10*
D11*
X146059047Y-130786190D02*
X146011428Y-130738571D01*
X145916190Y-130690952D01*
X145820952Y-130690952D01*
X145725714Y-130738571D01*
X145678094Y-130786190D01*
X145630475Y-130881429D01*
X145630475Y-130976667D01*
X145678094Y-131071905D01*
X145725714Y-131119524D01*
X145820952Y-131167143D01*
X145916190Y-131167143D01*
X146011428Y-131119524D01*
X146059047Y-131071905D01*
X146059047Y-130690952D02*
X146059047Y-131071905D01*
X146106666Y-131119524D01*
X146154285Y-131119524D01*
X146249523Y-131071905D01*
X146297142Y-130976667D01*
X146297142Y-130738571D01*
X146201904Y-130595714D01*
X146059047Y-130500476D01*
X145868571Y-130452857D01*
X145678094Y-130500476D01*
X145535237Y-130595714D01*
X145439999Y-130738571D01*
X145392380Y-130929048D01*
X145439999Y-131119524D01*
X145535237Y-131262381D01*
X145678094Y-131357619D01*
X145868571Y-131405238D01*
X146059047Y-131357619D01*
X146201904Y-131262381D01*
X147154285Y-131214762D02*
X147059047Y-131262381D01*
X146868570Y-131262381D01*
X146773332Y-131214762D01*
X146725713Y-131167143D01*
X146678094Y-131071905D01*
X146678094Y-130786190D01*
X146725713Y-130690952D01*
X146773332Y-130643333D01*
X146868570Y-130595714D01*
X147059047Y-130595714D01*
X147154285Y-130643333D01*
X147582856Y-131262381D02*
X147582856Y-130262381D01*
X148011428Y-131262381D02*
X148011428Y-130738571D01*
X147963809Y-130643333D01*
X147868571Y-130595714D01*
X147725713Y-130595714D01*
X147630475Y-130643333D01*
X147582856Y-130690952D01*
X148487618Y-131262381D02*
X148487618Y-130595714D01*
X148487618Y-130262381D02*
X148439999Y-130310000D01*
X148487618Y-130357619D01*
X148535237Y-130310000D01*
X148487618Y-130262381D01*
X148487618Y-130357619D01*
X149392380Y-130595714D02*
X149392380Y-131595714D01*
X149392380Y-131214762D02*
X149297142Y-131262381D01*
X149106665Y-131262381D01*
X149011427Y-131214762D01*
X148963808Y-131167143D01*
X148916189Y-131071905D01*
X148916189Y-130786190D01*
X148963808Y-130690952D01*
X149011427Y-130643333D01*
X149106665Y-130595714D01*
X149297142Y-130595714D01*
X149392380Y-130643333D01*
X150011427Y-131262381D02*
X149916189Y-131214762D01*
X149868570Y-131119524D01*
X149868570Y-130262381D01*
X150820952Y-131262381D02*
X150820952Y-130738571D01*
X150773333Y-130643333D01*
X150678095Y-130595714D01*
X150487618Y-130595714D01*
X150392380Y-130643333D01*
X150820952Y-131214762D02*
X150725714Y-131262381D01*
X150487618Y-131262381D01*
X150392380Y-131214762D01*
X150344761Y-131119524D01*
X150344761Y-131024286D01*
X150392380Y-130929048D01*
X150487618Y-130881429D01*
X150725714Y-130881429D01*
X150820952Y-130833810D01*
X151297142Y-130595714D02*
X151297142Y-131595714D01*
X151297142Y-130643333D02*
X151392380Y-130595714D01*
X151582857Y-130595714D01*
X151678095Y-130643333D01*
X151725714Y-130690952D01*
X151773333Y-130786190D01*
X151773333Y-131071905D01*
X151725714Y-131167143D01*
X151678095Y-131214762D01*
X151582857Y-131262381D01*
X151392380Y-131262381D01*
X151297142Y-131214762D01*
X152201904Y-130595714D02*
X152201904Y-131595714D01*
X152201904Y-130643333D02*
X152297142Y-130595714D01*
X152487619Y-130595714D01*
X152582857Y-130643333D01*
X152630476Y-130690952D01*
X152678095Y-130786190D01*
X152678095Y-131071905D01*
X152630476Y-131167143D01*
X152582857Y-131214762D01*
X152487619Y-131262381D01*
X152297142Y-131262381D01*
X152201904Y-131214762D01*
X153487619Y-131214762D02*
X153392381Y-131262381D01*
X153201904Y-131262381D01*
X153106666Y-131214762D01*
X153059047Y-131119524D01*
X153059047Y-130738571D01*
X153106666Y-130643333D01*
X153201904Y-130595714D01*
X153392381Y-130595714D01*
X153487619Y-130643333D01*
X153535238Y-130738571D01*
X153535238Y-130833810D01*
X153059047Y-130929048D01*
X154678095Y-130357619D02*
X154725714Y-130310000D01*
X154820952Y-130262381D01*
X155059048Y-130262381D01*
X155154286Y-130310000D01*
X155201905Y-130357619D01*
X155249524Y-130452857D01*
X155249524Y-130548095D01*
X155201905Y-130690952D01*
X154630476Y-131262381D01*
X155249524Y-131262381D01*
X155868571Y-130262381D02*
X155963810Y-130262381D01*
X156059048Y-130310000D01*
X156106667Y-130357619D01*
X156154286Y-130452857D01*
X156201905Y-130643333D01*
X156201905Y-130881429D01*
X156154286Y-131071905D01*
X156106667Y-131167143D01*
X156059048Y-131214762D01*
X155963810Y-131262381D01*
X155868571Y-131262381D01*
X155773333Y-131214762D01*
X155725714Y-131167143D01*
X155678095Y-131071905D01*
X155630476Y-130881429D01*
X155630476Y-130643333D01*
X155678095Y-130452857D01*
X155725714Y-130357619D01*
X155773333Y-130310000D01*
X155868571Y-130262381D01*
X157154286Y-131262381D02*
X156582857Y-131262381D01*
X156868571Y-131262381D02*
X156868571Y-130262381D01*
X156773333Y-130405238D01*
X156678095Y-130500476D01*
X156582857Y-130548095D01*
X157630476Y-131262381D02*
X157820952Y-131262381D01*
X157916191Y-131214762D01*
X157963810Y-131167143D01*
X158059048Y-131024286D01*
X158106667Y-130833810D01*
X158106667Y-130452857D01*
X158059048Y-130357619D01*
X158011429Y-130310000D01*
X157916191Y-130262381D01*
X157725714Y-130262381D01*
X157630476Y-130310000D01*
X157582857Y-130357619D01*
X157535238Y-130452857D01*
X157535238Y-130690952D01*
X157582857Y-130786190D01*
X157630476Y-130833810D01*
X157725714Y-130881429D01*
X157916191Y-130881429D01*
X158011429Y-130833810D01*
X158059048Y-130786190D01*
X158106667Y-130690952D01*
X159487619Y-130262381D02*
X159678096Y-130262381D01*
X159773334Y-130310000D01*
X159868572Y-130405238D01*
X159916191Y-130595714D01*
X159916191Y-130929048D01*
X159868572Y-131119524D01*
X159773334Y-131214762D01*
X159678096Y-131262381D01*
X159487619Y-131262381D01*
X159392381Y-131214762D01*
X159297143Y-131119524D01*
X159249524Y-130929048D01*
X159249524Y-130595714D01*
X159297143Y-130405238D01*
X159392381Y-130310000D01*
X159487619Y-130262381D01*
X160773334Y-131214762D02*
X160678096Y-131262381D01*
X160487619Y-131262381D01*
X160392381Y-131214762D01*
X160344762Y-131167143D01*
X160297143Y-131071905D01*
X160297143Y-130786190D01*
X160344762Y-130690952D01*
X160392381Y-130643333D01*
X160487619Y-130595714D01*
X160678096Y-130595714D01*
X160773334Y-130643333D01*
X161059048Y-130595714D02*
X161440000Y-130595714D01*
X161201905Y-130262381D02*
X161201905Y-131119524D01*
X161249524Y-131214762D01*
X161344762Y-131262381D01*
X161440000Y-131262381D01*
X161773334Y-131167143D02*
X161820953Y-131214762D01*
X161773334Y-131262381D01*
X161725715Y-131214762D01*
X161773334Y-131167143D01*
X161773334Y-131262381D01*
X162916191Y-130262381D02*
X163535239Y-130262381D01*
X163201905Y-130643333D01*
X163344763Y-130643333D01*
X163440001Y-130690952D01*
X163487620Y-130738571D01*
X163535239Y-130833810D01*
X163535239Y-131071905D01*
X163487620Y-131167143D01*
X163440001Y-131214762D01*
X163344763Y-131262381D01*
X163059048Y-131262381D01*
X162963810Y-131214762D01*
X162916191Y-131167143D01*
X164487620Y-131262381D02*
X163916191Y-131262381D01*
X164201905Y-131262381D02*
X164201905Y-130262381D01*
X164106667Y-130405238D01*
X164011429Y-130500476D01*
X163916191Y-130548095D01*
D12*
X105864287Y-131488571D02*
X105864287Y-129988571D01*
X106435715Y-129988571D01*
X106578573Y-130060000D01*
X106650001Y-130131429D01*
X106721430Y-130274286D01*
X106721430Y-130488571D01*
X106650001Y-130631429D01*
X106578573Y-130702857D01*
X106435715Y-130774286D01*
X105864287Y-130774286D01*
X108221430Y-131345714D02*
X108150001Y-131417143D01*
X107935715Y-131488571D01*
X107792858Y-131488571D01*
X107578573Y-131417143D01*
X107435715Y-131274286D01*
X107364287Y-131131429D01*
X107292858Y-130845714D01*
X107292858Y-130631429D01*
X107364287Y-130345714D01*
X107435715Y-130202857D01*
X107578573Y-130060000D01*
X107792858Y-129988571D01*
X107935715Y-129988571D01*
X108150001Y-130060000D01*
X108221430Y-130131429D01*
X108864287Y-130917143D02*
X110007144Y-130917143D01*
X110935716Y-130631429D02*
X110792858Y-130560000D01*
X110721430Y-130488571D01*
X110650001Y-130345714D01*
X110650001Y-130274286D01*
X110721430Y-130131429D01*
X110792858Y-130060000D01*
X110935716Y-129988571D01*
X111221430Y-129988571D01*
X111364287Y-130060000D01*
X111435716Y-130131429D01*
X111507144Y-130274286D01*
X111507144Y-130345714D01*
X111435716Y-130488571D01*
X111364287Y-130560000D01*
X111221430Y-130631429D01*
X110935716Y-130631429D01*
X110792858Y-130702857D01*
X110721430Y-130774286D01*
X110650001Y-130917143D01*
X110650001Y-131202857D01*
X110721430Y-131345714D01*
X110792858Y-131417143D01*
X110935716Y-131488571D01*
X111221430Y-131488571D01*
X111364287Y-131417143D01*
X111435716Y-131345714D01*
X111507144Y-131202857D01*
X111507144Y-130917143D01*
X111435716Y-130774286D01*
X111364287Y-130702857D01*
X111221430Y-130631429D01*
X112435715Y-129988571D02*
X112578572Y-129988571D01*
X112721429Y-130060000D01*
X112792858Y-130131429D01*
X112864287Y-130274286D01*
X112935715Y-130560000D01*
X112935715Y-130917143D01*
X112864287Y-131202857D01*
X112792858Y-131345714D01*
X112721429Y-131417143D01*
X112578572Y-131488571D01*
X112435715Y-131488571D01*
X112292858Y-131417143D01*
X112221429Y-131345714D01*
X112150001Y-131202857D01*
X112078572Y-130917143D01*
X112078572Y-130560000D01*
X112150001Y-130274286D01*
X112221429Y-130131429D01*
X112292858Y-130060000D01*
X112435715Y-129988571D01*
X113864286Y-129988571D02*
X114007143Y-129988571D01*
X114150000Y-130060000D01*
X114221429Y-130131429D01*
X114292858Y-130274286D01*
X114364286Y-130560000D01*
X114364286Y-130917143D01*
X114292858Y-131202857D01*
X114221429Y-131345714D01*
X114150000Y-131417143D01*
X114007143Y-131488571D01*
X113864286Y-131488571D01*
X113721429Y-131417143D01*
X113650000Y-131345714D01*
X113578572Y-131202857D01*
X113507143Y-130917143D01*
X113507143Y-130560000D01*
X113578572Y-130274286D01*
X113650000Y-130131429D01*
X113721429Y-130060000D01*
X113864286Y-129988571D01*
X115792857Y-131488571D02*
X114935714Y-131488571D01*
X115364286Y-131488571D02*
X115364286Y-129988571D01*
X115221429Y-130202857D01*
X115078571Y-130345714D01*
X114935714Y-130417143D01*
X117792857Y-130631429D02*
X117649999Y-130560000D01*
X117578571Y-130488571D01*
X117507142Y-130345714D01*
X117507142Y-130274286D01*
X117578571Y-130131429D01*
X117649999Y-130060000D01*
X117792857Y-129988571D01*
X118078571Y-129988571D01*
X118221428Y-130060000D01*
X118292857Y-130131429D01*
X118364285Y-130274286D01*
X118364285Y-130345714D01*
X118292857Y-130488571D01*
X118221428Y-130560000D01*
X118078571Y-130631429D01*
X117792857Y-130631429D01*
X117649999Y-130702857D01*
X117578571Y-130774286D01*
X117507142Y-130917143D01*
X117507142Y-131202857D01*
X117578571Y-131345714D01*
X117649999Y-131417143D01*
X117792857Y-131488571D01*
X118078571Y-131488571D01*
X118221428Y-131417143D01*
X118292857Y-131345714D01*
X118364285Y-131202857D01*
X118364285Y-130917143D01*
X118292857Y-130774286D01*
X118221428Y-130702857D01*
X118078571Y-130631429D01*
X119007142Y-131488571D02*
X119007142Y-129988571D01*
X119864285Y-131488571D02*
X119221428Y-130631429D01*
X119864285Y-129988571D02*
X119007142Y-130845714D01*
X121007142Y-130702857D02*
X121221428Y-130774286D01*
X121292856Y-130845714D01*
X121364285Y-130988571D01*
X121364285Y-131202857D01*
X121292856Y-131345714D01*
X121221428Y-131417143D01*
X121078570Y-131488571D01*
X120507142Y-131488571D01*
X120507142Y-129988571D01*
X121007142Y-129988571D01*
X121149999Y-130060000D01*
X121221428Y-130131429D01*
X121292856Y-130274286D01*
X121292856Y-130417143D01*
X121221428Y-130560000D01*
X121149999Y-130631429D01*
X121007142Y-130702857D01*
X120507142Y-130702857D01*
X124007142Y-131488571D02*
X123507142Y-130774286D01*
X123149999Y-131488571D02*
X123149999Y-129988571D01*
X123721427Y-129988571D01*
X123864285Y-130060000D01*
X123935713Y-130131429D01*
X124007142Y-130274286D01*
X124007142Y-130488571D01*
X123935713Y-130631429D01*
X123864285Y-130702857D01*
X123721427Y-130774286D01*
X123149999Y-130774286D01*
X124578570Y-131060000D02*
X125292856Y-131060000D01*
X124435713Y-131488571D02*
X124935713Y-129988571D01*
X125435713Y-131488571D01*
X125935713Y-131488571D02*
X125935713Y-129988571D01*
X126435713Y-131060000D01*
X126935713Y-129988571D01*
X126935713Y-131488571D01*
X129292856Y-130702857D02*
X129507142Y-130774286D01*
X129578570Y-130845714D01*
X129649999Y-130988571D01*
X129649999Y-131202857D01*
X129578570Y-131345714D01*
X129507142Y-131417143D01*
X129364284Y-131488571D01*
X128792856Y-131488571D01*
X128792856Y-129988571D01*
X129292856Y-129988571D01*
X129435713Y-130060000D01*
X129507142Y-130131429D01*
X129578570Y-130274286D01*
X129578570Y-130417143D01*
X129507142Y-130560000D01*
X129435713Y-130631429D01*
X129292856Y-130702857D01*
X128792856Y-130702857D01*
X130578570Y-129988571D02*
X130864284Y-129988571D01*
X131007142Y-130060000D01*
X131149999Y-130202857D01*
X131221427Y-130488571D01*
X131221427Y-130988571D01*
X131149999Y-131274286D01*
X131007142Y-131417143D01*
X130864284Y-131488571D01*
X130578570Y-131488571D01*
X130435713Y-131417143D01*
X130292856Y-131274286D01*
X130221427Y-130988571D01*
X130221427Y-130488571D01*
X130292856Y-130202857D01*
X130435713Y-130060000D01*
X130578570Y-129988571D01*
X131792856Y-131060000D02*
X132507142Y-131060000D01*
X131649999Y-131488571D02*
X132149999Y-129988571D01*
X132649999Y-131488571D01*
X134007142Y-131488571D02*
X133507142Y-130774286D01*
X133149999Y-131488571D02*
X133149999Y-129988571D01*
X133721427Y-129988571D01*
X133864285Y-130060000D01*
X133935713Y-130131429D01*
X134007142Y-130274286D01*
X134007142Y-130488571D01*
X133935713Y-130631429D01*
X133864285Y-130702857D01*
X133721427Y-130774286D01*
X133149999Y-130774286D01*
X134649999Y-131488571D02*
X134649999Y-129988571D01*
X135007142Y-129988571D01*
X135221427Y-130060000D01*
X135364285Y-130202857D01*
X135435713Y-130345714D01*
X135507142Y-130631429D01*
X135507142Y-130845714D01*
X135435713Y-131131429D01*
X135364285Y-131274286D01*
X135221427Y-131417143D01*
X135007142Y-131488571D01*
X134649999Y-131488571D01*
D11*
X152844762Y-115927143D02*
X152797143Y-115974762D01*
X152654286Y-116022381D01*
X152559048Y-116022381D01*
X152416190Y-115974762D01*
X152320952Y-115879524D01*
X152273333Y-115784286D01*
X152225714Y-115593810D01*
X152225714Y-115450952D01*
X152273333Y-115260476D01*
X152320952Y-115165238D01*
X152416190Y-115070000D01*
X152559048Y-115022381D01*
X152654286Y-115022381D01*
X152797143Y-115070000D01*
X152844762Y-115117619D01*
X153844762Y-116022381D02*
X153511428Y-115546190D01*
X153273333Y-116022381D02*
X153273333Y-115022381D01*
X153654286Y-115022381D01*
X153749524Y-115070000D01*
X153797143Y-115117619D01*
X153844762Y-115212857D01*
X153844762Y-115355714D01*
X153797143Y-115450952D01*
X153749524Y-115498571D01*
X153654286Y-115546190D01*
X153273333Y-115546190D01*
X154225714Y-115117619D02*
X154273333Y-115070000D01*
X154368571Y-115022381D01*
X154606667Y-115022381D01*
X154701905Y-115070000D01*
X154749524Y-115117619D01*
X154797143Y-115212857D01*
X154797143Y-115308095D01*
X154749524Y-115450952D01*
X154178095Y-116022381D01*
X154797143Y-116022381D01*
X155416190Y-115022381D02*
X155511429Y-115022381D01*
X155606667Y-115070000D01*
X155654286Y-115117619D01*
X155701905Y-115212857D01*
X155749524Y-115403333D01*
X155749524Y-115641429D01*
X155701905Y-115831905D01*
X155654286Y-115927143D01*
X155606667Y-115974762D01*
X155511429Y-116022381D01*
X155416190Y-116022381D01*
X155320952Y-115974762D01*
X155273333Y-115927143D01*
X155225714Y-115831905D01*
X155178095Y-115641429D01*
X155178095Y-115403333D01*
X155225714Y-115212857D01*
X155273333Y-115117619D01*
X155320952Y-115070000D01*
X155416190Y-115022381D01*
X156082857Y-115022381D02*
X156701905Y-115022381D01*
X156368571Y-115403333D01*
X156511429Y-115403333D01*
X156606667Y-115450952D01*
X156654286Y-115498571D01*
X156701905Y-115593810D01*
X156701905Y-115831905D01*
X156654286Y-115927143D01*
X156606667Y-115974762D01*
X156511429Y-116022381D01*
X156225714Y-116022381D01*
X156130476Y-115974762D01*
X156082857Y-115927143D01*
X157082857Y-115117619D02*
X157130476Y-115070000D01*
X157225714Y-115022381D01*
X157463810Y-115022381D01*
X157559048Y-115070000D01*
X157606667Y-115117619D01*
X157654286Y-115212857D01*
X157654286Y-115308095D01*
X157606667Y-115450952D01*
X157035238Y-116022381D01*
X157654286Y-116022381D01*
X180824286Y-121102381D02*
X180490952Y-120626190D01*
X180252857Y-121102381D02*
X180252857Y-120102381D01*
X180633810Y-120102381D01*
X180729048Y-120150000D01*
X180776667Y-120197619D01*
X180824286Y-120292857D01*
X180824286Y-120435714D01*
X180776667Y-120530952D01*
X180729048Y-120578571D01*
X180633810Y-120626190D01*
X180252857Y-120626190D01*
X181443333Y-120102381D02*
X181633810Y-120102381D01*
X181729048Y-120150000D01*
X181824286Y-120245238D01*
X181871905Y-120435714D01*
X181871905Y-120769048D01*
X181824286Y-120959524D01*
X181729048Y-121054762D01*
X181633810Y-121102381D01*
X181443333Y-121102381D01*
X181348095Y-121054762D01*
X181252857Y-120959524D01*
X181205238Y-120769048D01*
X181205238Y-120435714D01*
X181252857Y-120245238D01*
X181348095Y-120150000D01*
X181443333Y-120102381D01*
X182300476Y-121102381D02*
X182300476Y-120102381D01*
X182633810Y-120816667D01*
X182967143Y-120102381D01*
X182967143Y-121102381D01*
X168219524Y-121102381D02*
X167886190Y-120626190D01*
X167648095Y-121102381D02*
X167648095Y-120102381D01*
X168029048Y-120102381D01*
X168124286Y-120150000D01*
X168171905Y-120197619D01*
X168219524Y-120292857D01*
X168219524Y-120435714D01*
X168171905Y-120530952D01*
X168124286Y-120578571D01*
X168029048Y-120626190D01*
X167648095Y-120626190D01*
X168600476Y-120816667D02*
X169076667Y-120816667D01*
X168505238Y-121102381D02*
X168838571Y-120102381D01*
X169171905Y-121102381D01*
X169505238Y-121102381D02*
X169505238Y-120102381D01*
X169838572Y-120816667D01*
X170171905Y-120102381D01*
X170171905Y-121102381D01*
X154985281Y-128295671D02*
G75*
G02X151440000Y-105850000I-45281J11495671D01*
G01*
X151413616Y-105851754D02*
G75*
G03X151940000Y-105100000I-273616J751754D01*
G01*
X154894719Y-128295671D02*
G75*
G03X158440000Y-105850000I45281J11495671D01*
G01*
X158466384Y-105851754D02*
G75*
G02X157940000Y-105100000I273616J751754D01*
G01*
X157940000Y-99400000D02*
X157940000Y-105100000D01*
X151940000Y-99400000D02*
X157940000Y-99400000D01*
X151940000Y-99400000D02*
X151940000Y-105100000D01*
D13*
X113439000Y-121257000D02*
X113439000Y-120083000D01*
X115161000Y-121257000D02*
X115161000Y-120083000D01*
X113439000Y-103477000D02*
X113439000Y-102303000D01*
X115161000Y-103477000D02*
X115161000Y-102303000D01*
X113439000Y-85697000D02*
X113439000Y-84523000D01*
X115161000Y-85697000D02*
X115161000Y-84523000D01*
X131960000Y-95110000D02*
X131960000Y-97930000D01*
X131960000Y-97930000D02*
X137280000Y-97930000D01*
X137280000Y-97930000D02*
X137280000Y-95110000D01*
X137280000Y-95110000D02*
X131960000Y-95110000D01*
X130620000Y-96520000D02*
X131960000Y-96520000D01*
X138620000Y-96520000D02*
X137280000Y-96520000D01*
X132800000Y-95110000D02*
X132800000Y-97930000D01*
X131960000Y-115430000D02*
X131960000Y-118250000D01*
X131960000Y-118250000D02*
X137280000Y-118250000D01*
X137280000Y-118250000D02*
X137280000Y-115430000D01*
X137280000Y-115430000D02*
X131960000Y-115430000D01*
X130620000Y-116840000D02*
X131960000Y-116840000D01*
X138620000Y-116840000D02*
X137280000Y-116840000D01*
X132800000Y-115430000D02*
X132800000Y-118250000D01*
X174181392Y-111357665D02*
G75*
G03X174024484Y-114590000I1078608J-1672335D01*
G01*
X176338608Y-111357665D02*
G75*
G02X176495516Y-114590000I-1078608J-1672335D01*
G01*
X174180163Y-111988870D02*
G75*
G03X174180000Y-114070961I1079837J-1041130D01*
G01*
X176339837Y-111988870D02*
G75*
G02X176340000Y-114070961I-1079837J-1041130D01*
G01*
X174024000Y-114590000D02*
X174180000Y-114590000D01*
X176340000Y-114590000D02*
X176496000Y-114590000D01*
X113150000Y-117110000D02*
X113150000Y-115340000D01*
X113150000Y-115340000D02*
X95130000Y-115340000D01*
X95130000Y-115340000D02*
X95130000Y-120880000D01*
X95130000Y-120880000D02*
X113150000Y-120880000D01*
X113150000Y-120880000D02*
X113150000Y-119110000D01*
X113150000Y-112910000D02*
X95130000Y-112910000D01*
X95130000Y-112910000D02*
X95130000Y-123310000D01*
X95130000Y-123310000D02*
X113150000Y-123310000D01*
X113150000Y-123310000D02*
X113150000Y-112910000D01*
X113150000Y-119110000D02*
G75*
G02X113150000Y-117110000I0J1000000D01*
G01*
X113150000Y-99330000D02*
X113150000Y-97560000D01*
X113150000Y-97560000D02*
X95130000Y-97560000D01*
X95130000Y-97560000D02*
X95130000Y-103100000D01*
X95130000Y-103100000D02*
X113150000Y-103100000D01*
X113150000Y-103100000D02*
X113150000Y-101330000D01*
X113150000Y-95130000D02*
X95130000Y-95130000D01*
X95130000Y-95130000D02*
X95130000Y-105530000D01*
X95130000Y-105530000D02*
X113150000Y-105530000D01*
X113150000Y-105530000D02*
X113150000Y-95130000D01*
X113150000Y-101330000D02*
G75*
G02X113150000Y-99330000I0J1000000D01*
G01*
X113150000Y-81550000D02*
X113150000Y-79780000D01*
X113150000Y-79780000D02*
X95130000Y-79780000D01*
X95130000Y-79780000D02*
X95130000Y-85320000D01*
X95130000Y-85320000D02*
X113150000Y-85320000D01*
X113150000Y-85320000D02*
X113150000Y-83550000D01*
X113150000Y-77350000D02*
X95130000Y-77350000D01*
X95130000Y-77350000D02*
X95130000Y-87750000D01*
X95130000Y-87750000D02*
X113150000Y-87750000D01*
X113150000Y-87750000D02*
X113150000Y-77350000D01*
X113150000Y-83550000D02*
G75*
G02X113150000Y-81550000I0J1000000D01*
G01*
X158870000Y-81550000D02*
X158870000Y-79780000D01*
X158870000Y-79780000D02*
X123070000Y-79780000D01*
X123070000Y-79780000D02*
X123070000Y-85320000D01*
X123070000Y-85320000D02*
X158870000Y-85320000D01*
X158870000Y-85320000D02*
X158870000Y-83550000D01*
X158870000Y-77350000D02*
X123070000Y-77350000D01*
X123070000Y-77350000D02*
X123070000Y-87750000D01*
X123070000Y-87750000D02*
X158870000Y-87750000D01*
X158870000Y-87750000D02*
X158870000Y-77350000D01*
X158870000Y-83550000D02*
G75*
G02X158870000Y-81550000I0J1000000D01*
G01*
D11*
X132080000Y-100330000D02*
X137160000Y-100330000D01*
X137160000Y-100330000D02*
X137160000Y-102870000D01*
X137160000Y-102870000D02*
X132080000Y-102870000D01*
X132080000Y-102870000D02*
X132080000Y-100330000D01*
X132080000Y-101600000D02*
X130810000Y-101600000D01*
X137160000Y-101600000D02*
X138430000Y-101600000D01*
X132080000Y-105410000D02*
X137160000Y-105410000D01*
X137160000Y-105410000D02*
X137160000Y-107950000D01*
X137160000Y-107950000D02*
X132080000Y-107950000D01*
X132080000Y-107950000D02*
X132080000Y-105410000D01*
X132080000Y-106680000D02*
X130810000Y-106680000D01*
X137160000Y-106680000D02*
X138430000Y-106680000D01*
X132080000Y-110490000D02*
X137160000Y-110490000D01*
X137160000Y-110490000D02*
X137160000Y-113030000D01*
X137160000Y-113030000D02*
X132080000Y-113030000D01*
X132080000Y-113030000D02*
X132080000Y-110490000D01*
X132080000Y-111760000D02*
X130810000Y-111760000D01*
X137160000Y-111760000D02*
X138430000Y-111760000D01*
X132080000Y-120650000D02*
X137160000Y-120650000D01*
X137160000Y-120650000D02*
X137160000Y-123190000D01*
X137160000Y-123190000D02*
X132080000Y-123190000D01*
X132080000Y-123190000D02*
X132080000Y-120650000D01*
X132080000Y-121920000D02*
X130810000Y-121920000D01*
X137160000Y-121920000D02*
X138430000Y-121920000D01*
X172720000Y-90170000D02*
X177800000Y-90170000D01*
X177800000Y-90170000D02*
X177800000Y-92710000D01*
X177800000Y-92710000D02*
X172720000Y-92710000D01*
X172720000Y-92710000D02*
X172720000Y-90170000D01*
X172720000Y-91440000D02*
X171450000Y-91440000D01*
X177800000Y-91440000D02*
X179070000Y-91440000D01*
X172720000Y-95250000D02*
X177800000Y-95250000D01*
X177800000Y-95250000D02*
X177800000Y-97790000D01*
X177800000Y-97790000D02*
X172720000Y-97790000D01*
X172720000Y-97790000D02*
X172720000Y-95250000D01*
X172720000Y-96520000D02*
X171450000Y-96520000D01*
X177800000Y-96520000D02*
X179070000Y-96520000D01*
X172720000Y-100330000D02*
X177800000Y-100330000D01*
X177800000Y-100330000D02*
X177800000Y-102870000D01*
X177800000Y-102870000D02*
X172720000Y-102870000D01*
X172720000Y-102870000D02*
X172720000Y-100330000D01*
X172720000Y-101600000D02*
X171450000Y-101600000D01*
X177800000Y-101600000D02*
X179070000Y-101600000D01*
X172720000Y-105410000D02*
X177800000Y-105410000D01*
X177800000Y-105410000D02*
X177800000Y-107950000D01*
X177800000Y-107950000D02*
X172720000Y-107950000D01*
X172720000Y-107950000D02*
X172720000Y-105410000D01*
X172720000Y-106680000D02*
X171450000Y-106680000D01*
X177800000Y-106680000D02*
X179070000Y-106680000D01*
X179760000Y-118850000D02*
X179760000Y-122450000D01*
X179760000Y-118850000D02*
X178960000Y-118850000D01*
X178960000Y-118850000D02*
X179760000Y-118850000D01*
X178960000Y-122450000D02*
X179760000Y-122450000D01*
X179760000Y-122450000D02*
X178960000Y-122450000D01*
X171560000Y-122450000D02*
X170760000Y-122450000D01*
X170710000Y-118850000D02*
X170710000Y-122450000D01*
X170710000Y-118850000D02*
X171560000Y-118850000D01*
X171560000Y-118850000D02*
X170760000Y-118850000D01*
X125456990Y-121567695D02*
G75*
G03X126160000Y-121080000I-996990J2187695D01*
G01*
X125456990Y-117192305D02*
G75*
G02X126160000Y-117680000I-996990J-2187695D01*
G01*
X126160000Y-121080000D02*
X126160000Y-117680000D01*
X123466873Y-121564879D02*
G75*
G02X122060000Y-119380000I993127J2184879D01*
G01*
X123466873Y-117195121D02*
G75*
G03X122060000Y-119380000I993127J-2184879D01*
G01*
X125456990Y-111407695D02*
G75*
G03X126160000Y-110920000I-996990J2187695D01*
G01*
X125456990Y-107032305D02*
G75*
G02X126160000Y-107520000I-996990J-2187695D01*
G01*
X126160000Y-110920000D02*
X126160000Y-107520000D01*
X123466873Y-111404879D02*
G75*
G02X122060000Y-109220000I993127J2184879D01*
G01*
X123466873Y-107035121D02*
G75*
G03X122060000Y-109220000I993127J-2184879D01*
G01*
D13*
X159159000Y-85697000D02*
X159159000Y-84523000D01*
X160881000Y-85697000D02*
X160881000Y-84523000D01*
D11*
X107950000Y-69850000D02*
X168910000Y-69850000D01*
X168910000Y-64770000D02*
X105410000Y-64770000D01*
X168910000Y-64770000D02*
X168910000Y-69850000D01*
X105410000Y-64770000D02*
X105410000Y-67310000D01*
X105130000Y-68580000D02*
X105130000Y-70130000D01*
X105410000Y-67310000D02*
X107950000Y-67310000D01*
X107950000Y-67310000D02*
X107950000Y-69850000D01*
X105130000Y-70130000D02*
X106680000Y-70130000D01*
X132080000Y-125730000D02*
X137160000Y-125730000D01*
X137160000Y-125730000D02*
X137160000Y-128270000D01*
X137160000Y-128270000D02*
X132080000Y-128270000D01*
X132080000Y-128270000D02*
X132080000Y-125730000D01*
X132080000Y-127000000D02*
X130810000Y-127000000D01*
X137160000Y-127000000D02*
X138430000Y-127000000D01*
X154154286Y-97718571D02*
X154297143Y-97766190D01*
X154344762Y-97813810D01*
X154392381Y-97909048D01*
X154392381Y-98051905D01*
X154344762Y-98147143D01*
X154297143Y-98194762D01*
X154201905Y-98242381D01*
X153820952Y-98242381D01*
X153820952Y-97242381D01*
X154154286Y-97242381D01*
X154249524Y-97290000D01*
X154297143Y-97337619D01*
X154344762Y-97432857D01*
X154344762Y-97528095D01*
X154297143Y-97623333D01*
X154249524Y-97670952D01*
X154154286Y-97718571D01*
X153820952Y-97718571D01*
X154678095Y-97242381D02*
X155249524Y-97242381D01*
X154963809Y-98242381D02*
X154963809Y-97242381D01*
X156106667Y-98242381D02*
X155535238Y-98242381D01*
X155820952Y-98242381D02*
X155820952Y-97242381D01*
X155725714Y-97385238D01*
X155630476Y-97480476D01*
X155535238Y-97528095D01*
X155047143Y-104921428D02*
X155047143Y-103778571D01*
X155618571Y-104350000D02*
X154475714Y-104350000D01*
X116673334Y-121007143D02*
X116625715Y-121054762D01*
X116482858Y-121102381D01*
X116387620Y-121102381D01*
X116244762Y-121054762D01*
X116149524Y-120959524D01*
X116101905Y-120864286D01*
X116054286Y-120673810D01*
X116054286Y-120530952D01*
X116101905Y-120340476D01*
X116149524Y-120245238D01*
X116244762Y-120150000D01*
X116387620Y-120102381D01*
X116482858Y-120102381D01*
X116625715Y-120150000D01*
X116673334Y-120197619D01*
X117625715Y-121102381D02*
X117054286Y-121102381D01*
X117340000Y-121102381D02*
X117340000Y-120102381D01*
X117244762Y-120245238D01*
X117149524Y-120340476D01*
X117054286Y-120388095D01*
X116673334Y-103227143D02*
X116625715Y-103274762D01*
X116482858Y-103322381D01*
X116387620Y-103322381D01*
X116244762Y-103274762D01*
X116149524Y-103179524D01*
X116101905Y-103084286D01*
X116054286Y-102893810D01*
X116054286Y-102750952D01*
X116101905Y-102560476D01*
X116149524Y-102465238D01*
X116244762Y-102370000D01*
X116387620Y-102322381D01*
X116482858Y-102322381D01*
X116625715Y-102370000D01*
X116673334Y-102417619D01*
X117054286Y-102417619D02*
X117101905Y-102370000D01*
X117197143Y-102322381D01*
X117435239Y-102322381D01*
X117530477Y-102370000D01*
X117578096Y-102417619D01*
X117625715Y-102512857D01*
X117625715Y-102608095D01*
X117578096Y-102750952D01*
X117006667Y-103322381D01*
X117625715Y-103322381D01*
X116673334Y-85447143D02*
X116625715Y-85494762D01*
X116482858Y-85542381D01*
X116387620Y-85542381D01*
X116244762Y-85494762D01*
X116149524Y-85399524D01*
X116101905Y-85304286D01*
X116054286Y-85113810D01*
X116054286Y-84970952D01*
X116101905Y-84780476D01*
X116149524Y-84685238D01*
X116244762Y-84590000D01*
X116387620Y-84542381D01*
X116482858Y-84542381D01*
X116625715Y-84590000D01*
X116673334Y-84637619D01*
X117006667Y-84542381D02*
X117625715Y-84542381D01*
X117292381Y-84923333D01*
X117435239Y-84923333D01*
X117530477Y-84970952D01*
X117578096Y-85018571D01*
X117625715Y-85113810D01*
X117625715Y-85351905D01*
X117578096Y-85447143D01*
X117530477Y-85494762D01*
X117435239Y-85542381D01*
X117149524Y-85542381D01*
X117054286Y-85494762D01*
X117006667Y-85447143D01*
X133881905Y-94432381D02*
X133881905Y-93432381D01*
X134120000Y-93432381D01*
X134262858Y-93480000D01*
X134358096Y-93575238D01*
X134405715Y-93670476D01*
X134453334Y-93860952D01*
X134453334Y-94003810D01*
X134405715Y-94194286D01*
X134358096Y-94289524D01*
X134262858Y-94384762D01*
X134120000Y-94432381D01*
X133881905Y-94432381D01*
X135405715Y-94432381D02*
X134834286Y-94432381D01*
X135120000Y-94432381D02*
X135120000Y-93432381D01*
X135024762Y-93575238D01*
X134929524Y-93670476D01*
X134834286Y-93718095D01*
X132905714Y-96881905D02*
X132448571Y-96881905D01*
X132677142Y-96881905D02*
X132677142Y-96081905D01*
X132600952Y-96196190D01*
X132524761Y-96272381D01*
X132448571Y-96310476D01*
X133248571Y-96881905D02*
X133248571Y-96081905D01*
X133705714Y-96881905D01*
X133705714Y-96081905D01*
X134429523Y-96348571D02*
X134429523Y-96881905D01*
X134239047Y-96043810D02*
X134048571Y-96615238D01*
X134543809Y-96615238D01*
X135000952Y-96081905D02*
X135077143Y-96081905D01*
X135153333Y-96120000D01*
X135191428Y-96158095D01*
X135229524Y-96234286D01*
X135267619Y-96386667D01*
X135267619Y-96577143D01*
X135229524Y-96729524D01*
X135191428Y-96805714D01*
X135153333Y-96843810D01*
X135077143Y-96881905D01*
X135000952Y-96881905D01*
X134924762Y-96843810D01*
X134886666Y-96805714D01*
X134848571Y-96729524D01*
X134810476Y-96577143D01*
X134810476Y-96386667D01*
X134848571Y-96234286D01*
X134886666Y-96158095D01*
X134924762Y-96120000D01*
X135000952Y-96081905D01*
X135762857Y-96081905D02*
X135839048Y-96081905D01*
X135915238Y-96120000D01*
X135953333Y-96158095D01*
X135991429Y-96234286D01*
X136029524Y-96386667D01*
X136029524Y-96577143D01*
X135991429Y-96729524D01*
X135953333Y-96805714D01*
X135915238Y-96843810D01*
X135839048Y-96881905D01*
X135762857Y-96881905D01*
X135686667Y-96843810D01*
X135648571Y-96805714D01*
X135610476Y-96729524D01*
X135572381Y-96577143D01*
X135572381Y-96386667D01*
X135610476Y-96234286D01*
X135648571Y-96158095D01*
X135686667Y-96120000D01*
X135762857Y-96081905D01*
X136296191Y-96081905D02*
X136829524Y-96081905D01*
X136486667Y-96881905D01*
X133881905Y-114752381D02*
X133881905Y-113752381D01*
X134120000Y-113752381D01*
X134262858Y-113800000D01*
X134358096Y-113895238D01*
X134405715Y-113990476D01*
X134453334Y-114180952D01*
X134453334Y-114323810D01*
X134405715Y-114514286D01*
X134358096Y-114609524D01*
X134262858Y-114704762D01*
X134120000Y-114752381D01*
X133881905Y-114752381D01*
X134834286Y-113847619D02*
X134881905Y-113800000D01*
X134977143Y-113752381D01*
X135215239Y-113752381D01*
X135310477Y-113800000D01*
X135358096Y-113847619D01*
X135405715Y-113942857D01*
X135405715Y-114038095D01*
X135358096Y-114180952D01*
X134786667Y-114752381D01*
X135405715Y-114752381D01*
X133239048Y-117292381D02*
X132905714Y-116816190D01*
X132667619Y-117292381D02*
X132667619Y-116292381D01*
X133048572Y-116292381D01*
X133143810Y-116340000D01*
X133191429Y-116387619D01*
X133239048Y-116482857D01*
X133239048Y-116625714D01*
X133191429Y-116720952D01*
X133143810Y-116768571D01*
X133048572Y-116816190D01*
X132667619Y-116816190D01*
X133667619Y-117292381D02*
X133667619Y-116292381D01*
X133905714Y-116292381D01*
X134048572Y-116340000D01*
X134143810Y-116435238D01*
X134191429Y-116530476D01*
X134239048Y-116720952D01*
X134239048Y-116863810D01*
X134191429Y-117054286D01*
X134143810Y-117149524D01*
X134048572Y-117244762D01*
X133905714Y-117292381D01*
X133667619Y-117292381D01*
X135096191Y-116625714D02*
X135096191Y-117292381D01*
X134858095Y-116244762D02*
X134620000Y-116959048D01*
X135239048Y-116959048D01*
X135620000Y-117197143D02*
X135667619Y-117244762D01*
X135620000Y-117292381D01*
X135572381Y-117244762D01*
X135620000Y-117197143D01*
X135620000Y-117292381D01*
X136048571Y-116387619D02*
X136096190Y-116340000D01*
X136191428Y-116292381D01*
X136429524Y-116292381D01*
X136524762Y-116340000D01*
X136572381Y-116387619D01*
X136620000Y-116482857D01*
X136620000Y-116578095D01*
X136572381Y-116720952D01*
X136000952Y-117292381D01*
X136620000Y-117292381D01*
X170711905Y-113482381D02*
X170711905Y-112482381D01*
X170950000Y-112482381D01*
X171092858Y-112530000D01*
X171188096Y-112625238D01*
X171235715Y-112720476D01*
X171283334Y-112910952D01*
X171283334Y-113053810D01*
X171235715Y-113244286D01*
X171188096Y-113339524D01*
X171092858Y-113434762D01*
X170950000Y-113482381D01*
X170711905Y-113482381D01*
X171616667Y-112482381D02*
X172235715Y-112482381D01*
X171902381Y-112863333D01*
X172045239Y-112863333D01*
X172140477Y-112910952D01*
X172188096Y-112958571D01*
X172235715Y-113053810D01*
X172235715Y-113291905D01*
X172188096Y-113387143D01*
X172140477Y-113434762D01*
X172045239Y-113482381D01*
X171759524Y-113482381D01*
X171664286Y-113434762D01*
X171616667Y-113387143D01*
X103163810Y-112212381D02*
X103163810Y-111212381D01*
X104211429Y-112117143D02*
X104163810Y-112164762D01*
X104020953Y-112212381D01*
X103925715Y-112212381D01*
X103782857Y-112164762D01*
X103687619Y-112069524D01*
X103640000Y-111974286D01*
X103592381Y-111783810D01*
X103592381Y-111640952D01*
X103640000Y-111450476D01*
X103687619Y-111355238D01*
X103782857Y-111260000D01*
X103925715Y-111212381D01*
X104020953Y-111212381D01*
X104163810Y-111260000D01*
X104211429Y-111307619D01*
X105163810Y-112212381D02*
X104592381Y-112212381D01*
X104878095Y-112212381D02*
X104878095Y-111212381D01*
X104782857Y-111355238D01*
X104687619Y-111450476D01*
X104592381Y-111498095D01*
X101354286Y-117562381D02*
X102020953Y-117562381D01*
X101592381Y-118562381D01*
X102830477Y-117895714D02*
X102830477Y-118562381D01*
X102592381Y-117514762D02*
X102354286Y-118229048D01*
X102973334Y-118229048D01*
X103354286Y-118562381D02*
X103354286Y-117562381D01*
X103354286Y-118038571D02*
X103925715Y-118038571D01*
X103925715Y-118562381D02*
X103925715Y-117562381D01*
X104973334Y-118467143D02*
X104925715Y-118514762D01*
X104782858Y-118562381D01*
X104687620Y-118562381D01*
X104544762Y-118514762D01*
X104449524Y-118419524D01*
X104401905Y-118324286D01*
X104354286Y-118133810D01*
X104354286Y-117990952D01*
X104401905Y-117800476D01*
X104449524Y-117705238D01*
X104544762Y-117610000D01*
X104687620Y-117562381D01*
X104782858Y-117562381D01*
X104925715Y-117610000D01*
X104973334Y-117657619D01*
X105306667Y-117562381D02*
X105925715Y-117562381D01*
X105592381Y-117943333D01*
X105735239Y-117943333D01*
X105830477Y-117990952D01*
X105878096Y-118038571D01*
X105925715Y-118133810D01*
X105925715Y-118371905D01*
X105878096Y-118467143D01*
X105830477Y-118514762D01*
X105735239Y-118562381D01*
X105449524Y-118562381D01*
X105354286Y-118514762D01*
X105306667Y-118467143D01*
X106306667Y-117657619D02*
X106354286Y-117610000D01*
X106449524Y-117562381D01*
X106687620Y-117562381D01*
X106782858Y-117610000D01*
X106830477Y-117657619D01*
X106878096Y-117752857D01*
X106878096Y-117848095D01*
X106830477Y-117990952D01*
X106259048Y-118562381D01*
X106878096Y-118562381D01*
X103163810Y-94432381D02*
X103163810Y-93432381D01*
X104211429Y-94337143D02*
X104163810Y-94384762D01*
X104020953Y-94432381D01*
X103925715Y-94432381D01*
X103782857Y-94384762D01*
X103687619Y-94289524D01*
X103640000Y-94194286D01*
X103592381Y-94003810D01*
X103592381Y-93860952D01*
X103640000Y-93670476D01*
X103687619Y-93575238D01*
X103782857Y-93480000D01*
X103925715Y-93432381D01*
X104020953Y-93432381D01*
X104163810Y-93480000D01*
X104211429Y-93527619D01*
X104592381Y-93527619D02*
X104640000Y-93480000D01*
X104735238Y-93432381D01*
X104973334Y-93432381D01*
X105068572Y-93480000D01*
X105116191Y-93527619D01*
X105163810Y-93622857D01*
X105163810Y-93718095D01*
X105116191Y-93860952D01*
X104544762Y-94432381D01*
X105163810Y-94432381D01*
X101354286Y-99782381D02*
X102020953Y-99782381D01*
X101592381Y-100782381D01*
X102830477Y-100115714D02*
X102830477Y-100782381D01*
X102592381Y-99734762D02*
X102354286Y-100449048D01*
X102973334Y-100449048D01*
X103354286Y-100782381D02*
X103354286Y-99782381D01*
X103354286Y-100258571D02*
X103925715Y-100258571D01*
X103925715Y-100782381D02*
X103925715Y-99782381D01*
X104973334Y-100687143D02*
X104925715Y-100734762D01*
X104782858Y-100782381D01*
X104687620Y-100782381D01*
X104544762Y-100734762D01*
X104449524Y-100639524D01*
X104401905Y-100544286D01*
X104354286Y-100353810D01*
X104354286Y-100210952D01*
X104401905Y-100020476D01*
X104449524Y-99925238D01*
X104544762Y-99830000D01*
X104687620Y-99782381D01*
X104782858Y-99782381D01*
X104925715Y-99830000D01*
X104973334Y-99877619D01*
X105354286Y-99877619D02*
X105401905Y-99830000D01*
X105497143Y-99782381D01*
X105735239Y-99782381D01*
X105830477Y-99830000D01*
X105878096Y-99877619D01*
X105925715Y-99972857D01*
X105925715Y-100068095D01*
X105878096Y-100210952D01*
X105306667Y-100782381D01*
X105925715Y-100782381D01*
X106544762Y-99782381D02*
X106640001Y-99782381D01*
X106735239Y-99830000D01*
X106782858Y-99877619D01*
X106830477Y-99972857D01*
X106878096Y-100163333D01*
X106878096Y-100401429D01*
X106830477Y-100591905D01*
X106782858Y-100687143D01*
X106735239Y-100734762D01*
X106640001Y-100782381D01*
X106544762Y-100782381D01*
X106449524Y-100734762D01*
X106401905Y-100687143D01*
X106354286Y-100591905D01*
X106306667Y-100401429D01*
X106306667Y-100163333D01*
X106354286Y-99972857D01*
X106401905Y-99877619D01*
X106449524Y-99830000D01*
X106544762Y-99782381D01*
X103163810Y-76652381D02*
X103163810Y-75652381D01*
X104211429Y-76557143D02*
X104163810Y-76604762D01*
X104020953Y-76652381D01*
X103925715Y-76652381D01*
X103782857Y-76604762D01*
X103687619Y-76509524D01*
X103640000Y-76414286D01*
X103592381Y-76223810D01*
X103592381Y-76080952D01*
X103640000Y-75890476D01*
X103687619Y-75795238D01*
X103782857Y-75700000D01*
X103925715Y-75652381D01*
X104020953Y-75652381D01*
X104163810Y-75700000D01*
X104211429Y-75747619D01*
X104544762Y-75652381D02*
X105163810Y-75652381D01*
X104830476Y-76033333D01*
X104973334Y-76033333D01*
X105068572Y-76080952D01*
X105116191Y-76128571D01*
X105163810Y-76223810D01*
X105163810Y-76461905D01*
X105116191Y-76557143D01*
X105068572Y-76604762D01*
X104973334Y-76652381D01*
X104687619Y-76652381D01*
X104592381Y-76604762D01*
X104544762Y-76557143D01*
X101354286Y-82002381D02*
X102020953Y-82002381D01*
X101592381Y-83002381D01*
X102830477Y-82335714D02*
X102830477Y-83002381D01*
X102592381Y-81954762D02*
X102354286Y-82669048D01*
X102973334Y-82669048D01*
X103354286Y-83002381D02*
X103354286Y-82002381D01*
X103354286Y-82478571D02*
X103925715Y-82478571D01*
X103925715Y-83002381D02*
X103925715Y-82002381D01*
X104973334Y-82907143D02*
X104925715Y-82954762D01*
X104782858Y-83002381D01*
X104687620Y-83002381D01*
X104544762Y-82954762D01*
X104449524Y-82859524D01*
X104401905Y-82764286D01*
X104354286Y-82573810D01*
X104354286Y-82430952D01*
X104401905Y-82240476D01*
X104449524Y-82145238D01*
X104544762Y-82050000D01*
X104687620Y-82002381D01*
X104782858Y-82002381D01*
X104925715Y-82050000D01*
X104973334Y-82097619D01*
X105592381Y-82002381D02*
X105687620Y-82002381D01*
X105782858Y-82050000D01*
X105830477Y-82097619D01*
X105878096Y-82192857D01*
X105925715Y-82383333D01*
X105925715Y-82621429D01*
X105878096Y-82811905D01*
X105830477Y-82907143D01*
X105782858Y-82954762D01*
X105687620Y-83002381D01*
X105592381Y-83002381D01*
X105497143Y-82954762D01*
X105449524Y-82907143D01*
X105401905Y-82811905D01*
X105354286Y-82621429D01*
X105354286Y-82383333D01*
X105401905Y-82192857D01*
X105449524Y-82097619D01*
X105497143Y-82050000D01*
X105592381Y-82002381D01*
X106782858Y-82335714D02*
X106782858Y-83002381D01*
X106544762Y-81954762D02*
X106306667Y-82669048D01*
X106925715Y-82669048D01*
X139993810Y-76652381D02*
X139993810Y-75652381D01*
X141041429Y-76557143D02*
X140993810Y-76604762D01*
X140850953Y-76652381D01*
X140755715Y-76652381D01*
X140612857Y-76604762D01*
X140517619Y-76509524D01*
X140470000Y-76414286D01*
X140422381Y-76223810D01*
X140422381Y-76080952D01*
X140470000Y-75890476D01*
X140517619Y-75795238D01*
X140612857Y-75700000D01*
X140755715Y-75652381D01*
X140850953Y-75652381D01*
X140993810Y-75700000D01*
X141041429Y-75747619D01*
X141898572Y-75985714D02*
X141898572Y-76652381D01*
X141660476Y-75604762D02*
X141422381Y-76319048D01*
X142041429Y-76319048D01*
X134231905Y-83002381D02*
X134231905Y-82002381D01*
X134565239Y-82716667D01*
X134898572Y-82002381D01*
X134898572Y-83002381D01*
X135708096Y-82478571D02*
X135850953Y-82526190D01*
X135898572Y-82573810D01*
X135946191Y-82669048D01*
X135946191Y-82811905D01*
X135898572Y-82907143D01*
X135850953Y-82954762D01*
X135755715Y-83002381D01*
X135374762Y-83002381D01*
X135374762Y-82002381D01*
X135708096Y-82002381D01*
X135803334Y-82050000D01*
X135850953Y-82097619D01*
X135898572Y-82192857D01*
X135898572Y-82288095D01*
X135850953Y-82383333D01*
X135803334Y-82430952D01*
X135708096Y-82478571D01*
X135374762Y-82478571D01*
X136517619Y-82430952D02*
X136422381Y-82383333D01*
X136374762Y-82335714D01*
X136327143Y-82240476D01*
X136327143Y-82192857D01*
X136374762Y-82097619D01*
X136422381Y-82050000D01*
X136517619Y-82002381D01*
X136708096Y-82002381D01*
X136803334Y-82050000D01*
X136850953Y-82097619D01*
X136898572Y-82192857D01*
X136898572Y-82240476D01*
X136850953Y-82335714D01*
X136803334Y-82383333D01*
X136708096Y-82430952D01*
X136517619Y-82430952D01*
X136422381Y-82478571D01*
X136374762Y-82526190D01*
X136327143Y-82621429D01*
X136327143Y-82811905D01*
X136374762Y-82907143D01*
X136422381Y-82954762D01*
X136517619Y-83002381D01*
X136708096Y-83002381D01*
X136803334Y-82954762D01*
X136850953Y-82907143D01*
X136898572Y-82811905D01*
X136898572Y-82621429D01*
X136850953Y-82526190D01*
X136803334Y-82478571D01*
X136708096Y-82430952D01*
X137755715Y-82335714D02*
X137755715Y-83002381D01*
X137517619Y-81954762D02*
X137279524Y-82669048D01*
X137898572Y-82669048D01*
X138708096Y-82002381D02*
X138517619Y-82002381D01*
X138422381Y-82050000D01*
X138374762Y-82097619D01*
X138279524Y-82240476D01*
X138231905Y-82430952D01*
X138231905Y-82811905D01*
X138279524Y-82907143D01*
X138327143Y-82954762D01*
X138422381Y-83002381D01*
X138612858Y-83002381D01*
X138708096Y-82954762D01*
X138755715Y-82907143D01*
X138803334Y-82811905D01*
X138803334Y-82573810D01*
X138755715Y-82478571D01*
X138708096Y-82430952D01*
X138612858Y-82383333D01*
X138422381Y-82383333D01*
X138327143Y-82430952D01*
X138279524Y-82478571D01*
X138231905Y-82573810D01*
X139660477Y-82335714D02*
X139660477Y-83002381D01*
X139422381Y-81954762D02*
X139184286Y-82669048D01*
X139803334Y-82669048D01*
X140136667Y-82716667D02*
X140612858Y-82716667D01*
X140041429Y-83002381D02*
X140374762Y-82002381D01*
X140708096Y-83002381D01*
X141041429Y-82621429D02*
X141803334Y-82621429D01*
X142803334Y-83002381D02*
X142231905Y-83002381D01*
X142517619Y-83002381D02*
X142517619Y-82002381D01*
X142422381Y-82145238D01*
X142327143Y-82240476D01*
X142231905Y-82288095D01*
X143422381Y-82002381D02*
X143517620Y-82002381D01*
X143612858Y-82050000D01*
X143660477Y-82097619D01*
X143708096Y-82192857D01*
X143755715Y-82383333D01*
X143755715Y-82621429D01*
X143708096Y-82811905D01*
X143660477Y-82907143D01*
X143612858Y-82954762D01*
X143517620Y-83002381D01*
X143422381Y-83002381D01*
X143327143Y-82954762D01*
X143279524Y-82907143D01*
X143231905Y-82811905D01*
X143184286Y-82621429D01*
X143184286Y-82383333D01*
X143231905Y-82192857D01*
X143279524Y-82097619D01*
X143327143Y-82050000D01*
X143422381Y-82002381D01*
X144660477Y-83002381D02*
X144184286Y-83002381D01*
X144184286Y-82002381D01*
X144993810Y-82621429D02*
X145755715Y-82621429D01*
X146184286Y-82954762D02*
X146327143Y-83002381D01*
X146565239Y-83002381D01*
X146660477Y-82954762D01*
X146708096Y-82907143D01*
X146755715Y-82811905D01*
X146755715Y-82716667D01*
X146708096Y-82621429D01*
X146660477Y-82573810D01*
X146565239Y-82526190D01*
X146374762Y-82478571D01*
X146279524Y-82430952D01*
X146231905Y-82383333D01*
X146184286Y-82288095D01*
X146184286Y-82192857D01*
X146231905Y-82097619D01*
X146279524Y-82050000D01*
X146374762Y-82002381D01*
X146612858Y-82002381D01*
X146755715Y-82050000D01*
X147184286Y-83002381D02*
X147184286Y-82002381D01*
X147755715Y-83002381D02*
X147327143Y-82430952D01*
X147755715Y-82002381D02*
X147184286Y-82573810D01*
X134453334Y-99512381D02*
X134120000Y-99036190D01*
X133881905Y-99512381D02*
X133881905Y-98512381D01*
X134262858Y-98512381D01*
X134358096Y-98560000D01*
X134405715Y-98607619D01*
X134453334Y-98702857D01*
X134453334Y-98845714D01*
X134405715Y-98940952D01*
X134358096Y-98988571D01*
X134262858Y-99036190D01*
X133881905Y-99036190D01*
X135405715Y-99512381D02*
X134834286Y-99512381D01*
X135120000Y-99512381D02*
X135120000Y-98512381D01*
X135024762Y-98655238D01*
X134929524Y-98750476D01*
X134834286Y-98798095D01*
X133834286Y-101385714D02*
X133834286Y-102052381D01*
X133596190Y-101004762D02*
X133358095Y-101719048D01*
X133977143Y-101719048D01*
X134262857Y-101052381D02*
X134881905Y-101052381D01*
X134548571Y-101433333D01*
X134691429Y-101433333D01*
X134786667Y-101480952D01*
X134834286Y-101528571D01*
X134881905Y-101623810D01*
X134881905Y-101861905D01*
X134834286Y-101957143D01*
X134786667Y-102004762D01*
X134691429Y-102052381D01*
X134405714Y-102052381D01*
X134310476Y-102004762D01*
X134262857Y-101957143D01*
X135310476Y-102052381D02*
X135310476Y-101052381D01*
X135881905Y-102052381D02*
X135453333Y-101480952D01*
X135881905Y-101052381D02*
X135310476Y-101623810D01*
X134453334Y-104592381D02*
X134120000Y-104116190D01*
X133881905Y-104592381D02*
X133881905Y-103592381D01*
X134262858Y-103592381D01*
X134358096Y-103640000D01*
X134405715Y-103687619D01*
X134453334Y-103782857D01*
X134453334Y-103925714D01*
X134405715Y-104020952D01*
X134358096Y-104068571D01*
X134262858Y-104116190D01*
X133881905Y-104116190D01*
X134834286Y-103687619D02*
X134881905Y-103640000D01*
X134977143Y-103592381D01*
X135215239Y-103592381D01*
X135310477Y-103640000D01*
X135358096Y-103687619D01*
X135405715Y-103782857D01*
X135405715Y-103878095D01*
X135358096Y-104020952D01*
X134786667Y-104592381D01*
X135405715Y-104592381D01*
X133691429Y-107132381D02*
X133120000Y-107132381D01*
X133405714Y-107132381D02*
X133405714Y-106132381D01*
X133310476Y-106275238D01*
X133215238Y-106370476D01*
X133120000Y-106418095D01*
X134120000Y-107037143D02*
X134167619Y-107084762D01*
X134120000Y-107132381D01*
X134072381Y-107084762D01*
X134120000Y-107037143D01*
X134120000Y-107132381D01*
X134548571Y-106227619D02*
X134596190Y-106180000D01*
X134691428Y-106132381D01*
X134929524Y-106132381D01*
X135024762Y-106180000D01*
X135072381Y-106227619D01*
X135120000Y-106322857D01*
X135120000Y-106418095D01*
X135072381Y-106560952D01*
X134500952Y-107132381D01*
X135120000Y-107132381D01*
X135548571Y-107132381D02*
X135548571Y-106132381D01*
X136120000Y-107132381D02*
X135691428Y-106560952D01*
X136120000Y-106132381D02*
X135548571Y-106703810D01*
X134453334Y-109672381D02*
X134120000Y-109196190D01*
X133881905Y-109672381D02*
X133881905Y-108672381D01*
X134262858Y-108672381D01*
X134358096Y-108720000D01*
X134405715Y-108767619D01*
X134453334Y-108862857D01*
X134453334Y-109005714D01*
X134405715Y-109100952D01*
X134358096Y-109148571D01*
X134262858Y-109196190D01*
X133881905Y-109196190D01*
X134786667Y-108672381D02*
X135405715Y-108672381D01*
X135072381Y-109053333D01*
X135215239Y-109053333D01*
X135310477Y-109100952D01*
X135358096Y-109148571D01*
X135405715Y-109243810D01*
X135405715Y-109481905D01*
X135358096Y-109577143D01*
X135310477Y-109624762D01*
X135215239Y-109672381D01*
X134929524Y-109672381D01*
X134834286Y-109624762D01*
X134786667Y-109577143D01*
X134405715Y-112212381D02*
X133834286Y-112212381D01*
X134120000Y-112212381D02*
X134120000Y-111212381D01*
X134024762Y-111355238D01*
X133929524Y-111450476D01*
X133834286Y-111498095D01*
X134834286Y-112212381D02*
X134834286Y-111212381D01*
X135405715Y-112212381D02*
X134977143Y-111640952D01*
X135405715Y-111212381D02*
X134834286Y-111783810D01*
X134453334Y-119832381D02*
X134120000Y-119356190D01*
X133881905Y-119832381D02*
X133881905Y-118832381D01*
X134262858Y-118832381D01*
X134358096Y-118880000D01*
X134405715Y-118927619D01*
X134453334Y-119022857D01*
X134453334Y-119165714D01*
X134405715Y-119260952D01*
X134358096Y-119308571D01*
X134262858Y-119356190D01*
X133881905Y-119356190D01*
X135310477Y-119165714D02*
X135310477Y-119832381D01*
X135072381Y-118784762D02*
X134834286Y-119499048D01*
X135453334Y-119499048D01*
X133120000Y-121467619D02*
X133167619Y-121420000D01*
X133262857Y-121372381D01*
X133500953Y-121372381D01*
X133596191Y-121420000D01*
X133643810Y-121467619D01*
X133691429Y-121562857D01*
X133691429Y-121658095D01*
X133643810Y-121800952D01*
X133072381Y-122372381D01*
X133691429Y-122372381D01*
X134120000Y-122277143D02*
X134167619Y-122324762D01*
X134120000Y-122372381D01*
X134072381Y-122324762D01*
X134120000Y-122277143D01*
X134120000Y-122372381D01*
X134548571Y-121467619D02*
X134596190Y-121420000D01*
X134691428Y-121372381D01*
X134929524Y-121372381D01*
X135024762Y-121420000D01*
X135072381Y-121467619D01*
X135120000Y-121562857D01*
X135120000Y-121658095D01*
X135072381Y-121800952D01*
X134500952Y-122372381D01*
X135120000Y-122372381D01*
X135548571Y-122372381D02*
X135548571Y-121372381D01*
X136120000Y-122372381D02*
X135691428Y-121800952D01*
X136120000Y-121372381D02*
X135548571Y-121943810D01*
X175093334Y-89352381D02*
X174760000Y-88876190D01*
X174521905Y-89352381D02*
X174521905Y-88352381D01*
X174902858Y-88352381D01*
X174998096Y-88400000D01*
X175045715Y-88447619D01*
X175093334Y-88542857D01*
X175093334Y-88685714D01*
X175045715Y-88780952D01*
X174998096Y-88828571D01*
X174902858Y-88876190D01*
X174521905Y-88876190D01*
X175950477Y-88352381D02*
X175760000Y-88352381D01*
X175664762Y-88400000D01*
X175617143Y-88447619D01*
X175521905Y-88590476D01*
X175474286Y-88780952D01*
X175474286Y-89161905D01*
X175521905Y-89257143D01*
X175569524Y-89304762D01*
X175664762Y-89352381D01*
X175855239Y-89352381D01*
X175950477Y-89304762D01*
X175998096Y-89257143D01*
X176045715Y-89161905D01*
X176045715Y-88923810D01*
X175998096Y-88828571D01*
X175950477Y-88780952D01*
X175855239Y-88733333D01*
X175664762Y-88733333D01*
X175569524Y-88780952D01*
X175521905Y-88828571D01*
X175474286Y-88923810D01*
X174569524Y-91892381D02*
X173998095Y-91892381D01*
X174283809Y-91892381D02*
X174283809Y-90892381D01*
X174188571Y-91035238D01*
X174093333Y-91130476D01*
X173998095Y-91178095D01*
X175188571Y-90892381D02*
X175283810Y-90892381D01*
X175379048Y-90940000D01*
X175426667Y-90987619D01*
X175474286Y-91082857D01*
X175521905Y-91273333D01*
X175521905Y-91511429D01*
X175474286Y-91701905D01*
X175426667Y-91797143D01*
X175379048Y-91844762D01*
X175283810Y-91892381D01*
X175188571Y-91892381D01*
X175093333Y-91844762D01*
X175045714Y-91797143D01*
X174998095Y-91701905D01*
X174950476Y-91511429D01*
X174950476Y-91273333D01*
X174998095Y-91082857D01*
X175045714Y-90987619D01*
X175093333Y-90940000D01*
X175188571Y-90892381D01*
X175950476Y-91892381D02*
X175950476Y-90892381D01*
X176521905Y-91892381D02*
X176093333Y-91320952D01*
X176521905Y-90892381D02*
X175950476Y-91463810D01*
X175093334Y-94432381D02*
X174760000Y-93956190D01*
X174521905Y-94432381D02*
X174521905Y-93432381D01*
X174902858Y-93432381D01*
X174998096Y-93480000D01*
X175045715Y-93527619D01*
X175093334Y-93622857D01*
X175093334Y-93765714D01*
X175045715Y-93860952D01*
X174998096Y-93908571D01*
X174902858Y-93956190D01*
X174521905Y-93956190D01*
X175426667Y-93432381D02*
X176093334Y-93432381D01*
X175664762Y-94432381D01*
X174569524Y-96972381D02*
X173998095Y-96972381D01*
X174283809Y-96972381D02*
X174283809Y-95972381D01*
X174188571Y-96115238D01*
X174093333Y-96210476D01*
X173998095Y-96258095D01*
X175188571Y-95972381D02*
X175283810Y-95972381D01*
X175379048Y-96020000D01*
X175426667Y-96067619D01*
X175474286Y-96162857D01*
X175521905Y-96353333D01*
X175521905Y-96591429D01*
X175474286Y-96781905D01*
X175426667Y-96877143D01*
X175379048Y-96924762D01*
X175283810Y-96972381D01*
X175188571Y-96972381D01*
X175093333Y-96924762D01*
X175045714Y-96877143D01*
X174998095Y-96781905D01*
X174950476Y-96591429D01*
X174950476Y-96353333D01*
X174998095Y-96162857D01*
X175045714Y-96067619D01*
X175093333Y-96020000D01*
X175188571Y-95972381D01*
X175950476Y-96972381D02*
X175950476Y-95972381D01*
X176521905Y-96972381D02*
X176093333Y-96400952D01*
X176521905Y-95972381D02*
X175950476Y-96543810D01*
X175093334Y-99512381D02*
X174760000Y-99036190D01*
X174521905Y-99512381D02*
X174521905Y-98512381D01*
X174902858Y-98512381D01*
X174998096Y-98560000D01*
X175045715Y-98607619D01*
X175093334Y-98702857D01*
X175093334Y-98845714D01*
X175045715Y-98940952D01*
X174998096Y-98988571D01*
X174902858Y-99036190D01*
X174521905Y-99036190D01*
X175664762Y-98940952D02*
X175569524Y-98893333D01*
X175521905Y-98845714D01*
X175474286Y-98750476D01*
X175474286Y-98702857D01*
X175521905Y-98607619D01*
X175569524Y-98560000D01*
X175664762Y-98512381D01*
X175855239Y-98512381D01*
X175950477Y-98560000D01*
X175998096Y-98607619D01*
X176045715Y-98702857D01*
X176045715Y-98750476D01*
X175998096Y-98845714D01*
X175950477Y-98893333D01*
X175855239Y-98940952D01*
X175664762Y-98940952D01*
X175569524Y-98988571D01*
X175521905Y-99036190D01*
X175474286Y-99131429D01*
X175474286Y-99321905D01*
X175521905Y-99417143D01*
X175569524Y-99464762D01*
X175664762Y-99512381D01*
X175855239Y-99512381D01*
X175950477Y-99464762D01*
X175998096Y-99417143D01*
X176045715Y-99321905D01*
X176045715Y-99131429D01*
X175998096Y-99036190D01*
X175950477Y-98988571D01*
X175855239Y-98940952D01*
X174569524Y-102052381D02*
X173998095Y-102052381D01*
X174283809Y-102052381D02*
X174283809Y-101052381D01*
X174188571Y-101195238D01*
X174093333Y-101290476D01*
X173998095Y-101338095D01*
X175188571Y-101052381D02*
X175283810Y-101052381D01*
X175379048Y-101100000D01*
X175426667Y-101147619D01*
X175474286Y-101242857D01*
X175521905Y-101433333D01*
X175521905Y-101671429D01*
X175474286Y-101861905D01*
X175426667Y-101957143D01*
X175379048Y-102004762D01*
X175283810Y-102052381D01*
X175188571Y-102052381D01*
X175093333Y-102004762D01*
X175045714Y-101957143D01*
X174998095Y-101861905D01*
X174950476Y-101671429D01*
X174950476Y-101433333D01*
X174998095Y-101242857D01*
X175045714Y-101147619D01*
X175093333Y-101100000D01*
X175188571Y-101052381D01*
X175950476Y-102052381D02*
X175950476Y-101052381D01*
X176521905Y-102052381D02*
X176093333Y-101480952D01*
X176521905Y-101052381D02*
X175950476Y-101623810D01*
X175093334Y-104592381D02*
X174760000Y-104116190D01*
X174521905Y-104592381D02*
X174521905Y-103592381D01*
X174902858Y-103592381D01*
X174998096Y-103640000D01*
X175045715Y-103687619D01*
X175093334Y-103782857D01*
X175093334Y-103925714D01*
X175045715Y-104020952D01*
X174998096Y-104068571D01*
X174902858Y-104116190D01*
X174521905Y-104116190D01*
X175569524Y-104592381D02*
X175760000Y-104592381D01*
X175855239Y-104544762D01*
X175902858Y-104497143D01*
X175998096Y-104354286D01*
X176045715Y-104163810D01*
X176045715Y-103782857D01*
X175998096Y-103687619D01*
X175950477Y-103640000D01*
X175855239Y-103592381D01*
X175664762Y-103592381D01*
X175569524Y-103640000D01*
X175521905Y-103687619D01*
X175474286Y-103782857D01*
X175474286Y-104020952D01*
X175521905Y-104116190D01*
X175569524Y-104163810D01*
X175664762Y-104211429D01*
X175855239Y-104211429D01*
X175950477Y-104163810D01*
X175998096Y-104116190D01*
X176045715Y-104020952D01*
X173974286Y-106132381D02*
X174593334Y-106132381D01*
X174260000Y-106513333D01*
X174402858Y-106513333D01*
X174498096Y-106560952D01*
X174545715Y-106608571D01*
X174593334Y-106703810D01*
X174593334Y-106941905D01*
X174545715Y-107037143D01*
X174498096Y-107084762D01*
X174402858Y-107132381D01*
X174117143Y-107132381D01*
X174021905Y-107084762D01*
X173974286Y-107037143D01*
X175069524Y-107132381D02*
X175260000Y-107132381D01*
X175355239Y-107084762D01*
X175402858Y-107037143D01*
X175498096Y-106894286D01*
X175545715Y-106703810D01*
X175545715Y-106322857D01*
X175498096Y-106227619D01*
X175450477Y-106180000D01*
X175355239Y-106132381D01*
X175164762Y-106132381D01*
X175069524Y-106180000D01*
X175021905Y-106227619D01*
X174974286Y-106322857D01*
X174974286Y-106560952D01*
X175021905Y-106656190D01*
X175069524Y-106703810D01*
X175164762Y-106751429D01*
X175355239Y-106751429D01*
X175450477Y-106703810D01*
X175498096Y-106656190D01*
X175545715Y-106560952D01*
X176164762Y-106132381D02*
X176260001Y-106132381D01*
X176355239Y-106180000D01*
X176402858Y-106227619D01*
X176450477Y-106322857D01*
X176498096Y-106513333D01*
X176498096Y-106751429D01*
X176450477Y-106941905D01*
X176402858Y-107037143D01*
X176355239Y-107084762D01*
X176260001Y-107132381D01*
X176164762Y-107132381D01*
X176069524Y-107084762D01*
X176021905Y-107037143D01*
X175974286Y-106941905D01*
X175926667Y-106751429D01*
X175926667Y-106513333D01*
X175974286Y-106322857D01*
X176021905Y-106227619D01*
X176069524Y-106180000D01*
X176164762Y-106132381D01*
X173926667Y-124864762D02*
X174069524Y-124912381D01*
X174307620Y-124912381D01*
X174402858Y-124864762D01*
X174450477Y-124817143D01*
X174498096Y-124721905D01*
X174498096Y-124626667D01*
X174450477Y-124531429D01*
X174402858Y-124483810D01*
X174307620Y-124436190D01*
X174117143Y-124388571D01*
X174021905Y-124340952D01*
X173974286Y-124293333D01*
X173926667Y-124198095D01*
X173926667Y-124102857D01*
X173974286Y-124007619D01*
X174021905Y-123960000D01*
X174117143Y-123912381D01*
X174355239Y-123912381D01*
X174498096Y-123960000D01*
X174831429Y-123912381D02*
X175069524Y-124912381D01*
X175260001Y-124198095D01*
X175450477Y-124912381D01*
X175688572Y-123912381D01*
X176593334Y-124912381D02*
X176021905Y-124912381D01*
X176307619Y-124912381D02*
X176307619Y-123912381D01*
X176212381Y-124055238D01*
X176117143Y-124150476D01*
X176021905Y-124198095D01*
X119388095Y-118832381D02*
X119959524Y-118832381D01*
X119673809Y-119832381D02*
X119673809Y-118832381D01*
X120864286Y-119832381D02*
X120530952Y-119356190D01*
X120292857Y-119832381D02*
X120292857Y-118832381D01*
X120673810Y-118832381D01*
X120769048Y-118880000D01*
X120816667Y-118927619D01*
X120864286Y-119022857D01*
X120864286Y-119165714D01*
X120816667Y-119260952D01*
X120769048Y-119308571D01*
X120673810Y-119356190D01*
X120292857Y-119356190D01*
X121816667Y-119832381D02*
X121245238Y-119832381D01*
X121530952Y-119832381D02*
X121530952Y-118832381D01*
X121435714Y-118975238D01*
X121340476Y-119070476D01*
X121245238Y-119118095D01*
X119388095Y-108672381D02*
X119959524Y-108672381D01*
X119673809Y-109672381D02*
X119673809Y-108672381D01*
X120864286Y-109672381D02*
X120530952Y-109196190D01*
X120292857Y-109672381D02*
X120292857Y-108672381D01*
X120673810Y-108672381D01*
X120769048Y-108720000D01*
X120816667Y-108767619D01*
X120864286Y-108862857D01*
X120864286Y-109005714D01*
X120816667Y-109100952D01*
X120769048Y-109148571D01*
X120673810Y-109196190D01*
X120292857Y-109196190D01*
X121245238Y-108767619D02*
X121292857Y-108720000D01*
X121388095Y-108672381D01*
X121626191Y-108672381D01*
X121721429Y-108720000D01*
X121769048Y-108767619D01*
X121816667Y-108862857D01*
X121816667Y-108958095D01*
X121769048Y-109100952D01*
X121197619Y-109672381D01*
X121816667Y-109672381D01*
X162393334Y-85447143D02*
X162345715Y-85494762D01*
X162202858Y-85542381D01*
X162107620Y-85542381D01*
X161964762Y-85494762D01*
X161869524Y-85399524D01*
X161821905Y-85304286D01*
X161774286Y-85113810D01*
X161774286Y-84970952D01*
X161821905Y-84780476D01*
X161869524Y-84685238D01*
X161964762Y-84590000D01*
X162107620Y-84542381D01*
X162202858Y-84542381D01*
X162345715Y-84590000D01*
X162393334Y-84637619D01*
X163250477Y-84875714D02*
X163250477Y-85542381D01*
X163012381Y-84494762D02*
X162774286Y-85209048D01*
X163393334Y-85209048D01*
X102536667Y-66762381D02*
X102536667Y-67476667D01*
X102489047Y-67619524D01*
X102393809Y-67714762D01*
X102250952Y-67762381D01*
X102155714Y-67762381D01*
X103536667Y-67762381D02*
X102965238Y-67762381D01*
X103250952Y-67762381D02*
X103250952Y-66762381D01*
X103155714Y-66905238D01*
X103060476Y-67000476D01*
X102965238Y-67048095D01*
X134453334Y-124912381D02*
X134120000Y-124436190D01*
X133881905Y-124912381D02*
X133881905Y-123912381D01*
X134262858Y-123912381D01*
X134358096Y-123960000D01*
X134405715Y-124007619D01*
X134453334Y-124102857D01*
X134453334Y-124245714D01*
X134405715Y-124340952D01*
X134358096Y-124388571D01*
X134262858Y-124436190D01*
X133881905Y-124436190D01*
X135358096Y-123912381D02*
X134881905Y-123912381D01*
X134834286Y-124388571D01*
X134881905Y-124340952D01*
X134977143Y-124293333D01*
X135215239Y-124293333D01*
X135310477Y-124340952D01*
X135358096Y-124388571D01*
X135405715Y-124483810D01*
X135405715Y-124721905D01*
X135358096Y-124817143D01*
X135310477Y-124864762D01*
X135215239Y-124912381D01*
X134977143Y-124912381D01*
X134881905Y-124864762D01*
X134834286Y-124817143D01*
X133358095Y-126547619D02*
X133405714Y-126500000D01*
X133500952Y-126452381D01*
X133739048Y-126452381D01*
X133834286Y-126500000D01*
X133881905Y-126547619D01*
X133929524Y-126642857D01*
X133929524Y-126738095D01*
X133881905Y-126880952D01*
X133310476Y-127452381D01*
X133929524Y-127452381D01*
X134310476Y-126547619D02*
X134358095Y-126500000D01*
X134453333Y-126452381D01*
X134691429Y-126452381D01*
X134786667Y-126500000D01*
X134834286Y-126547619D01*
X134881905Y-126642857D01*
X134881905Y-126738095D01*
X134834286Y-126880952D01*
X134262857Y-127452381D01*
X134881905Y-127452381D01*
X135310476Y-127452381D02*
X135310476Y-126452381D01*
X135881905Y-127452381D02*
X135453333Y-126880952D01*
X135881905Y-126452381D02*
X135310476Y-127023810D01*
M02*
