G04 #@! TF.FileFunction,Copper,L2,Bot,Signal*
%FSLAX46Y46*%
G04 Gerber Fmt 4.6, Leading zero omitted, Abs format (unit mm)*
G04 Created by KiCad (PCBNEW 4.0.7) date *
%MOMM*%
%LPD*%
G01*
G04 APERTURE LIST*
%ADD10C,0.100000*%
%ADD11C,3.000000*%
%ADD12R,3.000000X3.000000*%
%ADD13C,1.600000*%
%ADD14R,1.800000X1.800000*%
%ADD15O,1.800000X1.800000*%
%ADD16C,1.800000*%
%ADD17R,1.600000X1.600000*%
%ADD18O,1.600000X1.600000*%
%ADD19C,1.998980*%
%ADD20C,1.524000*%
%ADD21R,1.727200X1.727200*%
%ADD22O,1.727200X1.727200*%
%ADD23C,0.600000*%
%ADD24C,0.500000*%
%ADD25C,0.250000*%
%ADD26C,0.254000*%
G04 APERTURE END LIST*
D10*
D11*
X154940000Y-122090000D03*
D12*
X154940000Y-101600000D03*
D13*
X114300000Y-121920000D03*
X114300000Y-119420000D03*
X114300000Y-104140000D03*
X114300000Y-101640000D03*
X114300000Y-86360000D03*
X114300000Y-83860000D03*
D14*
X129540000Y-96520000D03*
D15*
X139700000Y-96520000D03*
D14*
X129540000Y-116840000D03*
D15*
X139700000Y-116840000D03*
D14*
X175260000Y-114300000D03*
D16*
X175260000Y-111760000D03*
D17*
X111760000Y-114300000D03*
D18*
X96520000Y-121920000D03*
X109220000Y-114300000D03*
X99060000Y-121920000D03*
X106680000Y-114300000D03*
X101600000Y-121920000D03*
X104140000Y-114300000D03*
X104140000Y-121920000D03*
X101600000Y-114300000D03*
X106680000Y-121920000D03*
X99060000Y-114300000D03*
X109220000Y-121920000D03*
X96520000Y-114300000D03*
X111760000Y-121920000D03*
D17*
X111760000Y-96520000D03*
D18*
X96520000Y-104140000D03*
X109220000Y-96520000D03*
X99060000Y-104140000D03*
X106680000Y-96520000D03*
X101600000Y-104140000D03*
X104140000Y-96520000D03*
X104140000Y-104140000D03*
X101600000Y-96520000D03*
X106680000Y-104140000D03*
X99060000Y-96520000D03*
X109220000Y-104140000D03*
X96520000Y-96520000D03*
X111760000Y-104140000D03*
D17*
X111760000Y-78740000D03*
D18*
X96520000Y-86360000D03*
X109220000Y-78740000D03*
X99060000Y-86360000D03*
X106680000Y-78740000D03*
X101600000Y-86360000D03*
X104140000Y-78740000D03*
X104140000Y-86360000D03*
X101600000Y-78740000D03*
X106680000Y-86360000D03*
X99060000Y-78740000D03*
X109220000Y-86360000D03*
X96520000Y-78740000D03*
X111760000Y-86360000D03*
D17*
X157480000Y-78740000D03*
D18*
X124460000Y-86360000D03*
X154940000Y-78740000D03*
X127000000Y-86360000D03*
X152400000Y-78740000D03*
X129540000Y-86360000D03*
X149860000Y-78740000D03*
X132080000Y-86360000D03*
X147320000Y-78740000D03*
X134620000Y-86360000D03*
X144780000Y-78740000D03*
X137160000Y-86360000D03*
X142240000Y-78740000D03*
X139700000Y-86360000D03*
X139700000Y-78740000D03*
X142240000Y-86360000D03*
X137160000Y-78740000D03*
X144780000Y-86360000D03*
X134620000Y-78740000D03*
X147320000Y-86360000D03*
X132080000Y-78740000D03*
X149860000Y-86360000D03*
X129540000Y-78740000D03*
X152400000Y-86360000D03*
X127000000Y-78740000D03*
X154940000Y-86360000D03*
X124460000Y-78740000D03*
X157480000Y-86360000D03*
D19*
X129540000Y-101600000D03*
X139700000Y-101600000D03*
X129540000Y-106680000D03*
X139700000Y-106680000D03*
X129540000Y-111760000D03*
X139700000Y-111760000D03*
X129540000Y-121920000D03*
X139700000Y-121920000D03*
X170180000Y-91440000D03*
X180340000Y-91440000D03*
X170180000Y-96520000D03*
X180340000Y-96520000D03*
X170180000Y-101600000D03*
X180340000Y-101600000D03*
X170180000Y-106680000D03*
X180340000Y-106680000D03*
D20*
X172760000Y-119400000D03*
X175260000Y-119400000D03*
X177760000Y-119400000D03*
X172760000Y-121900000D03*
X175260000Y-121900000D03*
X177760000Y-121900000D03*
X124460000Y-119380000D03*
X124460000Y-116840000D03*
X124460000Y-121920000D03*
X124460000Y-109220000D03*
X124460000Y-106680000D03*
X124460000Y-111760000D03*
D13*
X160020000Y-86360000D03*
X160020000Y-83860000D03*
D21*
X106680000Y-68580000D03*
D22*
X106680000Y-66040000D03*
X109220000Y-68580000D03*
X109220000Y-66040000D03*
X111760000Y-68580000D03*
X111760000Y-66040000D03*
X114300000Y-68580000D03*
X114300000Y-66040000D03*
X116840000Y-68580000D03*
X116840000Y-66040000D03*
X119380000Y-68580000D03*
X119380000Y-66040000D03*
X121920000Y-68580000D03*
X121920000Y-66040000D03*
X124460000Y-68580000D03*
X124460000Y-66040000D03*
X127000000Y-68580000D03*
X127000000Y-66040000D03*
X129540000Y-68580000D03*
X129540000Y-66040000D03*
X132080000Y-68580000D03*
X132080000Y-66040000D03*
X134620000Y-68580000D03*
X134620000Y-66040000D03*
X137160000Y-68580000D03*
X137160000Y-66040000D03*
X139700000Y-68580000D03*
X139700000Y-66040000D03*
X142240000Y-68580000D03*
X142240000Y-66040000D03*
X144780000Y-68580000D03*
X144780000Y-66040000D03*
X147320000Y-68580000D03*
X147320000Y-66040000D03*
X149860000Y-68580000D03*
X149860000Y-66040000D03*
X152400000Y-68580000D03*
X152400000Y-66040000D03*
X154940000Y-68580000D03*
X154940000Y-66040000D03*
X157480000Y-68580000D03*
X157480000Y-66040000D03*
X160020000Y-68580000D03*
X160020000Y-66040000D03*
X162560000Y-68580000D03*
X162560000Y-66040000D03*
X165100000Y-68580000D03*
X165100000Y-66040000D03*
X167640000Y-68580000D03*
X167640000Y-66040000D03*
D19*
X129540000Y-127000000D03*
X139700000Y-127000000D03*
D23*
X110490000Y-71120000D03*
X151130000Y-71120000D03*
X107950000Y-92710000D03*
X154940000Y-92710000D03*
X104140000Y-106680000D03*
X105410000Y-81280000D03*
X111760000Y-81280000D03*
X142240000Y-90170000D03*
X100330000Y-90170000D03*
X109220000Y-93980000D03*
X146050000Y-93980000D03*
X148590000Y-91440000D03*
X104140000Y-91440000D03*
X106680000Y-76200000D03*
X151130000Y-76200000D03*
X138430000Y-82550000D03*
X147320000Y-82550000D03*
X132080000Y-82550000D03*
X115570000Y-82550000D03*
X149860000Y-83820000D03*
X135890000Y-83820000D03*
X129540000Y-81280000D03*
X118110000Y-81280000D03*
X127000000Y-80010000D03*
X120650000Y-80010000D03*
X137160000Y-88900000D03*
X99060000Y-88900000D03*
D24*
X124460000Y-119380000D02*
X129540000Y-124460000D01*
X129540000Y-124460000D02*
X129540000Y-127000000D01*
X114300000Y-121920000D02*
X119380000Y-127000000D01*
X119380000Y-127000000D02*
X129540000Y-127000000D01*
X111760000Y-86360000D02*
X114300000Y-86360000D01*
X111760000Y-121920000D02*
X114300000Y-121920000D01*
X111760000Y-104140000D02*
X114300000Y-104140000D01*
X114300000Y-104140000D02*
X120650000Y-104140000D01*
X123190000Y-101600000D02*
X129540000Y-101600000D01*
X120650000Y-104140000D02*
X123190000Y-101600000D01*
D25*
X151130000Y-71120000D02*
X110490000Y-71120000D01*
X101600000Y-114300000D02*
X104140000Y-116840000D01*
X106680000Y-116840000D02*
X109220000Y-114300000D01*
X104140000Y-116840000D02*
X106680000Y-116840000D01*
X107950000Y-92710000D02*
X154940000Y-92710000D01*
X106680000Y-121920000D02*
X110490000Y-118110000D01*
X115570000Y-118110000D02*
X124460000Y-109220000D01*
X110490000Y-118110000D02*
X115570000Y-118110000D01*
X101600000Y-121920000D02*
X102870000Y-123190000D01*
X105410000Y-123190000D02*
X106680000Y-121920000D01*
X102870000Y-123190000D02*
X105410000Y-123190000D01*
X139700000Y-127000000D02*
X139700000Y-121920000D01*
X177800000Y-99060000D02*
X180340000Y-96520000D01*
X167640000Y-99060000D02*
X177800000Y-99060000D01*
X162560000Y-104140000D02*
X167640000Y-99060000D01*
X124460000Y-104140000D02*
X162560000Y-104140000D01*
X121920000Y-106680000D02*
X124460000Y-104140000D01*
X104140000Y-106680000D02*
X121920000Y-106680000D01*
X111760000Y-81280000D02*
X105410000Y-81280000D01*
X100330000Y-90170000D02*
X142240000Y-90170000D01*
X144780000Y-93980000D02*
X146050000Y-93980000D01*
X109220000Y-93980000D02*
X144780000Y-93980000D01*
X104140000Y-91440000D02*
X148590000Y-91440000D01*
X151130000Y-76200000D02*
X106680000Y-76200000D01*
X147320000Y-82550000D02*
X138430000Y-82550000D01*
X115570000Y-82550000D02*
X132080000Y-82550000D01*
X135890000Y-83820000D02*
X149860000Y-83820000D01*
X118110000Y-81280000D02*
X129540000Y-81280000D01*
X120650000Y-80010000D02*
X127000000Y-80010000D01*
D24*
X170180000Y-91440000D02*
X170180000Y-87630000D01*
X111760000Y-73660000D02*
X106680000Y-68580000D01*
X156210000Y-73660000D02*
X111760000Y-73660000D01*
X170180000Y-87630000D02*
X156210000Y-73660000D01*
D25*
X99060000Y-88900000D02*
X137160000Y-88900000D01*
D24*
X154940000Y-101600000D02*
X149860000Y-96520000D01*
X149860000Y-96520000D02*
X139700000Y-96520000D01*
D25*
X124460000Y-106680000D02*
X129540000Y-106680000D01*
X124460000Y-116840000D02*
X129540000Y-121920000D01*
D26*
G36*
X184844989Y-60552152D02*
X185434170Y-60945830D01*
X185827848Y-61535011D01*
X185980000Y-62299931D01*
X185980000Y-130740069D01*
X185827848Y-131504989D01*
X185434170Y-132094170D01*
X184844989Y-132487848D01*
X184080069Y-132640000D01*
X92779931Y-132640000D01*
X92015011Y-132487848D01*
X91425830Y-132094170D01*
X91032152Y-131504989D01*
X90880000Y-130740069D01*
X90880000Y-129982619D01*
X91744613Y-129982619D01*
X92084155Y-130804372D01*
X92712321Y-131433636D01*
X93533481Y-131774611D01*
X94422619Y-131775387D01*
X95244372Y-131435845D01*
X95873636Y-130807679D01*
X96214611Y-129986519D01*
X96214614Y-129982619D01*
X180644613Y-129982619D01*
X180984155Y-130804372D01*
X181612321Y-131433636D01*
X182433481Y-131774611D01*
X183322619Y-131775387D01*
X184144372Y-131435845D01*
X184773636Y-130807679D01*
X185114611Y-129986519D01*
X185115387Y-129097381D01*
X184775845Y-128275628D01*
X184147679Y-127646364D01*
X183326519Y-127305389D01*
X182437381Y-127304613D01*
X181615628Y-127644155D01*
X180986364Y-128272321D01*
X180645389Y-129093481D01*
X180644613Y-129982619D01*
X96214614Y-129982619D01*
X96215387Y-129097381D01*
X95875845Y-128275628D01*
X95247679Y-127646364D01*
X94426519Y-127305389D01*
X93537381Y-127304613D01*
X92715628Y-127644155D01*
X92086364Y-128272321D01*
X91745389Y-129093481D01*
X91744613Y-129982619D01*
X90880000Y-129982619D01*
X90880000Y-121891887D01*
X95085000Y-121891887D01*
X95085000Y-121948113D01*
X95194233Y-122497264D01*
X95505302Y-122962811D01*
X95970849Y-123273880D01*
X96520000Y-123383113D01*
X97069151Y-123273880D01*
X97534698Y-122962811D01*
X97790000Y-122580725D01*
X98045302Y-122962811D01*
X98510849Y-123273880D01*
X99060000Y-123383113D01*
X99609151Y-123273880D01*
X100074698Y-122962811D01*
X100330000Y-122580725D01*
X100585302Y-122962811D01*
X101050849Y-123273880D01*
X101600000Y-123383113D01*
X101923886Y-123318688D01*
X102332599Y-123727401D01*
X102579160Y-123892148D01*
X102870000Y-123950000D01*
X105410000Y-123950000D01*
X105700839Y-123892148D01*
X105947401Y-123727401D01*
X106356114Y-123318688D01*
X106680000Y-123383113D01*
X107229151Y-123273880D01*
X107694698Y-122962811D01*
X107950000Y-122580725D01*
X108205302Y-122962811D01*
X108670849Y-123273880D01*
X109220000Y-123383113D01*
X109769151Y-123273880D01*
X110234698Y-122962811D01*
X110490000Y-122580725D01*
X110745302Y-122962811D01*
X111210849Y-123273880D01*
X111760000Y-123383113D01*
X112309151Y-123273880D01*
X112774698Y-122962811D01*
X112880144Y-122805000D01*
X113155829Y-122805000D01*
X113486077Y-123135824D01*
X114013309Y-123354750D01*
X114483580Y-123355160D01*
X118754208Y-127625787D01*
X118754210Y-127625790D01*
X119041325Y-127817633D01*
X119097516Y-127828810D01*
X119380000Y-127885001D01*
X119380005Y-127885000D01*
X128137153Y-127885000D01*
X128153538Y-127924655D01*
X128612927Y-128384846D01*
X129213453Y-128634206D01*
X129863694Y-128634774D01*
X130464655Y-128386462D01*
X130924846Y-127927073D01*
X131174206Y-127326547D01*
X131174774Y-126676306D01*
X130926462Y-126075345D01*
X130467073Y-125615154D01*
X130425000Y-125597684D01*
X130425000Y-124460005D01*
X130425001Y-124460000D01*
X130357633Y-124121326D01*
X130357633Y-124121325D01*
X130165790Y-123834210D01*
X130165787Y-123834208D01*
X129879728Y-123548149D01*
X130464655Y-123306462D01*
X130924846Y-122847073D01*
X131174206Y-122246547D01*
X131174208Y-122243694D01*
X138065226Y-122243694D01*
X138313538Y-122844655D01*
X138772927Y-123304846D01*
X138940000Y-123374221D01*
X138940000Y-125545504D01*
X138775345Y-125613538D01*
X138315154Y-126072927D01*
X138065794Y-126673453D01*
X138065226Y-127323694D01*
X138313538Y-127924655D01*
X138772927Y-128384846D01*
X139373453Y-128634206D01*
X140023694Y-128634774D01*
X140624655Y-128386462D01*
X141084846Y-127927073D01*
X141334206Y-127326547D01*
X141334774Y-126676306D01*
X141086462Y-126075345D01*
X140627073Y-125615154D01*
X140460000Y-125545779D01*
X140460000Y-123603970D01*
X153605635Y-123603970D01*
X153765418Y-123922739D01*
X154556187Y-124232723D01*
X155405387Y-124216497D01*
X156114582Y-123922739D01*
X156274365Y-123603970D01*
X154940000Y-122269605D01*
X153605635Y-123603970D01*
X140460000Y-123603970D01*
X140460000Y-123374496D01*
X140624655Y-123306462D01*
X141084846Y-122847073D01*
X141334206Y-122246547D01*
X141334678Y-121706187D01*
X152797277Y-121706187D01*
X152813503Y-122555387D01*
X153107261Y-123264582D01*
X153426030Y-123424365D01*
X154760395Y-122090000D01*
X155119605Y-122090000D01*
X156453970Y-123424365D01*
X156772739Y-123264582D01*
X157082723Y-122473813D01*
X157066497Y-121624613D01*
X156772739Y-120915418D01*
X156453970Y-120755635D01*
X155119605Y-122090000D01*
X154760395Y-122090000D01*
X153426030Y-120755635D01*
X153107261Y-120915418D01*
X152797277Y-121706187D01*
X141334678Y-121706187D01*
X141334774Y-121596306D01*
X141086462Y-120995345D01*
X140667878Y-120576030D01*
X153605635Y-120576030D01*
X154940000Y-121910395D01*
X156274365Y-120576030D01*
X156114582Y-120257261D01*
X155323813Y-119947277D01*
X154474613Y-119963503D01*
X153765418Y-120257261D01*
X153605635Y-120576030D01*
X140667878Y-120576030D01*
X140627073Y-120535154D01*
X140026547Y-120285794D01*
X139376306Y-120285226D01*
X138775345Y-120533538D01*
X138315154Y-120992927D01*
X138065794Y-121593453D01*
X138065226Y-122243694D01*
X131174208Y-122243694D01*
X131174774Y-121596306D01*
X130926462Y-120995345D01*
X130467073Y-120535154D01*
X129866547Y-120285794D01*
X129216306Y-120285226D01*
X129049111Y-120354309D01*
X128371463Y-119676661D01*
X171362758Y-119676661D01*
X171574990Y-120190303D01*
X171967630Y-120583629D01*
X172127228Y-120649900D01*
X171969697Y-120714990D01*
X171576371Y-121107630D01*
X171363243Y-121620900D01*
X171362758Y-122176661D01*
X171574990Y-122690303D01*
X171967630Y-123083629D01*
X172480900Y-123296757D01*
X173036661Y-123297242D01*
X173550303Y-123085010D01*
X173755457Y-122880213D01*
X174459392Y-122880213D01*
X174528857Y-123122397D01*
X175052302Y-123309144D01*
X175607368Y-123281362D01*
X175991143Y-123122397D01*
X176060608Y-122880213D01*
X175260000Y-122079605D01*
X174459392Y-122880213D01*
X173755457Y-122880213D01*
X173943629Y-122692370D01*
X174003370Y-122548497D01*
X174037603Y-122631143D01*
X174279787Y-122700608D01*
X175080395Y-121900000D01*
X174279787Y-121099392D01*
X174037603Y-121168857D01*
X174006026Y-121257367D01*
X173945010Y-121109697D01*
X173552370Y-120716371D01*
X173392772Y-120650100D01*
X173550303Y-120585010D01*
X173755457Y-120380213D01*
X174459392Y-120380213D01*
X174528857Y-120622397D01*
X174600462Y-120647943D01*
X174528857Y-120677603D01*
X174459392Y-120919787D01*
X175260000Y-121720395D01*
X176060608Y-120919787D01*
X175991143Y-120677603D01*
X175919538Y-120652057D01*
X175991143Y-120622397D01*
X176060608Y-120380213D01*
X175260000Y-119579605D01*
X174459392Y-120380213D01*
X173755457Y-120380213D01*
X173943629Y-120192370D01*
X174003370Y-120048497D01*
X174037603Y-120131143D01*
X174279787Y-120200608D01*
X175080395Y-119400000D01*
X175439605Y-119400000D01*
X176240213Y-120200608D01*
X176482397Y-120131143D01*
X176513974Y-120042633D01*
X176574990Y-120190303D01*
X176967630Y-120583629D01*
X177127228Y-120649900D01*
X176969697Y-120714990D01*
X176576371Y-121107630D01*
X176516630Y-121251503D01*
X176482397Y-121168857D01*
X176240213Y-121099392D01*
X175439605Y-121900000D01*
X176240213Y-122700608D01*
X176482397Y-122631143D01*
X176513974Y-122542633D01*
X176574990Y-122690303D01*
X176967630Y-123083629D01*
X177480900Y-123296757D01*
X178036661Y-123297242D01*
X178550303Y-123085010D01*
X178943629Y-122692370D01*
X179156757Y-122179100D01*
X179157242Y-121623339D01*
X178945010Y-121109697D01*
X178552370Y-120716371D01*
X178392772Y-120650100D01*
X178550303Y-120585010D01*
X178943629Y-120192370D01*
X179156757Y-119679100D01*
X179157242Y-119123339D01*
X178945010Y-118609697D01*
X178552370Y-118216371D01*
X178039100Y-118003243D01*
X177483339Y-118002758D01*
X176969697Y-118214990D01*
X176576371Y-118607630D01*
X176516630Y-118751503D01*
X176482397Y-118668857D01*
X176240213Y-118599392D01*
X175439605Y-119400000D01*
X175080395Y-119400000D01*
X174279787Y-118599392D01*
X174037603Y-118668857D01*
X174006026Y-118757367D01*
X173945010Y-118609697D01*
X173755432Y-118419787D01*
X174459392Y-118419787D01*
X175260000Y-119220395D01*
X176060608Y-118419787D01*
X175991143Y-118177603D01*
X175467698Y-117990856D01*
X174912632Y-118018638D01*
X174528857Y-118177603D01*
X174459392Y-118419787D01*
X173755432Y-118419787D01*
X173552370Y-118216371D01*
X173039100Y-118003243D01*
X172483339Y-118002758D01*
X171969697Y-118214990D01*
X171576371Y-118607630D01*
X171363243Y-119120900D01*
X171362758Y-119676661D01*
X128371463Y-119676661D01*
X125844183Y-117149381D01*
X125856757Y-117119100D01*
X125857242Y-116563339D01*
X125645010Y-116049697D01*
X125535505Y-115940000D01*
X127992560Y-115940000D01*
X127992560Y-117740000D01*
X128036838Y-117975317D01*
X128175910Y-118191441D01*
X128388110Y-118336431D01*
X128640000Y-118387440D01*
X130440000Y-118387440D01*
X130675317Y-118343162D01*
X130891441Y-118204090D01*
X131036431Y-117991890D01*
X131087440Y-117740000D01*
X131087440Y-116840000D01*
X138134928Y-116840000D01*
X138251773Y-117427419D01*
X138584519Y-117925409D01*
X139082509Y-118258155D01*
X139669928Y-118375000D01*
X139730072Y-118375000D01*
X140317491Y-118258155D01*
X140815481Y-117925409D01*
X141148227Y-117427419D01*
X141265072Y-116840000D01*
X141148227Y-116252581D01*
X140815481Y-115754591D01*
X140317491Y-115421845D01*
X139730072Y-115305000D01*
X139669928Y-115305000D01*
X139082509Y-115421845D01*
X138584519Y-115754591D01*
X138251773Y-116252581D01*
X138134928Y-116840000D01*
X131087440Y-116840000D01*
X131087440Y-115940000D01*
X131043162Y-115704683D01*
X130904090Y-115488559D01*
X130691890Y-115343569D01*
X130440000Y-115292560D01*
X128640000Y-115292560D01*
X128404683Y-115336838D01*
X128188559Y-115475910D01*
X128043569Y-115688110D01*
X127992560Y-115940000D01*
X125535505Y-115940000D01*
X125252370Y-115656371D01*
X124739100Y-115443243D01*
X124183339Y-115442758D01*
X123669697Y-115654990D01*
X123276371Y-116047630D01*
X123063243Y-116560900D01*
X123062758Y-117116661D01*
X123274990Y-117630303D01*
X123667630Y-118023629D01*
X123875512Y-118109949D01*
X123669697Y-118194990D01*
X123276371Y-118587630D01*
X123063243Y-119100900D01*
X123062758Y-119656661D01*
X123274990Y-120170303D01*
X123667630Y-120563629D01*
X123875512Y-120649949D01*
X123669697Y-120734990D01*
X123276371Y-121127630D01*
X123063243Y-121640900D01*
X123062758Y-122196661D01*
X123274990Y-122710303D01*
X123667630Y-123103629D01*
X124180900Y-123316757D01*
X124736661Y-123317242D01*
X125250303Y-123105010D01*
X125643629Y-122712370D01*
X125856757Y-122199100D01*
X125856906Y-122028485D01*
X128655000Y-124826579D01*
X128655000Y-125597153D01*
X128615345Y-125613538D01*
X128155154Y-126072927D01*
X128137684Y-126115000D01*
X119746579Y-126115000D01*
X115734840Y-122103260D01*
X115735248Y-121635813D01*
X115517243Y-121108200D01*
X115113923Y-120704176D01*
X115047456Y-120676577D01*
X115054005Y-120673864D01*
X115128139Y-120427745D01*
X114300000Y-119599605D01*
X113471861Y-120427745D01*
X113545995Y-120673864D01*
X113552483Y-120676196D01*
X113488200Y-120702757D01*
X113155377Y-121035000D01*
X112880144Y-121035000D01*
X112774698Y-120877189D01*
X112309151Y-120566120D01*
X111760000Y-120456887D01*
X111210849Y-120566120D01*
X110745302Y-120877189D01*
X110490000Y-121259275D01*
X110234698Y-120877189D01*
X109769151Y-120566120D01*
X109220000Y-120456887D01*
X109217397Y-120457405D01*
X110804802Y-118870000D01*
X112972809Y-118870000D01*
X112853035Y-119203223D01*
X112880222Y-119773454D01*
X113046136Y-120174005D01*
X113292255Y-120248139D01*
X114120395Y-119420000D01*
X114106252Y-119405858D01*
X114285858Y-119226253D01*
X114300000Y-119240395D01*
X114314143Y-119226253D01*
X114493748Y-119405858D01*
X114479605Y-119420000D01*
X115307745Y-120248139D01*
X115553864Y-120174005D01*
X115746965Y-119636777D01*
X115719778Y-119066546D01*
X115633162Y-118857436D01*
X115860839Y-118812148D01*
X116107401Y-118647401D01*
X121354802Y-113400000D01*
X173712560Y-113400000D01*
X173712560Y-115200000D01*
X173756838Y-115435317D01*
X173895910Y-115651441D01*
X174108110Y-115796431D01*
X174360000Y-115847440D01*
X176160000Y-115847440D01*
X176395317Y-115803162D01*
X176611441Y-115664090D01*
X176756431Y-115451890D01*
X176807440Y-115200000D01*
X176807440Y-113400000D01*
X176763162Y-113164683D01*
X176624090Y-112948559D01*
X176411890Y-112803569D01*
X176391466Y-112799433D01*
X176560551Y-112630643D01*
X176794733Y-112066670D01*
X176795265Y-111456009D01*
X176562068Y-110891629D01*
X176130643Y-110459449D01*
X175566670Y-110225267D01*
X174956009Y-110224735D01*
X174391629Y-110457932D01*
X173959449Y-110889357D01*
X173725267Y-111453330D01*
X173724735Y-112063991D01*
X173957932Y-112628371D01*
X174125880Y-112796613D01*
X174124683Y-112796838D01*
X173908559Y-112935910D01*
X173763569Y-113148110D01*
X173712560Y-113400000D01*
X121354802Y-113400000D01*
X122014589Y-112740213D01*
X123659392Y-112740213D01*
X123728857Y-112982397D01*
X124252302Y-113169144D01*
X124807368Y-113141362D01*
X125191143Y-112982397D01*
X125260608Y-112740213D01*
X124460000Y-111939605D01*
X123659392Y-112740213D01*
X122014589Y-112740213D01*
X123058084Y-111696718D01*
X123078638Y-112107368D01*
X123237603Y-112491143D01*
X123479787Y-112560608D01*
X124280395Y-111760000D01*
X124639605Y-111760000D01*
X125440213Y-112560608D01*
X125682397Y-112491143D01*
X125827760Y-112083694D01*
X127905226Y-112083694D01*
X128153538Y-112684655D01*
X128612927Y-113144846D01*
X129213453Y-113394206D01*
X129863694Y-113394774D01*
X130464655Y-113146462D01*
X130924846Y-112687073D01*
X131174206Y-112086547D01*
X131174208Y-112083694D01*
X138065226Y-112083694D01*
X138313538Y-112684655D01*
X138772927Y-113144846D01*
X139373453Y-113394206D01*
X140023694Y-113394774D01*
X140624655Y-113146462D01*
X141084846Y-112687073D01*
X141334206Y-112086547D01*
X141334774Y-111436306D01*
X141086462Y-110835345D01*
X140627073Y-110375154D01*
X140026547Y-110125794D01*
X139376306Y-110125226D01*
X138775345Y-110373538D01*
X138315154Y-110832927D01*
X138065794Y-111433453D01*
X138065226Y-112083694D01*
X131174208Y-112083694D01*
X131174774Y-111436306D01*
X130926462Y-110835345D01*
X130467073Y-110375154D01*
X129866547Y-110125794D01*
X129216306Y-110125226D01*
X128615345Y-110373538D01*
X128155154Y-110832927D01*
X127905794Y-111433453D01*
X127905226Y-112083694D01*
X125827760Y-112083694D01*
X125869144Y-111967698D01*
X125841362Y-111412632D01*
X125682397Y-111028857D01*
X125440213Y-110959392D01*
X124639605Y-111760000D01*
X124280395Y-111760000D01*
X124266253Y-111745858D01*
X124445858Y-111566253D01*
X124460000Y-111580395D01*
X125260608Y-110779787D01*
X125191143Y-110537603D01*
X125050682Y-110487491D01*
X125250303Y-110405010D01*
X125643629Y-110012370D01*
X125856757Y-109499100D01*
X125857242Y-108943339D01*
X125645010Y-108429697D01*
X125252370Y-108036371D01*
X125044488Y-107950051D01*
X125250303Y-107865010D01*
X125643629Y-107472370D01*
X125657070Y-107440000D01*
X128085504Y-107440000D01*
X128153538Y-107604655D01*
X128612927Y-108064846D01*
X129213453Y-108314206D01*
X129863694Y-108314774D01*
X130464655Y-108066462D01*
X130699363Y-107832163D01*
X138727443Y-107832163D01*
X138826042Y-108098965D01*
X139435582Y-108325401D01*
X140085377Y-108301341D01*
X140573958Y-108098965D01*
X140672557Y-107832163D01*
X139700000Y-106859605D01*
X138727443Y-107832163D01*
X130699363Y-107832163D01*
X130924846Y-107607073D01*
X131174206Y-107006547D01*
X131174722Y-106415582D01*
X138054599Y-106415582D01*
X138078659Y-107065377D01*
X138281035Y-107553958D01*
X138547837Y-107652557D01*
X139520395Y-106680000D01*
X139879605Y-106680000D01*
X140852163Y-107652557D01*
X141118965Y-107553958D01*
X141323380Y-107003694D01*
X168545226Y-107003694D01*
X168793538Y-107604655D01*
X169252927Y-108064846D01*
X169853453Y-108314206D01*
X170503694Y-108314774D01*
X171104655Y-108066462D01*
X171564846Y-107607073D01*
X171814206Y-107006547D01*
X171814208Y-107003694D01*
X178705226Y-107003694D01*
X178953538Y-107604655D01*
X179412927Y-108064846D01*
X180013453Y-108314206D01*
X180663694Y-108314774D01*
X181264655Y-108066462D01*
X181724846Y-107607073D01*
X181974206Y-107006547D01*
X181974774Y-106356306D01*
X181726462Y-105755345D01*
X181267073Y-105295154D01*
X180666547Y-105045794D01*
X180016306Y-105045226D01*
X179415345Y-105293538D01*
X178955154Y-105752927D01*
X178705794Y-106353453D01*
X178705226Y-107003694D01*
X171814208Y-107003694D01*
X171814774Y-106356306D01*
X171566462Y-105755345D01*
X171107073Y-105295154D01*
X170506547Y-105045794D01*
X169856306Y-105045226D01*
X169255345Y-105293538D01*
X168795154Y-105752927D01*
X168545794Y-106353453D01*
X168545226Y-107003694D01*
X141323380Y-107003694D01*
X141345401Y-106944418D01*
X141321341Y-106294623D01*
X141118965Y-105806042D01*
X140852163Y-105707443D01*
X139879605Y-106680000D01*
X139520395Y-106680000D01*
X138547837Y-105707443D01*
X138281035Y-105806042D01*
X138054599Y-106415582D01*
X131174722Y-106415582D01*
X131174774Y-106356306D01*
X130926462Y-105755345D01*
X130699351Y-105527837D01*
X138727443Y-105527837D01*
X139700000Y-106500395D01*
X140672557Y-105527837D01*
X140573958Y-105261035D01*
X139964418Y-105034599D01*
X139314623Y-105058659D01*
X138826042Y-105261035D01*
X138727443Y-105527837D01*
X130699351Y-105527837D01*
X130467073Y-105295154D01*
X129866547Y-105045794D01*
X129216306Y-105045226D01*
X128615345Y-105293538D01*
X128155154Y-105752927D01*
X128085779Y-105920000D01*
X125657531Y-105920000D01*
X125645010Y-105889697D01*
X125252370Y-105496371D01*
X124739100Y-105283243D01*
X124391862Y-105282940D01*
X124774802Y-104900000D01*
X162560000Y-104900000D01*
X162850839Y-104842148D01*
X163097401Y-104677401D01*
X165851108Y-101923694D01*
X168545226Y-101923694D01*
X168793538Y-102524655D01*
X169252927Y-102984846D01*
X169853453Y-103234206D01*
X170503694Y-103234774D01*
X171104655Y-102986462D01*
X171564846Y-102527073D01*
X171814206Y-101926547D01*
X171814208Y-101923694D01*
X178705226Y-101923694D01*
X178953538Y-102524655D01*
X179412927Y-102984846D01*
X180013453Y-103234206D01*
X180663694Y-103234774D01*
X181264655Y-102986462D01*
X181724846Y-102527073D01*
X181974206Y-101926547D01*
X181974774Y-101276306D01*
X181726462Y-100675345D01*
X181267073Y-100215154D01*
X180666547Y-99965794D01*
X180016306Y-99965226D01*
X179415345Y-100213538D01*
X178955154Y-100672927D01*
X178705794Y-101273453D01*
X178705226Y-101923694D01*
X171814208Y-101923694D01*
X171814774Y-101276306D01*
X171566462Y-100675345D01*
X171107073Y-100215154D01*
X170506547Y-99965794D01*
X169856306Y-99965226D01*
X169255345Y-100213538D01*
X168795154Y-100672927D01*
X168545794Y-101273453D01*
X168545226Y-101923694D01*
X165851108Y-101923694D01*
X167954802Y-99820000D01*
X177800000Y-99820000D01*
X178090839Y-99762148D01*
X178337401Y-99597401D01*
X179848917Y-98085885D01*
X180013453Y-98154206D01*
X180663694Y-98154774D01*
X181264655Y-97906462D01*
X181724846Y-97447073D01*
X181974206Y-96846547D01*
X181974774Y-96196306D01*
X181726462Y-95595345D01*
X181267073Y-95135154D01*
X180666547Y-94885794D01*
X180016306Y-94885226D01*
X179415345Y-95133538D01*
X178955154Y-95592927D01*
X178705794Y-96193453D01*
X178705226Y-96843694D01*
X178774309Y-97010889D01*
X177485198Y-98300000D01*
X167640000Y-98300000D01*
X167349161Y-98357852D01*
X167102599Y-98522599D01*
X162245198Y-103380000D01*
X157017224Y-103380000D01*
X157036431Y-103351890D01*
X157087440Y-103100000D01*
X157087440Y-100100000D01*
X157043162Y-99864683D01*
X156904090Y-99648559D01*
X156691890Y-99503569D01*
X156440000Y-99452560D01*
X154044139Y-99452560D01*
X151435274Y-96843694D01*
X168545226Y-96843694D01*
X168793538Y-97444655D01*
X169252927Y-97904846D01*
X169853453Y-98154206D01*
X170503694Y-98154774D01*
X171104655Y-97906462D01*
X171564846Y-97447073D01*
X171814206Y-96846547D01*
X171814774Y-96196306D01*
X171566462Y-95595345D01*
X171107073Y-95135154D01*
X170506547Y-94885794D01*
X169856306Y-94885226D01*
X169255345Y-95133538D01*
X168795154Y-95592927D01*
X168545794Y-96193453D01*
X168545226Y-96843694D01*
X151435274Y-96843694D01*
X150485790Y-95894210D01*
X150198675Y-95702367D01*
X150142484Y-95691190D01*
X149860000Y-95634999D01*
X149859995Y-95635000D01*
X140949390Y-95635000D01*
X140815481Y-95434591D01*
X140317491Y-95101845D01*
X139730072Y-94985000D01*
X139669928Y-94985000D01*
X139082509Y-95101845D01*
X138584519Y-95434591D01*
X138251773Y-95932581D01*
X138134928Y-96520000D01*
X138251773Y-97107419D01*
X138584519Y-97605409D01*
X139082509Y-97938155D01*
X139669928Y-98055000D01*
X139730072Y-98055000D01*
X140317491Y-97938155D01*
X140815481Y-97605409D01*
X140949390Y-97405000D01*
X149493420Y-97405000D01*
X152792560Y-100704139D01*
X152792560Y-103100000D01*
X152836838Y-103335317D01*
X152865591Y-103380000D01*
X124460000Y-103380000D01*
X124217414Y-103428254D01*
X124169160Y-103437852D01*
X123922599Y-103602599D01*
X121605198Y-105920000D01*
X104702463Y-105920000D01*
X104670327Y-105887808D01*
X104326799Y-105745162D01*
X103954833Y-105744838D01*
X103611057Y-105886883D01*
X103347808Y-106149673D01*
X103205162Y-106493201D01*
X103204838Y-106865167D01*
X103346883Y-107208943D01*
X103609673Y-107472192D01*
X103953201Y-107614838D01*
X104325167Y-107615162D01*
X104668943Y-107473117D01*
X104702118Y-107440000D01*
X121920000Y-107440000D01*
X122210839Y-107382148D01*
X122457401Y-107217401D01*
X123063059Y-106611743D01*
X123062758Y-106956661D01*
X123274990Y-107470303D01*
X123667630Y-107863629D01*
X123875512Y-107949949D01*
X123669697Y-108034990D01*
X123276371Y-108427630D01*
X123063243Y-108940900D01*
X123062758Y-109496661D01*
X123076143Y-109529055D01*
X115255198Y-117350000D01*
X110490000Y-117350000D01*
X110199161Y-117407852D01*
X109952599Y-117572599D01*
X107003886Y-120521312D01*
X106680000Y-120456887D01*
X106130849Y-120566120D01*
X105665302Y-120877189D01*
X105410000Y-121259275D01*
X105154698Y-120877189D01*
X104689151Y-120566120D01*
X104140000Y-120456887D01*
X103590849Y-120566120D01*
X103125302Y-120877189D01*
X102870000Y-121259275D01*
X102614698Y-120877189D01*
X102149151Y-120566120D01*
X101600000Y-120456887D01*
X101050849Y-120566120D01*
X100585302Y-120877189D01*
X100330000Y-121259275D01*
X100074698Y-120877189D01*
X99609151Y-120566120D01*
X99060000Y-120456887D01*
X98510849Y-120566120D01*
X98045302Y-120877189D01*
X97790000Y-121259275D01*
X97534698Y-120877189D01*
X97069151Y-120566120D01*
X96520000Y-120456887D01*
X95970849Y-120566120D01*
X95505302Y-120877189D01*
X95194233Y-121342736D01*
X95085000Y-121891887D01*
X90880000Y-121891887D01*
X90880000Y-114649041D01*
X95128086Y-114649041D01*
X95367611Y-115155134D01*
X95782577Y-115531041D01*
X96170961Y-115691904D01*
X96393000Y-115569915D01*
X96393000Y-114427000D01*
X95249371Y-114427000D01*
X95128086Y-114649041D01*
X90880000Y-114649041D01*
X90880000Y-113950959D01*
X95128086Y-113950959D01*
X95249371Y-114173000D01*
X96393000Y-114173000D01*
X96393000Y-113030085D01*
X96647000Y-113030085D01*
X96647000Y-114173000D01*
X96667000Y-114173000D01*
X96667000Y-114427000D01*
X96647000Y-114427000D01*
X96647000Y-115569915D01*
X96869039Y-115691904D01*
X97257423Y-115531041D01*
X97672389Y-115155134D01*
X97775014Y-114938297D01*
X98045302Y-115342811D01*
X98510849Y-115653880D01*
X99060000Y-115763113D01*
X99609151Y-115653880D01*
X100074698Y-115342811D01*
X100330000Y-114960725D01*
X100585302Y-115342811D01*
X101050849Y-115653880D01*
X101600000Y-115763113D01*
X101923886Y-115698688D01*
X103602599Y-117377401D01*
X103849160Y-117542148D01*
X103897414Y-117551746D01*
X104140000Y-117600000D01*
X106680000Y-117600000D01*
X106970839Y-117542148D01*
X107217401Y-117377401D01*
X108896114Y-115698688D01*
X109220000Y-115763113D01*
X109769151Y-115653880D01*
X110234698Y-115342811D01*
X110331101Y-115198535D01*
X110356838Y-115335317D01*
X110495910Y-115551441D01*
X110708110Y-115696431D01*
X110960000Y-115747440D01*
X112560000Y-115747440D01*
X112795317Y-115703162D01*
X113011441Y-115564090D01*
X113156431Y-115351890D01*
X113207440Y-115100000D01*
X113207440Y-113500000D01*
X113163162Y-113264683D01*
X113024090Y-113048559D01*
X112811890Y-112903569D01*
X112560000Y-112852560D01*
X110960000Y-112852560D01*
X110724683Y-112896838D01*
X110508559Y-113035910D01*
X110363569Y-113248110D01*
X110332185Y-113403089D01*
X110234698Y-113257189D01*
X109769151Y-112946120D01*
X109220000Y-112836887D01*
X108670849Y-112946120D01*
X108205302Y-113257189D01*
X107950000Y-113639275D01*
X107694698Y-113257189D01*
X107229151Y-112946120D01*
X106680000Y-112836887D01*
X106130849Y-112946120D01*
X105665302Y-113257189D01*
X105410000Y-113639275D01*
X105154698Y-113257189D01*
X104689151Y-112946120D01*
X104140000Y-112836887D01*
X103590849Y-112946120D01*
X103125302Y-113257189D01*
X102870000Y-113639275D01*
X102614698Y-113257189D01*
X102149151Y-112946120D01*
X101600000Y-112836887D01*
X101050849Y-112946120D01*
X100585302Y-113257189D01*
X100330000Y-113639275D01*
X100074698Y-113257189D01*
X99609151Y-112946120D01*
X99060000Y-112836887D01*
X98510849Y-112946120D01*
X98045302Y-113257189D01*
X97775014Y-113661703D01*
X97672389Y-113444866D01*
X97257423Y-113068959D01*
X96869039Y-112908096D01*
X96647000Y-113030085D01*
X96393000Y-113030085D01*
X96170961Y-112908096D01*
X95782577Y-113068959D01*
X95367611Y-113444866D01*
X95128086Y-113950959D01*
X90880000Y-113950959D01*
X90880000Y-104111887D01*
X95085000Y-104111887D01*
X95085000Y-104168113D01*
X95194233Y-104717264D01*
X95505302Y-105182811D01*
X95970849Y-105493880D01*
X96520000Y-105603113D01*
X97069151Y-105493880D01*
X97534698Y-105182811D01*
X97804986Y-104778297D01*
X97907611Y-104995134D01*
X98322577Y-105371041D01*
X98710961Y-105531904D01*
X98933000Y-105409915D01*
X98933000Y-104267000D01*
X99187000Y-104267000D01*
X99187000Y-105409915D01*
X99409039Y-105531904D01*
X99797423Y-105371041D01*
X100212389Y-104995134D01*
X100330000Y-104746633D01*
X100447611Y-104995134D01*
X100862577Y-105371041D01*
X101250961Y-105531904D01*
X101473000Y-105409915D01*
X101473000Y-104267000D01*
X99187000Y-104267000D01*
X98933000Y-104267000D01*
X98913000Y-104267000D01*
X98913000Y-104013000D01*
X98933000Y-104013000D01*
X98933000Y-102870085D01*
X99187000Y-102870085D01*
X99187000Y-104013000D01*
X101473000Y-104013000D01*
X101473000Y-102870085D01*
X101727000Y-102870085D01*
X101727000Y-104013000D01*
X101747000Y-104013000D01*
X101747000Y-104267000D01*
X101727000Y-104267000D01*
X101727000Y-105409915D01*
X101949039Y-105531904D01*
X102337423Y-105371041D01*
X102752389Y-104995134D01*
X102855014Y-104778297D01*
X103125302Y-105182811D01*
X103590849Y-105493880D01*
X104140000Y-105603113D01*
X104689151Y-105493880D01*
X105154698Y-105182811D01*
X105424986Y-104778297D01*
X105527611Y-104995134D01*
X105942577Y-105371041D01*
X106330961Y-105531904D01*
X106553000Y-105409915D01*
X106553000Y-104267000D01*
X106807000Y-104267000D01*
X106807000Y-105409915D01*
X107029039Y-105531904D01*
X107417423Y-105371041D01*
X107832389Y-104995134D01*
X107950000Y-104746633D01*
X108067611Y-104995134D01*
X108482577Y-105371041D01*
X108870961Y-105531904D01*
X109093000Y-105409915D01*
X109093000Y-104267000D01*
X106807000Y-104267000D01*
X106553000Y-104267000D01*
X106533000Y-104267000D01*
X106533000Y-104013000D01*
X106553000Y-104013000D01*
X106553000Y-102870085D01*
X106807000Y-102870085D01*
X106807000Y-104013000D01*
X109093000Y-104013000D01*
X109093000Y-102870085D01*
X109347000Y-102870085D01*
X109347000Y-104013000D01*
X109367000Y-104013000D01*
X109367000Y-104267000D01*
X109347000Y-104267000D01*
X109347000Y-105409915D01*
X109569039Y-105531904D01*
X109957423Y-105371041D01*
X110372389Y-104995134D01*
X110475014Y-104778297D01*
X110745302Y-105182811D01*
X111210849Y-105493880D01*
X111760000Y-105603113D01*
X112309151Y-105493880D01*
X112774698Y-105182811D01*
X112880144Y-105025000D01*
X113155829Y-105025000D01*
X113486077Y-105355824D01*
X114013309Y-105574750D01*
X114584187Y-105575248D01*
X115111800Y-105357243D01*
X115444623Y-105025000D01*
X120649995Y-105025000D01*
X120650000Y-105025001D01*
X120932484Y-104968810D01*
X120988675Y-104957633D01*
X121275790Y-104765790D01*
X123556579Y-102485000D01*
X128137153Y-102485000D01*
X128153538Y-102524655D01*
X128612927Y-102984846D01*
X129213453Y-103234206D01*
X129863694Y-103234774D01*
X130464655Y-102986462D01*
X130924846Y-102527073D01*
X131174206Y-101926547D01*
X131174208Y-101923694D01*
X138065226Y-101923694D01*
X138313538Y-102524655D01*
X138772927Y-102984846D01*
X139373453Y-103234206D01*
X140023694Y-103234774D01*
X140624655Y-102986462D01*
X141084846Y-102527073D01*
X141334206Y-101926547D01*
X141334774Y-101276306D01*
X141086462Y-100675345D01*
X140627073Y-100215154D01*
X140026547Y-99965794D01*
X139376306Y-99965226D01*
X138775345Y-100213538D01*
X138315154Y-100672927D01*
X138065794Y-101273453D01*
X138065226Y-101923694D01*
X131174208Y-101923694D01*
X131174774Y-101276306D01*
X130926462Y-100675345D01*
X130467073Y-100215154D01*
X129866547Y-99965794D01*
X129216306Y-99965226D01*
X128615345Y-100213538D01*
X128155154Y-100672927D01*
X128137684Y-100715000D01*
X123190000Y-100715000D01*
X122851325Y-100782367D01*
X122564210Y-100974210D01*
X122564208Y-100974213D01*
X120283420Y-103255000D01*
X115444171Y-103255000D01*
X115113923Y-102924176D01*
X115047456Y-102896577D01*
X115054005Y-102893864D01*
X115128139Y-102647745D01*
X114300000Y-101819605D01*
X113471861Y-102647745D01*
X113545995Y-102893864D01*
X113552483Y-102896196D01*
X113488200Y-102922757D01*
X113155377Y-103255000D01*
X112880144Y-103255000D01*
X112774698Y-103097189D01*
X112309151Y-102786120D01*
X111760000Y-102676887D01*
X111210849Y-102786120D01*
X110745302Y-103097189D01*
X110475014Y-103501703D01*
X110372389Y-103284866D01*
X109957423Y-102908959D01*
X109569039Y-102748096D01*
X109347000Y-102870085D01*
X109093000Y-102870085D01*
X108870961Y-102748096D01*
X108482577Y-102908959D01*
X108067611Y-103284866D01*
X107950000Y-103533367D01*
X107832389Y-103284866D01*
X107417423Y-102908959D01*
X107029039Y-102748096D01*
X106807000Y-102870085D01*
X106553000Y-102870085D01*
X106330961Y-102748096D01*
X105942577Y-102908959D01*
X105527611Y-103284866D01*
X105424986Y-103501703D01*
X105154698Y-103097189D01*
X104689151Y-102786120D01*
X104140000Y-102676887D01*
X103590849Y-102786120D01*
X103125302Y-103097189D01*
X102855014Y-103501703D01*
X102752389Y-103284866D01*
X102337423Y-102908959D01*
X101949039Y-102748096D01*
X101727000Y-102870085D01*
X101473000Y-102870085D01*
X101250961Y-102748096D01*
X100862577Y-102908959D01*
X100447611Y-103284866D01*
X100330000Y-103533367D01*
X100212389Y-103284866D01*
X99797423Y-102908959D01*
X99409039Y-102748096D01*
X99187000Y-102870085D01*
X98933000Y-102870085D01*
X98710961Y-102748096D01*
X98322577Y-102908959D01*
X97907611Y-103284866D01*
X97804986Y-103501703D01*
X97534698Y-103097189D01*
X97069151Y-102786120D01*
X96520000Y-102676887D01*
X95970849Y-102786120D01*
X95505302Y-103097189D01*
X95194233Y-103562736D01*
X95085000Y-104111887D01*
X90880000Y-104111887D01*
X90880000Y-101423223D01*
X112853035Y-101423223D01*
X112880222Y-101993454D01*
X113046136Y-102394005D01*
X113292255Y-102468139D01*
X114120395Y-101640000D01*
X114479605Y-101640000D01*
X115307745Y-102468139D01*
X115553864Y-102394005D01*
X115746965Y-101856777D01*
X115719778Y-101286546D01*
X115553864Y-100885995D01*
X115307745Y-100811861D01*
X114479605Y-101640000D01*
X114120395Y-101640000D01*
X113292255Y-100811861D01*
X113046136Y-100885995D01*
X112853035Y-101423223D01*
X90880000Y-101423223D01*
X90880000Y-100632255D01*
X113471861Y-100632255D01*
X114300000Y-101460395D01*
X115128139Y-100632255D01*
X115054005Y-100386136D01*
X114516777Y-100193035D01*
X113946546Y-100220222D01*
X113545995Y-100386136D01*
X113471861Y-100632255D01*
X90880000Y-100632255D01*
X90880000Y-96869041D01*
X95128086Y-96869041D01*
X95367611Y-97375134D01*
X95782577Y-97751041D01*
X96170961Y-97911904D01*
X96393000Y-97789915D01*
X96393000Y-96647000D01*
X95249371Y-96647000D01*
X95128086Y-96869041D01*
X90880000Y-96869041D01*
X90880000Y-96170959D01*
X95128086Y-96170959D01*
X95249371Y-96393000D01*
X96393000Y-96393000D01*
X96393000Y-95250085D01*
X96647000Y-95250085D01*
X96647000Y-96393000D01*
X96667000Y-96393000D01*
X96667000Y-96647000D01*
X96647000Y-96647000D01*
X96647000Y-97789915D01*
X96869039Y-97911904D01*
X97257423Y-97751041D01*
X97672389Y-97375134D01*
X97775014Y-97158297D01*
X98045302Y-97562811D01*
X98510849Y-97873880D01*
X99060000Y-97983113D01*
X99609151Y-97873880D01*
X100074698Y-97562811D01*
X100330000Y-97180725D01*
X100585302Y-97562811D01*
X101050849Y-97873880D01*
X101600000Y-97983113D01*
X102149151Y-97873880D01*
X102614698Y-97562811D01*
X102870000Y-97180725D01*
X103125302Y-97562811D01*
X103590849Y-97873880D01*
X104140000Y-97983113D01*
X104689151Y-97873880D01*
X105154698Y-97562811D01*
X105410000Y-97180725D01*
X105665302Y-97562811D01*
X106130849Y-97873880D01*
X106680000Y-97983113D01*
X107229151Y-97873880D01*
X107694698Y-97562811D01*
X107950000Y-97180725D01*
X108205302Y-97562811D01*
X108670849Y-97873880D01*
X109220000Y-97983113D01*
X109769151Y-97873880D01*
X110234698Y-97562811D01*
X110331101Y-97418535D01*
X110356838Y-97555317D01*
X110495910Y-97771441D01*
X110708110Y-97916431D01*
X110960000Y-97967440D01*
X112560000Y-97967440D01*
X112795317Y-97923162D01*
X113011441Y-97784090D01*
X113156431Y-97571890D01*
X113207440Y-97320000D01*
X113207440Y-95720000D01*
X113188624Y-95620000D01*
X127992560Y-95620000D01*
X127992560Y-97420000D01*
X128036838Y-97655317D01*
X128175910Y-97871441D01*
X128388110Y-98016431D01*
X128640000Y-98067440D01*
X130440000Y-98067440D01*
X130675317Y-98023162D01*
X130891441Y-97884090D01*
X131036431Y-97671890D01*
X131087440Y-97420000D01*
X131087440Y-95620000D01*
X131043162Y-95384683D01*
X130904090Y-95168559D01*
X130691890Y-95023569D01*
X130440000Y-94972560D01*
X128640000Y-94972560D01*
X128404683Y-95016838D01*
X128188559Y-95155910D01*
X128043569Y-95368110D01*
X127992560Y-95620000D01*
X113188624Y-95620000D01*
X113163162Y-95484683D01*
X113024090Y-95268559D01*
X112811890Y-95123569D01*
X112560000Y-95072560D01*
X110960000Y-95072560D01*
X110724683Y-95116838D01*
X110508559Y-95255910D01*
X110363569Y-95468110D01*
X110332185Y-95623089D01*
X110234698Y-95477189D01*
X109769151Y-95166120D01*
X109220000Y-95056887D01*
X108670849Y-95166120D01*
X108205302Y-95477189D01*
X107950000Y-95859275D01*
X107694698Y-95477189D01*
X107229151Y-95166120D01*
X106680000Y-95056887D01*
X106130849Y-95166120D01*
X105665302Y-95477189D01*
X105410000Y-95859275D01*
X105154698Y-95477189D01*
X104689151Y-95166120D01*
X104140000Y-95056887D01*
X103590849Y-95166120D01*
X103125302Y-95477189D01*
X102870000Y-95859275D01*
X102614698Y-95477189D01*
X102149151Y-95166120D01*
X101600000Y-95056887D01*
X101050849Y-95166120D01*
X100585302Y-95477189D01*
X100330000Y-95859275D01*
X100074698Y-95477189D01*
X99609151Y-95166120D01*
X99060000Y-95056887D01*
X98510849Y-95166120D01*
X98045302Y-95477189D01*
X97775014Y-95881703D01*
X97672389Y-95664866D01*
X97257423Y-95288959D01*
X96869039Y-95128096D01*
X96647000Y-95250085D01*
X96393000Y-95250085D01*
X96170961Y-95128096D01*
X95782577Y-95288959D01*
X95367611Y-95664866D01*
X95128086Y-96170959D01*
X90880000Y-96170959D01*
X90880000Y-89085167D01*
X98124838Y-89085167D01*
X98266883Y-89428943D01*
X98529673Y-89692192D01*
X98873201Y-89834838D01*
X99245167Y-89835162D01*
X99500430Y-89729690D01*
X99395162Y-89983201D01*
X99394838Y-90355167D01*
X99536883Y-90698943D01*
X99799673Y-90962192D01*
X100143201Y-91104838D01*
X100515167Y-91105162D01*
X100858943Y-90963117D01*
X100892118Y-90930000D01*
X103339367Y-90930000D01*
X103205162Y-91253201D01*
X103204838Y-91625167D01*
X103346883Y-91968943D01*
X103609673Y-92232192D01*
X103953201Y-92374838D01*
X104325167Y-92375162D01*
X104668943Y-92233117D01*
X104702118Y-92200000D01*
X107149367Y-92200000D01*
X107015162Y-92523201D01*
X107014838Y-92895167D01*
X107156883Y-93238943D01*
X107419673Y-93502192D01*
X107763201Y-93644838D01*
X108135167Y-93645162D01*
X108390430Y-93539690D01*
X108285162Y-93793201D01*
X108284838Y-94165167D01*
X108426883Y-94508943D01*
X108689673Y-94772192D01*
X109033201Y-94914838D01*
X109405167Y-94915162D01*
X109748943Y-94773117D01*
X109782118Y-94740000D01*
X145487537Y-94740000D01*
X145519673Y-94772192D01*
X145863201Y-94914838D01*
X146235167Y-94915162D01*
X146578943Y-94773117D01*
X146842192Y-94510327D01*
X146984838Y-94166799D01*
X146985162Y-93794833D01*
X146850944Y-93470000D01*
X154377537Y-93470000D01*
X154409673Y-93502192D01*
X154753201Y-93644838D01*
X155125167Y-93645162D01*
X155468943Y-93503117D01*
X155732192Y-93240327D01*
X155874838Y-92896799D01*
X155875162Y-92524833D01*
X155733117Y-92181057D01*
X155470327Y-91917808D01*
X155126799Y-91775162D01*
X154754833Y-91774838D01*
X154411057Y-91916883D01*
X154377882Y-91950000D01*
X149390633Y-91950000D01*
X149524838Y-91626799D01*
X149525162Y-91254833D01*
X149383117Y-90911057D01*
X149120327Y-90647808D01*
X148776799Y-90505162D01*
X148404833Y-90504838D01*
X148061057Y-90646883D01*
X148027882Y-90680000D01*
X143040633Y-90680000D01*
X143174838Y-90356799D01*
X143175162Y-89984833D01*
X143033117Y-89641057D01*
X142770327Y-89377808D01*
X142426799Y-89235162D01*
X142054833Y-89234838D01*
X141711057Y-89376883D01*
X141677882Y-89410000D01*
X137960633Y-89410000D01*
X138094838Y-89086799D01*
X138095162Y-88714833D01*
X137953117Y-88371057D01*
X137690327Y-88107808D01*
X137346799Y-87965162D01*
X136974833Y-87964838D01*
X136631057Y-88106883D01*
X136597882Y-88140000D01*
X99622463Y-88140000D01*
X99590327Y-88107808D01*
X99246799Y-87965162D01*
X98874833Y-87964838D01*
X98531057Y-88106883D01*
X98267808Y-88369673D01*
X98125162Y-88713201D01*
X98124838Y-89085167D01*
X90880000Y-89085167D01*
X90880000Y-86331887D01*
X95085000Y-86331887D01*
X95085000Y-86388113D01*
X95194233Y-86937264D01*
X95505302Y-87402811D01*
X95970849Y-87713880D01*
X96520000Y-87823113D01*
X97069151Y-87713880D01*
X97534698Y-87402811D01*
X97804986Y-86998297D01*
X97907611Y-87215134D01*
X98322577Y-87591041D01*
X98710961Y-87751904D01*
X98933000Y-87629915D01*
X98933000Y-86487000D01*
X98913000Y-86487000D01*
X98913000Y-86233000D01*
X98933000Y-86233000D01*
X98933000Y-85090085D01*
X99187000Y-85090085D01*
X99187000Y-86233000D01*
X99207000Y-86233000D01*
X99207000Y-86487000D01*
X99187000Y-86487000D01*
X99187000Y-87629915D01*
X99409039Y-87751904D01*
X99797423Y-87591041D01*
X100212389Y-87215134D01*
X100315014Y-86998297D01*
X100585302Y-87402811D01*
X101050849Y-87713880D01*
X101600000Y-87823113D01*
X102149151Y-87713880D01*
X102614698Y-87402811D01*
X102884986Y-86998297D01*
X102987611Y-87215134D01*
X103402577Y-87591041D01*
X103790961Y-87751904D01*
X104013000Y-87629915D01*
X104013000Y-86487000D01*
X103993000Y-86487000D01*
X103993000Y-86233000D01*
X104013000Y-86233000D01*
X104013000Y-85090085D01*
X104267000Y-85090085D01*
X104267000Y-86233000D01*
X104287000Y-86233000D01*
X104287000Y-86487000D01*
X104267000Y-86487000D01*
X104267000Y-87629915D01*
X104489039Y-87751904D01*
X104877423Y-87591041D01*
X105292389Y-87215134D01*
X105395014Y-86998297D01*
X105665302Y-87402811D01*
X106130849Y-87713880D01*
X106680000Y-87823113D01*
X107229151Y-87713880D01*
X107694698Y-87402811D01*
X107964986Y-86998297D01*
X108067611Y-87215134D01*
X108482577Y-87591041D01*
X108870961Y-87751904D01*
X109093000Y-87629915D01*
X109093000Y-86487000D01*
X109073000Y-86487000D01*
X109073000Y-86233000D01*
X109093000Y-86233000D01*
X109093000Y-85090085D01*
X109347000Y-85090085D01*
X109347000Y-86233000D01*
X109367000Y-86233000D01*
X109367000Y-86487000D01*
X109347000Y-86487000D01*
X109347000Y-87629915D01*
X109569039Y-87751904D01*
X109957423Y-87591041D01*
X110372389Y-87215134D01*
X110475014Y-86998297D01*
X110745302Y-87402811D01*
X111210849Y-87713880D01*
X111760000Y-87823113D01*
X112309151Y-87713880D01*
X112774698Y-87402811D01*
X112880144Y-87245000D01*
X113155829Y-87245000D01*
X113486077Y-87575824D01*
X114013309Y-87794750D01*
X114584187Y-87795248D01*
X115111800Y-87577243D01*
X115515824Y-87173923D01*
X115734750Y-86646691D01*
X115735024Y-86331887D01*
X123025000Y-86331887D01*
X123025000Y-86388113D01*
X123134233Y-86937264D01*
X123445302Y-87402811D01*
X123910849Y-87713880D01*
X124460000Y-87823113D01*
X125009151Y-87713880D01*
X125474698Y-87402811D01*
X125730000Y-87020725D01*
X125985302Y-87402811D01*
X126450849Y-87713880D01*
X127000000Y-87823113D01*
X127549151Y-87713880D01*
X128014698Y-87402811D01*
X128270000Y-87020725D01*
X128525302Y-87402811D01*
X128990849Y-87713880D01*
X129540000Y-87823113D01*
X130089151Y-87713880D01*
X130554698Y-87402811D01*
X130810000Y-87020725D01*
X131065302Y-87402811D01*
X131530849Y-87713880D01*
X132080000Y-87823113D01*
X132629151Y-87713880D01*
X133094698Y-87402811D01*
X133350000Y-87020725D01*
X133605302Y-87402811D01*
X134070849Y-87713880D01*
X134620000Y-87823113D01*
X135169151Y-87713880D01*
X135634698Y-87402811D01*
X135890000Y-87020725D01*
X136145302Y-87402811D01*
X136610849Y-87713880D01*
X137160000Y-87823113D01*
X137709151Y-87713880D01*
X138174698Y-87402811D01*
X138430000Y-87020725D01*
X138685302Y-87402811D01*
X139150849Y-87713880D01*
X139700000Y-87823113D01*
X140249151Y-87713880D01*
X140714698Y-87402811D01*
X140970000Y-87020725D01*
X141225302Y-87402811D01*
X141690849Y-87713880D01*
X142240000Y-87823113D01*
X142789151Y-87713880D01*
X143254698Y-87402811D01*
X143510000Y-87020725D01*
X143765302Y-87402811D01*
X144230849Y-87713880D01*
X144780000Y-87823113D01*
X145329151Y-87713880D01*
X145794698Y-87402811D01*
X146050000Y-87020725D01*
X146305302Y-87402811D01*
X146770849Y-87713880D01*
X147320000Y-87823113D01*
X147869151Y-87713880D01*
X148334698Y-87402811D01*
X148590000Y-87020725D01*
X148845302Y-87402811D01*
X149310849Y-87713880D01*
X149860000Y-87823113D01*
X150409151Y-87713880D01*
X150874698Y-87402811D01*
X151130000Y-87020725D01*
X151385302Y-87402811D01*
X151850849Y-87713880D01*
X152400000Y-87823113D01*
X152949151Y-87713880D01*
X153414698Y-87402811D01*
X153670000Y-87020725D01*
X153925302Y-87402811D01*
X154390849Y-87713880D01*
X154940000Y-87823113D01*
X155489151Y-87713880D01*
X155954698Y-87402811D01*
X156210000Y-87020725D01*
X156465302Y-87402811D01*
X156930849Y-87713880D01*
X157480000Y-87823113D01*
X158029151Y-87713880D01*
X158494698Y-87402811D01*
X158744027Y-87029664D01*
X158802757Y-87171800D01*
X159206077Y-87575824D01*
X159733309Y-87794750D01*
X160304187Y-87795248D01*
X160831800Y-87577243D01*
X161235824Y-87173923D01*
X161454750Y-86646691D01*
X161455248Y-86075813D01*
X161237243Y-85548200D01*
X160833923Y-85144176D01*
X160767456Y-85116577D01*
X160774005Y-85113864D01*
X160848139Y-84867745D01*
X160020000Y-84039605D01*
X159191861Y-84867745D01*
X159265995Y-85113864D01*
X159272483Y-85116196D01*
X159208200Y-85142757D01*
X158804176Y-85546077D01*
X158744180Y-85690564D01*
X158494698Y-85317189D01*
X158029151Y-85006120D01*
X157480000Y-84896887D01*
X156930849Y-85006120D01*
X156465302Y-85317189D01*
X156210000Y-85699275D01*
X155954698Y-85317189D01*
X155489151Y-85006120D01*
X154940000Y-84896887D01*
X154390849Y-85006120D01*
X153925302Y-85317189D01*
X153670000Y-85699275D01*
X153414698Y-85317189D01*
X152949151Y-85006120D01*
X152400000Y-84896887D01*
X151850849Y-85006120D01*
X151385302Y-85317189D01*
X151130000Y-85699275D01*
X150874698Y-85317189D01*
X150409151Y-85006120D01*
X149860000Y-84896887D01*
X149310849Y-85006120D01*
X148845302Y-85317189D01*
X148590000Y-85699275D01*
X148334698Y-85317189D01*
X147869151Y-85006120D01*
X147320000Y-84896887D01*
X146770849Y-85006120D01*
X146305302Y-85317189D01*
X146050000Y-85699275D01*
X145794698Y-85317189D01*
X145329151Y-85006120D01*
X144780000Y-84896887D01*
X144230849Y-85006120D01*
X143765302Y-85317189D01*
X143510000Y-85699275D01*
X143254698Y-85317189D01*
X142789151Y-85006120D01*
X142240000Y-84896887D01*
X141690849Y-85006120D01*
X141225302Y-85317189D01*
X140970000Y-85699275D01*
X140714698Y-85317189D01*
X140249151Y-85006120D01*
X139700000Y-84896887D01*
X139150849Y-85006120D01*
X138685302Y-85317189D01*
X138430000Y-85699275D01*
X138174698Y-85317189D01*
X137709151Y-85006120D01*
X137160000Y-84896887D01*
X136610849Y-85006120D01*
X136145302Y-85317189D01*
X135890000Y-85699275D01*
X135634698Y-85317189D01*
X135169151Y-85006120D01*
X134620000Y-84896887D01*
X134070849Y-85006120D01*
X133605302Y-85317189D01*
X133350000Y-85699275D01*
X133094698Y-85317189D01*
X132629151Y-85006120D01*
X132080000Y-84896887D01*
X131530849Y-85006120D01*
X131065302Y-85317189D01*
X130810000Y-85699275D01*
X130554698Y-85317189D01*
X130089151Y-85006120D01*
X129540000Y-84896887D01*
X128990849Y-85006120D01*
X128525302Y-85317189D01*
X128270000Y-85699275D01*
X128014698Y-85317189D01*
X127549151Y-85006120D01*
X127000000Y-84896887D01*
X126450849Y-85006120D01*
X125985302Y-85317189D01*
X125730000Y-85699275D01*
X125474698Y-85317189D01*
X125009151Y-85006120D01*
X124460000Y-84896887D01*
X123910849Y-85006120D01*
X123445302Y-85317189D01*
X123134233Y-85782736D01*
X123025000Y-86331887D01*
X115735024Y-86331887D01*
X115735248Y-86075813D01*
X115517243Y-85548200D01*
X115113923Y-85144176D01*
X115047456Y-85116577D01*
X115054005Y-85113864D01*
X115128139Y-84867745D01*
X114300000Y-84039605D01*
X113471861Y-84867745D01*
X113545995Y-85113864D01*
X113552483Y-85116196D01*
X113488200Y-85142757D01*
X113155377Y-85475000D01*
X112880144Y-85475000D01*
X112774698Y-85317189D01*
X112309151Y-85006120D01*
X111760000Y-84896887D01*
X111210849Y-85006120D01*
X110745302Y-85317189D01*
X110475014Y-85721703D01*
X110372389Y-85504866D01*
X109957423Y-85128959D01*
X109569039Y-84968096D01*
X109347000Y-85090085D01*
X109093000Y-85090085D01*
X108870961Y-84968096D01*
X108482577Y-85128959D01*
X108067611Y-85504866D01*
X107964986Y-85721703D01*
X107694698Y-85317189D01*
X107229151Y-85006120D01*
X106680000Y-84896887D01*
X106130849Y-85006120D01*
X105665302Y-85317189D01*
X105395014Y-85721703D01*
X105292389Y-85504866D01*
X104877423Y-85128959D01*
X104489039Y-84968096D01*
X104267000Y-85090085D01*
X104013000Y-85090085D01*
X103790961Y-84968096D01*
X103402577Y-85128959D01*
X102987611Y-85504866D01*
X102884986Y-85721703D01*
X102614698Y-85317189D01*
X102149151Y-85006120D01*
X101600000Y-84896887D01*
X101050849Y-85006120D01*
X100585302Y-85317189D01*
X100315014Y-85721703D01*
X100212389Y-85504866D01*
X99797423Y-85128959D01*
X99409039Y-84968096D01*
X99187000Y-85090085D01*
X98933000Y-85090085D01*
X98710961Y-84968096D01*
X98322577Y-85128959D01*
X97907611Y-85504866D01*
X97804986Y-85721703D01*
X97534698Y-85317189D01*
X97069151Y-85006120D01*
X96520000Y-84896887D01*
X95970849Y-85006120D01*
X95505302Y-85317189D01*
X95194233Y-85782736D01*
X95085000Y-86331887D01*
X90880000Y-86331887D01*
X90880000Y-83643223D01*
X112853035Y-83643223D01*
X112880222Y-84213454D01*
X113046136Y-84614005D01*
X113292255Y-84688139D01*
X114120395Y-83860000D01*
X113292255Y-83031861D01*
X113046136Y-83105995D01*
X112853035Y-83643223D01*
X90880000Y-83643223D01*
X90880000Y-82852255D01*
X113471861Y-82852255D01*
X114300000Y-83680395D01*
X114314143Y-83666253D01*
X114493748Y-83845858D01*
X114479605Y-83860000D01*
X115307745Y-84688139D01*
X115553864Y-84614005D01*
X115746965Y-84076777D01*
X115743551Y-84005167D01*
X134954838Y-84005167D01*
X135096883Y-84348943D01*
X135359673Y-84612192D01*
X135703201Y-84754838D01*
X136075167Y-84755162D01*
X136418943Y-84613117D01*
X136452118Y-84580000D01*
X149297537Y-84580000D01*
X149329673Y-84612192D01*
X149673201Y-84754838D01*
X150045167Y-84755162D01*
X150388943Y-84613117D01*
X150652192Y-84350327D01*
X150794838Y-84006799D01*
X150795154Y-83643223D01*
X158573035Y-83643223D01*
X158600222Y-84213454D01*
X158766136Y-84614005D01*
X159012255Y-84688139D01*
X159840395Y-83860000D01*
X160199605Y-83860000D01*
X161027745Y-84688139D01*
X161273864Y-84614005D01*
X161466965Y-84076777D01*
X161439778Y-83506546D01*
X161273864Y-83105995D01*
X161027745Y-83031861D01*
X160199605Y-83860000D01*
X159840395Y-83860000D01*
X159012255Y-83031861D01*
X158766136Y-83105995D01*
X158573035Y-83643223D01*
X150795154Y-83643223D01*
X150795162Y-83634833D01*
X150653117Y-83291057D01*
X150390327Y-83027808D01*
X150046799Y-82885162D01*
X149674833Y-82884838D01*
X149331057Y-83026883D01*
X149297882Y-83060000D01*
X148120633Y-83060000D01*
X148206896Y-82852255D01*
X159191861Y-82852255D01*
X160020000Y-83680395D01*
X160848139Y-82852255D01*
X160774005Y-82606136D01*
X160236777Y-82413035D01*
X159666546Y-82440222D01*
X159265995Y-82606136D01*
X159191861Y-82852255D01*
X148206896Y-82852255D01*
X148254838Y-82736799D01*
X148255162Y-82364833D01*
X148113117Y-82021057D01*
X147850327Y-81757808D01*
X147506799Y-81615162D01*
X147134833Y-81614838D01*
X146791057Y-81756883D01*
X146757882Y-81790000D01*
X138992463Y-81790000D01*
X138960327Y-81757808D01*
X138616799Y-81615162D01*
X138244833Y-81614838D01*
X137901057Y-81756883D01*
X137637808Y-82019673D01*
X137495162Y-82363201D01*
X137494838Y-82735167D01*
X137629056Y-83060000D01*
X136452463Y-83060000D01*
X136420327Y-83027808D01*
X136076799Y-82885162D01*
X135704833Y-82884838D01*
X135361057Y-83026883D01*
X135097808Y-83289673D01*
X134955162Y-83633201D01*
X134954838Y-84005167D01*
X115743551Y-84005167D01*
X115719778Y-83506546D01*
X115710904Y-83485123D01*
X115755167Y-83485162D01*
X116098943Y-83343117D01*
X116132118Y-83310000D01*
X131517537Y-83310000D01*
X131549673Y-83342192D01*
X131893201Y-83484838D01*
X132265167Y-83485162D01*
X132608943Y-83343117D01*
X132872192Y-83080327D01*
X133014838Y-82736799D01*
X133015162Y-82364833D01*
X132873117Y-82021057D01*
X132610327Y-81757808D01*
X132266799Y-81615162D01*
X131894833Y-81614838D01*
X131551057Y-81756883D01*
X131517882Y-81790000D01*
X130340633Y-81790000D01*
X130474838Y-81466799D01*
X130475162Y-81094833D01*
X130333117Y-80751057D01*
X130070327Y-80487808D01*
X129726799Y-80345162D01*
X129354833Y-80344838D01*
X129011057Y-80486883D01*
X128977882Y-80520000D01*
X127800633Y-80520000D01*
X127934838Y-80196799D01*
X127935152Y-79835962D01*
X128014698Y-79782811D01*
X128270000Y-79400725D01*
X128525302Y-79782811D01*
X128990849Y-80093880D01*
X129540000Y-80203113D01*
X130089151Y-80093880D01*
X130554698Y-79782811D01*
X130810000Y-79400725D01*
X131065302Y-79782811D01*
X131530849Y-80093880D01*
X132080000Y-80203113D01*
X132629151Y-80093880D01*
X133094698Y-79782811D01*
X133350000Y-79400725D01*
X133605302Y-79782811D01*
X134070849Y-80093880D01*
X134620000Y-80203113D01*
X135169151Y-80093880D01*
X135634698Y-79782811D01*
X135890000Y-79400725D01*
X136145302Y-79782811D01*
X136610849Y-80093880D01*
X137160000Y-80203113D01*
X137709151Y-80093880D01*
X138174698Y-79782811D01*
X138430000Y-79400725D01*
X138685302Y-79782811D01*
X139150849Y-80093880D01*
X139700000Y-80203113D01*
X140249151Y-80093880D01*
X140714698Y-79782811D01*
X140970000Y-79400725D01*
X141225302Y-79782811D01*
X141690849Y-80093880D01*
X142240000Y-80203113D01*
X142789151Y-80093880D01*
X143254698Y-79782811D01*
X143510000Y-79400725D01*
X143765302Y-79782811D01*
X144230849Y-80093880D01*
X144780000Y-80203113D01*
X145329151Y-80093880D01*
X145794698Y-79782811D01*
X146050000Y-79400725D01*
X146305302Y-79782811D01*
X146770849Y-80093880D01*
X147320000Y-80203113D01*
X147869151Y-80093880D01*
X148334698Y-79782811D01*
X148590000Y-79400725D01*
X148845302Y-79782811D01*
X149310849Y-80093880D01*
X149860000Y-80203113D01*
X150409151Y-80093880D01*
X150874698Y-79782811D01*
X151130000Y-79400725D01*
X151385302Y-79782811D01*
X151850849Y-80093880D01*
X152400000Y-80203113D01*
X152949151Y-80093880D01*
X153414698Y-79782811D01*
X153670000Y-79400725D01*
X153925302Y-79782811D01*
X154390849Y-80093880D01*
X154940000Y-80203113D01*
X155489151Y-80093880D01*
X155954698Y-79782811D01*
X156051101Y-79638535D01*
X156076838Y-79775317D01*
X156215910Y-79991441D01*
X156428110Y-80136431D01*
X156680000Y-80187440D01*
X158280000Y-80187440D01*
X158515317Y-80143162D01*
X158731441Y-80004090D01*
X158876431Y-79791890D01*
X158927440Y-79540000D01*
X158927440Y-77940000D01*
X158883162Y-77704683D01*
X158744090Y-77488559D01*
X158531890Y-77343569D01*
X158280000Y-77292560D01*
X156680000Y-77292560D01*
X156444683Y-77336838D01*
X156228559Y-77475910D01*
X156083569Y-77688110D01*
X156052185Y-77843089D01*
X155954698Y-77697189D01*
X155489151Y-77386120D01*
X154940000Y-77276887D01*
X154390849Y-77386120D01*
X153925302Y-77697189D01*
X153670000Y-78079275D01*
X153414698Y-77697189D01*
X152949151Y-77386120D01*
X152400000Y-77276887D01*
X151850849Y-77386120D01*
X151385302Y-77697189D01*
X151130000Y-78079275D01*
X150874698Y-77697189D01*
X150409151Y-77386120D01*
X149860000Y-77276887D01*
X149310849Y-77386120D01*
X148845302Y-77697189D01*
X148590000Y-78079275D01*
X148334698Y-77697189D01*
X147869151Y-77386120D01*
X147320000Y-77276887D01*
X146770849Y-77386120D01*
X146305302Y-77697189D01*
X146050000Y-78079275D01*
X145794698Y-77697189D01*
X145329151Y-77386120D01*
X144780000Y-77276887D01*
X144230849Y-77386120D01*
X143765302Y-77697189D01*
X143510000Y-78079275D01*
X143254698Y-77697189D01*
X142789151Y-77386120D01*
X142240000Y-77276887D01*
X141690849Y-77386120D01*
X141225302Y-77697189D01*
X140970000Y-78079275D01*
X140714698Y-77697189D01*
X140249151Y-77386120D01*
X139700000Y-77276887D01*
X139150849Y-77386120D01*
X138685302Y-77697189D01*
X138430000Y-78079275D01*
X138174698Y-77697189D01*
X137709151Y-77386120D01*
X137160000Y-77276887D01*
X136610849Y-77386120D01*
X136145302Y-77697189D01*
X135890000Y-78079275D01*
X135634698Y-77697189D01*
X135169151Y-77386120D01*
X134620000Y-77276887D01*
X134070849Y-77386120D01*
X133605302Y-77697189D01*
X133350000Y-78079275D01*
X133094698Y-77697189D01*
X132629151Y-77386120D01*
X132080000Y-77276887D01*
X131530849Y-77386120D01*
X131065302Y-77697189D01*
X130810000Y-78079275D01*
X130554698Y-77697189D01*
X130089151Y-77386120D01*
X129540000Y-77276887D01*
X128990849Y-77386120D01*
X128525302Y-77697189D01*
X128270000Y-78079275D01*
X128014698Y-77697189D01*
X127549151Y-77386120D01*
X127000000Y-77276887D01*
X126450849Y-77386120D01*
X125985302Y-77697189D01*
X125715014Y-78101703D01*
X125612389Y-77884866D01*
X125197423Y-77508959D01*
X124809039Y-77348096D01*
X124587000Y-77470085D01*
X124587000Y-78613000D01*
X124607000Y-78613000D01*
X124607000Y-78867000D01*
X124587000Y-78867000D01*
X124587000Y-78887000D01*
X124333000Y-78887000D01*
X124333000Y-78867000D01*
X123189371Y-78867000D01*
X123068086Y-79089041D01*
X123144265Y-79250000D01*
X121212463Y-79250000D01*
X121180327Y-79217808D01*
X120836799Y-79075162D01*
X120464833Y-79074838D01*
X120121057Y-79216883D01*
X119857808Y-79479673D01*
X119715162Y-79823201D01*
X119714838Y-80195167D01*
X119849056Y-80520000D01*
X118672463Y-80520000D01*
X118640327Y-80487808D01*
X118296799Y-80345162D01*
X117924833Y-80344838D01*
X117581057Y-80486883D01*
X117317808Y-80749673D01*
X117175162Y-81093201D01*
X117174838Y-81465167D01*
X117309056Y-81790000D01*
X116132463Y-81790000D01*
X116100327Y-81757808D01*
X115756799Y-81615162D01*
X115384833Y-81614838D01*
X115041057Y-81756883D01*
X114777808Y-82019673D01*
X114635162Y-82363201D01*
X114635082Y-82455558D01*
X114516777Y-82413035D01*
X113946546Y-82440222D01*
X113545995Y-82606136D01*
X113471861Y-82852255D01*
X90880000Y-82852255D01*
X90880000Y-81465167D01*
X104474838Y-81465167D01*
X104616883Y-81808943D01*
X104879673Y-82072192D01*
X105223201Y-82214838D01*
X105595167Y-82215162D01*
X105938943Y-82073117D01*
X105972118Y-82040000D01*
X111197537Y-82040000D01*
X111229673Y-82072192D01*
X111573201Y-82214838D01*
X111945167Y-82215162D01*
X112288943Y-82073117D01*
X112552192Y-81810327D01*
X112694838Y-81466799D01*
X112695162Y-81094833D01*
X112553117Y-80751057D01*
X112290327Y-80487808D01*
X111946799Y-80345162D01*
X111574833Y-80344838D01*
X111231057Y-80486883D01*
X111197882Y-80520000D01*
X105972463Y-80520000D01*
X105940327Y-80487808D01*
X105596799Y-80345162D01*
X105224833Y-80344838D01*
X104881057Y-80486883D01*
X104617808Y-80749673D01*
X104475162Y-81093201D01*
X104474838Y-81465167D01*
X90880000Y-81465167D01*
X90880000Y-79089041D01*
X95128086Y-79089041D01*
X95367611Y-79595134D01*
X95782577Y-79971041D01*
X96170961Y-80131904D01*
X96393000Y-80009915D01*
X96393000Y-78867000D01*
X95249371Y-78867000D01*
X95128086Y-79089041D01*
X90880000Y-79089041D01*
X90880000Y-78390959D01*
X95128086Y-78390959D01*
X95249371Y-78613000D01*
X96393000Y-78613000D01*
X96393000Y-77470085D01*
X96647000Y-77470085D01*
X96647000Y-78613000D01*
X96667000Y-78613000D01*
X96667000Y-78867000D01*
X96647000Y-78867000D01*
X96647000Y-80009915D01*
X96869039Y-80131904D01*
X97257423Y-79971041D01*
X97672389Y-79595134D01*
X97775014Y-79378297D01*
X98045302Y-79782811D01*
X98510849Y-80093880D01*
X99060000Y-80203113D01*
X99609151Y-80093880D01*
X100074698Y-79782811D01*
X100344986Y-79378297D01*
X100447611Y-79595134D01*
X100862577Y-79971041D01*
X101250961Y-80131904D01*
X101473000Y-80009915D01*
X101473000Y-78867000D01*
X101453000Y-78867000D01*
X101453000Y-78613000D01*
X101473000Y-78613000D01*
X101473000Y-77470085D01*
X101727000Y-77470085D01*
X101727000Y-78613000D01*
X101747000Y-78613000D01*
X101747000Y-78867000D01*
X101727000Y-78867000D01*
X101727000Y-80009915D01*
X101949039Y-80131904D01*
X102337423Y-79971041D01*
X102752389Y-79595134D01*
X102855014Y-79378297D01*
X103125302Y-79782811D01*
X103590849Y-80093880D01*
X104140000Y-80203113D01*
X104689151Y-80093880D01*
X105154698Y-79782811D01*
X105410000Y-79400725D01*
X105665302Y-79782811D01*
X106130849Y-80093880D01*
X106680000Y-80203113D01*
X107229151Y-80093880D01*
X107694698Y-79782811D01*
X107950000Y-79400725D01*
X108205302Y-79782811D01*
X108670849Y-80093880D01*
X109220000Y-80203113D01*
X109769151Y-80093880D01*
X110234698Y-79782811D01*
X110331101Y-79638535D01*
X110356838Y-79775317D01*
X110495910Y-79991441D01*
X110708110Y-80136431D01*
X110960000Y-80187440D01*
X112560000Y-80187440D01*
X112795317Y-80143162D01*
X113011441Y-80004090D01*
X113156431Y-79791890D01*
X113207440Y-79540000D01*
X113207440Y-78390959D01*
X123068086Y-78390959D01*
X123189371Y-78613000D01*
X124333000Y-78613000D01*
X124333000Y-77470085D01*
X124110961Y-77348096D01*
X123722577Y-77508959D01*
X123307611Y-77884866D01*
X123068086Y-78390959D01*
X113207440Y-78390959D01*
X113207440Y-77940000D01*
X113163162Y-77704683D01*
X113024090Y-77488559D01*
X112811890Y-77343569D01*
X112560000Y-77292560D01*
X110960000Y-77292560D01*
X110724683Y-77336838D01*
X110508559Y-77475910D01*
X110363569Y-77688110D01*
X110332185Y-77843089D01*
X110234698Y-77697189D01*
X109769151Y-77386120D01*
X109220000Y-77276887D01*
X108670849Y-77386120D01*
X108205302Y-77697189D01*
X107950000Y-78079275D01*
X107694698Y-77697189D01*
X107229151Y-77386120D01*
X106680000Y-77276887D01*
X106130849Y-77386120D01*
X105665302Y-77697189D01*
X105410000Y-78079275D01*
X105154698Y-77697189D01*
X104689151Y-77386120D01*
X104140000Y-77276887D01*
X103590849Y-77386120D01*
X103125302Y-77697189D01*
X102855014Y-78101703D01*
X102752389Y-77884866D01*
X102337423Y-77508959D01*
X101949039Y-77348096D01*
X101727000Y-77470085D01*
X101473000Y-77470085D01*
X101250961Y-77348096D01*
X100862577Y-77508959D01*
X100447611Y-77884866D01*
X100344986Y-78101703D01*
X100074698Y-77697189D01*
X99609151Y-77386120D01*
X99060000Y-77276887D01*
X98510849Y-77386120D01*
X98045302Y-77697189D01*
X97775014Y-78101703D01*
X97672389Y-77884866D01*
X97257423Y-77508959D01*
X96869039Y-77348096D01*
X96647000Y-77470085D01*
X96393000Y-77470085D01*
X96170961Y-77348096D01*
X95782577Y-77508959D01*
X95367611Y-77884866D01*
X95128086Y-78390959D01*
X90880000Y-78390959D01*
X90880000Y-76385167D01*
X105744838Y-76385167D01*
X105886883Y-76728943D01*
X106149673Y-76992192D01*
X106493201Y-77134838D01*
X106865167Y-77135162D01*
X107208943Y-76993117D01*
X107242118Y-76960000D01*
X150567537Y-76960000D01*
X150599673Y-76992192D01*
X150943201Y-77134838D01*
X151315167Y-77135162D01*
X151658943Y-76993117D01*
X151922192Y-76730327D01*
X152064838Y-76386799D01*
X152065162Y-76014833D01*
X151923117Y-75671057D01*
X151660327Y-75407808D01*
X151316799Y-75265162D01*
X150944833Y-75264838D01*
X150601057Y-75406883D01*
X150567882Y-75440000D01*
X107242463Y-75440000D01*
X107210327Y-75407808D01*
X106866799Y-75265162D01*
X106494833Y-75264838D01*
X106151057Y-75406883D01*
X105887808Y-75669673D01*
X105745162Y-76013201D01*
X105744838Y-76385167D01*
X90880000Y-76385167D01*
X90880000Y-67716400D01*
X105168960Y-67716400D01*
X105168960Y-69443600D01*
X105213238Y-69678917D01*
X105352310Y-69895041D01*
X105564510Y-70040031D01*
X105816400Y-70091040D01*
X106939460Y-70091040D01*
X111134208Y-74285787D01*
X111134210Y-74285790D01*
X111421325Y-74477633D01*
X111477516Y-74488810D01*
X111760000Y-74545001D01*
X111760005Y-74545000D01*
X155843420Y-74545000D01*
X169295000Y-87996579D01*
X169295000Y-90037153D01*
X169255345Y-90053538D01*
X168795154Y-90512927D01*
X168545794Y-91113453D01*
X168545226Y-91763694D01*
X168793538Y-92364655D01*
X169252927Y-92824846D01*
X169853453Y-93074206D01*
X170503694Y-93074774D01*
X171104655Y-92826462D01*
X171564846Y-92367073D01*
X171814206Y-91766547D01*
X171814208Y-91763694D01*
X178705226Y-91763694D01*
X178953538Y-92364655D01*
X179412927Y-92824846D01*
X180013453Y-93074206D01*
X180663694Y-93074774D01*
X181264655Y-92826462D01*
X181724846Y-92367073D01*
X181974206Y-91766547D01*
X181974774Y-91116306D01*
X181726462Y-90515345D01*
X181267073Y-90055154D01*
X180666547Y-89805794D01*
X180016306Y-89805226D01*
X179415345Y-90053538D01*
X178955154Y-90512927D01*
X178705794Y-91113453D01*
X178705226Y-91763694D01*
X171814208Y-91763694D01*
X171814774Y-91116306D01*
X171566462Y-90515345D01*
X171107073Y-90055154D01*
X171065000Y-90037684D01*
X171065000Y-87630000D01*
X170997633Y-87291325D01*
X170805790Y-87004210D01*
X170805787Y-87004208D01*
X156835790Y-73034210D01*
X156548675Y-72842367D01*
X156492484Y-72831190D01*
X156210000Y-72774999D01*
X156209995Y-72775000D01*
X112126579Y-72775000D01*
X111231579Y-71880000D01*
X150567537Y-71880000D01*
X150599673Y-71912192D01*
X150943201Y-72054838D01*
X151315167Y-72055162D01*
X151658943Y-71913117D01*
X151922192Y-71650327D01*
X152064838Y-71306799D01*
X152065162Y-70934833D01*
X151923117Y-70591057D01*
X151660327Y-70327808D01*
X151316799Y-70185162D01*
X150944833Y-70184838D01*
X150601057Y-70326883D01*
X150567882Y-70360000D01*
X111052463Y-70360000D01*
X111020327Y-70327808D01*
X110676799Y-70185162D01*
X110304833Y-70184838D01*
X109961057Y-70326883D01*
X109819636Y-70468057D01*
X109419797Y-70068217D01*
X109793489Y-69993885D01*
X110279670Y-69669029D01*
X110490000Y-69354248D01*
X110700330Y-69669029D01*
X111186511Y-69993885D01*
X111760000Y-70107959D01*
X112333489Y-69993885D01*
X112819670Y-69669029D01*
X113030000Y-69354248D01*
X113240330Y-69669029D01*
X113726511Y-69993885D01*
X114300000Y-70107959D01*
X114873489Y-69993885D01*
X115359670Y-69669029D01*
X115570000Y-69354248D01*
X115780330Y-69669029D01*
X116266511Y-69993885D01*
X116840000Y-70107959D01*
X117413489Y-69993885D01*
X117899670Y-69669029D01*
X118110000Y-69354248D01*
X118320330Y-69669029D01*
X118806511Y-69993885D01*
X119380000Y-70107959D01*
X119953489Y-69993885D01*
X120439670Y-69669029D01*
X120650000Y-69354248D01*
X120860330Y-69669029D01*
X121346511Y-69993885D01*
X121920000Y-70107959D01*
X122493489Y-69993885D01*
X122979670Y-69669029D01*
X123190000Y-69354248D01*
X123400330Y-69669029D01*
X123886511Y-69993885D01*
X124460000Y-70107959D01*
X125033489Y-69993885D01*
X125519670Y-69669029D01*
X125730000Y-69354248D01*
X125940330Y-69669029D01*
X126426511Y-69993885D01*
X127000000Y-70107959D01*
X127573489Y-69993885D01*
X128059670Y-69669029D01*
X128270000Y-69354248D01*
X128480330Y-69669029D01*
X128966511Y-69993885D01*
X129540000Y-70107959D01*
X130113489Y-69993885D01*
X130599670Y-69669029D01*
X130810000Y-69354248D01*
X131020330Y-69669029D01*
X131506511Y-69993885D01*
X132080000Y-70107959D01*
X132653489Y-69993885D01*
X133139670Y-69669029D01*
X133350000Y-69354248D01*
X133560330Y-69669029D01*
X134046511Y-69993885D01*
X134620000Y-70107959D01*
X135193489Y-69993885D01*
X135679670Y-69669029D01*
X135890000Y-69354248D01*
X136100330Y-69669029D01*
X136586511Y-69993885D01*
X137160000Y-70107959D01*
X137733489Y-69993885D01*
X138219670Y-69669029D01*
X138430000Y-69354248D01*
X138640330Y-69669029D01*
X139126511Y-69993885D01*
X139700000Y-70107959D01*
X140273489Y-69993885D01*
X140759670Y-69669029D01*
X140970000Y-69354248D01*
X141180330Y-69669029D01*
X141666511Y-69993885D01*
X142240000Y-70107959D01*
X142813489Y-69993885D01*
X143299670Y-69669029D01*
X143510000Y-69354248D01*
X143720330Y-69669029D01*
X144206511Y-69993885D01*
X144780000Y-70107959D01*
X145353489Y-69993885D01*
X145839670Y-69669029D01*
X146050000Y-69354248D01*
X146260330Y-69669029D01*
X146746511Y-69993885D01*
X147320000Y-70107959D01*
X147893489Y-69993885D01*
X148379670Y-69669029D01*
X148590000Y-69354248D01*
X148800330Y-69669029D01*
X149286511Y-69993885D01*
X149860000Y-70107959D01*
X150433489Y-69993885D01*
X150919670Y-69669029D01*
X151130000Y-69354248D01*
X151340330Y-69669029D01*
X151826511Y-69993885D01*
X152400000Y-70107959D01*
X152973489Y-69993885D01*
X153459670Y-69669029D01*
X153670000Y-69354248D01*
X153880330Y-69669029D01*
X154366511Y-69993885D01*
X154940000Y-70107959D01*
X155513489Y-69993885D01*
X155999670Y-69669029D01*
X156210000Y-69354248D01*
X156420330Y-69669029D01*
X156906511Y-69993885D01*
X157480000Y-70107959D01*
X158053489Y-69993885D01*
X158539670Y-69669029D01*
X158750000Y-69354248D01*
X158960330Y-69669029D01*
X159446511Y-69993885D01*
X160020000Y-70107959D01*
X160593489Y-69993885D01*
X161079670Y-69669029D01*
X161290000Y-69354248D01*
X161500330Y-69669029D01*
X161986511Y-69993885D01*
X162560000Y-70107959D01*
X163133489Y-69993885D01*
X163619670Y-69669029D01*
X163830000Y-69354248D01*
X164040330Y-69669029D01*
X164526511Y-69993885D01*
X165100000Y-70107959D01*
X165673489Y-69993885D01*
X166159670Y-69669029D01*
X166370000Y-69354248D01*
X166580330Y-69669029D01*
X167066511Y-69993885D01*
X167640000Y-70107959D01*
X168213489Y-69993885D01*
X168699670Y-69669029D01*
X169024526Y-69182848D01*
X169138600Y-68609359D01*
X169138600Y-68550641D01*
X169024526Y-67977152D01*
X168699670Y-67490971D01*
X168428839Y-67310008D01*
X168846821Y-66928490D01*
X169094968Y-66399027D01*
X168974469Y-66167000D01*
X167767000Y-66167000D01*
X167767000Y-66187000D01*
X167513000Y-66187000D01*
X167513000Y-66167000D01*
X165227000Y-66167000D01*
X165227000Y-66187000D01*
X164973000Y-66187000D01*
X164973000Y-66167000D01*
X164953000Y-66167000D01*
X164953000Y-65913000D01*
X164973000Y-65913000D01*
X164973000Y-64706183D01*
X165227000Y-64706183D01*
X165227000Y-65913000D01*
X167513000Y-65913000D01*
X167513000Y-64706183D01*
X167767000Y-64706183D01*
X167767000Y-65913000D01*
X168974469Y-65913000D01*
X169094968Y-65680973D01*
X168846821Y-65151510D01*
X168414947Y-64757312D01*
X167999026Y-64585042D01*
X167767000Y-64706183D01*
X167513000Y-64706183D01*
X167280974Y-64585042D01*
X166865053Y-64757312D01*
X166433179Y-65151510D01*
X166370000Y-65286313D01*
X166306821Y-65151510D01*
X165874947Y-64757312D01*
X165459026Y-64585042D01*
X165227000Y-64706183D01*
X164973000Y-64706183D01*
X164740974Y-64585042D01*
X164325053Y-64757312D01*
X163893179Y-65151510D01*
X163835664Y-65274228D01*
X163619670Y-64950971D01*
X163133489Y-64626115D01*
X162560000Y-64512041D01*
X161986511Y-64626115D01*
X161500330Y-64950971D01*
X161290000Y-65265752D01*
X161079670Y-64950971D01*
X160593489Y-64626115D01*
X160020000Y-64512041D01*
X159446511Y-64626115D01*
X158960330Y-64950971D01*
X158750000Y-65265752D01*
X158539670Y-64950971D01*
X158053489Y-64626115D01*
X157480000Y-64512041D01*
X156906511Y-64626115D01*
X156420330Y-64950971D01*
X156210000Y-65265752D01*
X155999670Y-64950971D01*
X155513489Y-64626115D01*
X154940000Y-64512041D01*
X154366511Y-64626115D01*
X153880330Y-64950971D01*
X153670000Y-65265752D01*
X153459670Y-64950971D01*
X152973489Y-64626115D01*
X152400000Y-64512041D01*
X151826511Y-64626115D01*
X151340330Y-64950971D01*
X151130000Y-65265752D01*
X150919670Y-64950971D01*
X150433489Y-64626115D01*
X149860000Y-64512041D01*
X149286511Y-64626115D01*
X148800330Y-64950971D01*
X148590000Y-65265752D01*
X148379670Y-64950971D01*
X147893489Y-64626115D01*
X147320000Y-64512041D01*
X146746511Y-64626115D01*
X146260330Y-64950971D01*
X146050000Y-65265752D01*
X145839670Y-64950971D01*
X145353489Y-64626115D01*
X144780000Y-64512041D01*
X144206511Y-64626115D01*
X143720330Y-64950971D01*
X143510000Y-65265752D01*
X143299670Y-64950971D01*
X142813489Y-64626115D01*
X142240000Y-64512041D01*
X141666511Y-64626115D01*
X141180330Y-64950971D01*
X140970000Y-65265752D01*
X140759670Y-64950971D01*
X140273489Y-64626115D01*
X139700000Y-64512041D01*
X139126511Y-64626115D01*
X138640330Y-64950971D01*
X138430000Y-65265752D01*
X138219670Y-64950971D01*
X137733489Y-64626115D01*
X137160000Y-64512041D01*
X136586511Y-64626115D01*
X136100330Y-64950971D01*
X135890000Y-65265752D01*
X135679670Y-64950971D01*
X135193489Y-64626115D01*
X134620000Y-64512041D01*
X134046511Y-64626115D01*
X133560330Y-64950971D01*
X133350000Y-65265752D01*
X133139670Y-64950971D01*
X132653489Y-64626115D01*
X132080000Y-64512041D01*
X131506511Y-64626115D01*
X131020330Y-64950971D01*
X130810000Y-65265752D01*
X130599670Y-64950971D01*
X130113489Y-64626115D01*
X129540000Y-64512041D01*
X128966511Y-64626115D01*
X128480330Y-64950971D01*
X128270000Y-65265752D01*
X128059670Y-64950971D01*
X127573489Y-64626115D01*
X127000000Y-64512041D01*
X126426511Y-64626115D01*
X125940330Y-64950971D01*
X125730000Y-65265752D01*
X125519670Y-64950971D01*
X125033489Y-64626115D01*
X124460000Y-64512041D01*
X123886511Y-64626115D01*
X123400330Y-64950971D01*
X123190000Y-65265752D01*
X122979670Y-64950971D01*
X122493489Y-64626115D01*
X121920000Y-64512041D01*
X121346511Y-64626115D01*
X120860330Y-64950971D01*
X120650000Y-65265752D01*
X120439670Y-64950971D01*
X119953489Y-64626115D01*
X119380000Y-64512041D01*
X118806511Y-64626115D01*
X118320330Y-64950971D01*
X118110000Y-65265752D01*
X117899670Y-64950971D01*
X117413489Y-64626115D01*
X116840000Y-64512041D01*
X116266511Y-64626115D01*
X115780330Y-64950971D01*
X115570000Y-65265752D01*
X115359670Y-64950971D01*
X114873489Y-64626115D01*
X114300000Y-64512041D01*
X113726511Y-64626115D01*
X113240330Y-64950971D01*
X113030000Y-65265752D01*
X112819670Y-64950971D01*
X112333489Y-64626115D01*
X111760000Y-64512041D01*
X111186511Y-64626115D01*
X110700330Y-64950971D01*
X110490000Y-65265752D01*
X110279670Y-64950971D01*
X109793489Y-64626115D01*
X109220000Y-64512041D01*
X108646511Y-64626115D01*
X108160330Y-64950971D01*
X107950000Y-65265752D01*
X107739670Y-64950971D01*
X107253489Y-64626115D01*
X106680000Y-64512041D01*
X106106511Y-64626115D01*
X105620330Y-64950971D01*
X105295474Y-65437152D01*
X105181400Y-66010641D01*
X105181400Y-66069359D01*
X105295474Y-66642848D01*
X105606574Y-67108442D01*
X105581083Y-67113238D01*
X105364959Y-67252310D01*
X105219969Y-67464510D01*
X105168960Y-67716400D01*
X90880000Y-67716400D01*
X90880000Y-63942619D01*
X91744613Y-63942619D01*
X92084155Y-64764372D01*
X92712321Y-65393636D01*
X93533481Y-65734611D01*
X94422619Y-65735387D01*
X95244372Y-65395845D01*
X95873636Y-64767679D01*
X96214611Y-63946519D01*
X96214614Y-63942619D01*
X180644613Y-63942619D01*
X180984155Y-64764372D01*
X181612321Y-65393636D01*
X182433481Y-65734611D01*
X183322619Y-65735387D01*
X184144372Y-65395845D01*
X184773636Y-64767679D01*
X185114611Y-63946519D01*
X185115387Y-63057381D01*
X184775845Y-62235628D01*
X184147679Y-61606364D01*
X183326519Y-61265389D01*
X182437381Y-61264613D01*
X181615628Y-61604155D01*
X180986364Y-62232321D01*
X180645389Y-63053481D01*
X180644613Y-63942619D01*
X96214614Y-63942619D01*
X96215387Y-63057381D01*
X95875845Y-62235628D01*
X95247679Y-61606364D01*
X94426519Y-61265389D01*
X93537381Y-61264613D01*
X92715628Y-61604155D01*
X92086364Y-62232321D01*
X91745389Y-63053481D01*
X91744613Y-63942619D01*
X90880000Y-63942619D01*
X90880000Y-62299931D01*
X91032152Y-61535011D01*
X91425830Y-60945830D01*
X92015011Y-60552152D01*
X92779931Y-60400000D01*
X184080069Y-60400000D01*
X184844989Y-60552152D01*
X184844989Y-60552152D01*
G37*
X184844989Y-60552152D02*
X185434170Y-60945830D01*
X185827848Y-61535011D01*
X185980000Y-62299931D01*
X185980000Y-130740069D01*
X185827848Y-131504989D01*
X185434170Y-132094170D01*
X184844989Y-132487848D01*
X184080069Y-132640000D01*
X92779931Y-132640000D01*
X92015011Y-132487848D01*
X91425830Y-132094170D01*
X91032152Y-131504989D01*
X90880000Y-130740069D01*
X90880000Y-129982619D01*
X91744613Y-129982619D01*
X92084155Y-130804372D01*
X92712321Y-131433636D01*
X93533481Y-131774611D01*
X94422619Y-131775387D01*
X95244372Y-131435845D01*
X95873636Y-130807679D01*
X96214611Y-129986519D01*
X96214614Y-129982619D01*
X180644613Y-129982619D01*
X180984155Y-130804372D01*
X181612321Y-131433636D01*
X182433481Y-131774611D01*
X183322619Y-131775387D01*
X184144372Y-131435845D01*
X184773636Y-130807679D01*
X185114611Y-129986519D01*
X185115387Y-129097381D01*
X184775845Y-128275628D01*
X184147679Y-127646364D01*
X183326519Y-127305389D01*
X182437381Y-127304613D01*
X181615628Y-127644155D01*
X180986364Y-128272321D01*
X180645389Y-129093481D01*
X180644613Y-129982619D01*
X96214614Y-129982619D01*
X96215387Y-129097381D01*
X95875845Y-128275628D01*
X95247679Y-127646364D01*
X94426519Y-127305389D01*
X93537381Y-127304613D01*
X92715628Y-127644155D01*
X92086364Y-128272321D01*
X91745389Y-129093481D01*
X91744613Y-129982619D01*
X90880000Y-129982619D01*
X90880000Y-121891887D01*
X95085000Y-121891887D01*
X95085000Y-121948113D01*
X95194233Y-122497264D01*
X95505302Y-122962811D01*
X95970849Y-123273880D01*
X96520000Y-123383113D01*
X97069151Y-123273880D01*
X97534698Y-122962811D01*
X97790000Y-122580725D01*
X98045302Y-122962811D01*
X98510849Y-123273880D01*
X99060000Y-123383113D01*
X99609151Y-123273880D01*
X100074698Y-122962811D01*
X100330000Y-122580725D01*
X100585302Y-122962811D01*
X101050849Y-123273880D01*
X101600000Y-123383113D01*
X101923886Y-123318688D01*
X102332599Y-123727401D01*
X102579160Y-123892148D01*
X102870000Y-123950000D01*
X105410000Y-123950000D01*
X105700839Y-123892148D01*
X105947401Y-123727401D01*
X106356114Y-123318688D01*
X106680000Y-123383113D01*
X107229151Y-123273880D01*
X107694698Y-122962811D01*
X107950000Y-122580725D01*
X108205302Y-122962811D01*
X108670849Y-123273880D01*
X109220000Y-123383113D01*
X109769151Y-123273880D01*
X110234698Y-122962811D01*
X110490000Y-122580725D01*
X110745302Y-122962811D01*
X111210849Y-123273880D01*
X111760000Y-123383113D01*
X112309151Y-123273880D01*
X112774698Y-122962811D01*
X112880144Y-122805000D01*
X113155829Y-122805000D01*
X113486077Y-123135824D01*
X114013309Y-123354750D01*
X114483580Y-123355160D01*
X118754208Y-127625787D01*
X118754210Y-127625790D01*
X119041325Y-127817633D01*
X119097516Y-127828810D01*
X119380000Y-127885001D01*
X119380005Y-127885000D01*
X128137153Y-127885000D01*
X128153538Y-127924655D01*
X128612927Y-128384846D01*
X129213453Y-128634206D01*
X129863694Y-128634774D01*
X130464655Y-128386462D01*
X130924846Y-127927073D01*
X131174206Y-127326547D01*
X131174774Y-126676306D01*
X130926462Y-126075345D01*
X130467073Y-125615154D01*
X130425000Y-125597684D01*
X130425000Y-124460005D01*
X130425001Y-124460000D01*
X130357633Y-124121326D01*
X130357633Y-124121325D01*
X130165790Y-123834210D01*
X130165787Y-123834208D01*
X129879728Y-123548149D01*
X130464655Y-123306462D01*
X130924846Y-122847073D01*
X131174206Y-122246547D01*
X131174208Y-122243694D01*
X138065226Y-122243694D01*
X138313538Y-122844655D01*
X138772927Y-123304846D01*
X138940000Y-123374221D01*
X138940000Y-125545504D01*
X138775345Y-125613538D01*
X138315154Y-126072927D01*
X138065794Y-126673453D01*
X138065226Y-127323694D01*
X138313538Y-127924655D01*
X138772927Y-128384846D01*
X139373453Y-128634206D01*
X140023694Y-128634774D01*
X140624655Y-128386462D01*
X141084846Y-127927073D01*
X141334206Y-127326547D01*
X141334774Y-126676306D01*
X141086462Y-126075345D01*
X140627073Y-125615154D01*
X140460000Y-125545779D01*
X140460000Y-123603970D01*
X153605635Y-123603970D01*
X153765418Y-123922739D01*
X154556187Y-124232723D01*
X155405387Y-124216497D01*
X156114582Y-123922739D01*
X156274365Y-123603970D01*
X154940000Y-122269605D01*
X153605635Y-123603970D01*
X140460000Y-123603970D01*
X140460000Y-123374496D01*
X140624655Y-123306462D01*
X141084846Y-122847073D01*
X141334206Y-122246547D01*
X141334678Y-121706187D01*
X152797277Y-121706187D01*
X152813503Y-122555387D01*
X153107261Y-123264582D01*
X153426030Y-123424365D01*
X154760395Y-122090000D01*
X155119605Y-122090000D01*
X156453970Y-123424365D01*
X156772739Y-123264582D01*
X157082723Y-122473813D01*
X157066497Y-121624613D01*
X156772739Y-120915418D01*
X156453970Y-120755635D01*
X155119605Y-122090000D01*
X154760395Y-122090000D01*
X153426030Y-120755635D01*
X153107261Y-120915418D01*
X152797277Y-121706187D01*
X141334678Y-121706187D01*
X141334774Y-121596306D01*
X141086462Y-120995345D01*
X140667878Y-120576030D01*
X153605635Y-120576030D01*
X154940000Y-121910395D01*
X156274365Y-120576030D01*
X156114582Y-120257261D01*
X155323813Y-119947277D01*
X154474613Y-119963503D01*
X153765418Y-120257261D01*
X153605635Y-120576030D01*
X140667878Y-120576030D01*
X140627073Y-120535154D01*
X140026547Y-120285794D01*
X139376306Y-120285226D01*
X138775345Y-120533538D01*
X138315154Y-120992927D01*
X138065794Y-121593453D01*
X138065226Y-122243694D01*
X131174208Y-122243694D01*
X131174774Y-121596306D01*
X130926462Y-120995345D01*
X130467073Y-120535154D01*
X129866547Y-120285794D01*
X129216306Y-120285226D01*
X129049111Y-120354309D01*
X128371463Y-119676661D01*
X171362758Y-119676661D01*
X171574990Y-120190303D01*
X171967630Y-120583629D01*
X172127228Y-120649900D01*
X171969697Y-120714990D01*
X171576371Y-121107630D01*
X171363243Y-121620900D01*
X171362758Y-122176661D01*
X171574990Y-122690303D01*
X171967630Y-123083629D01*
X172480900Y-123296757D01*
X173036661Y-123297242D01*
X173550303Y-123085010D01*
X173755457Y-122880213D01*
X174459392Y-122880213D01*
X174528857Y-123122397D01*
X175052302Y-123309144D01*
X175607368Y-123281362D01*
X175991143Y-123122397D01*
X176060608Y-122880213D01*
X175260000Y-122079605D01*
X174459392Y-122880213D01*
X173755457Y-122880213D01*
X173943629Y-122692370D01*
X174003370Y-122548497D01*
X174037603Y-122631143D01*
X174279787Y-122700608D01*
X175080395Y-121900000D01*
X174279787Y-121099392D01*
X174037603Y-121168857D01*
X174006026Y-121257367D01*
X173945010Y-121109697D01*
X173552370Y-120716371D01*
X173392772Y-120650100D01*
X173550303Y-120585010D01*
X173755457Y-120380213D01*
X174459392Y-120380213D01*
X174528857Y-120622397D01*
X174600462Y-120647943D01*
X174528857Y-120677603D01*
X174459392Y-120919787D01*
X175260000Y-121720395D01*
X176060608Y-120919787D01*
X175991143Y-120677603D01*
X175919538Y-120652057D01*
X175991143Y-120622397D01*
X176060608Y-120380213D01*
X175260000Y-119579605D01*
X174459392Y-120380213D01*
X173755457Y-120380213D01*
X173943629Y-120192370D01*
X174003370Y-120048497D01*
X174037603Y-120131143D01*
X174279787Y-120200608D01*
X175080395Y-119400000D01*
X175439605Y-119400000D01*
X176240213Y-120200608D01*
X176482397Y-120131143D01*
X176513974Y-120042633D01*
X176574990Y-120190303D01*
X176967630Y-120583629D01*
X177127228Y-120649900D01*
X176969697Y-120714990D01*
X176576371Y-121107630D01*
X176516630Y-121251503D01*
X176482397Y-121168857D01*
X176240213Y-121099392D01*
X175439605Y-121900000D01*
X176240213Y-122700608D01*
X176482397Y-122631143D01*
X176513974Y-122542633D01*
X176574990Y-122690303D01*
X176967630Y-123083629D01*
X177480900Y-123296757D01*
X178036661Y-123297242D01*
X178550303Y-123085010D01*
X178943629Y-122692370D01*
X179156757Y-122179100D01*
X179157242Y-121623339D01*
X178945010Y-121109697D01*
X178552370Y-120716371D01*
X178392772Y-120650100D01*
X178550303Y-120585010D01*
X178943629Y-120192370D01*
X179156757Y-119679100D01*
X179157242Y-119123339D01*
X178945010Y-118609697D01*
X178552370Y-118216371D01*
X178039100Y-118003243D01*
X177483339Y-118002758D01*
X176969697Y-118214990D01*
X176576371Y-118607630D01*
X176516630Y-118751503D01*
X176482397Y-118668857D01*
X176240213Y-118599392D01*
X175439605Y-119400000D01*
X175080395Y-119400000D01*
X174279787Y-118599392D01*
X174037603Y-118668857D01*
X174006026Y-118757367D01*
X173945010Y-118609697D01*
X173755432Y-118419787D01*
X174459392Y-118419787D01*
X175260000Y-119220395D01*
X176060608Y-118419787D01*
X175991143Y-118177603D01*
X175467698Y-117990856D01*
X174912632Y-118018638D01*
X174528857Y-118177603D01*
X174459392Y-118419787D01*
X173755432Y-118419787D01*
X173552370Y-118216371D01*
X173039100Y-118003243D01*
X172483339Y-118002758D01*
X171969697Y-118214990D01*
X171576371Y-118607630D01*
X171363243Y-119120900D01*
X171362758Y-119676661D01*
X128371463Y-119676661D01*
X125844183Y-117149381D01*
X125856757Y-117119100D01*
X125857242Y-116563339D01*
X125645010Y-116049697D01*
X125535505Y-115940000D01*
X127992560Y-115940000D01*
X127992560Y-117740000D01*
X128036838Y-117975317D01*
X128175910Y-118191441D01*
X128388110Y-118336431D01*
X128640000Y-118387440D01*
X130440000Y-118387440D01*
X130675317Y-118343162D01*
X130891441Y-118204090D01*
X131036431Y-117991890D01*
X131087440Y-117740000D01*
X131087440Y-116840000D01*
X138134928Y-116840000D01*
X138251773Y-117427419D01*
X138584519Y-117925409D01*
X139082509Y-118258155D01*
X139669928Y-118375000D01*
X139730072Y-118375000D01*
X140317491Y-118258155D01*
X140815481Y-117925409D01*
X141148227Y-117427419D01*
X141265072Y-116840000D01*
X141148227Y-116252581D01*
X140815481Y-115754591D01*
X140317491Y-115421845D01*
X139730072Y-115305000D01*
X139669928Y-115305000D01*
X139082509Y-115421845D01*
X138584519Y-115754591D01*
X138251773Y-116252581D01*
X138134928Y-116840000D01*
X131087440Y-116840000D01*
X131087440Y-115940000D01*
X131043162Y-115704683D01*
X130904090Y-115488559D01*
X130691890Y-115343569D01*
X130440000Y-115292560D01*
X128640000Y-115292560D01*
X128404683Y-115336838D01*
X128188559Y-115475910D01*
X128043569Y-115688110D01*
X127992560Y-115940000D01*
X125535505Y-115940000D01*
X125252370Y-115656371D01*
X124739100Y-115443243D01*
X124183339Y-115442758D01*
X123669697Y-115654990D01*
X123276371Y-116047630D01*
X123063243Y-116560900D01*
X123062758Y-117116661D01*
X123274990Y-117630303D01*
X123667630Y-118023629D01*
X123875512Y-118109949D01*
X123669697Y-118194990D01*
X123276371Y-118587630D01*
X123063243Y-119100900D01*
X123062758Y-119656661D01*
X123274990Y-120170303D01*
X123667630Y-120563629D01*
X123875512Y-120649949D01*
X123669697Y-120734990D01*
X123276371Y-121127630D01*
X123063243Y-121640900D01*
X123062758Y-122196661D01*
X123274990Y-122710303D01*
X123667630Y-123103629D01*
X124180900Y-123316757D01*
X124736661Y-123317242D01*
X125250303Y-123105010D01*
X125643629Y-122712370D01*
X125856757Y-122199100D01*
X125856906Y-122028485D01*
X128655000Y-124826579D01*
X128655000Y-125597153D01*
X128615345Y-125613538D01*
X128155154Y-126072927D01*
X128137684Y-126115000D01*
X119746579Y-126115000D01*
X115734840Y-122103260D01*
X115735248Y-121635813D01*
X115517243Y-121108200D01*
X115113923Y-120704176D01*
X115047456Y-120676577D01*
X115054005Y-120673864D01*
X115128139Y-120427745D01*
X114300000Y-119599605D01*
X113471861Y-120427745D01*
X113545995Y-120673864D01*
X113552483Y-120676196D01*
X113488200Y-120702757D01*
X113155377Y-121035000D01*
X112880144Y-121035000D01*
X112774698Y-120877189D01*
X112309151Y-120566120D01*
X111760000Y-120456887D01*
X111210849Y-120566120D01*
X110745302Y-120877189D01*
X110490000Y-121259275D01*
X110234698Y-120877189D01*
X109769151Y-120566120D01*
X109220000Y-120456887D01*
X109217397Y-120457405D01*
X110804802Y-118870000D01*
X112972809Y-118870000D01*
X112853035Y-119203223D01*
X112880222Y-119773454D01*
X113046136Y-120174005D01*
X113292255Y-120248139D01*
X114120395Y-119420000D01*
X114106252Y-119405858D01*
X114285858Y-119226253D01*
X114300000Y-119240395D01*
X114314143Y-119226253D01*
X114493748Y-119405858D01*
X114479605Y-119420000D01*
X115307745Y-120248139D01*
X115553864Y-120174005D01*
X115746965Y-119636777D01*
X115719778Y-119066546D01*
X115633162Y-118857436D01*
X115860839Y-118812148D01*
X116107401Y-118647401D01*
X121354802Y-113400000D01*
X173712560Y-113400000D01*
X173712560Y-115200000D01*
X173756838Y-115435317D01*
X173895910Y-115651441D01*
X174108110Y-115796431D01*
X174360000Y-115847440D01*
X176160000Y-115847440D01*
X176395317Y-115803162D01*
X176611441Y-115664090D01*
X176756431Y-115451890D01*
X176807440Y-115200000D01*
X176807440Y-113400000D01*
X176763162Y-113164683D01*
X176624090Y-112948559D01*
X176411890Y-112803569D01*
X176391466Y-112799433D01*
X176560551Y-112630643D01*
X176794733Y-112066670D01*
X176795265Y-111456009D01*
X176562068Y-110891629D01*
X176130643Y-110459449D01*
X175566670Y-110225267D01*
X174956009Y-110224735D01*
X174391629Y-110457932D01*
X173959449Y-110889357D01*
X173725267Y-111453330D01*
X173724735Y-112063991D01*
X173957932Y-112628371D01*
X174125880Y-112796613D01*
X174124683Y-112796838D01*
X173908559Y-112935910D01*
X173763569Y-113148110D01*
X173712560Y-113400000D01*
X121354802Y-113400000D01*
X122014589Y-112740213D01*
X123659392Y-112740213D01*
X123728857Y-112982397D01*
X124252302Y-113169144D01*
X124807368Y-113141362D01*
X125191143Y-112982397D01*
X125260608Y-112740213D01*
X124460000Y-111939605D01*
X123659392Y-112740213D01*
X122014589Y-112740213D01*
X123058084Y-111696718D01*
X123078638Y-112107368D01*
X123237603Y-112491143D01*
X123479787Y-112560608D01*
X124280395Y-111760000D01*
X124639605Y-111760000D01*
X125440213Y-112560608D01*
X125682397Y-112491143D01*
X125827760Y-112083694D01*
X127905226Y-112083694D01*
X128153538Y-112684655D01*
X128612927Y-113144846D01*
X129213453Y-113394206D01*
X129863694Y-113394774D01*
X130464655Y-113146462D01*
X130924846Y-112687073D01*
X131174206Y-112086547D01*
X131174208Y-112083694D01*
X138065226Y-112083694D01*
X138313538Y-112684655D01*
X138772927Y-113144846D01*
X139373453Y-113394206D01*
X140023694Y-113394774D01*
X140624655Y-113146462D01*
X141084846Y-112687073D01*
X141334206Y-112086547D01*
X141334774Y-111436306D01*
X141086462Y-110835345D01*
X140627073Y-110375154D01*
X140026547Y-110125794D01*
X139376306Y-110125226D01*
X138775345Y-110373538D01*
X138315154Y-110832927D01*
X138065794Y-111433453D01*
X138065226Y-112083694D01*
X131174208Y-112083694D01*
X131174774Y-111436306D01*
X130926462Y-110835345D01*
X130467073Y-110375154D01*
X129866547Y-110125794D01*
X129216306Y-110125226D01*
X128615345Y-110373538D01*
X128155154Y-110832927D01*
X127905794Y-111433453D01*
X127905226Y-112083694D01*
X125827760Y-112083694D01*
X125869144Y-111967698D01*
X125841362Y-111412632D01*
X125682397Y-111028857D01*
X125440213Y-110959392D01*
X124639605Y-111760000D01*
X124280395Y-111760000D01*
X124266253Y-111745858D01*
X124445858Y-111566253D01*
X124460000Y-111580395D01*
X125260608Y-110779787D01*
X125191143Y-110537603D01*
X125050682Y-110487491D01*
X125250303Y-110405010D01*
X125643629Y-110012370D01*
X125856757Y-109499100D01*
X125857242Y-108943339D01*
X125645010Y-108429697D01*
X125252370Y-108036371D01*
X125044488Y-107950051D01*
X125250303Y-107865010D01*
X125643629Y-107472370D01*
X125657070Y-107440000D01*
X128085504Y-107440000D01*
X128153538Y-107604655D01*
X128612927Y-108064846D01*
X129213453Y-108314206D01*
X129863694Y-108314774D01*
X130464655Y-108066462D01*
X130699363Y-107832163D01*
X138727443Y-107832163D01*
X138826042Y-108098965D01*
X139435582Y-108325401D01*
X140085377Y-108301341D01*
X140573958Y-108098965D01*
X140672557Y-107832163D01*
X139700000Y-106859605D01*
X138727443Y-107832163D01*
X130699363Y-107832163D01*
X130924846Y-107607073D01*
X131174206Y-107006547D01*
X131174722Y-106415582D01*
X138054599Y-106415582D01*
X138078659Y-107065377D01*
X138281035Y-107553958D01*
X138547837Y-107652557D01*
X139520395Y-106680000D01*
X139879605Y-106680000D01*
X140852163Y-107652557D01*
X141118965Y-107553958D01*
X141323380Y-107003694D01*
X168545226Y-107003694D01*
X168793538Y-107604655D01*
X169252927Y-108064846D01*
X169853453Y-108314206D01*
X170503694Y-108314774D01*
X171104655Y-108066462D01*
X171564846Y-107607073D01*
X171814206Y-107006547D01*
X171814208Y-107003694D01*
X178705226Y-107003694D01*
X178953538Y-107604655D01*
X179412927Y-108064846D01*
X180013453Y-108314206D01*
X180663694Y-108314774D01*
X181264655Y-108066462D01*
X181724846Y-107607073D01*
X181974206Y-107006547D01*
X181974774Y-106356306D01*
X181726462Y-105755345D01*
X181267073Y-105295154D01*
X180666547Y-105045794D01*
X180016306Y-105045226D01*
X179415345Y-105293538D01*
X178955154Y-105752927D01*
X178705794Y-106353453D01*
X178705226Y-107003694D01*
X171814208Y-107003694D01*
X171814774Y-106356306D01*
X171566462Y-105755345D01*
X171107073Y-105295154D01*
X170506547Y-105045794D01*
X169856306Y-105045226D01*
X169255345Y-105293538D01*
X168795154Y-105752927D01*
X168545794Y-106353453D01*
X168545226Y-107003694D01*
X141323380Y-107003694D01*
X141345401Y-106944418D01*
X141321341Y-106294623D01*
X141118965Y-105806042D01*
X140852163Y-105707443D01*
X139879605Y-106680000D01*
X139520395Y-106680000D01*
X138547837Y-105707443D01*
X138281035Y-105806042D01*
X138054599Y-106415582D01*
X131174722Y-106415582D01*
X131174774Y-106356306D01*
X130926462Y-105755345D01*
X130699351Y-105527837D01*
X138727443Y-105527837D01*
X139700000Y-106500395D01*
X140672557Y-105527837D01*
X140573958Y-105261035D01*
X139964418Y-105034599D01*
X139314623Y-105058659D01*
X138826042Y-105261035D01*
X138727443Y-105527837D01*
X130699351Y-105527837D01*
X130467073Y-105295154D01*
X129866547Y-105045794D01*
X129216306Y-105045226D01*
X128615345Y-105293538D01*
X128155154Y-105752927D01*
X128085779Y-105920000D01*
X125657531Y-105920000D01*
X125645010Y-105889697D01*
X125252370Y-105496371D01*
X124739100Y-105283243D01*
X124391862Y-105282940D01*
X124774802Y-104900000D01*
X162560000Y-104900000D01*
X162850839Y-104842148D01*
X163097401Y-104677401D01*
X165851108Y-101923694D01*
X168545226Y-101923694D01*
X168793538Y-102524655D01*
X169252927Y-102984846D01*
X169853453Y-103234206D01*
X170503694Y-103234774D01*
X171104655Y-102986462D01*
X171564846Y-102527073D01*
X171814206Y-101926547D01*
X171814208Y-101923694D01*
X178705226Y-101923694D01*
X178953538Y-102524655D01*
X179412927Y-102984846D01*
X180013453Y-103234206D01*
X180663694Y-103234774D01*
X181264655Y-102986462D01*
X181724846Y-102527073D01*
X181974206Y-101926547D01*
X181974774Y-101276306D01*
X181726462Y-100675345D01*
X181267073Y-100215154D01*
X180666547Y-99965794D01*
X180016306Y-99965226D01*
X179415345Y-100213538D01*
X178955154Y-100672927D01*
X178705794Y-101273453D01*
X178705226Y-101923694D01*
X171814208Y-101923694D01*
X171814774Y-101276306D01*
X171566462Y-100675345D01*
X171107073Y-100215154D01*
X170506547Y-99965794D01*
X169856306Y-99965226D01*
X169255345Y-100213538D01*
X168795154Y-100672927D01*
X168545794Y-101273453D01*
X168545226Y-101923694D01*
X165851108Y-101923694D01*
X167954802Y-99820000D01*
X177800000Y-99820000D01*
X178090839Y-99762148D01*
X178337401Y-99597401D01*
X179848917Y-98085885D01*
X180013453Y-98154206D01*
X180663694Y-98154774D01*
X181264655Y-97906462D01*
X181724846Y-97447073D01*
X181974206Y-96846547D01*
X181974774Y-96196306D01*
X181726462Y-95595345D01*
X181267073Y-95135154D01*
X180666547Y-94885794D01*
X180016306Y-94885226D01*
X179415345Y-95133538D01*
X178955154Y-95592927D01*
X178705794Y-96193453D01*
X178705226Y-96843694D01*
X178774309Y-97010889D01*
X177485198Y-98300000D01*
X167640000Y-98300000D01*
X167349161Y-98357852D01*
X167102599Y-98522599D01*
X162245198Y-103380000D01*
X157017224Y-103380000D01*
X157036431Y-103351890D01*
X157087440Y-103100000D01*
X157087440Y-100100000D01*
X157043162Y-99864683D01*
X156904090Y-99648559D01*
X156691890Y-99503569D01*
X156440000Y-99452560D01*
X154044139Y-99452560D01*
X151435274Y-96843694D01*
X168545226Y-96843694D01*
X168793538Y-97444655D01*
X169252927Y-97904846D01*
X169853453Y-98154206D01*
X170503694Y-98154774D01*
X171104655Y-97906462D01*
X171564846Y-97447073D01*
X171814206Y-96846547D01*
X171814774Y-96196306D01*
X171566462Y-95595345D01*
X171107073Y-95135154D01*
X170506547Y-94885794D01*
X169856306Y-94885226D01*
X169255345Y-95133538D01*
X168795154Y-95592927D01*
X168545794Y-96193453D01*
X168545226Y-96843694D01*
X151435274Y-96843694D01*
X150485790Y-95894210D01*
X150198675Y-95702367D01*
X150142484Y-95691190D01*
X149860000Y-95634999D01*
X149859995Y-95635000D01*
X140949390Y-95635000D01*
X140815481Y-95434591D01*
X140317491Y-95101845D01*
X139730072Y-94985000D01*
X139669928Y-94985000D01*
X139082509Y-95101845D01*
X138584519Y-95434591D01*
X138251773Y-95932581D01*
X138134928Y-96520000D01*
X138251773Y-97107419D01*
X138584519Y-97605409D01*
X139082509Y-97938155D01*
X139669928Y-98055000D01*
X139730072Y-98055000D01*
X140317491Y-97938155D01*
X140815481Y-97605409D01*
X140949390Y-97405000D01*
X149493420Y-97405000D01*
X152792560Y-100704139D01*
X152792560Y-103100000D01*
X152836838Y-103335317D01*
X152865591Y-103380000D01*
X124460000Y-103380000D01*
X124217414Y-103428254D01*
X124169160Y-103437852D01*
X123922599Y-103602599D01*
X121605198Y-105920000D01*
X104702463Y-105920000D01*
X104670327Y-105887808D01*
X104326799Y-105745162D01*
X103954833Y-105744838D01*
X103611057Y-105886883D01*
X103347808Y-106149673D01*
X103205162Y-106493201D01*
X103204838Y-106865167D01*
X103346883Y-107208943D01*
X103609673Y-107472192D01*
X103953201Y-107614838D01*
X104325167Y-107615162D01*
X104668943Y-107473117D01*
X104702118Y-107440000D01*
X121920000Y-107440000D01*
X122210839Y-107382148D01*
X122457401Y-107217401D01*
X123063059Y-106611743D01*
X123062758Y-106956661D01*
X123274990Y-107470303D01*
X123667630Y-107863629D01*
X123875512Y-107949949D01*
X123669697Y-108034990D01*
X123276371Y-108427630D01*
X123063243Y-108940900D01*
X123062758Y-109496661D01*
X123076143Y-109529055D01*
X115255198Y-117350000D01*
X110490000Y-117350000D01*
X110199161Y-117407852D01*
X109952599Y-117572599D01*
X107003886Y-120521312D01*
X106680000Y-120456887D01*
X106130849Y-120566120D01*
X105665302Y-120877189D01*
X105410000Y-121259275D01*
X105154698Y-120877189D01*
X104689151Y-120566120D01*
X104140000Y-120456887D01*
X103590849Y-120566120D01*
X103125302Y-120877189D01*
X102870000Y-121259275D01*
X102614698Y-120877189D01*
X102149151Y-120566120D01*
X101600000Y-120456887D01*
X101050849Y-120566120D01*
X100585302Y-120877189D01*
X100330000Y-121259275D01*
X100074698Y-120877189D01*
X99609151Y-120566120D01*
X99060000Y-120456887D01*
X98510849Y-120566120D01*
X98045302Y-120877189D01*
X97790000Y-121259275D01*
X97534698Y-120877189D01*
X97069151Y-120566120D01*
X96520000Y-120456887D01*
X95970849Y-120566120D01*
X95505302Y-120877189D01*
X95194233Y-121342736D01*
X95085000Y-121891887D01*
X90880000Y-121891887D01*
X90880000Y-114649041D01*
X95128086Y-114649041D01*
X95367611Y-115155134D01*
X95782577Y-115531041D01*
X96170961Y-115691904D01*
X96393000Y-115569915D01*
X96393000Y-114427000D01*
X95249371Y-114427000D01*
X95128086Y-114649041D01*
X90880000Y-114649041D01*
X90880000Y-113950959D01*
X95128086Y-113950959D01*
X95249371Y-114173000D01*
X96393000Y-114173000D01*
X96393000Y-113030085D01*
X96647000Y-113030085D01*
X96647000Y-114173000D01*
X96667000Y-114173000D01*
X96667000Y-114427000D01*
X96647000Y-114427000D01*
X96647000Y-115569915D01*
X96869039Y-115691904D01*
X97257423Y-115531041D01*
X97672389Y-115155134D01*
X97775014Y-114938297D01*
X98045302Y-115342811D01*
X98510849Y-115653880D01*
X99060000Y-115763113D01*
X99609151Y-115653880D01*
X100074698Y-115342811D01*
X100330000Y-114960725D01*
X100585302Y-115342811D01*
X101050849Y-115653880D01*
X101600000Y-115763113D01*
X101923886Y-115698688D01*
X103602599Y-117377401D01*
X103849160Y-117542148D01*
X103897414Y-117551746D01*
X104140000Y-117600000D01*
X106680000Y-117600000D01*
X106970839Y-117542148D01*
X107217401Y-117377401D01*
X108896114Y-115698688D01*
X109220000Y-115763113D01*
X109769151Y-115653880D01*
X110234698Y-115342811D01*
X110331101Y-115198535D01*
X110356838Y-115335317D01*
X110495910Y-115551441D01*
X110708110Y-115696431D01*
X110960000Y-115747440D01*
X112560000Y-115747440D01*
X112795317Y-115703162D01*
X113011441Y-115564090D01*
X113156431Y-115351890D01*
X113207440Y-115100000D01*
X113207440Y-113500000D01*
X113163162Y-113264683D01*
X113024090Y-113048559D01*
X112811890Y-112903569D01*
X112560000Y-112852560D01*
X110960000Y-112852560D01*
X110724683Y-112896838D01*
X110508559Y-113035910D01*
X110363569Y-113248110D01*
X110332185Y-113403089D01*
X110234698Y-113257189D01*
X109769151Y-112946120D01*
X109220000Y-112836887D01*
X108670849Y-112946120D01*
X108205302Y-113257189D01*
X107950000Y-113639275D01*
X107694698Y-113257189D01*
X107229151Y-112946120D01*
X106680000Y-112836887D01*
X106130849Y-112946120D01*
X105665302Y-113257189D01*
X105410000Y-113639275D01*
X105154698Y-113257189D01*
X104689151Y-112946120D01*
X104140000Y-112836887D01*
X103590849Y-112946120D01*
X103125302Y-113257189D01*
X102870000Y-113639275D01*
X102614698Y-113257189D01*
X102149151Y-112946120D01*
X101600000Y-112836887D01*
X101050849Y-112946120D01*
X100585302Y-113257189D01*
X100330000Y-113639275D01*
X100074698Y-113257189D01*
X99609151Y-112946120D01*
X99060000Y-112836887D01*
X98510849Y-112946120D01*
X98045302Y-113257189D01*
X97775014Y-113661703D01*
X97672389Y-113444866D01*
X97257423Y-113068959D01*
X96869039Y-112908096D01*
X96647000Y-113030085D01*
X96393000Y-113030085D01*
X96170961Y-112908096D01*
X95782577Y-113068959D01*
X95367611Y-113444866D01*
X95128086Y-113950959D01*
X90880000Y-113950959D01*
X90880000Y-104111887D01*
X95085000Y-104111887D01*
X95085000Y-104168113D01*
X95194233Y-104717264D01*
X95505302Y-105182811D01*
X95970849Y-105493880D01*
X96520000Y-105603113D01*
X97069151Y-105493880D01*
X97534698Y-105182811D01*
X97804986Y-104778297D01*
X97907611Y-104995134D01*
X98322577Y-105371041D01*
X98710961Y-105531904D01*
X98933000Y-105409915D01*
X98933000Y-104267000D01*
X99187000Y-104267000D01*
X99187000Y-105409915D01*
X99409039Y-105531904D01*
X99797423Y-105371041D01*
X100212389Y-104995134D01*
X100330000Y-104746633D01*
X100447611Y-104995134D01*
X100862577Y-105371041D01*
X101250961Y-105531904D01*
X101473000Y-105409915D01*
X101473000Y-104267000D01*
X99187000Y-104267000D01*
X98933000Y-104267000D01*
X98913000Y-104267000D01*
X98913000Y-104013000D01*
X98933000Y-104013000D01*
X98933000Y-102870085D01*
X99187000Y-102870085D01*
X99187000Y-104013000D01*
X101473000Y-104013000D01*
X101473000Y-102870085D01*
X101727000Y-102870085D01*
X101727000Y-104013000D01*
X101747000Y-104013000D01*
X101747000Y-104267000D01*
X101727000Y-104267000D01*
X101727000Y-105409915D01*
X101949039Y-105531904D01*
X102337423Y-105371041D01*
X102752389Y-104995134D01*
X102855014Y-104778297D01*
X103125302Y-105182811D01*
X103590849Y-105493880D01*
X104140000Y-105603113D01*
X104689151Y-105493880D01*
X105154698Y-105182811D01*
X105424986Y-104778297D01*
X105527611Y-104995134D01*
X105942577Y-105371041D01*
X106330961Y-105531904D01*
X106553000Y-105409915D01*
X106553000Y-104267000D01*
X106807000Y-104267000D01*
X106807000Y-105409915D01*
X107029039Y-105531904D01*
X107417423Y-105371041D01*
X107832389Y-104995134D01*
X107950000Y-104746633D01*
X108067611Y-104995134D01*
X108482577Y-105371041D01*
X108870961Y-105531904D01*
X109093000Y-105409915D01*
X109093000Y-104267000D01*
X106807000Y-104267000D01*
X106553000Y-104267000D01*
X106533000Y-104267000D01*
X106533000Y-104013000D01*
X106553000Y-104013000D01*
X106553000Y-102870085D01*
X106807000Y-102870085D01*
X106807000Y-104013000D01*
X109093000Y-104013000D01*
X109093000Y-102870085D01*
X109347000Y-102870085D01*
X109347000Y-104013000D01*
X109367000Y-104013000D01*
X109367000Y-104267000D01*
X109347000Y-104267000D01*
X109347000Y-105409915D01*
X109569039Y-105531904D01*
X109957423Y-105371041D01*
X110372389Y-104995134D01*
X110475014Y-104778297D01*
X110745302Y-105182811D01*
X111210849Y-105493880D01*
X111760000Y-105603113D01*
X112309151Y-105493880D01*
X112774698Y-105182811D01*
X112880144Y-105025000D01*
X113155829Y-105025000D01*
X113486077Y-105355824D01*
X114013309Y-105574750D01*
X114584187Y-105575248D01*
X115111800Y-105357243D01*
X115444623Y-105025000D01*
X120649995Y-105025000D01*
X120650000Y-105025001D01*
X120932484Y-104968810D01*
X120988675Y-104957633D01*
X121275790Y-104765790D01*
X123556579Y-102485000D01*
X128137153Y-102485000D01*
X128153538Y-102524655D01*
X128612927Y-102984846D01*
X129213453Y-103234206D01*
X129863694Y-103234774D01*
X130464655Y-102986462D01*
X130924846Y-102527073D01*
X131174206Y-101926547D01*
X131174208Y-101923694D01*
X138065226Y-101923694D01*
X138313538Y-102524655D01*
X138772927Y-102984846D01*
X139373453Y-103234206D01*
X140023694Y-103234774D01*
X140624655Y-102986462D01*
X141084846Y-102527073D01*
X141334206Y-101926547D01*
X141334774Y-101276306D01*
X141086462Y-100675345D01*
X140627073Y-100215154D01*
X140026547Y-99965794D01*
X139376306Y-99965226D01*
X138775345Y-100213538D01*
X138315154Y-100672927D01*
X138065794Y-101273453D01*
X138065226Y-101923694D01*
X131174208Y-101923694D01*
X131174774Y-101276306D01*
X130926462Y-100675345D01*
X130467073Y-100215154D01*
X129866547Y-99965794D01*
X129216306Y-99965226D01*
X128615345Y-100213538D01*
X128155154Y-100672927D01*
X128137684Y-100715000D01*
X123190000Y-100715000D01*
X122851325Y-100782367D01*
X122564210Y-100974210D01*
X122564208Y-100974213D01*
X120283420Y-103255000D01*
X115444171Y-103255000D01*
X115113923Y-102924176D01*
X115047456Y-102896577D01*
X115054005Y-102893864D01*
X115128139Y-102647745D01*
X114300000Y-101819605D01*
X113471861Y-102647745D01*
X113545995Y-102893864D01*
X113552483Y-102896196D01*
X113488200Y-102922757D01*
X113155377Y-103255000D01*
X112880144Y-103255000D01*
X112774698Y-103097189D01*
X112309151Y-102786120D01*
X111760000Y-102676887D01*
X111210849Y-102786120D01*
X110745302Y-103097189D01*
X110475014Y-103501703D01*
X110372389Y-103284866D01*
X109957423Y-102908959D01*
X109569039Y-102748096D01*
X109347000Y-102870085D01*
X109093000Y-102870085D01*
X108870961Y-102748096D01*
X108482577Y-102908959D01*
X108067611Y-103284866D01*
X107950000Y-103533367D01*
X107832389Y-103284866D01*
X107417423Y-102908959D01*
X107029039Y-102748096D01*
X106807000Y-102870085D01*
X106553000Y-102870085D01*
X106330961Y-102748096D01*
X105942577Y-102908959D01*
X105527611Y-103284866D01*
X105424986Y-103501703D01*
X105154698Y-103097189D01*
X104689151Y-102786120D01*
X104140000Y-102676887D01*
X103590849Y-102786120D01*
X103125302Y-103097189D01*
X102855014Y-103501703D01*
X102752389Y-103284866D01*
X102337423Y-102908959D01*
X101949039Y-102748096D01*
X101727000Y-102870085D01*
X101473000Y-102870085D01*
X101250961Y-102748096D01*
X100862577Y-102908959D01*
X100447611Y-103284866D01*
X100330000Y-103533367D01*
X100212389Y-103284866D01*
X99797423Y-102908959D01*
X99409039Y-102748096D01*
X99187000Y-102870085D01*
X98933000Y-102870085D01*
X98710961Y-102748096D01*
X98322577Y-102908959D01*
X97907611Y-103284866D01*
X97804986Y-103501703D01*
X97534698Y-103097189D01*
X97069151Y-102786120D01*
X96520000Y-102676887D01*
X95970849Y-102786120D01*
X95505302Y-103097189D01*
X95194233Y-103562736D01*
X95085000Y-104111887D01*
X90880000Y-104111887D01*
X90880000Y-101423223D01*
X112853035Y-101423223D01*
X112880222Y-101993454D01*
X113046136Y-102394005D01*
X113292255Y-102468139D01*
X114120395Y-101640000D01*
X114479605Y-101640000D01*
X115307745Y-102468139D01*
X115553864Y-102394005D01*
X115746965Y-101856777D01*
X115719778Y-101286546D01*
X115553864Y-100885995D01*
X115307745Y-100811861D01*
X114479605Y-101640000D01*
X114120395Y-101640000D01*
X113292255Y-100811861D01*
X113046136Y-100885995D01*
X112853035Y-101423223D01*
X90880000Y-101423223D01*
X90880000Y-100632255D01*
X113471861Y-100632255D01*
X114300000Y-101460395D01*
X115128139Y-100632255D01*
X115054005Y-100386136D01*
X114516777Y-100193035D01*
X113946546Y-100220222D01*
X113545995Y-100386136D01*
X113471861Y-100632255D01*
X90880000Y-100632255D01*
X90880000Y-96869041D01*
X95128086Y-96869041D01*
X95367611Y-97375134D01*
X95782577Y-97751041D01*
X96170961Y-97911904D01*
X96393000Y-97789915D01*
X96393000Y-96647000D01*
X95249371Y-96647000D01*
X95128086Y-96869041D01*
X90880000Y-96869041D01*
X90880000Y-96170959D01*
X95128086Y-96170959D01*
X95249371Y-96393000D01*
X96393000Y-96393000D01*
X96393000Y-95250085D01*
X96647000Y-95250085D01*
X96647000Y-96393000D01*
X96667000Y-96393000D01*
X96667000Y-96647000D01*
X96647000Y-96647000D01*
X96647000Y-97789915D01*
X96869039Y-97911904D01*
X97257423Y-97751041D01*
X97672389Y-97375134D01*
X97775014Y-97158297D01*
X98045302Y-97562811D01*
X98510849Y-97873880D01*
X99060000Y-97983113D01*
X99609151Y-97873880D01*
X100074698Y-97562811D01*
X100330000Y-97180725D01*
X100585302Y-97562811D01*
X101050849Y-97873880D01*
X101600000Y-97983113D01*
X102149151Y-97873880D01*
X102614698Y-97562811D01*
X102870000Y-97180725D01*
X103125302Y-97562811D01*
X103590849Y-97873880D01*
X104140000Y-97983113D01*
X104689151Y-97873880D01*
X105154698Y-97562811D01*
X105410000Y-97180725D01*
X105665302Y-97562811D01*
X106130849Y-97873880D01*
X106680000Y-97983113D01*
X107229151Y-97873880D01*
X107694698Y-97562811D01*
X107950000Y-97180725D01*
X108205302Y-97562811D01*
X108670849Y-97873880D01*
X109220000Y-97983113D01*
X109769151Y-97873880D01*
X110234698Y-97562811D01*
X110331101Y-97418535D01*
X110356838Y-97555317D01*
X110495910Y-97771441D01*
X110708110Y-97916431D01*
X110960000Y-97967440D01*
X112560000Y-97967440D01*
X112795317Y-97923162D01*
X113011441Y-97784090D01*
X113156431Y-97571890D01*
X113207440Y-97320000D01*
X113207440Y-95720000D01*
X113188624Y-95620000D01*
X127992560Y-95620000D01*
X127992560Y-97420000D01*
X128036838Y-97655317D01*
X128175910Y-97871441D01*
X128388110Y-98016431D01*
X128640000Y-98067440D01*
X130440000Y-98067440D01*
X130675317Y-98023162D01*
X130891441Y-97884090D01*
X131036431Y-97671890D01*
X131087440Y-97420000D01*
X131087440Y-95620000D01*
X131043162Y-95384683D01*
X130904090Y-95168559D01*
X130691890Y-95023569D01*
X130440000Y-94972560D01*
X128640000Y-94972560D01*
X128404683Y-95016838D01*
X128188559Y-95155910D01*
X128043569Y-95368110D01*
X127992560Y-95620000D01*
X113188624Y-95620000D01*
X113163162Y-95484683D01*
X113024090Y-95268559D01*
X112811890Y-95123569D01*
X112560000Y-95072560D01*
X110960000Y-95072560D01*
X110724683Y-95116838D01*
X110508559Y-95255910D01*
X110363569Y-95468110D01*
X110332185Y-95623089D01*
X110234698Y-95477189D01*
X109769151Y-95166120D01*
X109220000Y-95056887D01*
X108670849Y-95166120D01*
X108205302Y-95477189D01*
X107950000Y-95859275D01*
X107694698Y-95477189D01*
X107229151Y-95166120D01*
X106680000Y-95056887D01*
X106130849Y-95166120D01*
X105665302Y-95477189D01*
X105410000Y-95859275D01*
X105154698Y-95477189D01*
X104689151Y-95166120D01*
X104140000Y-95056887D01*
X103590849Y-95166120D01*
X103125302Y-95477189D01*
X102870000Y-95859275D01*
X102614698Y-95477189D01*
X102149151Y-95166120D01*
X101600000Y-95056887D01*
X101050849Y-95166120D01*
X100585302Y-95477189D01*
X100330000Y-95859275D01*
X100074698Y-95477189D01*
X99609151Y-95166120D01*
X99060000Y-95056887D01*
X98510849Y-95166120D01*
X98045302Y-95477189D01*
X97775014Y-95881703D01*
X97672389Y-95664866D01*
X97257423Y-95288959D01*
X96869039Y-95128096D01*
X96647000Y-95250085D01*
X96393000Y-95250085D01*
X96170961Y-95128096D01*
X95782577Y-95288959D01*
X95367611Y-95664866D01*
X95128086Y-96170959D01*
X90880000Y-96170959D01*
X90880000Y-89085167D01*
X98124838Y-89085167D01*
X98266883Y-89428943D01*
X98529673Y-89692192D01*
X98873201Y-89834838D01*
X99245167Y-89835162D01*
X99500430Y-89729690D01*
X99395162Y-89983201D01*
X99394838Y-90355167D01*
X99536883Y-90698943D01*
X99799673Y-90962192D01*
X100143201Y-91104838D01*
X100515167Y-91105162D01*
X100858943Y-90963117D01*
X100892118Y-90930000D01*
X103339367Y-90930000D01*
X103205162Y-91253201D01*
X103204838Y-91625167D01*
X103346883Y-91968943D01*
X103609673Y-92232192D01*
X103953201Y-92374838D01*
X104325167Y-92375162D01*
X104668943Y-92233117D01*
X104702118Y-92200000D01*
X107149367Y-92200000D01*
X107015162Y-92523201D01*
X107014838Y-92895167D01*
X107156883Y-93238943D01*
X107419673Y-93502192D01*
X107763201Y-93644838D01*
X108135167Y-93645162D01*
X108390430Y-93539690D01*
X108285162Y-93793201D01*
X108284838Y-94165167D01*
X108426883Y-94508943D01*
X108689673Y-94772192D01*
X109033201Y-94914838D01*
X109405167Y-94915162D01*
X109748943Y-94773117D01*
X109782118Y-94740000D01*
X145487537Y-94740000D01*
X145519673Y-94772192D01*
X145863201Y-94914838D01*
X146235167Y-94915162D01*
X146578943Y-94773117D01*
X146842192Y-94510327D01*
X146984838Y-94166799D01*
X146985162Y-93794833D01*
X146850944Y-93470000D01*
X154377537Y-93470000D01*
X154409673Y-93502192D01*
X154753201Y-93644838D01*
X155125167Y-93645162D01*
X155468943Y-93503117D01*
X155732192Y-93240327D01*
X155874838Y-92896799D01*
X155875162Y-92524833D01*
X155733117Y-92181057D01*
X155470327Y-91917808D01*
X155126799Y-91775162D01*
X154754833Y-91774838D01*
X154411057Y-91916883D01*
X154377882Y-91950000D01*
X149390633Y-91950000D01*
X149524838Y-91626799D01*
X149525162Y-91254833D01*
X149383117Y-90911057D01*
X149120327Y-90647808D01*
X148776799Y-90505162D01*
X148404833Y-90504838D01*
X148061057Y-90646883D01*
X148027882Y-90680000D01*
X143040633Y-90680000D01*
X143174838Y-90356799D01*
X143175162Y-89984833D01*
X143033117Y-89641057D01*
X142770327Y-89377808D01*
X142426799Y-89235162D01*
X142054833Y-89234838D01*
X141711057Y-89376883D01*
X141677882Y-89410000D01*
X137960633Y-89410000D01*
X138094838Y-89086799D01*
X138095162Y-88714833D01*
X137953117Y-88371057D01*
X137690327Y-88107808D01*
X137346799Y-87965162D01*
X136974833Y-87964838D01*
X136631057Y-88106883D01*
X136597882Y-88140000D01*
X99622463Y-88140000D01*
X99590327Y-88107808D01*
X99246799Y-87965162D01*
X98874833Y-87964838D01*
X98531057Y-88106883D01*
X98267808Y-88369673D01*
X98125162Y-88713201D01*
X98124838Y-89085167D01*
X90880000Y-89085167D01*
X90880000Y-86331887D01*
X95085000Y-86331887D01*
X95085000Y-86388113D01*
X95194233Y-86937264D01*
X95505302Y-87402811D01*
X95970849Y-87713880D01*
X96520000Y-87823113D01*
X97069151Y-87713880D01*
X97534698Y-87402811D01*
X97804986Y-86998297D01*
X97907611Y-87215134D01*
X98322577Y-87591041D01*
X98710961Y-87751904D01*
X98933000Y-87629915D01*
X98933000Y-86487000D01*
X98913000Y-86487000D01*
X98913000Y-86233000D01*
X98933000Y-86233000D01*
X98933000Y-85090085D01*
X99187000Y-85090085D01*
X99187000Y-86233000D01*
X99207000Y-86233000D01*
X99207000Y-86487000D01*
X99187000Y-86487000D01*
X99187000Y-87629915D01*
X99409039Y-87751904D01*
X99797423Y-87591041D01*
X100212389Y-87215134D01*
X100315014Y-86998297D01*
X100585302Y-87402811D01*
X101050849Y-87713880D01*
X101600000Y-87823113D01*
X102149151Y-87713880D01*
X102614698Y-87402811D01*
X102884986Y-86998297D01*
X102987611Y-87215134D01*
X103402577Y-87591041D01*
X103790961Y-87751904D01*
X104013000Y-87629915D01*
X104013000Y-86487000D01*
X103993000Y-86487000D01*
X103993000Y-86233000D01*
X104013000Y-86233000D01*
X104013000Y-85090085D01*
X104267000Y-85090085D01*
X104267000Y-86233000D01*
X104287000Y-86233000D01*
X104287000Y-86487000D01*
X104267000Y-86487000D01*
X104267000Y-87629915D01*
X104489039Y-87751904D01*
X104877423Y-87591041D01*
X105292389Y-87215134D01*
X105395014Y-86998297D01*
X105665302Y-87402811D01*
X106130849Y-87713880D01*
X106680000Y-87823113D01*
X107229151Y-87713880D01*
X107694698Y-87402811D01*
X107964986Y-86998297D01*
X108067611Y-87215134D01*
X108482577Y-87591041D01*
X108870961Y-87751904D01*
X109093000Y-87629915D01*
X109093000Y-86487000D01*
X109073000Y-86487000D01*
X109073000Y-86233000D01*
X109093000Y-86233000D01*
X109093000Y-85090085D01*
X109347000Y-85090085D01*
X109347000Y-86233000D01*
X109367000Y-86233000D01*
X109367000Y-86487000D01*
X109347000Y-86487000D01*
X109347000Y-87629915D01*
X109569039Y-87751904D01*
X109957423Y-87591041D01*
X110372389Y-87215134D01*
X110475014Y-86998297D01*
X110745302Y-87402811D01*
X111210849Y-87713880D01*
X111760000Y-87823113D01*
X112309151Y-87713880D01*
X112774698Y-87402811D01*
X112880144Y-87245000D01*
X113155829Y-87245000D01*
X113486077Y-87575824D01*
X114013309Y-87794750D01*
X114584187Y-87795248D01*
X115111800Y-87577243D01*
X115515824Y-87173923D01*
X115734750Y-86646691D01*
X115735024Y-86331887D01*
X123025000Y-86331887D01*
X123025000Y-86388113D01*
X123134233Y-86937264D01*
X123445302Y-87402811D01*
X123910849Y-87713880D01*
X124460000Y-87823113D01*
X125009151Y-87713880D01*
X125474698Y-87402811D01*
X125730000Y-87020725D01*
X125985302Y-87402811D01*
X126450849Y-87713880D01*
X127000000Y-87823113D01*
X127549151Y-87713880D01*
X128014698Y-87402811D01*
X128270000Y-87020725D01*
X128525302Y-87402811D01*
X128990849Y-87713880D01*
X129540000Y-87823113D01*
X130089151Y-87713880D01*
X130554698Y-87402811D01*
X130810000Y-87020725D01*
X131065302Y-87402811D01*
X131530849Y-87713880D01*
X132080000Y-87823113D01*
X132629151Y-87713880D01*
X133094698Y-87402811D01*
X133350000Y-87020725D01*
X133605302Y-87402811D01*
X134070849Y-87713880D01*
X134620000Y-87823113D01*
X135169151Y-87713880D01*
X135634698Y-87402811D01*
X135890000Y-87020725D01*
X136145302Y-87402811D01*
X136610849Y-87713880D01*
X137160000Y-87823113D01*
X137709151Y-87713880D01*
X138174698Y-87402811D01*
X138430000Y-87020725D01*
X138685302Y-87402811D01*
X139150849Y-87713880D01*
X139700000Y-87823113D01*
X140249151Y-87713880D01*
X140714698Y-87402811D01*
X140970000Y-87020725D01*
X141225302Y-87402811D01*
X141690849Y-87713880D01*
X142240000Y-87823113D01*
X142789151Y-87713880D01*
X143254698Y-87402811D01*
X143510000Y-87020725D01*
X143765302Y-87402811D01*
X144230849Y-87713880D01*
X144780000Y-87823113D01*
X145329151Y-87713880D01*
X145794698Y-87402811D01*
X146050000Y-87020725D01*
X146305302Y-87402811D01*
X146770849Y-87713880D01*
X147320000Y-87823113D01*
X147869151Y-87713880D01*
X148334698Y-87402811D01*
X148590000Y-87020725D01*
X148845302Y-87402811D01*
X149310849Y-87713880D01*
X149860000Y-87823113D01*
X150409151Y-87713880D01*
X150874698Y-87402811D01*
X151130000Y-87020725D01*
X151385302Y-87402811D01*
X151850849Y-87713880D01*
X152400000Y-87823113D01*
X152949151Y-87713880D01*
X153414698Y-87402811D01*
X153670000Y-87020725D01*
X153925302Y-87402811D01*
X154390849Y-87713880D01*
X154940000Y-87823113D01*
X155489151Y-87713880D01*
X155954698Y-87402811D01*
X156210000Y-87020725D01*
X156465302Y-87402811D01*
X156930849Y-87713880D01*
X157480000Y-87823113D01*
X158029151Y-87713880D01*
X158494698Y-87402811D01*
X158744027Y-87029664D01*
X158802757Y-87171800D01*
X159206077Y-87575824D01*
X159733309Y-87794750D01*
X160304187Y-87795248D01*
X160831800Y-87577243D01*
X161235824Y-87173923D01*
X161454750Y-86646691D01*
X161455248Y-86075813D01*
X161237243Y-85548200D01*
X160833923Y-85144176D01*
X160767456Y-85116577D01*
X160774005Y-85113864D01*
X160848139Y-84867745D01*
X160020000Y-84039605D01*
X159191861Y-84867745D01*
X159265995Y-85113864D01*
X159272483Y-85116196D01*
X159208200Y-85142757D01*
X158804176Y-85546077D01*
X158744180Y-85690564D01*
X158494698Y-85317189D01*
X158029151Y-85006120D01*
X157480000Y-84896887D01*
X156930849Y-85006120D01*
X156465302Y-85317189D01*
X156210000Y-85699275D01*
X155954698Y-85317189D01*
X155489151Y-85006120D01*
X154940000Y-84896887D01*
X154390849Y-85006120D01*
X153925302Y-85317189D01*
X153670000Y-85699275D01*
X153414698Y-85317189D01*
X152949151Y-85006120D01*
X152400000Y-84896887D01*
X151850849Y-85006120D01*
X151385302Y-85317189D01*
X151130000Y-85699275D01*
X150874698Y-85317189D01*
X150409151Y-85006120D01*
X149860000Y-84896887D01*
X149310849Y-85006120D01*
X148845302Y-85317189D01*
X148590000Y-85699275D01*
X148334698Y-85317189D01*
X147869151Y-85006120D01*
X147320000Y-84896887D01*
X146770849Y-85006120D01*
X146305302Y-85317189D01*
X146050000Y-85699275D01*
X145794698Y-85317189D01*
X145329151Y-85006120D01*
X144780000Y-84896887D01*
X144230849Y-85006120D01*
X143765302Y-85317189D01*
X143510000Y-85699275D01*
X143254698Y-85317189D01*
X142789151Y-85006120D01*
X142240000Y-84896887D01*
X141690849Y-85006120D01*
X141225302Y-85317189D01*
X140970000Y-85699275D01*
X140714698Y-85317189D01*
X140249151Y-85006120D01*
X139700000Y-84896887D01*
X139150849Y-85006120D01*
X138685302Y-85317189D01*
X138430000Y-85699275D01*
X138174698Y-85317189D01*
X137709151Y-85006120D01*
X137160000Y-84896887D01*
X136610849Y-85006120D01*
X136145302Y-85317189D01*
X135890000Y-85699275D01*
X135634698Y-85317189D01*
X135169151Y-85006120D01*
X134620000Y-84896887D01*
X134070849Y-85006120D01*
X133605302Y-85317189D01*
X133350000Y-85699275D01*
X133094698Y-85317189D01*
X132629151Y-85006120D01*
X132080000Y-84896887D01*
X131530849Y-85006120D01*
X131065302Y-85317189D01*
X130810000Y-85699275D01*
X130554698Y-85317189D01*
X130089151Y-85006120D01*
X129540000Y-84896887D01*
X128990849Y-85006120D01*
X128525302Y-85317189D01*
X128270000Y-85699275D01*
X128014698Y-85317189D01*
X127549151Y-85006120D01*
X127000000Y-84896887D01*
X126450849Y-85006120D01*
X125985302Y-85317189D01*
X125730000Y-85699275D01*
X125474698Y-85317189D01*
X125009151Y-85006120D01*
X124460000Y-84896887D01*
X123910849Y-85006120D01*
X123445302Y-85317189D01*
X123134233Y-85782736D01*
X123025000Y-86331887D01*
X115735024Y-86331887D01*
X115735248Y-86075813D01*
X115517243Y-85548200D01*
X115113923Y-85144176D01*
X115047456Y-85116577D01*
X115054005Y-85113864D01*
X115128139Y-84867745D01*
X114300000Y-84039605D01*
X113471861Y-84867745D01*
X113545995Y-85113864D01*
X113552483Y-85116196D01*
X113488200Y-85142757D01*
X113155377Y-85475000D01*
X112880144Y-85475000D01*
X112774698Y-85317189D01*
X112309151Y-85006120D01*
X111760000Y-84896887D01*
X111210849Y-85006120D01*
X110745302Y-85317189D01*
X110475014Y-85721703D01*
X110372389Y-85504866D01*
X109957423Y-85128959D01*
X109569039Y-84968096D01*
X109347000Y-85090085D01*
X109093000Y-85090085D01*
X108870961Y-84968096D01*
X108482577Y-85128959D01*
X108067611Y-85504866D01*
X107964986Y-85721703D01*
X107694698Y-85317189D01*
X107229151Y-85006120D01*
X106680000Y-84896887D01*
X106130849Y-85006120D01*
X105665302Y-85317189D01*
X105395014Y-85721703D01*
X105292389Y-85504866D01*
X104877423Y-85128959D01*
X104489039Y-84968096D01*
X104267000Y-85090085D01*
X104013000Y-85090085D01*
X103790961Y-84968096D01*
X103402577Y-85128959D01*
X102987611Y-85504866D01*
X102884986Y-85721703D01*
X102614698Y-85317189D01*
X102149151Y-85006120D01*
X101600000Y-84896887D01*
X101050849Y-85006120D01*
X100585302Y-85317189D01*
X100315014Y-85721703D01*
X100212389Y-85504866D01*
X99797423Y-85128959D01*
X99409039Y-84968096D01*
X99187000Y-85090085D01*
X98933000Y-85090085D01*
X98710961Y-84968096D01*
X98322577Y-85128959D01*
X97907611Y-85504866D01*
X97804986Y-85721703D01*
X97534698Y-85317189D01*
X97069151Y-85006120D01*
X96520000Y-84896887D01*
X95970849Y-85006120D01*
X95505302Y-85317189D01*
X95194233Y-85782736D01*
X95085000Y-86331887D01*
X90880000Y-86331887D01*
X90880000Y-83643223D01*
X112853035Y-83643223D01*
X112880222Y-84213454D01*
X113046136Y-84614005D01*
X113292255Y-84688139D01*
X114120395Y-83860000D01*
X113292255Y-83031861D01*
X113046136Y-83105995D01*
X112853035Y-83643223D01*
X90880000Y-83643223D01*
X90880000Y-82852255D01*
X113471861Y-82852255D01*
X114300000Y-83680395D01*
X114314143Y-83666253D01*
X114493748Y-83845858D01*
X114479605Y-83860000D01*
X115307745Y-84688139D01*
X115553864Y-84614005D01*
X115746965Y-84076777D01*
X115743551Y-84005167D01*
X134954838Y-84005167D01*
X135096883Y-84348943D01*
X135359673Y-84612192D01*
X135703201Y-84754838D01*
X136075167Y-84755162D01*
X136418943Y-84613117D01*
X136452118Y-84580000D01*
X149297537Y-84580000D01*
X149329673Y-84612192D01*
X149673201Y-84754838D01*
X150045167Y-84755162D01*
X150388943Y-84613117D01*
X150652192Y-84350327D01*
X150794838Y-84006799D01*
X150795154Y-83643223D01*
X158573035Y-83643223D01*
X158600222Y-84213454D01*
X158766136Y-84614005D01*
X159012255Y-84688139D01*
X159840395Y-83860000D01*
X160199605Y-83860000D01*
X161027745Y-84688139D01*
X161273864Y-84614005D01*
X161466965Y-84076777D01*
X161439778Y-83506546D01*
X161273864Y-83105995D01*
X161027745Y-83031861D01*
X160199605Y-83860000D01*
X159840395Y-83860000D01*
X159012255Y-83031861D01*
X158766136Y-83105995D01*
X158573035Y-83643223D01*
X150795154Y-83643223D01*
X150795162Y-83634833D01*
X150653117Y-83291057D01*
X150390327Y-83027808D01*
X150046799Y-82885162D01*
X149674833Y-82884838D01*
X149331057Y-83026883D01*
X149297882Y-83060000D01*
X148120633Y-83060000D01*
X148206896Y-82852255D01*
X159191861Y-82852255D01*
X160020000Y-83680395D01*
X160848139Y-82852255D01*
X160774005Y-82606136D01*
X160236777Y-82413035D01*
X159666546Y-82440222D01*
X159265995Y-82606136D01*
X159191861Y-82852255D01*
X148206896Y-82852255D01*
X148254838Y-82736799D01*
X148255162Y-82364833D01*
X148113117Y-82021057D01*
X147850327Y-81757808D01*
X147506799Y-81615162D01*
X147134833Y-81614838D01*
X146791057Y-81756883D01*
X146757882Y-81790000D01*
X138992463Y-81790000D01*
X138960327Y-81757808D01*
X138616799Y-81615162D01*
X138244833Y-81614838D01*
X137901057Y-81756883D01*
X137637808Y-82019673D01*
X137495162Y-82363201D01*
X137494838Y-82735167D01*
X137629056Y-83060000D01*
X136452463Y-83060000D01*
X136420327Y-83027808D01*
X136076799Y-82885162D01*
X135704833Y-82884838D01*
X135361057Y-83026883D01*
X135097808Y-83289673D01*
X134955162Y-83633201D01*
X134954838Y-84005167D01*
X115743551Y-84005167D01*
X115719778Y-83506546D01*
X115710904Y-83485123D01*
X115755167Y-83485162D01*
X116098943Y-83343117D01*
X116132118Y-83310000D01*
X131517537Y-83310000D01*
X131549673Y-83342192D01*
X131893201Y-83484838D01*
X132265167Y-83485162D01*
X132608943Y-83343117D01*
X132872192Y-83080327D01*
X133014838Y-82736799D01*
X133015162Y-82364833D01*
X132873117Y-82021057D01*
X132610327Y-81757808D01*
X132266799Y-81615162D01*
X131894833Y-81614838D01*
X131551057Y-81756883D01*
X131517882Y-81790000D01*
X130340633Y-81790000D01*
X130474838Y-81466799D01*
X130475162Y-81094833D01*
X130333117Y-80751057D01*
X130070327Y-80487808D01*
X129726799Y-80345162D01*
X129354833Y-80344838D01*
X129011057Y-80486883D01*
X128977882Y-80520000D01*
X127800633Y-80520000D01*
X127934838Y-80196799D01*
X127935152Y-79835962D01*
X128014698Y-79782811D01*
X128270000Y-79400725D01*
X128525302Y-79782811D01*
X128990849Y-80093880D01*
X129540000Y-80203113D01*
X130089151Y-80093880D01*
X130554698Y-79782811D01*
X130810000Y-79400725D01*
X131065302Y-79782811D01*
X131530849Y-80093880D01*
X132080000Y-80203113D01*
X132629151Y-80093880D01*
X133094698Y-79782811D01*
X133350000Y-79400725D01*
X133605302Y-79782811D01*
X134070849Y-80093880D01*
X134620000Y-80203113D01*
X135169151Y-80093880D01*
X135634698Y-79782811D01*
X135890000Y-79400725D01*
X136145302Y-79782811D01*
X136610849Y-80093880D01*
X137160000Y-80203113D01*
X137709151Y-80093880D01*
X138174698Y-79782811D01*
X138430000Y-79400725D01*
X138685302Y-79782811D01*
X139150849Y-80093880D01*
X139700000Y-80203113D01*
X140249151Y-80093880D01*
X140714698Y-79782811D01*
X140970000Y-79400725D01*
X141225302Y-79782811D01*
X141690849Y-80093880D01*
X142240000Y-80203113D01*
X142789151Y-80093880D01*
X143254698Y-79782811D01*
X143510000Y-79400725D01*
X143765302Y-79782811D01*
X144230849Y-80093880D01*
X144780000Y-80203113D01*
X145329151Y-80093880D01*
X145794698Y-79782811D01*
X146050000Y-79400725D01*
X146305302Y-79782811D01*
X146770849Y-80093880D01*
X147320000Y-80203113D01*
X147869151Y-80093880D01*
X148334698Y-79782811D01*
X148590000Y-79400725D01*
X148845302Y-79782811D01*
X149310849Y-80093880D01*
X149860000Y-80203113D01*
X150409151Y-80093880D01*
X150874698Y-79782811D01*
X151130000Y-79400725D01*
X151385302Y-79782811D01*
X151850849Y-80093880D01*
X152400000Y-80203113D01*
X152949151Y-80093880D01*
X153414698Y-79782811D01*
X153670000Y-79400725D01*
X153925302Y-79782811D01*
X154390849Y-80093880D01*
X154940000Y-80203113D01*
X155489151Y-80093880D01*
X155954698Y-79782811D01*
X156051101Y-79638535D01*
X156076838Y-79775317D01*
X156215910Y-79991441D01*
X156428110Y-80136431D01*
X156680000Y-80187440D01*
X158280000Y-80187440D01*
X158515317Y-80143162D01*
X158731441Y-80004090D01*
X158876431Y-79791890D01*
X158927440Y-79540000D01*
X158927440Y-77940000D01*
X158883162Y-77704683D01*
X158744090Y-77488559D01*
X158531890Y-77343569D01*
X158280000Y-77292560D01*
X156680000Y-77292560D01*
X156444683Y-77336838D01*
X156228559Y-77475910D01*
X156083569Y-77688110D01*
X156052185Y-77843089D01*
X155954698Y-77697189D01*
X155489151Y-77386120D01*
X154940000Y-77276887D01*
X154390849Y-77386120D01*
X153925302Y-77697189D01*
X153670000Y-78079275D01*
X153414698Y-77697189D01*
X152949151Y-77386120D01*
X152400000Y-77276887D01*
X151850849Y-77386120D01*
X151385302Y-77697189D01*
X151130000Y-78079275D01*
X150874698Y-77697189D01*
X150409151Y-77386120D01*
X149860000Y-77276887D01*
X149310849Y-77386120D01*
X148845302Y-77697189D01*
X148590000Y-78079275D01*
X148334698Y-77697189D01*
X147869151Y-77386120D01*
X147320000Y-77276887D01*
X146770849Y-77386120D01*
X146305302Y-77697189D01*
X146050000Y-78079275D01*
X145794698Y-77697189D01*
X145329151Y-77386120D01*
X144780000Y-77276887D01*
X144230849Y-77386120D01*
X143765302Y-77697189D01*
X143510000Y-78079275D01*
X143254698Y-77697189D01*
X142789151Y-77386120D01*
X142240000Y-77276887D01*
X141690849Y-77386120D01*
X141225302Y-77697189D01*
X140970000Y-78079275D01*
X140714698Y-77697189D01*
X140249151Y-77386120D01*
X139700000Y-77276887D01*
X139150849Y-77386120D01*
X138685302Y-77697189D01*
X138430000Y-78079275D01*
X138174698Y-77697189D01*
X137709151Y-77386120D01*
X137160000Y-77276887D01*
X136610849Y-77386120D01*
X136145302Y-77697189D01*
X135890000Y-78079275D01*
X135634698Y-77697189D01*
X135169151Y-77386120D01*
X134620000Y-77276887D01*
X134070849Y-77386120D01*
X133605302Y-77697189D01*
X133350000Y-78079275D01*
X133094698Y-77697189D01*
X132629151Y-77386120D01*
X132080000Y-77276887D01*
X131530849Y-77386120D01*
X131065302Y-77697189D01*
X130810000Y-78079275D01*
X130554698Y-77697189D01*
X130089151Y-77386120D01*
X129540000Y-77276887D01*
X128990849Y-77386120D01*
X128525302Y-77697189D01*
X128270000Y-78079275D01*
X128014698Y-77697189D01*
X127549151Y-77386120D01*
X127000000Y-77276887D01*
X126450849Y-77386120D01*
X125985302Y-77697189D01*
X125715014Y-78101703D01*
X125612389Y-77884866D01*
X125197423Y-77508959D01*
X124809039Y-77348096D01*
X124587000Y-77470085D01*
X124587000Y-78613000D01*
X124607000Y-78613000D01*
X124607000Y-78867000D01*
X124587000Y-78867000D01*
X124587000Y-78887000D01*
X124333000Y-78887000D01*
X124333000Y-78867000D01*
X123189371Y-78867000D01*
X123068086Y-79089041D01*
X123144265Y-79250000D01*
X121212463Y-79250000D01*
X121180327Y-79217808D01*
X120836799Y-79075162D01*
X120464833Y-79074838D01*
X120121057Y-79216883D01*
X119857808Y-79479673D01*
X119715162Y-79823201D01*
X119714838Y-80195167D01*
X119849056Y-80520000D01*
X118672463Y-80520000D01*
X118640327Y-80487808D01*
X118296799Y-80345162D01*
X117924833Y-80344838D01*
X117581057Y-80486883D01*
X117317808Y-80749673D01*
X117175162Y-81093201D01*
X117174838Y-81465167D01*
X117309056Y-81790000D01*
X116132463Y-81790000D01*
X116100327Y-81757808D01*
X115756799Y-81615162D01*
X115384833Y-81614838D01*
X115041057Y-81756883D01*
X114777808Y-82019673D01*
X114635162Y-82363201D01*
X114635082Y-82455558D01*
X114516777Y-82413035D01*
X113946546Y-82440222D01*
X113545995Y-82606136D01*
X113471861Y-82852255D01*
X90880000Y-82852255D01*
X90880000Y-81465167D01*
X104474838Y-81465167D01*
X104616883Y-81808943D01*
X104879673Y-82072192D01*
X105223201Y-82214838D01*
X105595167Y-82215162D01*
X105938943Y-82073117D01*
X105972118Y-82040000D01*
X111197537Y-82040000D01*
X111229673Y-82072192D01*
X111573201Y-82214838D01*
X111945167Y-82215162D01*
X112288943Y-82073117D01*
X112552192Y-81810327D01*
X112694838Y-81466799D01*
X112695162Y-81094833D01*
X112553117Y-80751057D01*
X112290327Y-80487808D01*
X111946799Y-80345162D01*
X111574833Y-80344838D01*
X111231057Y-80486883D01*
X111197882Y-80520000D01*
X105972463Y-80520000D01*
X105940327Y-80487808D01*
X105596799Y-80345162D01*
X105224833Y-80344838D01*
X104881057Y-80486883D01*
X104617808Y-80749673D01*
X104475162Y-81093201D01*
X104474838Y-81465167D01*
X90880000Y-81465167D01*
X90880000Y-79089041D01*
X95128086Y-79089041D01*
X95367611Y-79595134D01*
X95782577Y-79971041D01*
X96170961Y-80131904D01*
X96393000Y-80009915D01*
X96393000Y-78867000D01*
X95249371Y-78867000D01*
X95128086Y-79089041D01*
X90880000Y-79089041D01*
X90880000Y-78390959D01*
X95128086Y-78390959D01*
X95249371Y-78613000D01*
X96393000Y-78613000D01*
X96393000Y-77470085D01*
X96647000Y-77470085D01*
X96647000Y-78613000D01*
X96667000Y-78613000D01*
X96667000Y-78867000D01*
X96647000Y-78867000D01*
X96647000Y-80009915D01*
X96869039Y-80131904D01*
X97257423Y-79971041D01*
X97672389Y-79595134D01*
X97775014Y-79378297D01*
X98045302Y-79782811D01*
X98510849Y-80093880D01*
X99060000Y-80203113D01*
X99609151Y-80093880D01*
X100074698Y-79782811D01*
X100344986Y-79378297D01*
X100447611Y-79595134D01*
X100862577Y-79971041D01*
X101250961Y-80131904D01*
X101473000Y-80009915D01*
X101473000Y-78867000D01*
X101453000Y-78867000D01*
X101453000Y-78613000D01*
X101473000Y-78613000D01*
X101473000Y-77470085D01*
X101727000Y-77470085D01*
X101727000Y-78613000D01*
X101747000Y-78613000D01*
X101747000Y-78867000D01*
X101727000Y-78867000D01*
X101727000Y-80009915D01*
X101949039Y-80131904D01*
X102337423Y-79971041D01*
X102752389Y-79595134D01*
X102855014Y-79378297D01*
X103125302Y-79782811D01*
X103590849Y-80093880D01*
X104140000Y-80203113D01*
X104689151Y-80093880D01*
X105154698Y-79782811D01*
X105410000Y-79400725D01*
X105665302Y-79782811D01*
X106130849Y-80093880D01*
X106680000Y-80203113D01*
X107229151Y-80093880D01*
X107694698Y-79782811D01*
X107950000Y-79400725D01*
X108205302Y-79782811D01*
X108670849Y-80093880D01*
X109220000Y-80203113D01*
X109769151Y-80093880D01*
X110234698Y-79782811D01*
X110331101Y-79638535D01*
X110356838Y-79775317D01*
X110495910Y-79991441D01*
X110708110Y-80136431D01*
X110960000Y-80187440D01*
X112560000Y-80187440D01*
X112795317Y-80143162D01*
X113011441Y-80004090D01*
X113156431Y-79791890D01*
X113207440Y-79540000D01*
X113207440Y-78390959D01*
X123068086Y-78390959D01*
X123189371Y-78613000D01*
X124333000Y-78613000D01*
X124333000Y-77470085D01*
X124110961Y-77348096D01*
X123722577Y-77508959D01*
X123307611Y-77884866D01*
X123068086Y-78390959D01*
X113207440Y-78390959D01*
X113207440Y-77940000D01*
X113163162Y-77704683D01*
X113024090Y-77488559D01*
X112811890Y-77343569D01*
X112560000Y-77292560D01*
X110960000Y-77292560D01*
X110724683Y-77336838D01*
X110508559Y-77475910D01*
X110363569Y-77688110D01*
X110332185Y-77843089D01*
X110234698Y-77697189D01*
X109769151Y-77386120D01*
X109220000Y-77276887D01*
X108670849Y-77386120D01*
X108205302Y-77697189D01*
X107950000Y-78079275D01*
X107694698Y-77697189D01*
X107229151Y-77386120D01*
X106680000Y-77276887D01*
X106130849Y-77386120D01*
X105665302Y-77697189D01*
X105410000Y-78079275D01*
X105154698Y-77697189D01*
X104689151Y-77386120D01*
X104140000Y-77276887D01*
X103590849Y-77386120D01*
X103125302Y-77697189D01*
X102855014Y-78101703D01*
X102752389Y-77884866D01*
X102337423Y-77508959D01*
X101949039Y-77348096D01*
X101727000Y-77470085D01*
X101473000Y-77470085D01*
X101250961Y-77348096D01*
X100862577Y-77508959D01*
X100447611Y-77884866D01*
X100344986Y-78101703D01*
X100074698Y-77697189D01*
X99609151Y-77386120D01*
X99060000Y-77276887D01*
X98510849Y-77386120D01*
X98045302Y-77697189D01*
X97775014Y-78101703D01*
X97672389Y-77884866D01*
X97257423Y-77508959D01*
X96869039Y-77348096D01*
X96647000Y-77470085D01*
X96393000Y-77470085D01*
X96170961Y-77348096D01*
X95782577Y-77508959D01*
X95367611Y-77884866D01*
X95128086Y-78390959D01*
X90880000Y-78390959D01*
X90880000Y-76385167D01*
X105744838Y-76385167D01*
X105886883Y-76728943D01*
X106149673Y-76992192D01*
X106493201Y-77134838D01*
X106865167Y-77135162D01*
X107208943Y-76993117D01*
X107242118Y-76960000D01*
X150567537Y-76960000D01*
X150599673Y-76992192D01*
X150943201Y-77134838D01*
X151315167Y-77135162D01*
X151658943Y-76993117D01*
X151922192Y-76730327D01*
X152064838Y-76386799D01*
X152065162Y-76014833D01*
X151923117Y-75671057D01*
X151660327Y-75407808D01*
X151316799Y-75265162D01*
X150944833Y-75264838D01*
X150601057Y-75406883D01*
X150567882Y-75440000D01*
X107242463Y-75440000D01*
X107210327Y-75407808D01*
X106866799Y-75265162D01*
X106494833Y-75264838D01*
X106151057Y-75406883D01*
X105887808Y-75669673D01*
X105745162Y-76013201D01*
X105744838Y-76385167D01*
X90880000Y-76385167D01*
X90880000Y-67716400D01*
X105168960Y-67716400D01*
X105168960Y-69443600D01*
X105213238Y-69678917D01*
X105352310Y-69895041D01*
X105564510Y-70040031D01*
X105816400Y-70091040D01*
X106939460Y-70091040D01*
X111134208Y-74285787D01*
X111134210Y-74285790D01*
X111421325Y-74477633D01*
X111477516Y-74488810D01*
X111760000Y-74545001D01*
X111760005Y-74545000D01*
X155843420Y-74545000D01*
X169295000Y-87996579D01*
X169295000Y-90037153D01*
X169255345Y-90053538D01*
X168795154Y-90512927D01*
X168545794Y-91113453D01*
X168545226Y-91763694D01*
X168793538Y-92364655D01*
X169252927Y-92824846D01*
X169853453Y-93074206D01*
X170503694Y-93074774D01*
X171104655Y-92826462D01*
X171564846Y-92367073D01*
X171814206Y-91766547D01*
X171814208Y-91763694D01*
X178705226Y-91763694D01*
X178953538Y-92364655D01*
X179412927Y-92824846D01*
X180013453Y-93074206D01*
X180663694Y-93074774D01*
X181264655Y-92826462D01*
X181724846Y-92367073D01*
X181974206Y-91766547D01*
X181974774Y-91116306D01*
X181726462Y-90515345D01*
X181267073Y-90055154D01*
X180666547Y-89805794D01*
X180016306Y-89805226D01*
X179415345Y-90053538D01*
X178955154Y-90512927D01*
X178705794Y-91113453D01*
X178705226Y-91763694D01*
X171814208Y-91763694D01*
X171814774Y-91116306D01*
X171566462Y-90515345D01*
X171107073Y-90055154D01*
X171065000Y-90037684D01*
X171065000Y-87630000D01*
X170997633Y-87291325D01*
X170805790Y-87004210D01*
X170805787Y-87004208D01*
X156835790Y-73034210D01*
X156548675Y-72842367D01*
X156492484Y-72831190D01*
X156210000Y-72774999D01*
X156209995Y-72775000D01*
X112126579Y-72775000D01*
X111231579Y-71880000D01*
X150567537Y-71880000D01*
X150599673Y-71912192D01*
X150943201Y-72054838D01*
X151315167Y-72055162D01*
X151658943Y-71913117D01*
X151922192Y-71650327D01*
X152064838Y-71306799D01*
X152065162Y-70934833D01*
X151923117Y-70591057D01*
X151660327Y-70327808D01*
X151316799Y-70185162D01*
X150944833Y-70184838D01*
X150601057Y-70326883D01*
X150567882Y-70360000D01*
X111052463Y-70360000D01*
X111020327Y-70327808D01*
X110676799Y-70185162D01*
X110304833Y-70184838D01*
X109961057Y-70326883D01*
X109819636Y-70468057D01*
X109419797Y-70068217D01*
X109793489Y-69993885D01*
X110279670Y-69669029D01*
X110490000Y-69354248D01*
X110700330Y-69669029D01*
X111186511Y-69993885D01*
X111760000Y-70107959D01*
X112333489Y-69993885D01*
X112819670Y-69669029D01*
X113030000Y-69354248D01*
X113240330Y-69669029D01*
X113726511Y-69993885D01*
X114300000Y-70107959D01*
X114873489Y-69993885D01*
X115359670Y-69669029D01*
X115570000Y-69354248D01*
X115780330Y-69669029D01*
X116266511Y-69993885D01*
X116840000Y-70107959D01*
X117413489Y-69993885D01*
X117899670Y-69669029D01*
X118110000Y-69354248D01*
X118320330Y-69669029D01*
X118806511Y-69993885D01*
X119380000Y-70107959D01*
X119953489Y-69993885D01*
X120439670Y-69669029D01*
X120650000Y-69354248D01*
X120860330Y-69669029D01*
X121346511Y-69993885D01*
X121920000Y-70107959D01*
X122493489Y-69993885D01*
X122979670Y-69669029D01*
X123190000Y-69354248D01*
X123400330Y-69669029D01*
X123886511Y-69993885D01*
X124460000Y-70107959D01*
X125033489Y-69993885D01*
X125519670Y-69669029D01*
X125730000Y-69354248D01*
X125940330Y-69669029D01*
X126426511Y-69993885D01*
X127000000Y-70107959D01*
X127573489Y-69993885D01*
X128059670Y-69669029D01*
X128270000Y-69354248D01*
X128480330Y-69669029D01*
X128966511Y-69993885D01*
X129540000Y-70107959D01*
X130113489Y-69993885D01*
X130599670Y-69669029D01*
X130810000Y-69354248D01*
X131020330Y-69669029D01*
X131506511Y-69993885D01*
X132080000Y-70107959D01*
X132653489Y-69993885D01*
X133139670Y-69669029D01*
X133350000Y-69354248D01*
X133560330Y-69669029D01*
X134046511Y-69993885D01*
X134620000Y-70107959D01*
X135193489Y-69993885D01*
X135679670Y-69669029D01*
X135890000Y-69354248D01*
X136100330Y-69669029D01*
X136586511Y-69993885D01*
X137160000Y-70107959D01*
X137733489Y-69993885D01*
X138219670Y-69669029D01*
X138430000Y-69354248D01*
X138640330Y-69669029D01*
X139126511Y-69993885D01*
X139700000Y-70107959D01*
X140273489Y-69993885D01*
X140759670Y-69669029D01*
X140970000Y-69354248D01*
X141180330Y-69669029D01*
X141666511Y-69993885D01*
X142240000Y-70107959D01*
X142813489Y-69993885D01*
X143299670Y-69669029D01*
X143510000Y-69354248D01*
X143720330Y-69669029D01*
X144206511Y-69993885D01*
X144780000Y-70107959D01*
X145353489Y-69993885D01*
X145839670Y-69669029D01*
X146050000Y-69354248D01*
X146260330Y-69669029D01*
X146746511Y-69993885D01*
X147320000Y-70107959D01*
X147893489Y-69993885D01*
X148379670Y-69669029D01*
X148590000Y-69354248D01*
X148800330Y-69669029D01*
X149286511Y-69993885D01*
X149860000Y-70107959D01*
X150433489Y-69993885D01*
X150919670Y-69669029D01*
X151130000Y-69354248D01*
X151340330Y-69669029D01*
X151826511Y-69993885D01*
X152400000Y-70107959D01*
X152973489Y-69993885D01*
X153459670Y-69669029D01*
X153670000Y-69354248D01*
X153880330Y-69669029D01*
X154366511Y-69993885D01*
X154940000Y-70107959D01*
X155513489Y-69993885D01*
X155999670Y-69669029D01*
X156210000Y-69354248D01*
X156420330Y-69669029D01*
X156906511Y-69993885D01*
X157480000Y-70107959D01*
X158053489Y-69993885D01*
X158539670Y-69669029D01*
X158750000Y-69354248D01*
X158960330Y-69669029D01*
X159446511Y-69993885D01*
X160020000Y-70107959D01*
X160593489Y-69993885D01*
X161079670Y-69669029D01*
X161290000Y-69354248D01*
X161500330Y-69669029D01*
X161986511Y-69993885D01*
X162560000Y-70107959D01*
X163133489Y-69993885D01*
X163619670Y-69669029D01*
X163830000Y-69354248D01*
X164040330Y-69669029D01*
X164526511Y-69993885D01*
X165100000Y-70107959D01*
X165673489Y-69993885D01*
X166159670Y-69669029D01*
X166370000Y-69354248D01*
X166580330Y-69669029D01*
X167066511Y-69993885D01*
X167640000Y-70107959D01*
X168213489Y-69993885D01*
X168699670Y-69669029D01*
X169024526Y-69182848D01*
X169138600Y-68609359D01*
X169138600Y-68550641D01*
X169024526Y-67977152D01*
X168699670Y-67490971D01*
X168428839Y-67310008D01*
X168846821Y-66928490D01*
X169094968Y-66399027D01*
X168974469Y-66167000D01*
X167767000Y-66167000D01*
X167767000Y-66187000D01*
X167513000Y-66187000D01*
X167513000Y-66167000D01*
X165227000Y-66167000D01*
X165227000Y-66187000D01*
X164973000Y-66187000D01*
X164973000Y-66167000D01*
X164953000Y-66167000D01*
X164953000Y-65913000D01*
X164973000Y-65913000D01*
X164973000Y-64706183D01*
X165227000Y-64706183D01*
X165227000Y-65913000D01*
X167513000Y-65913000D01*
X167513000Y-64706183D01*
X167767000Y-64706183D01*
X167767000Y-65913000D01*
X168974469Y-65913000D01*
X169094968Y-65680973D01*
X168846821Y-65151510D01*
X168414947Y-64757312D01*
X167999026Y-64585042D01*
X167767000Y-64706183D01*
X167513000Y-64706183D01*
X167280974Y-64585042D01*
X166865053Y-64757312D01*
X166433179Y-65151510D01*
X166370000Y-65286313D01*
X166306821Y-65151510D01*
X165874947Y-64757312D01*
X165459026Y-64585042D01*
X165227000Y-64706183D01*
X164973000Y-64706183D01*
X164740974Y-64585042D01*
X164325053Y-64757312D01*
X163893179Y-65151510D01*
X163835664Y-65274228D01*
X163619670Y-64950971D01*
X163133489Y-64626115D01*
X162560000Y-64512041D01*
X161986511Y-64626115D01*
X161500330Y-64950971D01*
X161290000Y-65265752D01*
X161079670Y-64950971D01*
X160593489Y-64626115D01*
X160020000Y-64512041D01*
X159446511Y-64626115D01*
X158960330Y-64950971D01*
X158750000Y-65265752D01*
X158539670Y-64950971D01*
X158053489Y-64626115D01*
X157480000Y-64512041D01*
X156906511Y-64626115D01*
X156420330Y-64950971D01*
X156210000Y-65265752D01*
X155999670Y-64950971D01*
X155513489Y-64626115D01*
X154940000Y-64512041D01*
X154366511Y-64626115D01*
X153880330Y-64950971D01*
X153670000Y-65265752D01*
X153459670Y-64950971D01*
X152973489Y-64626115D01*
X152400000Y-64512041D01*
X151826511Y-64626115D01*
X151340330Y-64950971D01*
X151130000Y-65265752D01*
X150919670Y-64950971D01*
X150433489Y-64626115D01*
X149860000Y-64512041D01*
X149286511Y-64626115D01*
X148800330Y-64950971D01*
X148590000Y-65265752D01*
X148379670Y-64950971D01*
X147893489Y-64626115D01*
X147320000Y-64512041D01*
X146746511Y-64626115D01*
X146260330Y-64950971D01*
X146050000Y-65265752D01*
X145839670Y-64950971D01*
X145353489Y-64626115D01*
X144780000Y-64512041D01*
X144206511Y-64626115D01*
X143720330Y-64950971D01*
X143510000Y-65265752D01*
X143299670Y-64950971D01*
X142813489Y-64626115D01*
X142240000Y-64512041D01*
X141666511Y-64626115D01*
X141180330Y-64950971D01*
X140970000Y-65265752D01*
X140759670Y-64950971D01*
X140273489Y-64626115D01*
X139700000Y-64512041D01*
X139126511Y-64626115D01*
X138640330Y-64950971D01*
X138430000Y-65265752D01*
X138219670Y-64950971D01*
X137733489Y-64626115D01*
X137160000Y-64512041D01*
X136586511Y-64626115D01*
X136100330Y-64950971D01*
X135890000Y-65265752D01*
X135679670Y-64950971D01*
X135193489Y-64626115D01*
X134620000Y-64512041D01*
X134046511Y-64626115D01*
X133560330Y-64950971D01*
X133350000Y-65265752D01*
X133139670Y-64950971D01*
X132653489Y-64626115D01*
X132080000Y-64512041D01*
X131506511Y-64626115D01*
X131020330Y-64950971D01*
X130810000Y-65265752D01*
X130599670Y-64950971D01*
X130113489Y-64626115D01*
X129540000Y-64512041D01*
X128966511Y-64626115D01*
X128480330Y-64950971D01*
X128270000Y-65265752D01*
X128059670Y-64950971D01*
X127573489Y-64626115D01*
X127000000Y-64512041D01*
X126426511Y-64626115D01*
X125940330Y-64950971D01*
X125730000Y-65265752D01*
X125519670Y-64950971D01*
X125033489Y-64626115D01*
X124460000Y-64512041D01*
X123886511Y-64626115D01*
X123400330Y-64950971D01*
X123190000Y-65265752D01*
X122979670Y-64950971D01*
X122493489Y-64626115D01*
X121920000Y-64512041D01*
X121346511Y-64626115D01*
X120860330Y-64950971D01*
X120650000Y-65265752D01*
X120439670Y-64950971D01*
X119953489Y-64626115D01*
X119380000Y-64512041D01*
X118806511Y-64626115D01*
X118320330Y-64950971D01*
X118110000Y-65265752D01*
X117899670Y-64950971D01*
X117413489Y-64626115D01*
X116840000Y-64512041D01*
X116266511Y-64626115D01*
X115780330Y-64950971D01*
X115570000Y-65265752D01*
X115359670Y-64950971D01*
X114873489Y-64626115D01*
X114300000Y-64512041D01*
X113726511Y-64626115D01*
X113240330Y-64950971D01*
X113030000Y-65265752D01*
X112819670Y-64950971D01*
X112333489Y-64626115D01*
X111760000Y-64512041D01*
X111186511Y-64626115D01*
X110700330Y-64950971D01*
X110490000Y-65265752D01*
X110279670Y-64950971D01*
X109793489Y-64626115D01*
X109220000Y-64512041D01*
X108646511Y-64626115D01*
X108160330Y-64950971D01*
X107950000Y-65265752D01*
X107739670Y-64950971D01*
X107253489Y-64626115D01*
X106680000Y-64512041D01*
X106106511Y-64626115D01*
X105620330Y-64950971D01*
X105295474Y-65437152D01*
X105181400Y-66010641D01*
X105181400Y-66069359D01*
X105295474Y-66642848D01*
X105606574Y-67108442D01*
X105581083Y-67113238D01*
X105364959Y-67252310D01*
X105219969Y-67464510D01*
X105168960Y-67716400D01*
X90880000Y-67716400D01*
X90880000Y-63942619D01*
X91744613Y-63942619D01*
X92084155Y-64764372D01*
X92712321Y-65393636D01*
X93533481Y-65734611D01*
X94422619Y-65735387D01*
X95244372Y-65395845D01*
X95873636Y-64767679D01*
X96214611Y-63946519D01*
X96214614Y-63942619D01*
X180644613Y-63942619D01*
X180984155Y-64764372D01*
X181612321Y-65393636D01*
X182433481Y-65734611D01*
X183322619Y-65735387D01*
X184144372Y-65395845D01*
X184773636Y-64767679D01*
X185114611Y-63946519D01*
X185115387Y-63057381D01*
X184775845Y-62235628D01*
X184147679Y-61606364D01*
X183326519Y-61265389D01*
X182437381Y-61264613D01*
X181615628Y-61604155D01*
X180986364Y-62232321D01*
X180645389Y-63053481D01*
X180644613Y-63942619D01*
X96214614Y-63942619D01*
X96215387Y-63057381D01*
X95875845Y-62235628D01*
X95247679Y-61606364D01*
X94426519Y-61265389D01*
X93537381Y-61264613D01*
X92715628Y-61604155D01*
X92086364Y-62232321D01*
X91745389Y-63053481D01*
X91744613Y-63942619D01*
X90880000Y-63942619D01*
X90880000Y-62299931D01*
X91032152Y-61535011D01*
X91425830Y-60945830D01*
X92015011Y-60552152D01*
X92779931Y-60400000D01*
X184080069Y-60400000D01*
X184844989Y-60552152D01*
M02*
