G04 #@! TF.FileFunction,Copper,L1,Top,Signal*
%FSLAX46Y46*%
G04 Gerber Fmt 4.6, Leading zero omitted, Abs format (unit mm)*
G04 Created by KiCad (PCBNEW 4.0.7) date *
%MOMM*%
%LPD*%
G01*
G04 APERTURE LIST*
%ADD10C,0.100000*%
%ADD11C,3.000000*%
%ADD12R,3.000000X3.000000*%
%ADD13C,1.600000*%
%ADD14R,1.800000X1.800000*%
%ADD15O,1.800000X1.800000*%
%ADD16C,1.800000*%
%ADD17R,1.600000X1.600000*%
%ADD18O,1.600000X1.600000*%
%ADD19C,1.998980*%
%ADD20C,1.524000*%
%ADD21R,1.727200X1.727200*%
%ADD22O,1.727200X1.727200*%
%ADD23C,0.600000*%
%ADD24C,0.500000*%
%ADD25C,0.250000*%
%ADD26C,0.254000*%
G04 APERTURE END LIST*
D10*
D11*
X154940000Y-122090000D03*
D12*
X154940000Y-101600000D03*
D13*
X114300000Y-121920000D03*
X114300000Y-119420000D03*
X114300000Y-104140000D03*
X114300000Y-101640000D03*
X114300000Y-86360000D03*
X114300000Y-83860000D03*
D14*
X129540000Y-96520000D03*
D15*
X139700000Y-96520000D03*
D14*
X129540000Y-116840000D03*
D15*
X139700000Y-116840000D03*
D14*
X175260000Y-114300000D03*
D16*
X175260000Y-111760000D03*
D17*
X111760000Y-114300000D03*
D18*
X96520000Y-121920000D03*
X109220000Y-114300000D03*
X99060000Y-121920000D03*
X106680000Y-114300000D03*
X101600000Y-121920000D03*
X104140000Y-114300000D03*
X104140000Y-121920000D03*
X101600000Y-114300000D03*
X106680000Y-121920000D03*
X99060000Y-114300000D03*
X109220000Y-121920000D03*
X96520000Y-114300000D03*
X111760000Y-121920000D03*
D17*
X111760000Y-96520000D03*
D18*
X96520000Y-104140000D03*
X109220000Y-96520000D03*
X99060000Y-104140000D03*
X106680000Y-96520000D03*
X101600000Y-104140000D03*
X104140000Y-96520000D03*
X104140000Y-104140000D03*
X101600000Y-96520000D03*
X106680000Y-104140000D03*
X99060000Y-96520000D03*
X109220000Y-104140000D03*
X96520000Y-96520000D03*
X111760000Y-104140000D03*
D17*
X111760000Y-78740000D03*
D18*
X96520000Y-86360000D03*
X109220000Y-78740000D03*
X99060000Y-86360000D03*
X106680000Y-78740000D03*
X101600000Y-86360000D03*
X104140000Y-78740000D03*
X104140000Y-86360000D03*
X101600000Y-78740000D03*
X106680000Y-86360000D03*
X99060000Y-78740000D03*
X109220000Y-86360000D03*
X96520000Y-78740000D03*
X111760000Y-86360000D03*
D17*
X157480000Y-78740000D03*
D18*
X124460000Y-86360000D03*
X154940000Y-78740000D03*
X127000000Y-86360000D03*
X152400000Y-78740000D03*
X129540000Y-86360000D03*
X149860000Y-78740000D03*
X132080000Y-86360000D03*
X147320000Y-78740000D03*
X134620000Y-86360000D03*
X144780000Y-78740000D03*
X137160000Y-86360000D03*
X142240000Y-78740000D03*
X139700000Y-86360000D03*
X139700000Y-78740000D03*
X142240000Y-86360000D03*
X137160000Y-78740000D03*
X144780000Y-86360000D03*
X134620000Y-78740000D03*
X147320000Y-86360000D03*
X132080000Y-78740000D03*
X149860000Y-86360000D03*
X129540000Y-78740000D03*
X152400000Y-86360000D03*
X127000000Y-78740000D03*
X154940000Y-86360000D03*
X124460000Y-78740000D03*
X157480000Y-86360000D03*
D19*
X129540000Y-101600000D03*
X139700000Y-101600000D03*
X129540000Y-106680000D03*
X139700000Y-106680000D03*
X129540000Y-111760000D03*
X139700000Y-111760000D03*
X129540000Y-121920000D03*
X139700000Y-121920000D03*
X170180000Y-91440000D03*
X180340000Y-91440000D03*
X170180000Y-96520000D03*
X180340000Y-96520000D03*
X170180000Y-101600000D03*
X180340000Y-101600000D03*
X170180000Y-106680000D03*
X180340000Y-106680000D03*
D20*
X172760000Y-119400000D03*
X175260000Y-119400000D03*
X177760000Y-119400000D03*
X172760000Y-121900000D03*
X175260000Y-121900000D03*
X177760000Y-121900000D03*
X124460000Y-119380000D03*
X124460000Y-116840000D03*
X124460000Y-121920000D03*
X124460000Y-109220000D03*
X124460000Y-106680000D03*
X124460000Y-111760000D03*
D13*
X160020000Y-86360000D03*
X160020000Y-83860000D03*
D21*
X106680000Y-68580000D03*
D22*
X106680000Y-66040000D03*
X109220000Y-68580000D03*
X109220000Y-66040000D03*
X111760000Y-68580000D03*
X111760000Y-66040000D03*
X114300000Y-68580000D03*
X114300000Y-66040000D03*
X116840000Y-68580000D03*
X116840000Y-66040000D03*
X119380000Y-68580000D03*
X119380000Y-66040000D03*
X121920000Y-68580000D03*
X121920000Y-66040000D03*
X124460000Y-68580000D03*
X124460000Y-66040000D03*
X127000000Y-68580000D03*
X127000000Y-66040000D03*
X129540000Y-68580000D03*
X129540000Y-66040000D03*
X132080000Y-68580000D03*
X132080000Y-66040000D03*
X134620000Y-68580000D03*
X134620000Y-66040000D03*
X137160000Y-68580000D03*
X137160000Y-66040000D03*
X139700000Y-68580000D03*
X139700000Y-66040000D03*
X142240000Y-68580000D03*
X142240000Y-66040000D03*
X144780000Y-68580000D03*
X144780000Y-66040000D03*
X147320000Y-68580000D03*
X147320000Y-66040000D03*
X149860000Y-68580000D03*
X149860000Y-66040000D03*
X152400000Y-68580000D03*
X152400000Y-66040000D03*
X154940000Y-68580000D03*
X154940000Y-66040000D03*
X157480000Y-68580000D03*
X157480000Y-66040000D03*
X160020000Y-68580000D03*
X160020000Y-66040000D03*
X162560000Y-68580000D03*
X162560000Y-66040000D03*
X165100000Y-68580000D03*
X165100000Y-66040000D03*
X167640000Y-68580000D03*
X167640000Y-66040000D03*
D19*
X129540000Y-127000000D03*
X139700000Y-127000000D03*
D23*
X110490000Y-71120000D03*
X151130000Y-71120000D03*
X107950000Y-92710000D03*
X154940000Y-92710000D03*
X104140000Y-106680000D03*
X105410000Y-81280000D03*
X111760000Y-81280000D03*
X142240000Y-90170000D03*
X100330000Y-90170000D03*
X109220000Y-93980000D03*
X146050000Y-93980000D03*
X148590000Y-91440000D03*
X104140000Y-91440000D03*
X106680000Y-76200000D03*
X151130000Y-76200000D03*
X138430000Y-82550000D03*
X147320000Y-82550000D03*
X132080000Y-82550000D03*
X115570000Y-82550000D03*
X149860000Y-83820000D03*
X135890000Y-83820000D03*
X129540000Y-81280000D03*
X118110000Y-81280000D03*
X127000000Y-80010000D03*
X120650000Y-80010000D03*
X137160000Y-88900000D03*
X99060000Y-88900000D03*
D24*
X129540000Y-101600000D02*
X132080000Y-104140000D01*
X160020000Y-90170000D02*
X160020000Y-86360000D01*
X147320000Y-104140000D02*
X160020000Y-90170000D01*
X132080000Y-104140000D02*
X147320000Y-104140000D01*
X160020000Y-86360000D02*
X157480000Y-86360000D01*
X111760000Y-121920000D02*
X110490000Y-120650000D01*
X110490000Y-105410000D02*
X111760000Y-104140000D01*
X110490000Y-115570000D02*
X110490000Y-105410000D01*
X110490000Y-120650000D02*
X110490000Y-115570000D01*
X111760000Y-104140000D02*
X111760000Y-99060000D01*
X114300000Y-96520000D02*
X114300000Y-86360000D01*
X111760000Y-99060000D02*
X114300000Y-96520000D01*
X129540000Y-101600000D02*
X129540000Y-96520000D01*
D25*
X175260000Y-114300000D02*
X173990000Y-115570000D01*
X173990000Y-120650000D02*
X172760000Y-121880000D01*
X173990000Y-115570000D02*
X173990000Y-120650000D01*
X172760000Y-121880000D02*
X172760000Y-121900000D01*
X175260000Y-111760000D02*
X180340000Y-106680000D01*
X152400000Y-68580000D02*
X151130000Y-69850000D01*
X116840000Y-109220000D02*
X111760000Y-114300000D01*
X116840000Y-77470000D02*
X116840000Y-109220000D01*
X110490000Y-71120000D02*
X116840000Y-77470000D01*
X151130000Y-69850000D02*
X151130000Y-71120000D01*
X152400000Y-68580000D02*
X152400000Y-71120000D01*
X177800000Y-91440000D02*
X180340000Y-91440000D01*
X161290000Y-74930000D02*
X177800000Y-91440000D01*
X156210000Y-74930000D02*
X161290000Y-74930000D01*
X152400000Y-71120000D02*
X156210000Y-74930000D01*
X96520000Y-121920000D02*
X96520000Y-119380000D01*
X96520000Y-119380000D02*
X101600000Y-114300000D01*
X182880000Y-99060000D02*
X182880000Y-125730000D01*
X99060000Y-125730000D02*
X99060000Y-121920000D01*
X102870000Y-129540000D02*
X99060000Y-125730000D01*
X179070000Y-129540000D02*
X102870000Y-129540000D01*
X180340000Y-128270000D02*
X179070000Y-129540000D01*
X182880000Y-125730000D02*
X180340000Y-128270000D01*
X154940000Y-68580000D02*
X154940000Y-71120000D01*
X181610000Y-100330000D02*
X180340000Y-101600000D01*
X182880000Y-99060000D02*
X181610000Y-100330000D01*
X182880000Y-95250000D02*
X182880000Y-99060000D01*
X182880000Y-91440000D02*
X182880000Y-95250000D01*
X180340000Y-88900000D02*
X182880000Y-91440000D01*
X177800000Y-88900000D02*
X180340000Y-88900000D01*
X162560000Y-73660000D02*
X177800000Y-88900000D01*
X157480000Y-73660000D02*
X162560000Y-73660000D01*
X154940000Y-71120000D02*
X157480000Y-73660000D01*
X107950000Y-113030000D02*
X107950000Y-92710000D01*
X106680000Y-114300000D02*
X107950000Y-113030000D01*
X154940000Y-92710000D02*
X154940000Y-86360000D01*
X124460000Y-109220000D02*
X129540000Y-114300000D01*
X129540000Y-114300000D02*
X130810000Y-114300000D01*
X130810000Y-114300000D02*
X132080000Y-114300000D01*
X132080000Y-114300000D02*
X139700000Y-121920000D01*
X104140000Y-114300000D02*
X104140000Y-106680000D01*
X149860000Y-68580000D02*
X149860000Y-71120000D01*
X180340000Y-96520000D02*
X180340000Y-96520000D01*
X160020000Y-76200000D02*
X180340000Y-96520000D01*
X154940000Y-76200000D02*
X160020000Y-76200000D01*
X149860000Y-71120000D02*
X154940000Y-76200000D01*
X111760000Y-78740000D02*
X111760000Y-81280000D01*
X105410000Y-120650000D02*
X104140000Y-121920000D01*
X105410000Y-81280000D02*
X105410000Y-120650000D01*
X99060000Y-114300000D02*
X100330000Y-113030000D01*
X142240000Y-90170000D02*
X142240000Y-86360000D01*
X100330000Y-113030000D02*
X100330000Y-90170000D01*
X119380000Y-66040000D02*
X119380000Y-64770000D01*
X119380000Y-77470000D02*
X119380000Y-121920000D01*
X119380000Y-121920000D02*
X116840000Y-124460000D01*
X113030000Y-71120000D02*
X119380000Y-77470000D01*
X113030000Y-64770000D02*
X113030000Y-71120000D01*
X114300000Y-63500000D02*
X113030000Y-64770000D01*
X118110000Y-63500000D02*
X114300000Y-63500000D01*
X119380000Y-64770000D02*
X118110000Y-63500000D01*
X172760000Y-119400000D02*
X172700000Y-119400000D01*
X172700000Y-119400000D02*
X167640000Y-124460000D01*
X167640000Y-124460000D02*
X116840000Y-124460000D01*
X116840000Y-124460000D02*
X111760000Y-124460000D01*
X111760000Y-124460000D02*
X109220000Y-121920000D01*
X109220000Y-78740000D02*
X109220000Y-81280000D01*
X111760000Y-92710000D02*
X111760000Y-96520000D01*
X110490000Y-91440000D02*
X111760000Y-92710000D01*
X110490000Y-82550000D02*
X110490000Y-91440000D01*
X109220000Y-81280000D02*
X110490000Y-82550000D01*
X109220000Y-96520000D02*
X109220000Y-93980000D01*
X146050000Y-93980000D02*
X146050000Y-76200000D01*
X146050000Y-76200000D02*
X140970000Y-71120000D01*
X140970000Y-71120000D02*
X140970000Y-67310000D01*
X140970000Y-67310000D02*
X142240000Y-66040000D01*
X104140000Y-96520000D02*
X104140000Y-91440000D01*
X143510000Y-67310000D02*
X144780000Y-66040000D01*
X143510000Y-71120000D02*
X143510000Y-67310000D01*
X148590000Y-76200000D02*
X143510000Y-71120000D01*
X148590000Y-91440000D02*
X148590000Y-76200000D01*
X101600000Y-96520000D02*
X102870000Y-95250000D01*
X102870000Y-80010000D02*
X104140000Y-78740000D01*
X102870000Y-95250000D02*
X102870000Y-80010000D01*
X147320000Y-66040000D02*
X146050000Y-67310000D01*
X106680000Y-76200000D02*
X106680000Y-78740000D01*
X146050000Y-71120000D02*
X151130000Y-76200000D01*
X146050000Y-67310000D02*
X146050000Y-71120000D01*
X116840000Y-68580000D02*
X116840000Y-71120000D01*
X123190000Y-85090000D02*
X124460000Y-86360000D01*
X123190000Y-77470000D02*
X123190000Y-85090000D01*
X116840000Y-71120000D02*
X123190000Y-77470000D01*
X139700000Y-66040000D02*
X139700000Y-64770000D01*
X154940000Y-77470000D02*
X154940000Y-78740000D01*
X148590000Y-71120000D02*
X154940000Y-77470000D01*
X148590000Y-64770000D02*
X148590000Y-71120000D01*
X147320000Y-63500000D02*
X148590000Y-64770000D01*
X140970000Y-63500000D02*
X147320000Y-63500000D01*
X139700000Y-64770000D02*
X140970000Y-63500000D01*
X119380000Y-68580000D02*
X119380000Y-71120000D01*
X125730000Y-85090000D02*
X127000000Y-86360000D01*
X125730000Y-77470000D02*
X125730000Y-85090000D01*
X119380000Y-71120000D02*
X125730000Y-77470000D01*
X147320000Y-68580000D02*
X147320000Y-71120000D01*
X152400000Y-76200000D02*
X152400000Y-78740000D01*
X147320000Y-71120000D02*
X152400000Y-76200000D01*
X121920000Y-68580000D02*
X121920000Y-71120000D01*
X128270000Y-85090000D02*
X129540000Y-86360000D01*
X128270000Y-77470000D02*
X128270000Y-85090000D01*
X121920000Y-71120000D02*
X128270000Y-77470000D01*
X144780000Y-68580000D02*
X144780000Y-71120000D01*
X149860000Y-76200000D02*
X149860000Y-78740000D01*
X144780000Y-71120000D02*
X149860000Y-76200000D01*
X124460000Y-68580000D02*
X124460000Y-71120000D01*
X130810000Y-85090000D02*
X132080000Y-86360000D01*
X130810000Y-77470000D02*
X130810000Y-85090000D01*
X124460000Y-71120000D02*
X130810000Y-77470000D01*
X142240000Y-68580000D02*
X142240000Y-71120000D01*
X147320000Y-76200000D02*
X147320000Y-78740000D01*
X142240000Y-71120000D02*
X147320000Y-76200000D01*
X127000000Y-68580000D02*
X127000000Y-71120000D01*
X133350000Y-85090000D02*
X134620000Y-86360000D01*
X133350000Y-77470000D02*
X133350000Y-85090000D01*
X127000000Y-71120000D02*
X133350000Y-77470000D01*
X139700000Y-68580000D02*
X139700000Y-71120000D01*
X144780000Y-76200000D02*
X144780000Y-78740000D01*
X139700000Y-71120000D02*
X144780000Y-76200000D01*
X137160000Y-68580000D02*
X137160000Y-71120000D01*
X142240000Y-76200000D02*
X142240000Y-78740000D01*
X137160000Y-71120000D02*
X142240000Y-76200000D01*
X139700000Y-86360000D02*
X139700000Y-81280000D01*
X135890000Y-67310000D02*
X134620000Y-66040000D01*
X135890000Y-71120000D02*
X135890000Y-67310000D01*
X140970000Y-76200000D02*
X135890000Y-71120000D01*
X140970000Y-80010000D02*
X140970000Y-76200000D01*
X139700000Y-81280000D02*
X140970000Y-80010000D01*
X134620000Y-68580000D02*
X134620000Y-71120000D01*
X139700000Y-76200000D02*
X139700000Y-78740000D01*
X134620000Y-71120000D02*
X139700000Y-76200000D01*
X132080000Y-68580000D02*
X132080000Y-71120000D01*
X137160000Y-76200000D02*
X137160000Y-78740000D01*
X132080000Y-71120000D02*
X137160000Y-76200000D01*
X137160000Y-66040000D02*
X138430000Y-67310000D01*
X143510000Y-85090000D02*
X144780000Y-86360000D01*
X143510000Y-76200000D02*
X143510000Y-85090000D01*
X138430000Y-71120000D02*
X143510000Y-76200000D01*
X138430000Y-67310000D02*
X138430000Y-71120000D01*
X129540000Y-68580000D02*
X129540000Y-71120000D01*
X134620000Y-76200000D02*
X134620000Y-78740000D01*
X129540000Y-71120000D02*
X134620000Y-76200000D01*
X147320000Y-86360000D02*
X147320000Y-82550000D01*
X133350000Y-67310000D02*
X132080000Y-66040000D01*
X133350000Y-71120000D02*
X133350000Y-67310000D01*
X138430000Y-76200000D02*
X133350000Y-71120000D01*
X138430000Y-82550000D02*
X138430000Y-76200000D01*
X109220000Y-68580000D02*
X109220000Y-71120000D01*
X132080000Y-82550000D02*
X132080000Y-78740000D01*
X115570000Y-77470000D02*
X115570000Y-82550000D01*
X109220000Y-71120000D02*
X115570000Y-77470000D01*
X129540000Y-66040000D02*
X130810000Y-67310000D01*
X149860000Y-83820000D02*
X149860000Y-86360000D01*
X135890000Y-76200000D02*
X135890000Y-83820000D01*
X130810000Y-71120000D02*
X135890000Y-76200000D01*
X130810000Y-67310000D02*
X130810000Y-71120000D01*
X111760000Y-68580000D02*
X111760000Y-71120000D01*
X129540000Y-81280000D02*
X129540000Y-78740000D01*
X118110000Y-77470000D02*
X118110000Y-81280000D01*
X111760000Y-71120000D02*
X118110000Y-77470000D01*
X114300000Y-68580000D02*
X114300000Y-71120000D01*
X127000000Y-80010000D02*
X127000000Y-78740000D01*
X120650000Y-77470000D02*
X120650000Y-80010000D01*
X114300000Y-71120000D02*
X120650000Y-77470000D01*
X99060000Y-96520000D02*
X99060000Y-88900000D01*
X137160000Y-88900000D02*
X137160000Y-86360000D01*
X152400000Y-91440000D02*
X143510000Y-101600000D01*
X143510000Y-101600000D02*
X139700000Y-101600000D01*
X152400000Y-86360000D02*
X152400000Y-91440000D01*
X139700000Y-116840000D02*
X139700000Y-111760000D01*
X129540000Y-106680000D02*
X129540000Y-111760000D01*
D26*
G36*
X184844989Y-60552152D02*
X185434170Y-60945830D01*
X185827848Y-61535011D01*
X185980000Y-62299931D01*
X185980000Y-130740069D01*
X185827848Y-131504989D01*
X185434170Y-132094170D01*
X184844989Y-132487848D01*
X184080069Y-132640000D01*
X92779931Y-132640000D01*
X92015011Y-132487848D01*
X91425830Y-132094170D01*
X91032152Y-131504989D01*
X90880000Y-130740069D01*
X90880000Y-129982619D01*
X91744613Y-129982619D01*
X92084155Y-130804372D01*
X92712321Y-131433636D01*
X93533481Y-131774611D01*
X94422619Y-131775387D01*
X95244372Y-131435845D01*
X95873636Y-130807679D01*
X96214611Y-129986519D01*
X96215387Y-129097381D01*
X95875845Y-128275628D01*
X95247679Y-127646364D01*
X94426519Y-127305389D01*
X93537381Y-127304613D01*
X92715628Y-127644155D01*
X92086364Y-128272321D01*
X91745389Y-129093481D01*
X91744613Y-129982619D01*
X90880000Y-129982619D01*
X90880000Y-78711887D01*
X95085000Y-78711887D01*
X95085000Y-78768113D01*
X95194233Y-79317264D01*
X95505302Y-79782811D01*
X95970849Y-80093880D01*
X96520000Y-80203113D01*
X97069151Y-80093880D01*
X97534698Y-79782811D01*
X97790000Y-79400725D01*
X98045302Y-79782811D01*
X98510849Y-80093880D01*
X99060000Y-80203113D01*
X99609151Y-80093880D01*
X100074698Y-79782811D01*
X100330000Y-79400725D01*
X100585302Y-79782811D01*
X101050849Y-80093880D01*
X101600000Y-80203113D01*
X102110000Y-80101668D01*
X102110000Y-84998332D01*
X101600000Y-84896887D01*
X101050849Y-85006120D01*
X100585302Y-85317189D01*
X100330000Y-85699275D01*
X100074698Y-85317189D01*
X99609151Y-85006120D01*
X99060000Y-84896887D01*
X98510849Y-85006120D01*
X98045302Y-85317189D01*
X97790000Y-85699275D01*
X97534698Y-85317189D01*
X97069151Y-85006120D01*
X96520000Y-84896887D01*
X95970849Y-85006120D01*
X95505302Y-85317189D01*
X95194233Y-85782736D01*
X95085000Y-86331887D01*
X95085000Y-86388113D01*
X95194233Y-86937264D01*
X95505302Y-87402811D01*
X95970849Y-87713880D01*
X96520000Y-87823113D01*
X97069151Y-87713880D01*
X97534698Y-87402811D01*
X97790000Y-87020725D01*
X98045302Y-87402811D01*
X98510849Y-87713880D01*
X99060000Y-87823113D01*
X99609151Y-87713880D01*
X100074698Y-87402811D01*
X100330000Y-87020725D01*
X100585302Y-87402811D01*
X101050849Y-87713880D01*
X101600000Y-87823113D01*
X102110000Y-87721668D01*
X102110000Y-94935198D01*
X101923886Y-95121312D01*
X101600000Y-95056887D01*
X101090000Y-95158332D01*
X101090000Y-90732463D01*
X101122192Y-90700327D01*
X101264838Y-90356799D01*
X101265162Y-89984833D01*
X101123117Y-89641057D01*
X100860327Y-89377808D01*
X100516799Y-89235162D01*
X100144833Y-89234838D01*
X99889570Y-89340310D01*
X99994838Y-89086799D01*
X99995162Y-88714833D01*
X99853117Y-88371057D01*
X99590327Y-88107808D01*
X99246799Y-87965162D01*
X98874833Y-87964838D01*
X98531057Y-88106883D01*
X98267808Y-88369673D01*
X98125162Y-88713201D01*
X98124838Y-89085167D01*
X98266883Y-89428943D01*
X98300000Y-89462118D01*
X98300000Y-95307005D01*
X98045302Y-95477189D01*
X97790000Y-95859275D01*
X97534698Y-95477189D01*
X97069151Y-95166120D01*
X96520000Y-95056887D01*
X95970849Y-95166120D01*
X95505302Y-95477189D01*
X95194233Y-95942736D01*
X95085000Y-96491887D01*
X95085000Y-96548113D01*
X95194233Y-97097264D01*
X95505302Y-97562811D01*
X95970849Y-97873880D01*
X96520000Y-97983113D01*
X97069151Y-97873880D01*
X97534698Y-97562811D01*
X97790000Y-97180725D01*
X98045302Y-97562811D01*
X98510849Y-97873880D01*
X99060000Y-97983113D01*
X99570000Y-97881668D01*
X99570000Y-102778332D01*
X99060000Y-102676887D01*
X98510849Y-102786120D01*
X98045302Y-103097189D01*
X97790000Y-103479275D01*
X97534698Y-103097189D01*
X97069151Y-102786120D01*
X96520000Y-102676887D01*
X95970849Y-102786120D01*
X95505302Y-103097189D01*
X95194233Y-103562736D01*
X95085000Y-104111887D01*
X95085000Y-104168113D01*
X95194233Y-104717264D01*
X95505302Y-105182811D01*
X95970849Y-105493880D01*
X96520000Y-105603113D01*
X97069151Y-105493880D01*
X97534698Y-105182811D01*
X97790000Y-104800725D01*
X98045302Y-105182811D01*
X98510849Y-105493880D01*
X99060000Y-105603113D01*
X99570000Y-105501668D01*
X99570000Y-112715198D01*
X99383886Y-112901312D01*
X99060000Y-112836887D01*
X98510849Y-112946120D01*
X98045302Y-113257189D01*
X97790000Y-113639275D01*
X97534698Y-113257189D01*
X97069151Y-112946120D01*
X96520000Y-112836887D01*
X95970849Y-112946120D01*
X95505302Y-113257189D01*
X95194233Y-113722736D01*
X95085000Y-114271887D01*
X95085000Y-114328113D01*
X95194233Y-114877264D01*
X95505302Y-115342811D01*
X95970849Y-115653880D01*
X96520000Y-115763113D01*
X97069151Y-115653880D01*
X97534698Y-115342811D01*
X97790000Y-114960725D01*
X98045302Y-115342811D01*
X98510849Y-115653880D01*
X99060000Y-115763113D01*
X99062603Y-115762595D01*
X95982599Y-118842599D01*
X95817852Y-119089161D01*
X95760000Y-119380000D01*
X95760000Y-120707005D01*
X95505302Y-120877189D01*
X95194233Y-121342736D01*
X95085000Y-121891887D01*
X95085000Y-121948113D01*
X95194233Y-122497264D01*
X95505302Y-122962811D01*
X95970849Y-123273880D01*
X96520000Y-123383113D01*
X97069151Y-123273880D01*
X97534698Y-122962811D01*
X97790000Y-122580725D01*
X98045302Y-122962811D01*
X98300000Y-123132995D01*
X98300000Y-125730000D01*
X98357852Y-126020839D01*
X98522599Y-126267401D01*
X102332599Y-130077401D01*
X102579161Y-130242148D01*
X102870000Y-130300000D01*
X179070000Y-130300000D01*
X179360839Y-130242148D01*
X179607401Y-130077401D01*
X180683782Y-129001020D01*
X180645389Y-129093481D01*
X180644613Y-129982619D01*
X180984155Y-130804372D01*
X181612321Y-131433636D01*
X182433481Y-131774611D01*
X183322619Y-131775387D01*
X184144372Y-131435845D01*
X184773636Y-130807679D01*
X185114611Y-129986519D01*
X185115387Y-129097381D01*
X184775845Y-128275628D01*
X184147679Y-127646364D01*
X183326519Y-127305389D01*
X182437381Y-127304613D01*
X182339918Y-127344884D01*
X183417401Y-126267401D01*
X183582148Y-126020840D01*
X183591746Y-125972586D01*
X183640000Y-125730000D01*
X183640000Y-91440000D01*
X183582148Y-91149161D01*
X183582148Y-91149160D01*
X183417401Y-90902599D01*
X180877401Y-88362599D01*
X180630839Y-88197852D01*
X180340000Y-88140000D01*
X178114802Y-88140000D01*
X163097401Y-73122599D01*
X162850839Y-72957852D01*
X162560000Y-72900000D01*
X157794802Y-72900000D01*
X155700000Y-70805198D01*
X155700000Y-69869262D01*
X155999670Y-69669029D01*
X156210000Y-69354248D01*
X156420330Y-69669029D01*
X156906511Y-69993885D01*
X157480000Y-70107959D01*
X158053489Y-69993885D01*
X158539670Y-69669029D01*
X158750000Y-69354248D01*
X158960330Y-69669029D01*
X159446511Y-69993885D01*
X160020000Y-70107959D01*
X160593489Y-69993885D01*
X161079670Y-69669029D01*
X161290000Y-69354248D01*
X161500330Y-69669029D01*
X161986511Y-69993885D01*
X162560000Y-70107959D01*
X163133489Y-69993885D01*
X163619670Y-69669029D01*
X163830000Y-69354248D01*
X164040330Y-69669029D01*
X164526511Y-69993885D01*
X165100000Y-70107959D01*
X165673489Y-69993885D01*
X166159670Y-69669029D01*
X166370000Y-69354248D01*
X166580330Y-69669029D01*
X167066511Y-69993885D01*
X167640000Y-70107959D01*
X168213489Y-69993885D01*
X168699670Y-69669029D01*
X169024526Y-69182848D01*
X169138600Y-68609359D01*
X169138600Y-68550641D01*
X169024526Y-67977152D01*
X168699670Y-67490971D01*
X168428828Y-67310000D01*
X168699670Y-67129029D01*
X169024526Y-66642848D01*
X169138600Y-66069359D01*
X169138600Y-66010641D01*
X169024526Y-65437152D01*
X168699670Y-64950971D01*
X168213489Y-64626115D01*
X167640000Y-64512041D01*
X167066511Y-64626115D01*
X166580330Y-64950971D01*
X166370000Y-65265752D01*
X166159670Y-64950971D01*
X165673489Y-64626115D01*
X165100000Y-64512041D01*
X164526511Y-64626115D01*
X164040330Y-64950971D01*
X163830000Y-65265752D01*
X163619670Y-64950971D01*
X163133489Y-64626115D01*
X162560000Y-64512041D01*
X161986511Y-64626115D01*
X161500330Y-64950971D01*
X161290000Y-65265752D01*
X161079670Y-64950971D01*
X160593489Y-64626115D01*
X160020000Y-64512041D01*
X159446511Y-64626115D01*
X158960330Y-64950971D01*
X158750000Y-65265752D01*
X158539670Y-64950971D01*
X158053489Y-64626115D01*
X157480000Y-64512041D01*
X156906511Y-64626115D01*
X156420330Y-64950971D01*
X156210000Y-65265752D01*
X155999670Y-64950971D01*
X155513489Y-64626115D01*
X154940000Y-64512041D01*
X154366511Y-64626115D01*
X153880330Y-64950971D01*
X153670000Y-65265752D01*
X153459670Y-64950971D01*
X152973489Y-64626115D01*
X152400000Y-64512041D01*
X151826511Y-64626115D01*
X151340330Y-64950971D01*
X151130000Y-65265752D01*
X150919670Y-64950971D01*
X150433489Y-64626115D01*
X149860000Y-64512041D01*
X149320052Y-64619443D01*
X149292148Y-64479161D01*
X149292148Y-64479160D01*
X149127401Y-64232599D01*
X148837421Y-63942619D01*
X180644613Y-63942619D01*
X180984155Y-64764372D01*
X181612321Y-65393636D01*
X182433481Y-65734611D01*
X183322619Y-65735387D01*
X184144372Y-65395845D01*
X184773636Y-64767679D01*
X185114611Y-63946519D01*
X185115387Y-63057381D01*
X184775845Y-62235628D01*
X184147679Y-61606364D01*
X183326519Y-61265389D01*
X182437381Y-61264613D01*
X181615628Y-61604155D01*
X180986364Y-62232321D01*
X180645389Y-63053481D01*
X180644613Y-63942619D01*
X148837421Y-63942619D01*
X147857401Y-62962599D01*
X147610839Y-62797852D01*
X147320000Y-62740000D01*
X140970000Y-62740000D01*
X140679160Y-62797852D01*
X140432599Y-62962599D01*
X139162599Y-64232599D01*
X138997852Y-64479161D01*
X138944419Y-64747785D01*
X138640330Y-64950971D01*
X138430000Y-65265752D01*
X138219670Y-64950971D01*
X137733489Y-64626115D01*
X137160000Y-64512041D01*
X136586511Y-64626115D01*
X136100330Y-64950971D01*
X135890000Y-65265752D01*
X135679670Y-64950971D01*
X135193489Y-64626115D01*
X134620000Y-64512041D01*
X134046511Y-64626115D01*
X133560330Y-64950971D01*
X133350000Y-65265752D01*
X133139670Y-64950971D01*
X132653489Y-64626115D01*
X132080000Y-64512041D01*
X131506511Y-64626115D01*
X131020330Y-64950971D01*
X130810000Y-65265752D01*
X130599670Y-64950971D01*
X130113489Y-64626115D01*
X129540000Y-64512041D01*
X128966511Y-64626115D01*
X128480330Y-64950971D01*
X128270000Y-65265752D01*
X128059670Y-64950971D01*
X127573489Y-64626115D01*
X127000000Y-64512041D01*
X126426511Y-64626115D01*
X125940330Y-64950971D01*
X125730000Y-65265752D01*
X125519670Y-64950971D01*
X125033489Y-64626115D01*
X124460000Y-64512041D01*
X123886511Y-64626115D01*
X123400330Y-64950971D01*
X123190000Y-65265752D01*
X122979670Y-64950971D01*
X122493489Y-64626115D01*
X121920000Y-64512041D01*
X121346511Y-64626115D01*
X120860330Y-64950971D01*
X120650000Y-65265752D01*
X120439670Y-64950971D01*
X120135581Y-64747785D01*
X120082148Y-64479161D01*
X120082148Y-64479160D01*
X119917401Y-64232599D01*
X118647401Y-62962599D01*
X118400839Y-62797852D01*
X118110000Y-62740000D01*
X114300000Y-62740000D01*
X114009160Y-62797852D01*
X113762599Y-62962599D01*
X112492599Y-64232599D01*
X112327852Y-64479161D01*
X112299948Y-64619443D01*
X111760000Y-64512041D01*
X111186511Y-64626115D01*
X110700330Y-64950971D01*
X110490000Y-65265752D01*
X110279670Y-64950971D01*
X109793489Y-64626115D01*
X109220000Y-64512041D01*
X108646511Y-64626115D01*
X108160330Y-64950971D01*
X107950000Y-65265752D01*
X107739670Y-64950971D01*
X107253489Y-64626115D01*
X106680000Y-64512041D01*
X106106511Y-64626115D01*
X105620330Y-64950971D01*
X105295474Y-65437152D01*
X105181400Y-66010641D01*
X105181400Y-66069359D01*
X105295474Y-66642848D01*
X105610526Y-67114356D01*
X105456701Y-67178073D01*
X105278073Y-67356702D01*
X105181400Y-67590091D01*
X105181400Y-68294250D01*
X105340150Y-68453000D01*
X106553000Y-68453000D01*
X106553000Y-68433000D01*
X106807000Y-68433000D01*
X106807000Y-68453000D01*
X106827000Y-68453000D01*
X106827000Y-68707000D01*
X106807000Y-68707000D01*
X106807000Y-69919850D01*
X106965750Y-70078600D01*
X107669910Y-70078600D01*
X107903299Y-69981927D01*
X108081927Y-69803298D01*
X108146263Y-69647977D01*
X108160330Y-69669029D01*
X108460000Y-69869262D01*
X108460000Y-71120000D01*
X108517852Y-71410839D01*
X108682599Y-71657401D01*
X114810000Y-77784802D01*
X114810000Y-81987537D01*
X114777808Y-82019673D01*
X114635162Y-82363201D01*
X114635090Y-82445347D01*
X114586691Y-82425250D01*
X114015813Y-82424752D01*
X113488200Y-82642757D01*
X113084176Y-83046077D01*
X112865250Y-83573309D01*
X112864752Y-84144187D01*
X113082757Y-84671800D01*
X113486077Y-85075824D01*
X113567931Y-85109813D01*
X113488200Y-85142757D01*
X113084176Y-85546077D01*
X113024180Y-85690564D01*
X112774698Y-85317189D01*
X112309151Y-85006120D01*
X111760000Y-84896887D01*
X111250000Y-84998332D01*
X111250000Y-82550000D01*
X111192148Y-82259160D01*
X111027401Y-82012599D01*
X109980000Y-80965198D01*
X109980000Y-79952995D01*
X110234698Y-79782811D01*
X110331101Y-79638535D01*
X110356838Y-79775317D01*
X110495910Y-79991441D01*
X110708110Y-80136431D01*
X110960000Y-80187440D01*
X111000000Y-80187440D01*
X111000000Y-80717537D01*
X110967808Y-80749673D01*
X110825162Y-81093201D01*
X110824838Y-81465167D01*
X110966883Y-81808943D01*
X111229673Y-82072192D01*
X111573201Y-82214838D01*
X111945167Y-82215162D01*
X112288943Y-82073117D01*
X112552192Y-81810327D01*
X112694838Y-81466799D01*
X112695162Y-81094833D01*
X112553117Y-80751057D01*
X112520000Y-80717882D01*
X112520000Y-80187440D01*
X112560000Y-80187440D01*
X112795317Y-80143162D01*
X113011441Y-80004090D01*
X113156431Y-79791890D01*
X113207440Y-79540000D01*
X113207440Y-77940000D01*
X113163162Y-77704683D01*
X113024090Y-77488559D01*
X112811890Y-77343569D01*
X112560000Y-77292560D01*
X110960000Y-77292560D01*
X110724683Y-77336838D01*
X110508559Y-77475910D01*
X110363569Y-77688110D01*
X110332185Y-77843089D01*
X110234698Y-77697189D01*
X109769151Y-77386120D01*
X109220000Y-77276887D01*
X108670849Y-77386120D01*
X108205302Y-77697189D01*
X107950000Y-78079275D01*
X107694698Y-77697189D01*
X107440000Y-77527005D01*
X107440000Y-76762463D01*
X107472192Y-76730327D01*
X107614838Y-76386799D01*
X107615162Y-76014833D01*
X107473117Y-75671057D01*
X107210327Y-75407808D01*
X106866799Y-75265162D01*
X106494833Y-75264838D01*
X106151057Y-75406883D01*
X105887808Y-75669673D01*
X105745162Y-76013201D01*
X105744838Y-76385167D01*
X105886883Y-76728943D01*
X105920000Y-76762118D01*
X105920000Y-77527005D01*
X105665302Y-77697189D01*
X105410000Y-78079275D01*
X105154698Y-77697189D01*
X104689151Y-77386120D01*
X104140000Y-77276887D01*
X103590849Y-77386120D01*
X103125302Y-77697189D01*
X102870000Y-78079275D01*
X102614698Y-77697189D01*
X102149151Y-77386120D01*
X101600000Y-77276887D01*
X101050849Y-77386120D01*
X100585302Y-77697189D01*
X100330000Y-78079275D01*
X100074698Y-77697189D01*
X99609151Y-77386120D01*
X99060000Y-77276887D01*
X98510849Y-77386120D01*
X98045302Y-77697189D01*
X97790000Y-78079275D01*
X97534698Y-77697189D01*
X97069151Y-77386120D01*
X96520000Y-77276887D01*
X95970849Y-77386120D01*
X95505302Y-77697189D01*
X95194233Y-78162736D01*
X95085000Y-78711887D01*
X90880000Y-78711887D01*
X90880000Y-68865750D01*
X105181400Y-68865750D01*
X105181400Y-69569909D01*
X105278073Y-69803298D01*
X105456701Y-69981927D01*
X105690090Y-70078600D01*
X106394250Y-70078600D01*
X106553000Y-69919850D01*
X106553000Y-68707000D01*
X105340150Y-68707000D01*
X105181400Y-68865750D01*
X90880000Y-68865750D01*
X90880000Y-63942619D01*
X91744613Y-63942619D01*
X92084155Y-64764372D01*
X92712321Y-65393636D01*
X93533481Y-65734611D01*
X94422619Y-65735387D01*
X95244372Y-65395845D01*
X95873636Y-64767679D01*
X96214611Y-63946519D01*
X96215387Y-63057381D01*
X95875845Y-62235628D01*
X95247679Y-61606364D01*
X94426519Y-61265389D01*
X93537381Y-61264613D01*
X92715628Y-61604155D01*
X92086364Y-62232321D01*
X91745389Y-63053481D01*
X91744613Y-63942619D01*
X90880000Y-63942619D01*
X90880000Y-62299931D01*
X91032152Y-61535011D01*
X91425830Y-60945830D01*
X92015011Y-60552152D01*
X92779931Y-60400000D01*
X184080069Y-60400000D01*
X184844989Y-60552152D01*
X184844989Y-60552152D01*
G37*
X184844989Y-60552152D02*
X185434170Y-60945830D01*
X185827848Y-61535011D01*
X185980000Y-62299931D01*
X185980000Y-130740069D01*
X185827848Y-131504989D01*
X185434170Y-132094170D01*
X184844989Y-132487848D01*
X184080069Y-132640000D01*
X92779931Y-132640000D01*
X92015011Y-132487848D01*
X91425830Y-132094170D01*
X91032152Y-131504989D01*
X90880000Y-130740069D01*
X90880000Y-129982619D01*
X91744613Y-129982619D01*
X92084155Y-130804372D01*
X92712321Y-131433636D01*
X93533481Y-131774611D01*
X94422619Y-131775387D01*
X95244372Y-131435845D01*
X95873636Y-130807679D01*
X96214611Y-129986519D01*
X96215387Y-129097381D01*
X95875845Y-128275628D01*
X95247679Y-127646364D01*
X94426519Y-127305389D01*
X93537381Y-127304613D01*
X92715628Y-127644155D01*
X92086364Y-128272321D01*
X91745389Y-129093481D01*
X91744613Y-129982619D01*
X90880000Y-129982619D01*
X90880000Y-78711887D01*
X95085000Y-78711887D01*
X95085000Y-78768113D01*
X95194233Y-79317264D01*
X95505302Y-79782811D01*
X95970849Y-80093880D01*
X96520000Y-80203113D01*
X97069151Y-80093880D01*
X97534698Y-79782811D01*
X97790000Y-79400725D01*
X98045302Y-79782811D01*
X98510849Y-80093880D01*
X99060000Y-80203113D01*
X99609151Y-80093880D01*
X100074698Y-79782811D01*
X100330000Y-79400725D01*
X100585302Y-79782811D01*
X101050849Y-80093880D01*
X101600000Y-80203113D01*
X102110000Y-80101668D01*
X102110000Y-84998332D01*
X101600000Y-84896887D01*
X101050849Y-85006120D01*
X100585302Y-85317189D01*
X100330000Y-85699275D01*
X100074698Y-85317189D01*
X99609151Y-85006120D01*
X99060000Y-84896887D01*
X98510849Y-85006120D01*
X98045302Y-85317189D01*
X97790000Y-85699275D01*
X97534698Y-85317189D01*
X97069151Y-85006120D01*
X96520000Y-84896887D01*
X95970849Y-85006120D01*
X95505302Y-85317189D01*
X95194233Y-85782736D01*
X95085000Y-86331887D01*
X95085000Y-86388113D01*
X95194233Y-86937264D01*
X95505302Y-87402811D01*
X95970849Y-87713880D01*
X96520000Y-87823113D01*
X97069151Y-87713880D01*
X97534698Y-87402811D01*
X97790000Y-87020725D01*
X98045302Y-87402811D01*
X98510849Y-87713880D01*
X99060000Y-87823113D01*
X99609151Y-87713880D01*
X100074698Y-87402811D01*
X100330000Y-87020725D01*
X100585302Y-87402811D01*
X101050849Y-87713880D01*
X101600000Y-87823113D01*
X102110000Y-87721668D01*
X102110000Y-94935198D01*
X101923886Y-95121312D01*
X101600000Y-95056887D01*
X101090000Y-95158332D01*
X101090000Y-90732463D01*
X101122192Y-90700327D01*
X101264838Y-90356799D01*
X101265162Y-89984833D01*
X101123117Y-89641057D01*
X100860327Y-89377808D01*
X100516799Y-89235162D01*
X100144833Y-89234838D01*
X99889570Y-89340310D01*
X99994838Y-89086799D01*
X99995162Y-88714833D01*
X99853117Y-88371057D01*
X99590327Y-88107808D01*
X99246799Y-87965162D01*
X98874833Y-87964838D01*
X98531057Y-88106883D01*
X98267808Y-88369673D01*
X98125162Y-88713201D01*
X98124838Y-89085167D01*
X98266883Y-89428943D01*
X98300000Y-89462118D01*
X98300000Y-95307005D01*
X98045302Y-95477189D01*
X97790000Y-95859275D01*
X97534698Y-95477189D01*
X97069151Y-95166120D01*
X96520000Y-95056887D01*
X95970849Y-95166120D01*
X95505302Y-95477189D01*
X95194233Y-95942736D01*
X95085000Y-96491887D01*
X95085000Y-96548113D01*
X95194233Y-97097264D01*
X95505302Y-97562811D01*
X95970849Y-97873880D01*
X96520000Y-97983113D01*
X97069151Y-97873880D01*
X97534698Y-97562811D01*
X97790000Y-97180725D01*
X98045302Y-97562811D01*
X98510849Y-97873880D01*
X99060000Y-97983113D01*
X99570000Y-97881668D01*
X99570000Y-102778332D01*
X99060000Y-102676887D01*
X98510849Y-102786120D01*
X98045302Y-103097189D01*
X97790000Y-103479275D01*
X97534698Y-103097189D01*
X97069151Y-102786120D01*
X96520000Y-102676887D01*
X95970849Y-102786120D01*
X95505302Y-103097189D01*
X95194233Y-103562736D01*
X95085000Y-104111887D01*
X95085000Y-104168113D01*
X95194233Y-104717264D01*
X95505302Y-105182811D01*
X95970849Y-105493880D01*
X96520000Y-105603113D01*
X97069151Y-105493880D01*
X97534698Y-105182811D01*
X97790000Y-104800725D01*
X98045302Y-105182811D01*
X98510849Y-105493880D01*
X99060000Y-105603113D01*
X99570000Y-105501668D01*
X99570000Y-112715198D01*
X99383886Y-112901312D01*
X99060000Y-112836887D01*
X98510849Y-112946120D01*
X98045302Y-113257189D01*
X97790000Y-113639275D01*
X97534698Y-113257189D01*
X97069151Y-112946120D01*
X96520000Y-112836887D01*
X95970849Y-112946120D01*
X95505302Y-113257189D01*
X95194233Y-113722736D01*
X95085000Y-114271887D01*
X95085000Y-114328113D01*
X95194233Y-114877264D01*
X95505302Y-115342811D01*
X95970849Y-115653880D01*
X96520000Y-115763113D01*
X97069151Y-115653880D01*
X97534698Y-115342811D01*
X97790000Y-114960725D01*
X98045302Y-115342811D01*
X98510849Y-115653880D01*
X99060000Y-115763113D01*
X99062603Y-115762595D01*
X95982599Y-118842599D01*
X95817852Y-119089161D01*
X95760000Y-119380000D01*
X95760000Y-120707005D01*
X95505302Y-120877189D01*
X95194233Y-121342736D01*
X95085000Y-121891887D01*
X95085000Y-121948113D01*
X95194233Y-122497264D01*
X95505302Y-122962811D01*
X95970849Y-123273880D01*
X96520000Y-123383113D01*
X97069151Y-123273880D01*
X97534698Y-122962811D01*
X97790000Y-122580725D01*
X98045302Y-122962811D01*
X98300000Y-123132995D01*
X98300000Y-125730000D01*
X98357852Y-126020839D01*
X98522599Y-126267401D01*
X102332599Y-130077401D01*
X102579161Y-130242148D01*
X102870000Y-130300000D01*
X179070000Y-130300000D01*
X179360839Y-130242148D01*
X179607401Y-130077401D01*
X180683782Y-129001020D01*
X180645389Y-129093481D01*
X180644613Y-129982619D01*
X180984155Y-130804372D01*
X181612321Y-131433636D01*
X182433481Y-131774611D01*
X183322619Y-131775387D01*
X184144372Y-131435845D01*
X184773636Y-130807679D01*
X185114611Y-129986519D01*
X185115387Y-129097381D01*
X184775845Y-128275628D01*
X184147679Y-127646364D01*
X183326519Y-127305389D01*
X182437381Y-127304613D01*
X182339918Y-127344884D01*
X183417401Y-126267401D01*
X183582148Y-126020840D01*
X183591746Y-125972586D01*
X183640000Y-125730000D01*
X183640000Y-91440000D01*
X183582148Y-91149161D01*
X183582148Y-91149160D01*
X183417401Y-90902599D01*
X180877401Y-88362599D01*
X180630839Y-88197852D01*
X180340000Y-88140000D01*
X178114802Y-88140000D01*
X163097401Y-73122599D01*
X162850839Y-72957852D01*
X162560000Y-72900000D01*
X157794802Y-72900000D01*
X155700000Y-70805198D01*
X155700000Y-69869262D01*
X155999670Y-69669029D01*
X156210000Y-69354248D01*
X156420330Y-69669029D01*
X156906511Y-69993885D01*
X157480000Y-70107959D01*
X158053489Y-69993885D01*
X158539670Y-69669029D01*
X158750000Y-69354248D01*
X158960330Y-69669029D01*
X159446511Y-69993885D01*
X160020000Y-70107959D01*
X160593489Y-69993885D01*
X161079670Y-69669029D01*
X161290000Y-69354248D01*
X161500330Y-69669029D01*
X161986511Y-69993885D01*
X162560000Y-70107959D01*
X163133489Y-69993885D01*
X163619670Y-69669029D01*
X163830000Y-69354248D01*
X164040330Y-69669029D01*
X164526511Y-69993885D01*
X165100000Y-70107959D01*
X165673489Y-69993885D01*
X166159670Y-69669029D01*
X166370000Y-69354248D01*
X166580330Y-69669029D01*
X167066511Y-69993885D01*
X167640000Y-70107959D01*
X168213489Y-69993885D01*
X168699670Y-69669029D01*
X169024526Y-69182848D01*
X169138600Y-68609359D01*
X169138600Y-68550641D01*
X169024526Y-67977152D01*
X168699670Y-67490971D01*
X168428828Y-67310000D01*
X168699670Y-67129029D01*
X169024526Y-66642848D01*
X169138600Y-66069359D01*
X169138600Y-66010641D01*
X169024526Y-65437152D01*
X168699670Y-64950971D01*
X168213489Y-64626115D01*
X167640000Y-64512041D01*
X167066511Y-64626115D01*
X166580330Y-64950971D01*
X166370000Y-65265752D01*
X166159670Y-64950971D01*
X165673489Y-64626115D01*
X165100000Y-64512041D01*
X164526511Y-64626115D01*
X164040330Y-64950971D01*
X163830000Y-65265752D01*
X163619670Y-64950971D01*
X163133489Y-64626115D01*
X162560000Y-64512041D01*
X161986511Y-64626115D01*
X161500330Y-64950971D01*
X161290000Y-65265752D01*
X161079670Y-64950971D01*
X160593489Y-64626115D01*
X160020000Y-64512041D01*
X159446511Y-64626115D01*
X158960330Y-64950971D01*
X158750000Y-65265752D01*
X158539670Y-64950971D01*
X158053489Y-64626115D01*
X157480000Y-64512041D01*
X156906511Y-64626115D01*
X156420330Y-64950971D01*
X156210000Y-65265752D01*
X155999670Y-64950971D01*
X155513489Y-64626115D01*
X154940000Y-64512041D01*
X154366511Y-64626115D01*
X153880330Y-64950971D01*
X153670000Y-65265752D01*
X153459670Y-64950971D01*
X152973489Y-64626115D01*
X152400000Y-64512041D01*
X151826511Y-64626115D01*
X151340330Y-64950971D01*
X151130000Y-65265752D01*
X150919670Y-64950971D01*
X150433489Y-64626115D01*
X149860000Y-64512041D01*
X149320052Y-64619443D01*
X149292148Y-64479161D01*
X149292148Y-64479160D01*
X149127401Y-64232599D01*
X148837421Y-63942619D01*
X180644613Y-63942619D01*
X180984155Y-64764372D01*
X181612321Y-65393636D01*
X182433481Y-65734611D01*
X183322619Y-65735387D01*
X184144372Y-65395845D01*
X184773636Y-64767679D01*
X185114611Y-63946519D01*
X185115387Y-63057381D01*
X184775845Y-62235628D01*
X184147679Y-61606364D01*
X183326519Y-61265389D01*
X182437381Y-61264613D01*
X181615628Y-61604155D01*
X180986364Y-62232321D01*
X180645389Y-63053481D01*
X180644613Y-63942619D01*
X148837421Y-63942619D01*
X147857401Y-62962599D01*
X147610839Y-62797852D01*
X147320000Y-62740000D01*
X140970000Y-62740000D01*
X140679160Y-62797852D01*
X140432599Y-62962599D01*
X139162599Y-64232599D01*
X138997852Y-64479161D01*
X138944419Y-64747785D01*
X138640330Y-64950971D01*
X138430000Y-65265752D01*
X138219670Y-64950971D01*
X137733489Y-64626115D01*
X137160000Y-64512041D01*
X136586511Y-64626115D01*
X136100330Y-64950971D01*
X135890000Y-65265752D01*
X135679670Y-64950971D01*
X135193489Y-64626115D01*
X134620000Y-64512041D01*
X134046511Y-64626115D01*
X133560330Y-64950971D01*
X133350000Y-65265752D01*
X133139670Y-64950971D01*
X132653489Y-64626115D01*
X132080000Y-64512041D01*
X131506511Y-64626115D01*
X131020330Y-64950971D01*
X130810000Y-65265752D01*
X130599670Y-64950971D01*
X130113489Y-64626115D01*
X129540000Y-64512041D01*
X128966511Y-64626115D01*
X128480330Y-64950971D01*
X128270000Y-65265752D01*
X128059670Y-64950971D01*
X127573489Y-64626115D01*
X127000000Y-64512041D01*
X126426511Y-64626115D01*
X125940330Y-64950971D01*
X125730000Y-65265752D01*
X125519670Y-64950971D01*
X125033489Y-64626115D01*
X124460000Y-64512041D01*
X123886511Y-64626115D01*
X123400330Y-64950971D01*
X123190000Y-65265752D01*
X122979670Y-64950971D01*
X122493489Y-64626115D01*
X121920000Y-64512041D01*
X121346511Y-64626115D01*
X120860330Y-64950971D01*
X120650000Y-65265752D01*
X120439670Y-64950971D01*
X120135581Y-64747785D01*
X120082148Y-64479161D01*
X120082148Y-64479160D01*
X119917401Y-64232599D01*
X118647401Y-62962599D01*
X118400839Y-62797852D01*
X118110000Y-62740000D01*
X114300000Y-62740000D01*
X114009160Y-62797852D01*
X113762599Y-62962599D01*
X112492599Y-64232599D01*
X112327852Y-64479161D01*
X112299948Y-64619443D01*
X111760000Y-64512041D01*
X111186511Y-64626115D01*
X110700330Y-64950971D01*
X110490000Y-65265752D01*
X110279670Y-64950971D01*
X109793489Y-64626115D01*
X109220000Y-64512041D01*
X108646511Y-64626115D01*
X108160330Y-64950971D01*
X107950000Y-65265752D01*
X107739670Y-64950971D01*
X107253489Y-64626115D01*
X106680000Y-64512041D01*
X106106511Y-64626115D01*
X105620330Y-64950971D01*
X105295474Y-65437152D01*
X105181400Y-66010641D01*
X105181400Y-66069359D01*
X105295474Y-66642848D01*
X105610526Y-67114356D01*
X105456701Y-67178073D01*
X105278073Y-67356702D01*
X105181400Y-67590091D01*
X105181400Y-68294250D01*
X105340150Y-68453000D01*
X106553000Y-68453000D01*
X106553000Y-68433000D01*
X106807000Y-68433000D01*
X106807000Y-68453000D01*
X106827000Y-68453000D01*
X106827000Y-68707000D01*
X106807000Y-68707000D01*
X106807000Y-69919850D01*
X106965750Y-70078600D01*
X107669910Y-70078600D01*
X107903299Y-69981927D01*
X108081927Y-69803298D01*
X108146263Y-69647977D01*
X108160330Y-69669029D01*
X108460000Y-69869262D01*
X108460000Y-71120000D01*
X108517852Y-71410839D01*
X108682599Y-71657401D01*
X114810000Y-77784802D01*
X114810000Y-81987537D01*
X114777808Y-82019673D01*
X114635162Y-82363201D01*
X114635090Y-82445347D01*
X114586691Y-82425250D01*
X114015813Y-82424752D01*
X113488200Y-82642757D01*
X113084176Y-83046077D01*
X112865250Y-83573309D01*
X112864752Y-84144187D01*
X113082757Y-84671800D01*
X113486077Y-85075824D01*
X113567931Y-85109813D01*
X113488200Y-85142757D01*
X113084176Y-85546077D01*
X113024180Y-85690564D01*
X112774698Y-85317189D01*
X112309151Y-85006120D01*
X111760000Y-84896887D01*
X111250000Y-84998332D01*
X111250000Y-82550000D01*
X111192148Y-82259160D01*
X111027401Y-82012599D01*
X109980000Y-80965198D01*
X109980000Y-79952995D01*
X110234698Y-79782811D01*
X110331101Y-79638535D01*
X110356838Y-79775317D01*
X110495910Y-79991441D01*
X110708110Y-80136431D01*
X110960000Y-80187440D01*
X111000000Y-80187440D01*
X111000000Y-80717537D01*
X110967808Y-80749673D01*
X110825162Y-81093201D01*
X110824838Y-81465167D01*
X110966883Y-81808943D01*
X111229673Y-82072192D01*
X111573201Y-82214838D01*
X111945167Y-82215162D01*
X112288943Y-82073117D01*
X112552192Y-81810327D01*
X112694838Y-81466799D01*
X112695162Y-81094833D01*
X112553117Y-80751057D01*
X112520000Y-80717882D01*
X112520000Y-80187440D01*
X112560000Y-80187440D01*
X112795317Y-80143162D01*
X113011441Y-80004090D01*
X113156431Y-79791890D01*
X113207440Y-79540000D01*
X113207440Y-77940000D01*
X113163162Y-77704683D01*
X113024090Y-77488559D01*
X112811890Y-77343569D01*
X112560000Y-77292560D01*
X110960000Y-77292560D01*
X110724683Y-77336838D01*
X110508559Y-77475910D01*
X110363569Y-77688110D01*
X110332185Y-77843089D01*
X110234698Y-77697189D01*
X109769151Y-77386120D01*
X109220000Y-77276887D01*
X108670849Y-77386120D01*
X108205302Y-77697189D01*
X107950000Y-78079275D01*
X107694698Y-77697189D01*
X107440000Y-77527005D01*
X107440000Y-76762463D01*
X107472192Y-76730327D01*
X107614838Y-76386799D01*
X107615162Y-76014833D01*
X107473117Y-75671057D01*
X107210327Y-75407808D01*
X106866799Y-75265162D01*
X106494833Y-75264838D01*
X106151057Y-75406883D01*
X105887808Y-75669673D01*
X105745162Y-76013201D01*
X105744838Y-76385167D01*
X105886883Y-76728943D01*
X105920000Y-76762118D01*
X105920000Y-77527005D01*
X105665302Y-77697189D01*
X105410000Y-78079275D01*
X105154698Y-77697189D01*
X104689151Y-77386120D01*
X104140000Y-77276887D01*
X103590849Y-77386120D01*
X103125302Y-77697189D01*
X102870000Y-78079275D01*
X102614698Y-77697189D01*
X102149151Y-77386120D01*
X101600000Y-77276887D01*
X101050849Y-77386120D01*
X100585302Y-77697189D01*
X100330000Y-78079275D01*
X100074698Y-77697189D01*
X99609151Y-77386120D01*
X99060000Y-77276887D01*
X98510849Y-77386120D01*
X98045302Y-77697189D01*
X97790000Y-78079275D01*
X97534698Y-77697189D01*
X97069151Y-77386120D01*
X96520000Y-77276887D01*
X95970849Y-77386120D01*
X95505302Y-77697189D01*
X95194233Y-78162736D01*
X95085000Y-78711887D01*
X90880000Y-78711887D01*
X90880000Y-68865750D01*
X105181400Y-68865750D01*
X105181400Y-69569909D01*
X105278073Y-69803298D01*
X105456701Y-69981927D01*
X105690090Y-70078600D01*
X106394250Y-70078600D01*
X106553000Y-69919850D01*
X106553000Y-68707000D01*
X105340150Y-68707000D01*
X105181400Y-68865750D01*
X90880000Y-68865750D01*
X90880000Y-63942619D01*
X91744613Y-63942619D01*
X92084155Y-64764372D01*
X92712321Y-65393636D01*
X93533481Y-65734611D01*
X94422619Y-65735387D01*
X95244372Y-65395845D01*
X95873636Y-64767679D01*
X96214611Y-63946519D01*
X96215387Y-63057381D01*
X95875845Y-62235628D01*
X95247679Y-61606364D01*
X94426519Y-61265389D01*
X93537381Y-61264613D01*
X92715628Y-61604155D01*
X92086364Y-62232321D01*
X91745389Y-63053481D01*
X91744613Y-63942619D01*
X90880000Y-63942619D01*
X90880000Y-62299931D01*
X91032152Y-61535011D01*
X91425830Y-60945830D01*
X92015011Y-60552152D01*
X92779931Y-60400000D01*
X184080069Y-60400000D01*
X184844989Y-60552152D01*
G36*
X115780330Y-69669029D02*
X116080000Y-69869262D01*
X116080000Y-71120000D01*
X116137852Y-71410839D01*
X116302599Y-71657401D01*
X122430000Y-77784802D01*
X122430000Y-85090000D01*
X122487852Y-85380839D01*
X122652599Y-85627401D01*
X123080096Y-86054898D01*
X123025000Y-86331887D01*
X123025000Y-86388113D01*
X123134233Y-86937264D01*
X123445302Y-87402811D01*
X123910849Y-87713880D01*
X124460000Y-87823113D01*
X125009151Y-87713880D01*
X125474698Y-87402811D01*
X125730000Y-87020725D01*
X125985302Y-87402811D01*
X126450849Y-87713880D01*
X127000000Y-87823113D01*
X127549151Y-87713880D01*
X128014698Y-87402811D01*
X128270000Y-87020725D01*
X128525302Y-87402811D01*
X128990849Y-87713880D01*
X129540000Y-87823113D01*
X130089151Y-87713880D01*
X130554698Y-87402811D01*
X130810000Y-87020725D01*
X131065302Y-87402811D01*
X131530849Y-87713880D01*
X132080000Y-87823113D01*
X132629151Y-87713880D01*
X133094698Y-87402811D01*
X133350000Y-87020725D01*
X133605302Y-87402811D01*
X134070849Y-87713880D01*
X134620000Y-87823113D01*
X135169151Y-87713880D01*
X135634698Y-87402811D01*
X135890000Y-87020725D01*
X136145302Y-87402811D01*
X136400000Y-87572995D01*
X136400000Y-88337537D01*
X136367808Y-88369673D01*
X136225162Y-88713201D01*
X136224838Y-89085167D01*
X136366883Y-89428943D01*
X136629673Y-89692192D01*
X136973201Y-89834838D01*
X137345167Y-89835162D01*
X137688943Y-89693117D01*
X137952192Y-89430327D01*
X138094838Y-89086799D01*
X138095162Y-88714833D01*
X137953117Y-88371057D01*
X137920000Y-88337882D01*
X137920000Y-87572995D01*
X138174698Y-87402811D01*
X138430000Y-87020725D01*
X138685302Y-87402811D01*
X139150849Y-87713880D01*
X139700000Y-87823113D01*
X140249151Y-87713880D01*
X140714698Y-87402811D01*
X140970000Y-87020725D01*
X141225302Y-87402811D01*
X141480000Y-87572995D01*
X141480000Y-89607537D01*
X141447808Y-89639673D01*
X141305162Y-89983201D01*
X141304838Y-90355167D01*
X141446883Y-90698943D01*
X141709673Y-90962192D01*
X142053201Y-91104838D01*
X142425167Y-91105162D01*
X142768943Y-90963117D01*
X143032192Y-90700327D01*
X143174838Y-90356799D01*
X143175162Y-89984833D01*
X143033117Y-89641057D01*
X143000000Y-89607882D01*
X143000000Y-87572995D01*
X143254698Y-87402811D01*
X143510000Y-87020725D01*
X143765302Y-87402811D01*
X144230849Y-87713880D01*
X144780000Y-87823113D01*
X145290000Y-87721668D01*
X145290000Y-93417537D01*
X145257808Y-93449673D01*
X145115162Y-93793201D01*
X145114838Y-94165167D01*
X145256883Y-94508943D01*
X145519673Y-94772192D01*
X145863201Y-94914838D01*
X146235167Y-94915162D01*
X146578943Y-94773117D01*
X146842192Y-94510327D01*
X146984838Y-94166799D01*
X146985162Y-93794833D01*
X146843117Y-93451057D01*
X146810000Y-93417882D01*
X146810000Y-87721668D01*
X147320000Y-87823113D01*
X147830000Y-87721668D01*
X147830000Y-90877537D01*
X147797808Y-90909673D01*
X147655162Y-91253201D01*
X147654838Y-91625167D01*
X147796883Y-91968943D01*
X148059673Y-92232192D01*
X148403201Y-92374838D01*
X148775167Y-92375162D01*
X149118943Y-92233117D01*
X149382192Y-91970327D01*
X149524838Y-91626799D01*
X149525162Y-91254833D01*
X149383117Y-90911057D01*
X149350000Y-90877882D01*
X149350000Y-87721668D01*
X149860000Y-87823113D01*
X150409151Y-87713880D01*
X150874698Y-87402811D01*
X151130000Y-87020725D01*
X151385302Y-87402811D01*
X151640000Y-87572995D01*
X151640000Y-91154442D01*
X143165136Y-100840000D01*
X141154496Y-100840000D01*
X141086462Y-100675345D01*
X140627073Y-100215154D01*
X140026547Y-99965794D01*
X139376306Y-99965226D01*
X138775345Y-100213538D01*
X138315154Y-100672927D01*
X138065794Y-101273453D01*
X138065226Y-101923694D01*
X138313538Y-102524655D01*
X138772927Y-102984846D01*
X139373453Y-103234206D01*
X140023694Y-103234774D01*
X140624655Y-102986462D01*
X141084846Y-102527073D01*
X141154221Y-102360000D01*
X143510000Y-102360000D01*
X143535138Y-102355000D01*
X143560554Y-102358317D01*
X143679761Y-102326232D01*
X143800839Y-102302148D01*
X143822152Y-102287907D01*
X143846901Y-102281246D01*
X143944755Y-102205987D01*
X144047401Y-102137401D01*
X144061640Y-102116090D01*
X144081958Y-102100464D01*
X152971958Y-91940464D01*
X153033565Y-91833481D01*
X153102148Y-91730839D01*
X153107148Y-91705700D01*
X153119939Y-91683489D01*
X153135915Y-91561084D01*
X153160000Y-91440000D01*
X153160000Y-87572995D01*
X153414698Y-87402811D01*
X153670000Y-87020725D01*
X153925302Y-87402811D01*
X154180000Y-87572995D01*
X154180000Y-92147537D01*
X154147808Y-92179673D01*
X154005162Y-92523201D01*
X154004838Y-92895167D01*
X154146883Y-93238943D01*
X154409673Y-93502192D01*
X154753201Y-93644838D01*
X155125167Y-93645162D01*
X155468943Y-93503117D01*
X155732192Y-93240327D01*
X155874838Y-92896799D01*
X155875162Y-92524833D01*
X155733117Y-92181057D01*
X155700000Y-92147882D01*
X155700000Y-87572995D01*
X155954698Y-87402811D01*
X156210000Y-87020725D01*
X156465302Y-87402811D01*
X156930849Y-87713880D01*
X157480000Y-87823113D01*
X158029151Y-87713880D01*
X158494698Y-87402811D01*
X158600144Y-87245000D01*
X158875829Y-87245000D01*
X159135000Y-87504623D01*
X159135000Y-89827853D01*
X146928503Y-103255000D01*
X132446579Y-103255000D01*
X131157752Y-101966172D01*
X131174206Y-101926547D01*
X131174774Y-101276306D01*
X130926462Y-100675345D01*
X130467073Y-100215154D01*
X130425000Y-100197684D01*
X130425000Y-98067440D01*
X130440000Y-98067440D01*
X130675317Y-98023162D01*
X130891441Y-97884090D01*
X131036431Y-97671890D01*
X131087440Y-97420000D01*
X131087440Y-96520000D01*
X138134928Y-96520000D01*
X138251773Y-97107419D01*
X138584519Y-97605409D01*
X139082509Y-97938155D01*
X139669928Y-98055000D01*
X139730072Y-98055000D01*
X140317491Y-97938155D01*
X140815481Y-97605409D01*
X141148227Y-97107419D01*
X141265072Y-96520000D01*
X141148227Y-95932581D01*
X140815481Y-95434591D01*
X140317491Y-95101845D01*
X139730072Y-94985000D01*
X139669928Y-94985000D01*
X139082509Y-95101845D01*
X138584519Y-95434591D01*
X138251773Y-95932581D01*
X138134928Y-96520000D01*
X131087440Y-96520000D01*
X131087440Y-95620000D01*
X131043162Y-95384683D01*
X130904090Y-95168559D01*
X130691890Y-95023569D01*
X130440000Y-94972560D01*
X128640000Y-94972560D01*
X128404683Y-95016838D01*
X128188559Y-95155910D01*
X128043569Y-95368110D01*
X127992560Y-95620000D01*
X127992560Y-97420000D01*
X128036838Y-97655317D01*
X128175910Y-97871441D01*
X128388110Y-98016431D01*
X128640000Y-98067440D01*
X128655000Y-98067440D01*
X128655000Y-100197153D01*
X128615345Y-100213538D01*
X128155154Y-100672927D01*
X127905794Y-101273453D01*
X127905226Y-101923694D01*
X128153538Y-102524655D01*
X128612927Y-102984846D01*
X129213453Y-103234206D01*
X129863694Y-103234774D01*
X129905798Y-103217377D01*
X131454208Y-104765787D01*
X131454210Y-104765790D01*
X131741325Y-104957633D01*
X132080000Y-105025000D01*
X147320000Y-105025000D01*
X147340958Y-105020831D01*
X147362095Y-105023999D01*
X147509608Y-104987285D01*
X147658675Y-104957633D01*
X147676443Y-104945761D01*
X147697182Y-104940599D01*
X147819398Y-104850242D01*
X147945790Y-104765790D01*
X147957665Y-104748018D01*
X147974847Y-104735315D01*
X152188770Y-100100000D01*
X152792560Y-100100000D01*
X152792560Y-103100000D01*
X152836838Y-103335317D01*
X152975910Y-103551441D01*
X153188110Y-103696431D01*
X153440000Y-103747440D01*
X156440000Y-103747440D01*
X156675317Y-103703162D01*
X156891441Y-103564090D01*
X157036431Y-103351890D01*
X157087440Y-103100000D01*
X157087440Y-102752163D01*
X169207443Y-102752163D01*
X169306042Y-103018965D01*
X169915582Y-103245401D01*
X170565377Y-103221341D01*
X171053958Y-103018965D01*
X171152557Y-102752163D01*
X170180000Y-101779605D01*
X169207443Y-102752163D01*
X157087440Y-102752163D01*
X157087440Y-101335582D01*
X168534599Y-101335582D01*
X168558659Y-101985377D01*
X168761035Y-102473958D01*
X169027837Y-102572557D01*
X170000395Y-101600000D01*
X170359605Y-101600000D01*
X171332163Y-102572557D01*
X171598965Y-102473958D01*
X171825401Y-101864418D01*
X171801341Y-101214623D01*
X171598965Y-100726042D01*
X171332163Y-100627443D01*
X170359605Y-101600000D01*
X170000395Y-101600000D01*
X169027837Y-100627443D01*
X168761035Y-100726042D01*
X168534599Y-101335582D01*
X157087440Y-101335582D01*
X157087440Y-100447837D01*
X169207443Y-100447837D01*
X170180000Y-101420395D01*
X171152557Y-100447837D01*
X171053958Y-100181035D01*
X170444418Y-99954599D01*
X169794623Y-99978659D01*
X169306042Y-100181035D01*
X169207443Y-100447837D01*
X157087440Y-100447837D01*
X157087440Y-100100000D01*
X157043162Y-99864683D01*
X156904090Y-99648559D01*
X156691890Y-99503569D01*
X156440000Y-99452560D01*
X153440000Y-99452560D01*
X153204683Y-99496838D01*
X152988559Y-99635910D01*
X152843569Y-99848110D01*
X152792560Y-100100000D01*
X152188770Y-100100000D01*
X154395894Y-97672163D01*
X169207443Y-97672163D01*
X169306042Y-97938965D01*
X169915582Y-98165401D01*
X170565377Y-98141341D01*
X171053958Y-97938965D01*
X171152557Y-97672163D01*
X170180000Y-96699605D01*
X169207443Y-97672163D01*
X154395894Y-97672163D01*
X155683695Y-96255582D01*
X168534599Y-96255582D01*
X168558659Y-96905377D01*
X168761035Y-97393958D01*
X169027837Y-97492557D01*
X170000395Y-96520000D01*
X170359605Y-96520000D01*
X171332163Y-97492557D01*
X171598965Y-97393958D01*
X171825401Y-96784418D01*
X171801341Y-96134623D01*
X171598965Y-95646042D01*
X171332163Y-95547443D01*
X170359605Y-96520000D01*
X170000395Y-96520000D01*
X169027837Y-95547443D01*
X168761035Y-95646042D01*
X168534599Y-96255582D01*
X155683695Y-96255582D01*
X156490735Y-95367837D01*
X169207443Y-95367837D01*
X170180000Y-96340395D01*
X171152557Y-95367837D01*
X171053958Y-95101035D01*
X170444418Y-94874599D01*
X169794623Y-94898659D01*
X169306042Y-95101035D01*
X169207443Y-95367837D01*
X156490735Y-95367837D01*
X159014075Y-92592163D01*
X169207443Y-92592163D01*
X169306042Y-92858965D01*
X169915582Y-93085401D01*
X170565377Y-93061341D01*
X171053958Y-92858965D01*
X171152557Y-92592163D01*
X170180000Y-91619605D01*
X169207443Y-92592163D01*
X159014075Y-92592163D01*
X160301877Y-91175582D01*
X168534599Y-91175582D01*
X168558659Y-91825377D01*
X168761035Y-92313958D01*
X169027837Y-92412557D01*
X170000395Y-91440000D01*
X170359605Y-91440000D01*
X171332163Y-92412557D01*
X171598965Y-92313958D01*
X171825401Y-91704418D01*
X171801341Y-91054623D01*
X171598965Y-90566042D01*
X171332163Y-90467443D01*
X170359605Y-91440000D01*
X170000395Y-91440000D01*
X169027837Y-90467443D01*
X168761035Y-90566042D01*
X168534599Y-91175582D01*
X160301877Y-91175582D01*
X160674847Y-90765316D01*
X160753185Y-90635061D01*
X160837633Y-90508675D01*
X160841802Y-90487714D01*
X160852817Y-90469400D01*
X160875348Y-90319072D01*
X160881560Y-90287837D01*
X169207443Y-90287837D01*
X170180000Y-91260395D01*
X171152557Y-90287837D01*
X171053958Y-90021035D01*
X170444418Y-89794599D01*
X169794623Y-89818659D01*
X169306042Y-90021035D01*
X169207443Y-90287837D01*
X160881560Y-90287837D01*
X160905000Y-90170000D01*
X160905000Y-87504171D01*
X161235824Y-87173923D01*
X161454750Y-86646691D01*
X161455248Y-86075813D01*
X161237243Y-85548200D01*
X160833923Y-85144176D01*
X160752069Y-85110187D01*
X160831800Y-85077243D01*
X161235824Y-84673923D01*
X161454750Y-84146691D01*
X161455248Y-83575813D01*
X161237243Y-83048200D01*
X160833923Y-82644176D01*
X160306691Y-82425250D01*
X159735813Y-82424752D01*
X159208200Y-82642757D01*
X158804176Y-83046077D01*
X158585250Y-83573309D01*
X158584752Y-84144187D01*
X158802757Y-84671800D01*
X159206077Y-85075824D01*
X159287931Y-85109813D01*
X159208200Y-85142757D01*
X158875377Y-85475000D01*
X158600144Y-85475000D01*
X158494698Y-85317189D01*
X158029151Y-85006120D01*
X157480000Y-84896887D01*
X156930849Y-85006120D01*
X156465302Y-85317189D01*
X156210000Y-85699275D01*
X155954698Y-85317189D01*
X155489151Y-85006120D01*
X154940000Y-84896887D01*
X154390849Y-85006120D01*
X153925302Y-85317189D01*
X153670000Y-85699275D01*
X153414698Y-85317189D01*
X152949151Y-85006120D01*
X152400000Y-84896887D01*
X151850849Y-85006120D01*
X151385302Y-85317189D01*
X151130000Y-85699275D01*
X150874698Y-85317189D01*
X150620000Y-85147005D01*
X150620000Y-84382463D01*
X150652192Y-84350327D01*
X150794838Y-84006799D01*
X150795162Y-83634833D01*
X150653117Y-83291057D01*
X150390327Y-83027808D01*
X150046799Y-82885162D01*
X149674833Y-82884838D01*
X149350000Y-83019056D01*
X149350000Y-80101668D01*
X149860000Y-80203113D01*
X150409151Y-80093880D01*
X150874698Y-79782811D01*
X151130000Y-79400725D01*
X151385302Y-79782811D01*
X151850849Y-80093880D01*
X152400000Y-80203113D01*
X152949151Y-80093880D01*
X153414698Y-79782811D01*
X153670000Y-79400725D01*
X153925302Y-79782811D01*
X154390849Y-80093880D01*
X154940000Y-80203113D01*
X155489151Y-80093880D01*
X155954698Y-79782811D01*
X156051101Y-79638535D01*
X156076838Y-79775317D01*
X156215910Y-79991441D01*
X156428110Y-80136431D01*
X156680000Y-80187440D01*
X158280000Y-80187440D01*
X158515317Y-80143162D01*
X158731441Y-80004090D01*
X158876431Y-79791890D01*
X158927440Y-79540000D01*
X158927440Y-77940000D01*
X158883162Y-77704683D01*
X158744090Y-77488559D01*
X158531890Y-77343569D01*
X158280000Y-77292560D01*
X156680000Y-77292560D01*
X156444683Y-77336838D01*
X156228559Y-77475910D01*
X156083569Y-77688110D01*
X156052185Y-77843089D01*
X155954698Y-77697189D01*
X155700000Y-77527005D01*
X155700000Y-77470000D01*
X155642148Y-77179161D01*
X155495710Y-76960000D01*
X159705198Y-76960000D01*
X178774115Y-96028917D01*
X178705794Y-96193453D01*
X178705226Y-96843694D01*
X178953538Y-97444655D01*
X179412927Y-97904846D01*
X180013453Y-98154206D01*
X180663694Y-98154774D01*
X181264655Y-97906462D01*
X181724846Y-97447073D01*
X181974206Y-96846547D01*
X181974774Y-96196306D01*
X181726462Y-95595345D01*
X181267073Y-95135154D01*
X180666547Y-94885794D01*
X180016306Y-94885226D01*
X179849111Y-94954309D01*
X160584802Y-75690000D01*
X160975198Y-75690000D01*
X177262599Y-91977401D01*
X177509161Y-92142148D01*
X177800000Y-92200000D01*
X178885504Y-92200000D01*
X178953538Y-92364655D01*
X179412927Y-92824846D01*
X180013453Y-93074206D01*
X180663694Y-93074774D01*
X181264655Y-92826462D01*
X181724846Y-92367073D01*
X181974206Y-91766547D01*
X181974343Y-91609145D01*
X182120000Y-91754802D01*
X182120000Y-98745198D01*
X180831083Y-100034115D01*
X180666547Y-99965794D01*
X180016306Y-99965226D01*
X179415345Y-100213538D01*
X178955154Y-100672927D01*
X178705794Y-101273453D01*
X178705226Y-101923694D01*
X178953538Y-102524655D01*
X179412927Y-102984846D01*
X180013453Y-103234206D01*
X180663694Y-103234774D01*
X181264655Y-102986462D01*
X181724846Y-102527073D01*
X181974206Y-101926547D01*
X181974774Y-101276306D01*
X181905691Y-101109111D01*
X182120000Y-100894802D01*
X182120000Y-125415198D01*
X178755198Y-128780000D01*
X103184802Y-128780000D01*
X101728496Y-127323694D01*
X127905226Y-127323694D01*
X128153538Y-127924655D01*
X128612927Y-128384846D01*
X129213453Y-128634206D01*
X129863694Y-128634774D01*
X130464655Y-128386462D01*
X130924846Y-127927073D01*
X131174206Y-127326547D01*
X131174208Y-127323694D01*
X138065226Y-127323694D01*
X138313538Y-127924655D01*
X138772927Y-128384846D01*
X139373453Y-128634206D01*
X140023694Y-128634774D01*
X140624655Y-128386462D01*
X141084846Y-127927073D01*
X141334206Y-127326547D01*
X141334774Y-126676306D01*
X141086462Y-126075345D01*
X140627073Y-125615154D01*
X140026547Y-125365794D01*
X139376306Y-125365226D01*
X138775345Y-125613538D01*
X138315154Y-126072927D01*
X138065794Y-126673453D01*
X138065226Y-127323694D01*
X131174208Y-127323694D01*
X131174774Y-126676306D01*
X130926462Y-126075345D01*
X130467073Y-125615154D01*
X129866547Y-125365794D01*
X129216306Y-125365226D01*
X128615345Y-125613538D01*
X128155154Y-126072927D01*
X127905794Y-126673453D01*
X127905226Y-127323694D01*
X101728496Y-127323694D01*
X99820000Y-125415198D01*
X99820000Y-123132995D01*
X100074698Y-122962811D01*
X100330000Y-122580725D01*
X100585302Y-122962811D01*
X101050849Y-123273880D01*
X101600000Y-123383113D01*
X102149151Y-123273880D01*
X102614698Y-122962811D01*
X102870000Y-122580725D01*
X103125302Y-122962811D01*
X103590849Y-123273880D01*
X104140000Y-123383113D01*
X104689151Y-123273880D01*
X105154698Y-122962811D01*
X105410000Y-122580725D01*
X105665302Y-122962811D01*
X106130849Y-123273880D01*
X106680000Y-123383113D01*
X107229151Y-123273880D01*
X107694698Y-122962811D01*
X107950000Y-122580725D01*
X108205302Y-122962811D01*
X108670849Y-123273880D01*
X109220000Y-123383113D01*
X109543886Y-123318688D01*
X111222599Y-124997401D01*
X111469160Y-125162148D01*
X111517414Y-125171746D01*
X111760000Y-125220000D01*
X167640000Y-125220000D01*
X167930839Y-125162148D01*
X168177401Y-124997401D01*
X171363076Y-121811726D01*
X171362758Y-122176661D01*
X171574990Y-122690303D01*
X171967630Y-123083629D01*
X172480900Y-123296757D01*
X173036661Y-123297242D01*
X173550303Y-123085010D01*
X173943629Y-122692370D01*
X174009900Y-122532772D01*
X174074990Y-122690303D01*
X174467630Y-123083629D01*
X174980900Y-123296757D01*
X175536661Y-123297242D01*
X176050303Y-123085010D01*
X176443629Y-122692370D01*
X176509900Y-122532772D01*
X176574990Y-122690303D01*
X176967630Y-123083629D01*
X177480900Y-123296757D01*
X178036661Y-123297242D01*
X178550303Y-123085010D01*
X178943629Y-122692370D01*
X179156757Y-122179100D01*
X179157242Y-121623339D01*
X178945010Y-121109697D01*
X178552370Y-120716371D01*
X178392772Y-120650100D01*
X178550303Y-120585010D01*
X178943629Y-120192370D01*
X179156757Y-119679100D01*
X179157242Y-119123339D01*
X178945010Y-118609697D01*
X178552370Y-118216371D01*
X178039100Y-118003243D01*
X177483339Y-118002758D01*
X176969697Y-118214990D01*
X176576371Y-118607630D01*
X176510100Y-118767228D01*
X176445010Y-118609697D01*
X176052370Y-118216371D01*
X175539100Y-118003243D01*
X174983339Y-118002758D01*
X174750000Y-118099171D01*
X174750000Y-115884802D01*
X174787362Y-115847440D01*
X176160000Y-115847440D01*
X176395317Y-115803162D01*
X176611441Y-115664090D01*
X176756431Y-115451890D01*
X176807440Y-115200000D01*
X176807440Y-113400000D01*
X176763162Y-113164683D01*
X176624090Y-112948559D01*
X176411890Y-112803569D01*
X176391466Y-112799433D01*
X176560551Y-112630643D01*
X176794733Y-112066670D01*
X176795265Y-111456009D01*
X176749515Y-111345287D01*
X179848917Y-108245885D01*
X180013453Y-108314206D01*
X180663694Y-108314774D01*
X181264655Y-108066462D01*
X181724846Y-107607073D01*
X181974206Y-107006547D01*
X181974774Y-106356306D01*
X181726462Y-105755345D01*
X181267073Y-105295154D01*
X180666547Y-105045794D01*
X180016306Y-105045226D01*
X179415345Y-105293538D01*
X178955154Y-105752927D01*
X178705794Y-106353453D01*
X178705226Y-107003694D01*
X178774309Y-107170889D01*
X175674964Y-110270234D01*
X175566670Y-110225267D01*
X174956009Y-110224735D01*
X174391629Y-110457932D01*
X173959449Y-110889357D01*
X173725267Y-111453330D01*
X173724735Y-112063991D01*
X173957932Y-112628371D01*
X174125880Y-112796613D01*
X174124683Y-112796838D01*
X173908559Y-112935910D01*
X173763569Y-113148110D01*
X173712560Y-113400000D01*
X173712560Y-114772638D01*
X173452599Y-115032599D01*
X173287852Y-115279161D01*
X173230000Y-115570000D01*
X173230000Y-118082511D01*
X173039100Y-118003243D01*
X172483339Y-118002758D01*
X171969697Y-118214990D01*
X171576371Y-118607630D01*
X171363243Y-119120900D01*
X171362770Y-119662428D01*
X167325198Y-123700000D01*
X156349171Y-123700000D01*
X156748909Y-123300959D01*
X157074628Y-122516541D01*
X157075370Y-121667185D01*
X156751020Y-120882200D01*
X156150959Y-120281091D01*
X155366541Y-119955372D01*
X154517185Y-119954630D01*
X153732200Y-120278980D01*
X153131091Y-120879041D01*
X152805372Y-121663459D01*
X152804630Y-122512815D01*
X153128980Y-123297800D01*
X153530479Y-123700000D01*
X118674802Y-123700000D01*
X119474589Y-122900213D01*
X123659392Y-122900213D01*
X123728857Y-123142397D01*
X124252302Y-123329144D01*
X124807368Y-123301362D01*
X125191143Y-123142397D01*
X125260608Y-122900213D01*
X124460000Y-122099605D01*
X123659392Y-122900213D01*
X119474589Y-122900213D01*
X119917401Y-122457401D01*
X120082148Y-122210840D01*
X120104274Y-122099605D01*
X120140000Y-121920000D01*
X120140000Y-121712302D01*
X123050856Y-121712302D01*
X123078638Y-122267368D01*
X123237603Y-122651143D01*
X123479787Y-122720608D01*
X124280395Y-121920000D01*
X124639605Y-121920000D01*
X125440213Y-122720608D01*
X125682397Y-122651143D01*
X125827760Y-122243694D01*
X127905226Y-122243694D01*
X128153538Y-122844655D01*
X128612927Y-123304846D01*
X129213453Y-123554206D01*
X129863694Y-123554774D01*
X130464655Y-123306462D01*
X130924846Y-122847073D01*
X131174206Y-122246547D01*
X131174774Y-121596306D01*
X130926462Y-120995345D01*
X130467073Y-120535154D01*
X129866547Y-120285794D01*
X129216306Y-120285226D01*
X128615345Y-120533538D01*
X128155154Y-120992927D01*
X127905794Y-121593453D01*
X127905226Y-122243694D01*
X125827760Y-122243694D01*
X125869144Y-122127698D01*
X125841362Y-121572632D01*
X125682397Y-121188857D01*
X125440213Y-121119392D01*
X124639605Y-121920000D01*
X124280395Y-121920000D01*
X123479787Y-121119392D01*
X123237603Y-121188857D01*
X123050856Y-121712302D01*
X120140000Y-121712302D01*
X120140000Y-117116661D01*
X123062758Y-117116661D01*
X123274990Y-117630303D01*
X123667630Y-118023629D01*
X123875512Y-118109949D01*
X123669697Y-118194990D01*
X123276371Y-118587630D01*
X123063243Y-119100900D01*
X123062758Y-119656661D01*
X123274990Y-120170303D01*
X123667630Y-120563629D01*
X123859727Y-120643395D01*
X123728857Y-120697603D01*
X123659392Y-120939787D01*
X124460000Y-121740395D01*
X125260608Y-120939787D01*
X125191143Y-120697603D01*
X125050682Y-120647491D01*
X125250303Y-120565010D01*
X125643629Y-120172370D01*
X125856757Y-119659100D01*
X125857242Y-119103339D01*
X125645010Y-118589697D01*
X125252370Y-118196371D01*
X125044488Y-118110051D01*
X125250303Y-118025010D01*
X125643629Y-117632370D01*
X125853995Y-117125750D01*
X128005000Y-117125750D01*
X128005000Y-117866310D01*
X128101673Y-118099699D01*
X128280302Y-118278327D01*
X128513691Y-118375000D01*
X129254250Y-118375000D01*
X129413000Y-118216250D01*
X129413000Y-116967000D01*
X129667000Y-116967000D01*
X129667000Y-118216250D01*
X129825750Y-118375000D01*
X130566309Y-118375000D01*
X130799698Y-118278327D01*
X130978327Y-118099699D01*
X131075000Y-117866310D01*
X131075000Y-117125750D01*
X130916250Y-116967000D01*
X129667000Y-116967000D01*
X129413000Y-116967000D01*
X128163750Y-116967000D01*
X128005000Y-117125750D01*
X125853995Y-117125750D01*
X125856757Y-117119100D01*
X125857242Y-116563339D01*
X125645010Y-116049697D01*
X125409415Y-115813690D01*
X128005000Y-115813690D01*
X128005000Y-116554250D01*
X128163750Y-116713000D01*
X129413000Y-116713000D01*
X129413000Y-115463750D01*
X129667000Y-115463750D01*
X129667000Y-116713000D01*
X130916250Y-116713000D01*
X131075000Y-116554250D01*
X131075000Y-115813690D01*
X130978327Y-115580301D01*
X130799698Y-115401673D01*
X130566309Y-115305000D01*
X129825750Y-115305000D01*
X129667000Y-115463750D01*
X129413000Y-115463750D01*
X129254250Y-115305000D01*
X128513691Y-115305000D01*
X128280302Y-115401673D01*
X128101673Y-115580301D01*
X128005000Y-115813690D01*
X125409415Y-115813690D01*
X125252370Y-115656371D01*
X124739100Y-115443243D01*
X124183339Y-115442758D01*
X123669697Y-115654990D01*
X123276371Y-116047630D01*
X123063243Y-116560900D01*
X123062758Y-117116661D01*
X120140000Y-117116661D01*
X120140000Y-106956661D01*
X123062758Y-106956661D01*
X123274990Y-107470303D01*
X123667630Y-107863629D01*
X123875512Y-107949949D01*
X123669697Y-108034990D01*
X123276371Y-108427630D01*
X123063243Y-108940900D01*
X123062758Y-109496661D01*
X123274990Y-110010303D01*
X123667630Y-110403629D01*
X123875512Y-110489949D01*
X123669697Y-110574990D01*
X123276371Y-110967630D01*
X123063243Y-111480900D01*
X123062758Y-112036661D01*
X123274990Y-112550303D01*
X123667630Y-112943629D01*
X124180900Y-113156757D01*
X124736661Y-113157242D01*
X125250303Y-112945010D01*
X125643629Y-112552370D01*
X125856757Y-112039100D01*
X125857060Y-111691862D01*
X129002599Y-114837401D01*
X129249161Y-115002148D01*
X129540000Y-115060000D01*
X131765198Y-115060000D01*
X138134115Y-121428917D01*
X138065794Y-121593453D01*
X138065226Y-122243694D01*
X138313538Y-122844655D01*
X138772927Y-123304846D01*
X139373453Y-123554206D01*
X140023694Y-123554774D01*
X140624655Y-123306462D01*
X141084846Y-122847073D01*
X141334206Y-122246547D01*
X141334774Y-121596306D01*
X141086462Y-120995345D01*
X140627073Y-120535154D01*
X140026547Y-120285794D01*
X139376306Y-120285226D01*
X139209111Y-120354309D01*
X132617401Y-113762599D01*
X132370839Y-113597852D01*
X132080000Y-113540000D01*
X129854802Y-113540000D01*
X129709441Y-113394639D01*
X129863694Y-113394774D01*
X130464655Y-113146462D01*
X130924846Y-112687073D01*
X131174206Y-112086547D01*
X131174208Y-112083694D01*
X138065226Y-112083694D01*
X138313538Y-112684655D01*
X138772927Y-113144846D01*
X138940000Y-113214221D01*
X138940000Y-115517066D01*
X138584519Y-115754591D01*
X138251773Y-116252581D01*
X138134928Y-116840000D01*
X138251773Y-117427419D01*
X138584519Y-117925409D01*
X139082509Y-118258155D01*
X139669928Y-118375000D01*
X139730072Y-118375000D01*
X140317491Y-118258155D01*
X140815481Y-117925409D01*
X141148227Y-117427419D01*
X141265072Y-116840000D01*
X141148227Y-116252581D01*
X140815481Y-115754591D01*
X140460000Y-115517066D01*
X140460000Y-113214496D01*
X140624655Y-113146462D01*
X141084846Y-112687073D01*
X141334206Y-112086547D01*
X141334774Y-111436306D01*
X141086462Y-110835345D01*
X140627073Y-110375154D01*
X140026547Y-110125794D01*
X139376306Y-110125226D01*
X138775345Y-110373538D01*
X138315154Y-110832927D01*
X138065794Y-111433453D01*
X138065226Y-112083694D01*
X131174208Y-112083694D01*
X131174774Y-111436306D01*
X130926462Y-110835345D01*
X130467073Y-110375154D01*
X130300000Y-110305779D01*
X130300000Y-108134496D01*
X130464655Y-108066462D01*
X130924846Y-107607073D01*
X131174206Y-107006547D01*
X131174208Y-107003694D01*
X138065226Y-107003694D01*
X138313538Y-107604655D01*
X138772927Y-108064846D01*
X139373453Y-108314206D01*
X140023694Y-108314774D01*
X140624655Y-108066462D01*
X140859363Y-107832163D01*
X169207443Y-107832163D01*
X169306042Y-108098965D01*
X169915582Y-108325401D01*
X170565377Y-108301341D01*
X171053958Y-108098965D01*
X171152557Y-107832163D01*
X170180000Y-106859605D01*
X169207443Y-107832163D01*
X140859363Y-107832163D01*
X141084846Y-107607073D01*
X141334206Y-107006547D01*
X141334722Y-106415582D01*
X168534599Y-106415582D01*
X168558659Y-107065377D01*
X168761035Y-107553958D01*
X169027837Y-107652557D01*
X170000395Y-106680000D01*
X170359605Y-106680000D01*
X171332163Y-107652557D01*
X171598965Y-107553958D01*
X171825401Y-106944418D01*
X171801341Y-106294623D01*
X171598965Y-105806042D01*
X171332163Y-105707443D01*
X170359605Y-106680000D01*
X170000395Y-106680000D01*
X169027837Y-105707443D01*
X168761035Y-105806042D01*
X168534599Y-106415582D01*
X141334722Y-106415582D01*
X141334774Y-106356306D01*
X141086462Y-105755345D01*
X140859351Y-105527837D01*
X169207443Y-105527837D01*
X170180000Y-106500395D01*
X171152557Y-105527837D01*
X171053958Y-105261035D01*
X170444418Y-105034599D01*
X169794623Y-105058659D01*
X169306042Y-105261035D01*
X169207443Y-105527837D01*
X140859351Y-105527837D01*
X140627073Y-105295154D01*
X140026547Y-105045794D01*
X139376306Y-105045226D01*
X138775345Y-105293538D01*
X138315154Y-105752927D01*
X138065794Y-106353453D01*
X138065226Y-107003694D01*
X131174208Y-107003694D01*
X131174774Y-106356306D01*
X130926462Y-105755345D01*
X130467073Y-105295154D01*
X129866547Y-105045794D01*
X129216306Y-105045226D01*
X128615345Y-105293538D01*
X128155154Y-105752927D01*
X127905794Y-106353453D01*
X127905226Y-107003694D01*
X128153538Y-107604655D01*
X128612927Y-108064846D01*
X128780000Y-108134221D01*
X128780000Y-110305504D01*
X128615345Y-110373538D01*
X128155154Y-110832927D01*
X127905794Y-111433453D01*
X127905657Y-111590855D01*
X125844183Y-109529381D01*
X125856757Y-109499100D01*
X125857242Y-108943339D01*
X125645010Y-108429697D01*
X125252370Y-108036371D01*
X125044488Y-107950051D01*
X125250303Y-107865010D01*
X125643629Y-107472370D01*
X125856757Y-106959100D01*
X125857242Y-106403339D01*
X125645010Y-105889697D01*
X125252370Y-105496371D01*
X124739100Y-105283243D01*
X124183339Y-105282758D01*
X123669697Y-105494990D01*
X123276371Y-105887630D01*
X123063243Y-106400900D01*
X123062758Y-106956661D01*
X120140000Y-106956661D01*
X120140000Y-80810633D01*
X120463201Y-80944838D01*
X120835167Y-80945162D01*
X121178943Y-80803117D01*
X121442192Y-80540327D01*
X121584838Y-80196799D01*
X121585162Y-79824833D01*
X121443117Y-79481057D01*
X121410000Y-79447882D01*
X121410000Y-77470000D01*
X121352148Y-77179161D01*
X121187401Y-76932599D01*
X115060000Y-70805198D01*
X115060000Y-69869262D01*
X115359670Y-69669029D01*
X115570000Y-69354248D01*
X115780330Y-69669029D01*
X115780330Y-69669029D01*
G37*
X115780330Y-69669029D02*
X116080000Y-69869262D01*
X116080000Y-71120000D01*
X116137852Y-71410839D01*
X116302599Y-71657401D01*
X122430000Y-77784802D01*
X122430000Y-85090000D01*
X122487852Y-85380839D01*
X122652599Y-85627401D01*
X123080096Y-86054898D01*
X123025000Y-86331887D01*
X123025000Y-86388113D01*
X123134233Y-86937264D01*
X123445302Y-87402811D01*
X123910849Y-87713880D01*
X124460000Y-87823113D01*
X125009151Y-87713880D01*
X125474698Y-87402811D01*
X125730000Y-87020725D01*
X125985302Y-87402811D01*
X126450849Y-87713880D01*
X127000000Y-87823113D01*
X127549151Y-87713880D01*
X128014698Y-87402811D01*
X128270000Y-87020725D01*
X128525302Y-87402811D01*
X128990849Y-87713880D01*
X129540000Y-87823113D01*
X130089151Y-87713880D01*
X130554698Y-87402811D01*
X130810000Y-87020725D01*
X131065302Y-87402811D01*
X131530849Y-87713880D01*
X132080000Y-87823113D01*
X132629151Y-87713880D01*
X133094698Y-87402811D01*
X133350000Y-87020725D01*
X133605302Y-87402811D01*
X134070849Y-87713880D01*
X134620000Y-87823113D01*
X135169151Y-87713880D01*
X135634698Y-87402811D01*
X135890000Y-87020725D01*
X136145302Y-87402811D01*
X136400000Y-87572995D01*
X136400000Y-88337537D01*
X136367808Y-88369673D01*
X136225162Y-88713201D01*
X136224838Y-89085167D01*
X136366883Y-89428943D01*
X136629673Y-89692192D01*
X136973201Y-89834838D01*
X137345167Y-89835162D01*
X137688943Y-89693117D01*
X137952192Y-89430327D01*
X138094838Y-89086799D01*
X138095162Y-88714833D01*
X137953117Y-88371057D01*
X137920000Y-88337882D01*
X137920000Y-87572995D01*
X138174698Y-87402811D01*
X138430000Y-87020725D01*
X138685302Y-87402811D01*
X139150849Y-87713880D01*
X139700000Y-87823113D01*
X140249151Y-87713880D01*
X140714698Y-87402811D01*
X140970000Y-87020725D01*
X141225302Y-87402811D01*
X141480000Y-87572995D01*
X141480000Y-89607537D01*
X141447808Y-89639673D01*
X141305162Y-89983201D01*
X141304838Y-90355167D01*
X141446883Y-90698943D01*
X141709673Y-90962192D01*
X142053201Y-91104838D01*
X142425167Y-91105162D01*
X142768943Y-90963117D01*
X143032192Y-90700327D01*
X143174838Y-90356799D01*
X143175162Y-89984833D01*
X143033117Y-89641057D01*
X143000000Y-89607882D01*
X143000000Y-87572995D01*
X143254698Y-87402811D01*
X143510000Y-87020725D01*
X143765302Y-87402811D01*
X144230849Y-87713880D01*
X144780000Y-87823113D01*
X145290000Y-87721668D01*
X145290000Y-93417537D01*
X145257808Y-93449673D01*
X145115162Y-93793201D01*
X145114838Y-94165167D01*
X145256883Y-94508943D01*
X145519673Y-94772192D01*
X145863201Y-94914838D01*
X146235167Y-94915162D01*
X146578943Y-94773117D01*
X146842192Y-94510327D01*
X146984838Y-94166799D01*
X146985162Y-93794833D01*
X146843117Y-93451057D01*
X146810000Y-93417882D01*
X146810000Y-87721668D01*
X147320000Y-87823113D01*
X147830000Y-87721668D01*
X147830000Y-90877537D01*
X147797808Y-90909673D01*
X147655162Y-91253201D01*
X147654838Y-91625167D01*
X147796883Y-91968943D01*
X148059673Y-92232192D01*
X148403201Y-92374838D01*
X148775167Y-92375162D01*
X149118943Y-92233117D01*
X149382192Y-91970327D01*
X149524838Y-91626799D01*
X149525162Y-91254833D01*
X149383117Y-90911057D01*
X149350000Y-90877882D01*
X149350000Y-87721668D01*
X149860000Y-87823113D01*
X150409151Y-87713880D01*
X150874698Y-87402811D01*
X151130000Y-87020725D01*
X151385302Y-87402811D01*
X151640000Y-87572995D01*
X151640000Y-91154442D01*
X143165136Y-100840000D01*
X141154496Y-100840000D01*
X141086462Y-100675345D01*
X140627073Y-100215154D01*
X140026547Y-99965794D01*
X139376306Y-99965226D01*
X138775345Y-100213538D01*
X138315154Y-100672927D01*
X138065794Y-101273453D01*
X138065226Y-101923694D01*
X138313538Y-102524655D01*
X138772927Y-102984846D01*
X139373453Y-103234206D01*
X140023694Y-103234774D01*
X140624655Y-102986462D01*
X141084846Y-102527073D01*
X141154221Y-102360000D01*
X143510000Y-102360000D01*
X143535138Y-102355000D01*
X143560554Y-102358317D01*
X143679761Y-102326232D01*
X143800839Y-102302148D01*
X143822152Y-102287907D01*
X143846901Y-102281246D01*
X143944755Y-102205987D01*
X144047401Y-102137401D01*
X144061640Y-102116090D01*
X144081958Y-102100464D01*
X152971958Y-91940464D01*
X153033565Y-91833481D01*
X153102148Y-91730839D01*
X153107148Y-91705700D01*
X153119939Y-91683489D01*
X153135915Y-91561084D01*
X153160000Y-91440000D01*
X153160000Y-87572995D01*
X153414698Y-87402811D01*
X153670000Y-87020725D01*
X153925302Y-87402811D01*
X154180000Y-87572995D01*
X154180000Y-92147537D01*
X154147808Y-92179673D01*
X154005162Y-92523201D01*
X154004838Y-92895167D01*
X154146883Y-93238943D01*
X154409673Y-93502192D01*
X154753201Y-93644838D01*
X155125167Y-93645162D01*
X155468943Y-93503117D01*
X155732192Y-93240327D01*
X155874838Y-92896799D01*
X155875162Y-92524833D01*
X155733117Y-92181057D01*
X155700000Y-92147882D01*
X155700000Y-87572995D01*
X155954698Y-87402811D01*
X156210000Y-87020725D01*
X156465302Y-87402811D01*
X156930849Y-87713880D01*
X157480000Y-87823113D01*
X158029151Y-87713880D01*
X158494698Y-87402811D01*
X158600144Y-87245000D01*
X158875829Y-87245000D01*
X159135000Y-87504623D01*
X159135000Y-89827853D01*
X146928503Y-103255000D01*
X132446579Y-103255000D01*
X131157752Y-101966172D01*
X131174206Y-101926547D01*
X131174774Y-101276306D01*
X130926462Y-100675345D01*
X130467073Y-100215154D01*
X130425000Y-100197684D01*
X130425000Y-98067440D01*
X130440000Y-98067440D01*
X130675317Y-98023162D01*
X130891441Y-97884090D01*
X131036431Y-97671890D01*
X131087440Y-97420000D01*
X131087440Y-96520000D01*
X138134928Y-96520000D01*
X138251773Y-97107419D01*
X138584519Y-97605409D01*
X139082509Y-97938155D01*
X139669928Y-98055000D01*
X139730072Y-98055000D01*
X140317491Y-97938155D01*
X140815481Y-97605409D01*
X141148227Y-97107419D01*
X141265072Y-96520000D01*
X141148227Y-95932581D01*
X140815481Y-95434591D01*
X140317491Y-95101845D01*
X139730072Y-94985000D01*
X139669928Y-94985000D01*
X139082509Y-95101845D01*
X138584519Y-95434591D01*
X138251773Y-95932581D01*
X138134928Y-96520000D01*
X131087440Y-96520000D01*
X131087440Y-95620000D01*
X131043162Y-95384683D01*
X130904090Y-95168559D01*
X130691890Y-95023569D01*
X130440000Y-94972560D01*
X128640000Y-94972560D01*
X128404683Y-95016838D01*
X128188559Y-95155910D01*
X128043569Y-95368110D01*
X127992560Y-95620000D01*
X127992560Y-97420000D01*
X128036838Y-97655317D01*
X128175910Y-97871441D01*
X128388110Y-98016431D01*
X128640000Y-98067440D01*
X128655000Y-98067440D01*
X128655000Y-100197153D01*
X128615345Y-100213538D01*
X128155154Y-100672927D01*
X127905794Y-101273453D01*
X127905226Y-101923694D01*
X128153538Y-102524655D01*
X128612927Y-102984846D01*
X129213453Y-103234206D01*
X129863694Y-103234774D01*
X129905798Y-103217377D01*
X131454208Y-104765787D01*
X131454210Y-104765790D01*
X131741325Y-104957633D01*
X132080000Y-105025000D01*
X147320000Y-105025000D01*
X147340958Y-105020831D01*
X147362095Y-105023999D01*
X147509608Y-104987285D01*
X147658675Y-104957633D01*
X147676443Y-104945761D01*
X147697182Y-104940599D01*
X147819398Y-104850242D01*
X147945790Y-104765790D01*
X147957665Y-104748018D01*
X147974847Y-104735315D01*
X152188770Y-100100000D01*
X152792560Y-100100000D01*
X152792560Y-103100000D01*
X152836838Y-103335317D01*
X152975910Y-103551441D01*
X153188110Y-103696431D01*
X153440000Y-103747440D01*
X156440000Y-103747440D01*
X156675317Y-103703162D01*
X156891441Y-103564090D01*
X157036431Y-103351890D01*
X157087440Y-103100000D01*
X157087440Y-102752163D01*
X169207443Y-102752163D01*
X169306042Y-103018965D01*
X169915582Y-103245401D01*
X170565377Y-103221341D01*
X171053958Y-103018965D01*
X171152557Y-102752163D01*
X170180000Y-101779605D01*
X169207443Y-102752163D01*
X157087440Y-102752163D01*
X157087440Y-101335582D01*
X168534599Y-101335582D01*
X168558659Y-101985377D01*
X168761035Y-102473958D01*
X169027837Y-102572557D01*
X170000395Y-101600000D01*
X170359605Y-101600000D01*
X171332163Y-102572557D01*
X171598965Y-102473958D01*
X171825401Y-101864418D01*
X171801341Y-101214623D01*
X171598965Y-100726042D01*
X171332163Y-100627443D01*
X170359605Y-101600000D01*
X170000395Y-101600000D01*
X169027837Y-100627443D01*
X168761035Y-100726042D01*
X168534599Y-101335582D01*
X157087440Y-101335582D01*
X157087440Y-100447837D01*
X169207443Y-100447837D01*
X170180000Y-101420395D01*
X171152557Y-100447837D01*
X171053958Y-100181035D01*
X170444418Y-99954599D01*
X169794623Y-99978659D01*
X169306042Y-100181035D01*
X169207443Y-100447837D01*
X157087440Y-100447837D01*
X157087440Y-100100000D01*
X157043162Y-99864683D01*
X156904090Y-99648559D01*
X156691890Y-99503569D01*
X156440000Y-99452560D01*
X153440000Y-99452560D01*
X153204683Y-99496838D01*
X152988559Y-99635910D01*
X152843569Y-99848110D01*
X152792560Y-100100000D01*
X152188770Y-100100000D01*
X154395894Y-97672163D01*
X169207443Y-97672163D01*
X169306042Y-97938965D01*
X169915582Y-98165401D01*
X170565377Y-98141341D01*
X171053958Y-97938965D01*
X171152557Y-97672163D01*
X170180000Y-96699605D01*
X169207443Y-97672163D01*
X154395894Y-97672163D01*
X155683695Y-96255582D01*
X168534599Y-96255582D01*
X168558659Y-96905377D01*
X168761035Y-97393958D01*
X169027837Y-97492557D01*
X170000395Y-96520000D01*
X170359605Y-96520000D01*
X171332163Y-97492557D01*
X171598965Y-97393958D01*
X171825401Y-96784418D01*
X171801341Y-96134623D01*
X171598965Y-95646042D01*
X171332163Y-95547443D01*
X170359605Y-96520000D01*
X170000395Y-96520000D01*
X169027837Y-95547443D01*
X168761035Y-95646042D01*
X168534599Y-96255582D01*
X155683695Y-96255582D01*
X156490735Y-95367837D01*
X169207443Y-95367837D01*
X170180000Y-96340395D01*
X171152557Y-95367837D01*
X171053958Y-95101035D01*
X170444418Y-94874599D01*
X169794623Y-94898659D01*
X169306042Y-95101035D01*
X169207443Y-95367837D01*
X156490735Y-95367837D01*
X159014075Y-92592163D01*
X169207443Y-92592163D01*
X169306042Y-92858965D01*
X169915582Y-93085401D01*
X170565377Y-93061341D01*
X171053958Y-92858965D01*
X171152557Y-92592163D01*
X170180000Y-91619605D01*
X169207443Y-92592163D01*
X159014075Y-92592163D01*
X160301877Y-91175582D01*
X168534599Y-91175582D01*
X168558659Y-91825377D01*
X168761035Y-92313958D01*
X169027837Y-92412557D01*
X170000395Y-91440000D01*
X170359605Y-91440000D01*
X171332163Y-92412557D01*
X171598965Y-92313958D01*
X171825401Y-91704418D01*
X171801341Y-91054623D01*
X171598965Y-90566042D01*
X171332163Y-90467443D01*
X170359605Y-91440000D01*
X170000395Y-91440000D01*
X169027837Y-90467443D01*
X168761035Y-90566042D01*
X168534599Y-91175582D01*
X160301877Y-91175582D01*
X160674847Y-90765316D01*
X160753185Y-90635061D01*
X160837633Y-90508675D01*
X160841802Y-90487714D01*
X160852817Y-90469400D01*
X160875348Y-90319072D01*
X160881560Y-90287837D01*
X169207443Y-90287837D01*
X170180000Y-91260395D01*
X171152557Y-90287837D01*
X171053958Y-90021035D01*
X170444418Y-89794599D01*
X169794623Y-89818659D01*
X169306042Y-90021035D01*
X169207443Y-90287837D01*
X160881560Y-90287837D01*
X160905000Y-90170000D01*
X160905000Y-87504171D01*
X161235824Y-87173923D01*
X161454750Y-86646691D01*
X161455248Y-86075813D01*
X161237243Y-85548200D01*
X160833923Y-85144176D01*
X160752069Y-85110187D01*
X160831800Y-85077243D01*
X161235824Y-84673923D01*
X161454750Y-84146691D01*
X161455248Y-83575813D01*
X161237243Y-83048200D01*
X160833923Y-82644176D01*
X160306691Y-82425250D01*
X159735813Y-82424752D01*
X159208200Y-82642757D01*
X158804176Y-83046077D01*
X158585250Y-83573309D01*
X158584752Y-84144187D01*
X158802757Y-84671800D01*
X159206077Y-85075824D01*
X159287931Y-85109813D01*
X159208200Y-85142757D01*
X158875377Y-85475000D01*
X158600144Y-85475000D01*
X158494698Y-85317189D01*
X158029151Y-85006120D01*
X157480000Y-84896887D01*
X156930849Y-85006120D01*
X156465302Y-85317189D01*
X156210000Y-85699275D01*
X155954698Y-85317189D01*
X155489151Y-85006120D01*
X154940000Y-84896887D01*
X154390849Y-85006120D01*
X153925302Y-85317189D01*
X153670000Y-85699275D01*
X153414698Y-85317189D01*
X152949151Y-85006120D01*
X152400000Y-84896887D01*
X151850849Y-85006120D01*
X151385302Y-85317189D01*
X151130000Y-85699275D01*
X150874698Y-85317189D01*
X150620000Y-85147005D01*
X150620000Y-84382463D01*
X150652192Y-84350327D01*
X150794838Y-84006799D01*
X150795162Y-83634833D01*
X150653117Y-83291057D01*
X150390327Y-83027808D01*
X150046799Y-82885162D01*
X149674833Y-82884838D01*
X149350000Y-83019056D01*
X149350000Y-80101668D01*
X149860000Y-80203113D01*
X150409151Y-80093880D01*
X150874698Y-79782811D01*
X151130000Y-79400725D01*
X151385302Y-79782811D01*
X151850849Y-80093880D01*
X152400000Y-80203113D01*
X152949151Y-80093880D01*
X153414698Y-79782811D01*
X153670000Y-79400725D01*
X153925302Y-79782811D01*
X154390849Y-80093880D01*
X154940000Y-80203113D01*
X155489151Y-80093880D01*
X155954698Y-79782811D01*
X156051101Y-79638535D01*
X156076838Y-79775317D01*
X156215910Y-79991441D01*
X156428110Y-80136431D01*
X156680000Y-80187440D01*
X158280000Y-80187440D01*
X158515317Y-80143162D01*
X158731441Y-80004090D01*
X158876431Y-79791890D01*
X158927440Y-79540000D01*
X158927440Y-77940000D01*
X158883162Y-77704683D01*
X158744090Y-77488559D01*
X158531890Y-77343569D01*
X158280000Y-77292560D01*
X156680000Y-77292560D01*
X156444683Y-77336838D01*
X156228559Y-77475910D01*
X156083569Y-77688110D01*
X156052185Y-77843089D01*
X155954698Y-77697189D01*
X155700000Y-77527005D01*
X155700000Y-77470000D01*
X155642148Y-77179161D01*
X155495710Y-76960000D01*
X159705198Y-76960000D01*
X178774115Y-96028917D01*
X178705794Y-96193453D01*
X178705226Y-96843694D01*
X178953538Y-97444655D01*
X179412927Y-97904846D01*
X180013453Y-98154206D01*
X180663694Y-98154774D01*
X181264655Y-97906462D01*
X181724846Y-97447073D01*
X181974206Y-96846547D01*
X181974774Y-96196306D01*
X181726462Y-95595345D01*
X181267073Y-95135154D01*
X180666547Y-94885794D01*
X180016306Y-94885226D01*
X179849111Y-94954309D01*
X160584802Y-75690000D01*
X160975198Y-75690000D01*
X177262599Y-91977401D01*
X177509161Y-92142148D01*
X177800000Y-92200000D01*
X178885504Y-92200000D01*
X178953538Y-92364655D01*
X179412927Y-92824846D01*
X180013453Y-93074206D01*
X180663694Y-93074774D01*
X181264655Y-92826462D01*
X181724846Y-92367073D01*
X181974206Y-91766547D01*
X181974343Y-91609145D01*
X182120000Y-91754802D01*
X182120000Y-98745198D01*
X180831083Y-100034115D01*
X180666547Y-99965794D01*
X180016306Y-99965226D01*
X179415345Y-100213538D01*
X178955154Y-100672927D01*
X178705794Y-101273453D01*
X178705226Y-101923694D01*
X178953538Y-102524655D01*
X179412927Y-102984846D01*
X180013453Y-103234206D01*
X180663694Y-103234774D01*
X181264655Y-102986462D01*
X181724846Y-102527073D01*
X181974206Y-101926547D01*
X181974774Y-101276306D01*
X181905691Y-101109111D01*
X182120000Y-100894802D01*
X182120000Y-125415198D01*
X178755198Y-128780000D01*
X103184802Y-128780000D01*
X101728496Y-127323694D01*
X127905226Y-127323694D01*
X128153538Y-127924655D01*
X128612927Y-128384846D01*
X129213453Y-128634206D01*
X129863694Y-128634774D01*
X130464655Y-128386462D01*
X130924846Y-127927073D01*
X131174206Y-127326547D01*
X131174208Y-127323694D01*
X138065226Y-127323694D01*
X138313538Y-127924655D01*
X138772927Y-128384846D01*
X139373453Y-128634206D01*
X140023694Y-128634774D01*
X140624655Y-128386462D01*
X141084846Y-127927073D01*
X141334206Y-127326547D01*
X141334774Y-126676306D01*
X141086462Y-126075345D01*
X140627073Y-125615154D01*
X140026547Y-125365794D01*
X139376306Y-125365226D01*
X138775345Y-125613538D01*
X138315154Y-126072927D01*
X138065794Y-126673453D01*
X138065226Y-127323694D01*
X131174208Y-127323694D01*
X131174774Y-126676306D01*
X130926462Y-126075345D01*
X130467073Y-125615154D01*
X129866547Y-125365794D01*
X129216306Y-125365226D01*
X128615345Y-125613538D01*
X128155154Y-126072927D01*
X127905794Y-126673453D01*
X127905226Y-127323694D01*
X101728496Y-127323694D01*
X99820000Y-125415198D01*
X99820000Y-123132995D01*
X100074698Y-122962811D01*
X100330000Y-122580725D01*
X100585302Y-122962811D01*
X101050849Y-123273880D01*
X101600000Y-123383113D01*
X102149151Y-123273880D01*
X102614698Y-122962811D01*
X102870000Y-122580725D01*
X103125302Y-122962811D01*
X103590849Y-123273880D01*
X104140000Y-123383113D01*
X104689151Y-123273880D01*
X105154698Y-122962811D01*
X105410000Y-122580725D01*
X105665302Y-122962811D01*
X106130849Y-123273880D01*
X106680000Y-123383113D01*
X107229151Y-123273880D01*
X107694698Y-122962811D01*
X107950000Y-122580725D01*
X108205302Y-122962811D01*
X108670849Y-123273880D01*
X109220000Y-123383113D01*
X109543886Y-123318688D01*
X111222599Y-124997401D01*
X111469160Y-125162148D01*
X111517414Y-125171746D01*
X111760000Y-125220000D01*
X167640000Y-125220000D01*
X167930839Y-125162148D01*
X168177401Y-124997401D01*
X171363076Y-121811726D01*
X171362758Y-122176661D01*
X171574990Y-122690303D01*
X171967630Y-123083629D01*
X172480900Y-123296757D01*
X173036661Y-123297242D01*
X173550303Y-123085010D01*
X173943629Y-122692370D01*
X174009900Y-122532772D01*
X174074990Y-122690303D01*
X174467630Y-123083629D01*
X174980900Y-123296757D01*
X175536661Y-123297242D01*
X176050303Y-123085010D01*
X176443629Y-122692370D01*
X176509900Y-122532772D01*
X176574990Y-122690303D01*
X176967630Y-123083629D01*
X177480900Y-123296757D01*
X178036661Y-123297242D01*
X178550303Y-123085010D01*
X178943629Y-122692370D01*
X179156757Y-122179100D01*
X179157242Y-121623339D01*
X178945010Y-121109697D01*
X178552370Y-120716371D01*
X178392772Y-120650100D01*
X178550303Y-120585010D01*
X178943629Y-120192370D01*
X179156757Y-119679100D01*
X179157242Y-119123339D01*
X178945010Y-118609697D01*
X178552370Y-118216371D01*
X178039100Y-118003243D01*
X177483339Y-118002758D01*
X176969697Y-118214990D01*
X176576371Y-118607630D01*
X176510100Y-118767228D01*
X176445010Y-118609697D01*
X176052370Y-118216371D01*
X175539100Y-118003243D01*
X174983339Y-118002758D01*
X174750000Y-118099171D01*
X174750000Y-115884802D01*
X174787362Y-115847440D01*
X176160000Y-115847440D01*
X176395317Y-115803162D01*
X176611441Y-115664090D01*
X176756431Y-115451890D01*
X176807440Y-115200000D01*
X176807440Y-113400000D01*
X176763162Y-113164683D01*
X176624090Y-112948559D01*
X176411890Y-112803569D01*
X176391466Y-112799433D01*
X176560551Y-112630643D01*
X176794733Y-112066670D01*
X176795265Y-111456009D01*
X176749515Y-111345287D01*
X179848917Y-108245885D01*
X180013453Y-108314206D01*
X180663694Y-108314774D01*
X181264655Y-108066462D01*
X181724846Y-107607073D01*
X181974206Y-107006547D01*
X181974774Y-106356306D01*
X181726462Y-105755345D01*
X181267073Y-105295154D01*
X180666547Y-105045794D01*
X180016306Y-105045226D01*
X179415345Y-105293538D01*
X178955154Y-105752927D01*
X178705794Y-106353453D01*
X178705226Y-107003694D01*
X178774309Y-107170889D01*
X175674964Y-110270234D01*
X175566670Y-110225267D01*
X174956009Y-110224735D01*
X174391629Y-110457932D01*
X173959449Y-110889357D01*
X173725267Y-111453330D01*
X173724735Y-112063991D01*
X173957932Y-112628371D01*
X174125880Y-112796613D01*
X174124683Y-112796838D01*
X173908559Y-112935910D01*
X173763569Y-113148110D01*
X173712560Y-113400000D01*
X173712560Y-114772638D01*
X173452599Y-115032599D01*
X173287852Y-115279161D01*
X173230000Y-115570000D01*
X173230000Y-118082511D01*
X173039100Y-118003243D01*
X172483339Y-118002758D01*
X171969697Y-118214990D01*
X171576371Y-118607630D01*
X171363243Y-119120900D01*
X171362770Y-119662428D01*
X167325198Y-123700000D01*
X156349171Y-123700000D01*
X156748909Y-123300959D01*
X157074628Y-122516541D01*
X157075370Y-121667185D01*
X156751020Y-120882200D01*
X156150959Y-120281091D01*
X155366541Y-119955372D01*
X154517185Y-119954630D01*
X153732200Y-120278980D01*
X153131091Y-120879041D01*
X152805372Y-121663459D01*
X152804630Y-122512815D01*
X153128980Y-123297800D01*
X153530479Y-123700000D01*
X118674802Y-123700000D01*
X119474589Y-122900213D01*
X123659392Y-122900213D01*
X123728857Y-123142397D01*
X124252302Y-123329144D01*
X124807368Y-123301362D01*
X125191143Y-123142397D01*
X125260608Y-122900213D01*
X124460000Y-122099605D01*
X123659392Y-122900213D01*
X119474589Y-122900213D01*
X119917401Y-122457401D01*
X120082148Y-122210840D01*
X120104274Y-122099605D01*
X120140000Y-121920000D01*
X120140000Y-121712302D01*
X123050856Y-121712302D01*
X123078638Y-122267368D01*
X123237603Y-122651143D01*
X123479787Y-122720608D01*
X124280395Y-121920000D01*
X124639605Y-121920000D01*
X125440213Y-122720608D01*
X125682397Y-122651143D01*
X125827760Y-122243694D01*
X127905226Y-122243694D01*
X128153538Y-122844655D01*
X128612927Y-123304846D01*
X129213453Y-123554206D01*
X129863694Y-123554774D01*
X130464655Y-123306462D01*
X130924846Y-122847073D01*
X131174206Y-122246547D01*
X131174774Y-121596306D01*
X130926462Y-120995345D01*
X130467073Y-120535154D01*
X129866547Y-120285794D01*
X129216306Y-120285226D01*
X128615345Y-120533538D01*
X128155154Y-120992927D01*
X127905794Y-121593453D01*
X127905226Y-122243694D01*
X125827760Y-122243694D01*
X125869144Y-122127698D01*
X125841362Y-121572632D01*
X125682397Y-121188857D01*
X125440213Y-121119392D01*
X124639605Y-121920000D01*
X124280395Y-121920000D01*
X123479787Y-121119392D01*
X123237603Y-121188857D01*
X123050856Y-121712302D01*
X120140000Y-121712302D01*
X120140000Y-117116661D01*
X123062758Y-117116661D01*
X123274990Y-117630303D01*
X123667630Y-118023629D01*
X123875512Y-118109949D01*
X123669697Y-118194990D01*
X123276371Y-118587630D01*
X123063243Y-119100900D01*
X123062758Y-119656661D01*
X123274990Y-120170303D01*
X123667630Y-120563629D01*
X123859727Y-120643395D01*
X123728857Y-120697603D01*
X123659392Y-120939787D01*
X124460000Y-121740395D01*
X125260608Y-120939787D01*
X125191143Y-120697603D01*
X125050682Y-120647491D01*
X125250303Y-120565010D01*
X125643629Y-120172370D01*
X125856757Y-119659100D01*
X125857242Y-119103339D01*
X125645010Y-118589697D01*
X125252370Y-118196371D01*
X125044488Y-118110051D01*
X125250303Y-118025010D01*
X125643629Y-117632370D01*
X125853995Y-117125750D01*
X128005000Y-117125750D01*
X128005000Y-117866310D01*
X128101673Y-118099699D01*
X128280302Y-118278327D01*
X128513691Y-118375000D01*
X129254250Y-118375000D01*
X129413000Y-118216250D01*
X129413000Y-116967000D01*
X129667000Y-116967000D01*
X129667000Y-118216250D01*
X129825750Y-118375000D01*
X130566309Y-118375000D01*
X130799698Y-118278327D01*
X130978327Y-118099699D01*
X131075000Y-117866310D01*
X131075000Y-117125750D01*
X130916250Y-116967000D01*
X129667000Y-116967000D01*
X129413000Y-116967000D01*
X128163750Y-116967000D01*
X128005000Y-117125750D01*
X125853995Y-117125750D01*
X125856757Y-117119100D01*
X125857242Y-116563339D01*
X125645010Y-116049697D01*
X125409415Y-115813690D01*
X128005000Y-115813690D01*
X128005000Y-116554250D01*
X128163750Y-116713000D01*
X129413000Y-116713000D01*
X129413000Y-115463750D01*
X129667000Y-115463750D01*
X129667000Y-116713000D01*
X130916250Y-116713000D01*
X131075000Y-116554250D01*
X131075000Y-115813690D01*
X130978327Y-115580301D01*
X130799698Y-115401673D01*
X130566309Y-115305000D01*
X129825750Y-115305000D01*
X129667000Y-115463750D01*
X129413000Y-115463750D01*
X129254250Y-115305000D01*
X128513691Y-115305000D01*
X128280302Y-115401673D01*
X128101673Y-115580301D01*
X128005000Y-115813690D01*
X125409415Y-115813690D01*
X125252370Y-115656371D01*
X124739100Y-115443243D01*
X124183339Y-115442758D01*
X123669697Y-115654990D01*
X123276371Y-116047630D01*
X123063243Y-116560900D01*
X123062758Y-117116661D01*
X120140000Y-117116661D01*
X120140000Y-106956661D01*
X123062758Y-106956661D01*
X123274990Y-107470303D01*
X123667630Y-107863629D01*
X123875512Y-107949949D01*
X123669697Y-108034990D01*
X123276371Y-108427630D01*
X123063243Y-108940900D01*
X123062758Y-109496661D01*
X123274990Y-110010303D01*
X123667630Y-110403629D01*
X123875512Y-110489949D01*
X123669697Y-110574990D01*
X123276371Y-110967630D01*
X123063243Y-111480900D01*
X123062758Y-112036661D01*
X123274990Y-112550303D01*
X123667630Y-112943629D01*
X124180900Y-113156757D01*
X124736661Y-113157242D01*
X125250303Y-112945010D01*
X125643629Y-112552370D01*
X125856757Y-112039100D01*
X125857060Y-111691862D01*
X129002599Y-114837401D01*
X129249161Y-115002148D01*
X129540000Y-115060000D01*
X131765198Y-115060000D01*
X138134115Y-121428917D01*
X138065794Y-121593453D01*
X138065226Y-122243694D01*
X138313538Y-122844655D01*
X138772927Y-123304846D01*
X139373453Y-123554206D01*
X140023694Y-123554774D01*
X140624655Y-123306462D01*
X141084846Y-122847073D01*
X141334206Y-122246547D01*
X141334774Y-121596306D01*
X141086462Y-120995345D01*
X140627073Y-120535154D01*
X140026547Y-120285794D01*
X139376306Y-120285226D01*
X139209111Y-120354309D01*
X132617401Y-113762599D01*
X132370839Y-113597852D01*
X132080000Y-113540000D01*
X129854802Y-113540000D01*
X129709441Y-113394639D01*
X129863694Y-113394774D01*
X130464655Y-113146462D01*
X130924846Y-112687073D01*
X131174206Y-112086547D01*
X131174208Y-112083694D01*
X138065226Y-112083694D01*
X138313538Y-112684655D01*
X138772927Y-113144846D01*
X138940000Y-113214221D01*
X138940000Y-115517066D01*
X138584519Y-115754591D01*
X138251773Y-116252581D01*
X138134928Y-116840000D01*
X138251773Y-117427419D01*
X138584519Y-117925409D01*
X139082509Y-118258155D01*
X139669928Y-118375000D01*
X139730072Y-118375000D01*
X140317491Y-118258155D01*
X140815481Y-117925409D01*
X141148227Y-117427419D01*
X141265072Y-116840000D01*
X141148227Y-116252581D01*
X140815481Y-115754591D01*
X140460000Y-115517066D01*
X140460000Y-113214496D01*
X140624655Y-113146462D01*
X141084846Y-112687073D01*
X141334206Y-112086547D01*
X141334774Y-111436306D01*
X141086462Y-110835345D01*
X140627073Y-110375154D01*
X140026547Y-110125794D01*
X139376306Y-110125226D01*
X138775345Y-110373538D01*
X138315154Y-110832927D01*
X138065794Y-111433453D01*
X138065226Y-112083694D01*
X131174208Y-112083694D01*
X131174774Y-111436306D01*
X130926462Y-110835345D01*
X130467073Y-110375154D01*
X130300000Y-110305779D01*
X130300000Y-108134496D01*
X130464655Y-108066462D01*
X130924846Y-107607073D01*
X131174206Y-107006547D01*
X131174208Y-107003694D01*
X138065226Y-107003694D01*
X138313538Y-107604655D01*
X138772927Y-108064846D01*
X139373453Y-108314206D01*
X140023694Y-108314774D01*
X140624655Y-108066462D01*
X140859363Y-107832163D01*
X169207443Y-107832163D01*
X169306042Y-108098965D01*
X169915582Y-108325401D01*
X170565377Y-108301341D01*
X171053958Y-108098965D01*
X171152557Y-107832163D01*
X170180000Y-106859605D01*
X169207443Y-107832163D01*
X140859363Y-107832163D01*
X141084846Y-107607073D01*
X141334206Y-107006547D01*
X141334722Y-106415582D01*
X168534599Y-106415582D01*
X168558659Y-107065377D01*
X168761035Y-107553958D01*
X169027837Y-107652557D01*
X170000395Y-106680000D01*
X170359605Y-106680000D01*
X171332163Y-107652557D01*
X171598965Y-107553958D01*
X171825401Y-106944418D01*
X171801341Y-106294623D01*
X171598965Y-105806042D01*
X171332163Y-105707443D01*
X170359605Y-106680000D01*
X170000395Y-106680000D01*
X169027837Y-105707443D01*
X168761035Y-105806042D01*
X168534599Y-106415582D01*
X141334722Y-106415582D01*
X141334774Y-106356306D01*
X141086462Y-105755345D01*
X140859351Y-105527837D01*
X169207443Y-105527837D01*
X170180000Y-106500395D01*
X171152557Y-105527837D01*
X171053958Y-105261035D01*
X170444418Y-105034599D01*
X169794623Y-105058659D01*
X169306042Y-105261035D01*
X169207443Y-105527837D01*
X140859351Y-105527837D01*
X140627073Y-105295154D01*
X140026547Y-105045794D01*
X139376306Y-105045226D01*
X138775345Y-105293538D01*
X138315154Y-105752927D01*
X138065794Y-106353453D01*
X138065226Y-107003694D01*
X131174208Y-107003694D01*
X131174774Y-106356306D01*
X130926462Y-105755345D01*
X130467073Y-105295154D01*
X129866547Y-105045794D01*
X129216306Y-105045226D01*
X128615345Y-105293538D01*
X128155154Y-105752927D01*
X127905794Y-106353453D01*
X127905226Y-107003694D01*
X128153538Y-107604655D01*
X128612927Y-108064846D01*
X128780000Y-108134221D01*
X128780000Y-110305504D01*
X128615345Y-110373538D01*
X128155154Y-110832927D01*
X127905794Y-111433453D01*
X127905657Y-111590855D01*
X125844183Y-109529381D01*
X125856757Y-109499100D01*
X125857242Y-108943339D01*
X125645010Y-108429697D01*
X125252370Y-108036371D01*
X125044488Y-107950051D01*
X125250303Y-107865010D01*
X125643629Y-107472370D01*
X125856757Y-106959100D01*
X125857242Y-106403339D01*
X125645010Y-105889697D01*
X125252370Y-105496371D01*
X124739100Y-105283243D01*
X124183339Y-105282758D01*
X123669697Y-105494990D01*
X123276371Y-105887630D01*
X123063243Y-106400900D01*
X123062758Y-106956661D01*
X120140000Y-106956661D01*
X120140000Y-80810633D01*
X120463201Y-80944838D01*
X120835167Y-80945162D01*
X121178943Y-80803117D01*
X121442192Y-80540327D01*
X121584838Y-80196799D01*
X121585162Y-79824833D01*
X121443117Y-79481057D01*
X121410000Y-79447882D01*
X121410000Y-77470000D01*
X121352148Y-77179161D01*
X121187401Y-76932599D01*
X115060000Y-70805198D01*
X115060000Y-69869262D01*
X115359670Y-69669029D01*
X115570000Y-69354248D01*
X115780330Y-69669029D01*
M02*
