M48
;DRILL file {KiCad 4.0.7} date 
;FORMAT={-:-/ absolute / metric / decimal}
FMAT,2
METRIC,TZ
T1C0.400
T2C0.762
T3C0.800
T4C0.900
T5C1.001
T6C1.016
T7C1.500
T8C3.200
%
G90
G05
M71
T1
X99.06Y-88.9
X100.33Y-90.17
X104.14Y-91.44
X104.14Y-106.68
X105.41Y-81.28
X106.68Y-76.2
X107.95Y-92.71
X109.22Y-93.98
X110.49Y-71.12
X111.76Y-81.28
X115.57Y-82.55
X118.11Y-81.28
X120.65Y-80.01
X127.Y-80.01
X129.54Y-81.28
X132.08Y-82.55
X135.89Y-83.82
X137.16Y-88.9
X138.43Y-82.55
X142.24Y-90.17
X146.05Y-93.98
X147.32Y-82.55
X148.59Y-91.44
X149.86Y-83.82
X151.13Y-71.12
X151.13Y-76.2
X154.94Y-92.71
T2
X172.76Y-119.4
X172.76Y-121.9
X175.26Y-119.4
X175.26Y-121.9
X177.76Y-119.4
X177.76Y-121.9
T3
X96.52Y-78.74
X96.52Y-86.36
X96.52Y-96.52
X96.52Y-104.14
X96.52Y-114.3
X96.52Y-121.92
X99.06Y-78.74
X99.06Y-86.36
X99.06Y-96.52
X99.06Y-104.14
X99.06Y-114.3
X99.06Y-121.92
X101.6Y-78.74
X101.6Y-86.36
X101.6Y-96.52
X101.6Y-104.14
X101.6Y-114.3
X101.6Y-121.92
X104.14Y-78.74
X104.14Y-86.36
X104.14Y-96.52
X104.14Y-104.14
X104.14Y-114.3
X104.14Y-121.92
X106.68Y-78.74
X106.68Y-86.36
X106.68Y-96.52
X106.68Y-104.14
X106.68Y-114.3
X106.68Y-121.92
X109.22Y-78.74
X109.22Y-86.36
X109.22Y-96.52
X109.22Y-104.14
X109.22Y-114.3
X109.22Y-121.92
X111.76Y-78.74
X111.76Y-86.36
X111.76Y-96.52
X111.76Y-104.14
X111.76Y-114.3
X111.76Y-121.92
X114.3Y-83.86
X114.3Y-86.36
X114.3Y-101.64
X114.3Y-104.14
X114.3Y-119.42
X114.3Y-121.92
X124.46Y-78.74
X124.46Y-86.36
X124.46Y-106.68
X124.46Y-109.22
X124.46Y-111.76
X124.46Y-116.84
X124.46Y-119.38
X124.46Y-121.92
X127.Y-78.74
X127.Y-86.36
X129.54Y-78.74
X129.54Y-86.36
X132.08Y-78.74
X132.08Y-86.36
X134.62Y-78.74
X134.62Y-86.36
X137.16Y-78.74
X137.16Y-86.36
X139.7Y-78.74
X139.7Y-86.36
X142.24Y-78.74
X142.24Y-86.36
X144.78Y-78.74
X144.78Y-86.36
X147.32Y-78.74
X147.32Y-86.36
X149.86Y-78.74
X149.86Y-86.36
X152.4Y-78.74
X152.4Y-86.36
X154.94Y-78.74
X154.94Y-86.36
X157.48Y-78.74
X157.48Y-86.36
X160.02Y-83.86
X160.02Y-86.36
T4
X129.54Y-96.52
X129.54Y-116.84
X139.7Y-96.52
X139.7Y-116.84
X175.26Y-111.76
X175.26Y-114.3
T5
X129.54Y-101.6
X129.54Y-106.68
X129.54Y-111.76
X129.54Y-121.92
X129.54Y-127.
X139.7Y-101.6
X139.7Y-106.68
X139.7Y-111.76
X139.7Y-121.92
X139.7Y-127.
X170.18Y-91.44
X170.18Y-96.52
X170.18Y-101.6
X170.18Y-106.68
X180.34Y-91.44
X180.34Y-96.52
X180.34Y-101.6
X180.34Y-106.68
T6
X106.68Y-66.04
X106.68Y-68.58
X109.22Y-66.04
X109.22Y-68.58
X111.76Y-66.04
X111.76Y-68.58
X114.3Y-66.04
X114.3Y-68.58
X116.84Y-66.04
X116.84Y-68.58
X119.38Y-66.04
X119.38Y-68.58
X121.92Y-66.04
X121.92Y-68.58
X124.46Y-66.04
X124.46Y-68.58
X127.Y-66.04
X127.Y-68.58
X129.54Y-66.04
X129.54Y-68.58
X132.08Y-66.04
X132.08Y-68.58
X134.62Y-66.04
X134.62Y-68.58
X137.16Y-66.04
X137.16Y-68.58
X139.7Y-66.04
X139.7Y-68.58
X142.24Y-66.04
X142.24Y-68.58
X144.78Y-66.04
X144.78Y-68.58
X147.32Y-66.04
X147.32Y-68.58
X149.86Y-66.04
X149.86Y-68.58
X152.4Y-66.04
X152.4Y-68.58
X154.94Y-66.04
X154.94Y-68.58
X157.48Y-66.04
X157.48Y-68.58
X160.02Y-66.04
X160.02Y-68.58
X162.56Y-66.04
X162.56Y-68.58
X165.1Y-66.04
X165.1Y-68.58
X167.64Y-66.04
X167.64Y-68.58
T7
X154.94Y-101.6
X154.94Y-122.09
T8
X93.98Y-63.5
X93.98Y-129.54
X182.88Y-63.5
X182.88Y-129.54
T0
M30
